<svg width="800" height="800" viewBox="-0.4389619845151901 -0.25721813917160036 0.8779239690303802 0.5144362783432007" xmlns="http://www.w3.org/2000/svg"><g stroke-width=".014" stroke="#050505" fill="none" stroke-linejoin="round" stroke-linecap="round"><path d="M-.376-.124l.008-.006.008-.006.008-.006.008-.006.008-.006.008-.006.008-.006.008-.006.008-.007.008-.006.007-.006.008-.006.009-.006.008-.005.008-.006.009-.005.008-.005.01-.005.008-.004.01-.003.01-.002.01-.002h.01l.01.002.008.004.009.006.007.007.006.008.005.009.004.009.003.01.003.009.002.01.002.01.001.01.001.01.001.01v.05l-.001.009-.002.01-.001.01-.002.01-.002.01-.002.01-.003.009-.003.01L-.14.01l-.005.01-.005.008-.007.007-.007.007L-.17.05l-.008.005-.009.005-.009.004-.009.004-.01.003-.009.003-.01.003-.01.002-.01.001-.01.002h-.01l-.01.001h-.03L-.323.08h-.011l-.01-.003-.01-.002L-.362.07l-.01-.003L-.38.062-.389.057-.397.05-.404.043-.41.035-.415.027l-.004-.01-.002-.01v-.02l.001-.01.002-.01.002-.009.002-.01.002-.01.003-.009.003-.01.004-.009.004-.009.005-.008.006-.009.007-.007.007-.007.008-.006.009-.005.01-.003.009-.003h.01l.01-.001h.01l.01.002.01.002.008.004.008.007.007.007.006.008.006.008.005.009.004.008.005.01.003.009.004.01.003.009.002.01.002.01.002.01v.028l-.002.01-.004.009-.006.008-.007.007-.01.004-.01.001h-.03L-.3.04-.31.037-.317.032-.325.025-.33.016-.334.007l-.001-.01v-.01l.001-.01.003-.01.003-.009.003-.01.005-.008.005-.009.005-.008.007-.008.007-.007.008-.001.006.007.004.01v.01l-.005.007m.161-.116l.01-.001.01-.003.01-.003.009-.004.009-.003.01-.004.009-.003.009-.004.01-.003.009-.003.01-.003.01-.002.01-.001h.01l.008.004.005.008.002.01v.05l-.001.01v.01l-.001.01-.001.01v.06l-.003.01-.004.009-.007.007-.008.005-.01.001-.01-.003-.008-.005-.008-.006-.007-.007-.007-.007-.006-.008-.006-.008-.005-.009L-.07-.07l-.005-.008-.003-.01-.004-.01-.002-.009.001-.01.008-.006.008-.006.009-.005.008-.005.01-.004.009-.004h.01l.004.008v.02l-.003.01-.004.008-.005.009-.008.005-.006-.007-.002-.01m.08-.041h.01l.01-.002.01-.002.01-.002.01-.003.009-.003.01-.003.009-.002.01-.003.01-.003.009-.002.01-.002.01-.002h.03l.01.002.009.003.009.004.009.005.007.006.006.008.006.008.004.01.004.009.003.01.003.009.002.01.001.01.001.01.001.01v.04l-.002.01L.264 0 .26.008v.011L.255.028.25.037.244.045.238.052.23.058.22.063.21.067.2.069H.193L.182.07h-.01L.162.066.152.065.142.062.134.06.124.055.115.051.106.046.098.042.089.036.081.031.072.025.064.02.057.013.049.006.042-.001.036-.01.03-.018v-.01l.002-.009.005-.009.007-.007.007-.007.008-.006.008-.006.009-.005.009-.004.01-.003.009-.003.01-.001h.01l.009.004.006.008.006.008.005.009.004.009.002.01-.002.01-.006.006-.01.004-.01.001L.12-.02.11-.023.103-.03m-.21.09v.03l.001.01v.01l.002.01.001.01.002.01.002.01.003.009.004.009.004.009.006.008.006.008.008.006.008.005.01.005.009.003.01.003.009.003.01.001.01.002h.01l.01.002h.03l.01.001h.01l.01.001.01.001.01.001.01.001h.01l.01.001h.01l.01-.002.008-.004.005-.008.002-.01v-.01L.16.185v-.01L.155.166.15.157.145.15.139.14.133.133.126.125.12.118.112.111.104.105.097.099.089.093.08.087.072.082.062.077.055.073.044.07.034.067h-.01l-.01.002-.008.005L0 .08l-.003.01-.002.01v.01l.001.01L0 .13l.006.003.002-.01"/><path d="M.211.116h.01l.01-.001.01-.002.01-.002.01-.001.01-.002.01-.002.01-.002L.3.103.31.1h.01L.33.098h.01L.35.097h.02L.38.1l.01.003.009.004.008.006.006.008.004.008.002.01v.01L.417.16.413.17.408.178.403.186.396.194.39.2.382.207.375.213.366.22.358.224.348.23.34.233.33.236.32.238.31.24H.3L.29.238.282.235.273.23.265.223.258.216.25.21.245.201.239.193.234.184.23.175.226.166.224.156.222.146.22.137v-.03l.002-.01.002-.009.003-.01.003-.01L.235.06.238.05.242.04.247.031.25.022.256.014.261.005l.006-.008.005-.009.006-.008.006-.008.006-.008.006-.008.007-.008.006-.007.007-.008.006-.007.007-.007.007-.007.008-.007.007-.007.007-.007.008-.007.007-.006.008-.007.008-.006.008-.006.008-.006.008-.005.008-.006"/></g></svg>