<svg width="800" height="800" viewBox="-0.4389619845151901 -0.25721813917160036 0.8779239690303802 0.5144362783432007" xmlns="http://www.w3.org/2000/svg" xmlns:xlink="http://www.w3.org/1999/xlink"><defs><clipPath id="circle" clipPathUnits="objectBoundingBox"><circle cx=".5" cy=".5" r=".5" /></clipPath></defs><g transform="scale(1.0 -1.0)"><path stroke-width="0.0144" stroke="#050505" color_index="0" style="fill: none;stroke-linejoin: round;stroke-linecap: round;" d="M-0.376009464263916,0.12421649694442749 L-0.36774981021881104,0.12985378503799438 L-0.3596106171607971,0.1356601119041443 L-0.35158175230026245,0.1416214108467102 L-0.34362584352493286,0.14767903089523315 L-0.3357759714126587,0.15387409925460815 L-0.327934205532074,0.16007941961288452 L-0.32009249925613403,0.16628485918045044 L-0.3122507333755493,0.1724901795387268 L-0.3044089674949646,0.17869561910629272 L-0.29649996757507324,0.18481391668319702 L-0.28850752115249634,0.1908239722251892 L-0.2805151343345642,0.1968340277671814 L-0.27245134115219116,0.20274466276168823 L-0.26419687271118164,0.20838946104049683 L-0.2558807134628296,0.2139388918876648 L-0.24734698235988617,0.21915191411972046 L-0.2386426478624344,0.2240658402442932 L-0.22975365817546844,0.22863882780075073 L-0.22061778604984283,0.23270457983016968 L-0.21119163930416107,0.2360435128211975 L-0.20149825513362885,0.238483726978302 L-0.19158615171909332,0.23971813917160034 L-0.181605264544487,0.23953360319137573 L-0.17183543741703033,0.23753505945205688 L-0.1626385897397995,0.2336612343788147 L-0.1544216126203537,0.22800427675247192 L-0.1472652107477188,0.22105032205581665 L-0.14126090705394745,0.21307045221328735 L-0.1362638920545578,0.2044174075126648 L-0.13215403258800507,0.19530349969863892 L-0.1287979632616043,0.18588382005691528 L-0.12606720626354218,0.17626529932022095 L-0.12384717166423798,0.16651815176010132 L-0.12204067409038544,0.15668684244155884 L-0.12056751549243927,0.14679723978042603 L-0.11956138908863068,0.13684803247451782 L-0.11884839832782745,0.12687641382217407 L-0.11833442747592926,0.11688965559005737 L-0.11828546226024628,0.10688990354537964 L-0.11838172376155853,0.09689253568649292 L-0.1187974065542221,0.08690124750137329 L-0.11947588622570038,0.07692688703536987 L-0.1203480213880539,0.06696492433547974 L-0.12161140143871307,0.05704653263092041 L-0.12301839888095856,0.047147512435913086 L-0.12483935058116913,0.03731471300125122 L-0.12693171203136444,0.027539610862731934 L-0.12928010523319244,0.017819643020629883 L-0.13217772543430328,0.008248627185821533 L-0.13548023998737335,-0.0011851787567138672 L-0.13930077850818634,-0.010419070720672607 L-0.14380203187465668,-0.01933872699737549 L-0.14917348325252533,-0.027756690979003906 L-0.15555642545223236,-0.03543943166732788 L-0.16274748742580414,-0.04237622022628784 L-0.17058207094669342,-0.04858279228210449 L-0.1789187341928482,-0.0541003942489624 L-0.18764175474643707,-0.05898493528366089 L-0.19666029512882233,-0.06329703330993652 L-0.20590542256832123,-0.06709623336791992 L-0.21532584726810455,-0.07043707370758057 L-0.22488464415073395,-0.07336688041687012 L-0.2345803827047348,-0.07581490278244019 L-0.24437563121318817,-0.07781505584716797 L-0.2542320489883423,-0.07948106527328491 L-0.2641422748565674,-0.0808185338973999 L-0.2741100788116455,-0.08161622285842896 L-0.28409433364868164,-0.08210211992263794 L-0.2940914034843445,-0.0822712779045105 L-0.3040856122970581,-0.08192992210388184 L-0.31405389308929443,-0.08118200302124023 L-0.3239861726760864,-0.08005577325820923 L-0.3338656425476074,-0.07851040363311768 L-0.3436276316642761,-0.07634192705154419 L-0.35325759649276733,-0.07366210222244263 L-0.36270976066589355,-0.07041734457015991 L-0.371917724609375,-0.06653648614883423 L-0.38079243898391724,-0.061946749687194824 L-0.38921940326690674,-0.056581318378448486 L-0.39705848693847656,-0.050390005111694336 L-0.40414905548095703,-0.043351829051971436 L-0.41016829013824463,-0.035381436347961426 L-0.4150059223175049,-0.02664625644683838 L-0.4185938835144043,-0.0173262357711792 L-0.4206896424293518,-0.007561683654785156 L-0.4214619994163513,0.0023961663246154785 L-0.42106854915618896,0.012377321720123291 L-0.4197860360145569,0.02229011058807373 L-0.4183191657066345,0.03218185901641846 L-0.4164448380470276,0.042002737522125244 L-0.4144054651260376,0.051790714263916016 L-0.41190582513809204,0.06147325038909912 L-0.4090290665626526,0.07104605436325073 L-0.4057609438896179,0.08049207925796509 L-0.4020041227340698,0.08975774049758911 L-0.3976249694824219,0.09874790906906128 L-0.3925848603248596,0.10738319158554077 L-0.3868512511253357,0.11557286977767944 L-0.38031917810440063,0.12313848733901978 L-0.37296974658966064,0.12990707159042358 L-0.3648720979690552,0.13575321435928345 L-0.3561163544654846,0.14055770635604858 L-0.3468233346939087,0.14422613382339478 L-0.3371158838272095,0.1465957760810852 L-0.3272096514701843,0.14788967370986938 L-0.3172236680984497,0.14819520711898804 L-0.307248055934906,0.1476232409477234 L-0.29734373092651367,0.14629417657852173 L-0.2875887155532837,0.14416927099227905 L-0.2787250876426697,0.13963133096694946 L-0.270896852016449,0.13343435525894165 L-0.26404231786727905,0.12616246938705444 L-0.2578681707382202,0.11830395460128784 L-0.2522662281990051,0.11002582311630249 L-0.24714712798595428,0.101437509059906 L-0.24253077805042267,0.09256678819656372 L-0.23837216198444366,0.08347529172897339 L-0.2345838099718094,0.07422536611557007 L-0.23115243017673492,0.06483489274978638 L-0.22819571197032928,0.055281996726989746 L-0.22572766244411469,0.04559427499771118 L-0.22370563447475433,0.03580641746520996 L-0.2222079187631607,0.025924623012542725 L-0.22134841978549957,0.01596623659133911 L-0.22128130495548248,0.005971848964691162 L-0.2222011834383011,-0.003976404666900635 L-0.22433318197727203,-0.013730943202972412 L-0.22798405587673187,-0.02301466464996338 L-0.23365552723407745,-0.031218647956848145 L-0.241331085562706,-0.037558138370513916 L-0.2504693269729614,-0.04150211811065674 L-0.2602909803390503,-0.04324066638946533 L-0.2702786922454834,-0.04373437166213989 L-0.28027474880218506,-0.04353666305541992 L-0.2902207374572754,-0.042530834674835205 L-0.29997187852859497,-0.040353357791900635 L-0.30931979417800903,-0.03684800863265991 L-0.3178793787956238,-0.03173649311065674 L-0.32512348890304565,-0.024876654148101807 L-0.3303984999656677,-0.016411125659942627 L-0.3336692452430725,-0.006994903087615967 L-0.33515655994415283,0.00287783145904541 L-0.3350444436073303,0.012864768505096436 L-0.33372271060943604,0.022767722606658936 L-0.3314489722251892,0.03249704837799072 L-0.328366219997406,0.04200214147567749 L-0.3245820999145508,0.051250994205474854 L-0.3201674818992615,0.060216426849365234 L-0.3151567578315735,0.06886297464370728 L-0.3095453977584839,0.07713204622268677 L-0.30328601598739624,0.08492034673690796 L-0.29629117250442505,0.09205073118209839 L-0.28778284788131714,0.0934101939201355 L-0.2817058563232422,0.08557087182998657 L-0.2782166004180908,0.076244056224823 L-0.27776801586151123,0.06635135412216187 L-0.28335464000701904,0.05850499868392944"></path><path stroke-width="0.0144" stroke="#050505" color_index="0" style="fill: none;stroke-linejoin: round;stroke-linecap: round;" d="M-0.12189887464046478,0.1750386357307434 L-0.112012580037117,0.1764238476753235 L-0.10235978662967682,0.1790178418159485 L-0.09287624061107635,0.18218392133712769 L-0.08345888555049896,0.1855444312095642 L-0.07410557568073273,0.18908220529556274 L-0.06475229561328888,0.19262009859085083 L-0.055398985743522644,0.19615787267684937 L-0.04602646827697754,0.1996421217918396 L-0.036561787128448486,0.20287007093429565 L-0.027097105979919434,0.2060980200767517 L-0.017478585243225098,0.2088220715522766 L-0.007749542593955994,0.21109873056411743 L0.0021398961544036865,0.21248716115951538 L0.012103080749511719,0.21227186918258667 L0.0211268812417984,0.2083025574684143 L0.025703907012939453,0.1995801329612732 L0.027621939778327942,0.18978005647659302 L0.028409093618392944,0.17981261014938354 L0.028629004955291748,0.16981500387191772 L0.02846495807170868,0.1598178744316101 L0.028160259127616882,0.1498231291770935 L0.027630046010017395,0.13983720541000366 L0.026954054832458496,0.12986034154891968 L0.026250913739204407,0.11988502740859985 L0.02554778754711151,0.10990983247756958 L0.024844661355018616,0.0999346375465393 L0.024632051587104797,0.08993977308273315 L0.025047138333320618,0.07994908094406128 L0.025510460138320923,0.06995981931686401 L0.02574634552001953,0.05996614694595337 L0.025667548179626465,0.049966514110565186 L0.02457830309867859,0.04003000259399414 L0.022029846906661987,0.03037816286087036 L0.017697185277938843,0.02139955759048462 L0.01139765977859497,0.013697266578674316 L0.0028678923845291138,0.008656561374664307 L-0.007015138864517212,0.00797724723815918 L-0.016549676656723022,0.010837376117706299 L-0.025215178728103638,0.01579529047012329 L-0.033116236329078674,0.021911561489105225 L-0.040316492319107056,0.028847038745880127 L-0.04699626564979553,0.036286890506744385 L-0.053185924887657166,0.04414111375808716 L-0.05889897048473358,0.052346646785736084 L-0.06420405209064484,0.06081855297088623 L-0.0691022127866745,0.06953102350234985 L-0.07355262339115143,0.07848149538040161 L-0.07745148241519928,0.0876876711845398 L-0.0805903822183609,0.0971783995628357 L-0.08258746564388275,0.10696285963058472 L-0.08159507811069489,0.11654776334762573 L-0.07423509657382965,0.12326270341873169 L-0.06603537499904633,0.12897568941116333 L-0.057489290833473206,0.13415950536727905 L-0.04871070384979248,0.13893884420394897 L-0.03969775140285492,0.14326339960098267 L-0.03034217655658722,0.14677053689956665 L-0.020564943552017212,0.14790159463882446 L-0.01633375883102417,0.13933318853378296 L-0.0154389888048172,0.12941056489944458 L-0.01645059883594513,0.11947709321975708 L-0.019009143114089966,0.10982400178909302 L-0.022884607315063477,0.1006208062171936 L-0.02821744978427887,0.09219998121261597 L-0.036285921931266785,0.08681851625442505 L-0.0424942672252655,0.0937243103981018 L-0.04395236074924469,0.10359746217727661"></path><path stroke-width="0.0144" stroke="#050505" color_index="0" style="fill: none;stroke-linejoin: round;stroke-linecap: round;" d="M0.03505183756351471,0.1451433300971985 L0.04503658413887024,0.14564436674118042 L0.0549544095993042,0.14690762758255005 L0.06477977335453033,0.1487683653831482 L0.07449142634868622,0.1511501669883728 L0.08414828777313232,0.15374261140823364 L0.09372851252555847,0.15660852193832397 L0.10329889506101608,0.15950816869735718 L0.1128692775964737,0.16240781545639038 L0.12245343625545502,0.16525870561599731 L0.1321241557598114,0.16780370473861694 L0.14179646968841553,0.17034178972244263 L0.15161298215389252,0.17224866151809692 L0.16149577498435974,0.17373377084732056 L0.17144975066184998,0.17460960149765015 L0.1814408302307129,0.1747148633003235 L0.19139933586120605,0.17391842603683472 L0.20122678577899933,0.17212921380996704 L0.21080824732780457,0.16930514574050903 L0.22002822160720825,0.16545623540878296 L0.2285761833190918,0.1603139042854309 L0.23604601621627808,0.1536906361579895 L0.24240224063396454,0.14598840475082397 L0.24769867956638336,0.13751620054244995 L0.25215163826942444,0.12857145071029663 L0.25586825609207153,0.11929506063461304 L0.25895315408706665,0.10978859663009644 L0.26150059700012207,0.10012191534042358 L0.26356613636016846,0.09033757448196411 L0.2650761008262634,0.08045297861099243 L0.2662179172039032,0.0705220103263855 L0.26703310012817383,0.06055784225463867 L0.26741981506347656,0.05056530237197876 L0.2673947811126709,0.040567994117736816 L0.2670716941356659,0.030576467514038086 L0.26636403799057007,0.020601511001586914 L0.26514241099357605,0.01067817211151123 L0.26351505517959595,0.000816643238067627 L0.26138532161712646,-0.00894838571548462 L0.25860679149627686,-0.01854884624481201 L0.254968523979187,-0.027853786945343018 L0.25022217631340027,-0.03663647174835205 L0.24437817931175232,-0.044735610485076904 L0.23756052553653717,-0.05203515291213989 L0.22967515885829926,-0.05816090106964111 L0.2209802269935608,-0.06307011842727661 L0.2116742581129074,-0.06669467687606812 L0.20192788541316986,-0.06888848543167114 L0.19199460744857788,-0.06994378566741943 L0.18200352787971497,-0.06996965408325195 L0.17204895615577698,-0.06909060478210449 L0.1621929407119751,-0.06743258237838745 L0.15247099101543427,-0.065113365650177 L0.14289893209934235,-0.0622372031211853 L0.13347913324832916,-0.05889254808425903 L0.12420585006475449,-0.05515170097351074 L0.11515036970376968,-0.05090910196304321 L0.10625675320625305,-0.04634428024291992 L0.09750386327505112,-0.04151332378387451 L0.08895327895879745,-0.036328136920928955 L0.08061347901821136,-0.030814826488494873 L0.07242625951766968,-0.025077641010284424 L0.06447038054466248,-0.01901930570602417 L0.056801244616508484,-0.012605845928192139 L0.049385324120521545,-0.005904555320739746 L0.042311519384384155,0.0011578798294067383 L0.03578309714794159,0.008721768856048584 L0.0312633216381073,0.017560303211212158 L0.030439019203186035,0.027439117431640625 L0.03312872350215912,0.03701239824295044 L0.03811979293823242,0.045643389225006104 L0.04451969265937805,0.05331021547317505 L0.05177542567253113,0.06017965078353882 L0.05966152250766754,0.06632167100906372 L0.06802648305892944,0.07179659605026245 L0.07677348703145981,0.07663756608963013 L0.08584461361169815,0.0808369517326355 L0.09520789980888367,0.08433359861373901 L0.10484205931425095,0.08699077367782593 L0.11472919583320618,0.08838838338851929 L0.12469162046909332,0.08793681859970093 L0.13364958763122559,0.08381146192550659 L0.14005087316036224,0.07615584135055542 L0.14587585628032684,0.06803566217422485 L0.15103574097156525,0.05948108434677124 L0.15518373250961304,0.050395429134368896 L0.15721750259399414,0.040636658668518066 L0.15546086430549622,0.030926823616027832 L0.14884859323501587,0.023612260818481445 L0.13956725597381592,0.020029842853546143 L0.1296384185552597,0.019024133682250977 L0.11971704661846161,0.02009338140487671 L0.11020488291978836,0.023054003715515137 L0.10275717079639435,0.029417455196380615"></path><path stroke-width="0.0144" stroke="#050505" color_index="0" style="fill: none;stroke-linejoin: round;stroke-linecap: round;" d="M-0.10695116221904755,-0.05963999032974243 L-0.10679255425930023,-0.06963872909545898 L-0.10663394629955292,-0.07963746786117554 L-0.1063748151063919,-0.08963263034820557 L-0.10582314431667328,-0.09961742162704468 L-0.10518880188465118,-0.10959559679031372 L-0.10415847599506378,-0.11954241991043091 L-0.10284940898418427,-0.12945222854614258 L-0.10119487345218658,-0.13931262493133545 L-0.09894673526287079,-0.14905661344528198 L-0.09604986011981964,-0.1586248278617859 L-0.0924052745103836,-0.16793173551559448 L-0.08785007894039154,-0.1768273115158081 L-0.08218936622142792,-0.1850595474243164 L-0.07553012669086456,-0.19250136613845825 L-0.06796412169933319,-0.19902223348617554 L-0.059584155678749084,-0.20446157455444336 L-0.0506281703710556,-0.20889335870742798 L-0.04130196571350098,-0.2124820351600647 L-0.03172941505908966,-0.21535515785217285 L-0.021999984979629517,-0.21765285730361938 L-0.012163057923316956,-0.21945136785507202 L-0.0022524744272232056,-0.22077471017837524 L0.00768616795539856,-0.22185760736465454 L0.017653867602348328,-0.22266042232513428 L0.027636751532554626,-0.22321486473083496 L0.037628114223480225,-0.22363054752349854 L0.04762396216392517,-0.22387844324111938 L0.057623252272605896,-0.22399598360061646 L0.06761761009693146,-0.22427338361740112 L0.07757696509361267,-0.2251388430595398 L0.0875193402171135,-0.2262108325958252 L0.09746170043945312,-0.2272828221321106 L0.1074177548289299,-0.22819948196411133 L0.11739445477724075,-0.2288815975189209 L0.12738025188446045,-0.2292608618736267 L0.13736850023269653,-0.22897863388061523 L0.14723242819309235,-0.22745859622955322 L0.1562262624502182,-0.22334402799606323 L0.16081605851650238,-0.2146625518798828 L0.1627114862203598,-0.20487022399902344 L0.1628722995519638,-0.19488781690597534 L0.1613471508026123,-0.18501955270767212 L0.15854397416114807,-0.1754319667816162 L0.15474115312099457,-0.1661931872367859 L0.15012001991271973,-0.15733271837234497 L0.14483661949634552,-0.14884907007217407 L0.13901853561401367,-0.14072251319885254 L0.13276594877243042,-0.13292467594146729 L0.1261548399925232,-0.12542563676834106 L0.11919693648815155,-0.11824321746826172 L0.11188475787639618,-0.11142414808273315 L0.10433954745531082,-0.10486739873886108 L0.0965762585401535,-0.09856671094894409 L0.08850632607936859,-0.09266096353530884 L0.08019394427537918,-0.08710795640945435 L0.07166074216365814,-0.08190339803695679 L0.06287610530853271,-0.0771327018737793 L0.05379787087440491,-0.07294434309005737 L0.04439030587673187,-0.06956326961517334 L0.03464500606060028,-0.0673554539680481 L0.024688750505447388,-0.06676816940307617 L0.014903143048286438,-0.06854313611984253 L0.006326764822006226,-0.07352566719055176 L0.00015135109424591064,-0.081301748752594 L-0.003438711166381836,-0.09059077501296997 L-0.005094930529594421,-0.10043412446975708 L-0.005081579089164734,-0.1104232668876648 L-0.003842860460281372,-0.1203342080116272 L-0.0010354667901992798,-0.12989962100982666 L0.005075931549072266,-0.13258391618728638 L0.006539061665534973,-0.12272167205810547"></path><path stroke-width="0.0144" stroke="#050505" color_index="0" style="fill: none;stroke-linejoin: round;stroke-linecap: round;" d="M0.21143443882465363,-0.11644113063812256 L0.22140958905220032,-0.11579883098602295 L0.23133563995361328,-0.11458951234817505 L0.24121442437171936,-0.1130373477935791 L0.25105923414230347,-0.11128240823745728 L0.2609040439128876,-0.10952746868133545 L0.2707488536834717,-0.10777252912521362 L0.2805936336517334,-0.1060175895690918 L0.29045403003692627,-0.10435748100280762 L0.3003423511981964,-0.1028670072555542 L0.31023067235946655,-0.10137653350830078 L0.32014408707618713,-0.1000853180885315 L0.33009272813796997,-0.09907293319702148 L0.3400612771511078,-0.09833025932312012 L0.3500506281852722,-0.09786850214004517 L0.36004838347435,-0.0980260968208313 L0.3700169622898102,-0.0987328290939331 L0.37989580631256104,-0.10022246837615967 L0.3895567059516907,-0.1027604341506958 L0.39863497018814087,-0.10689574480056763 L0.40661388635635376,-0.11285710334777832 L0.4130054712295532,-0.12051886320114136 L0.4173397719860077,-0.1294904351234436 L0.41931459307670593,-0.13925009965896606 L0.41905564069747925,-0.14922070503234863 L0.4167804419994354,-0.15894269943237305 L0.41317373514175415,-0.168257474899292 L0.4084068834781647,-0.17704051733016968 L0.40277108550071716,-0.18529510498046875 L0.39647042751312256,-0.19305419921875 L0.38961267471313477,-0.20032691955566406 L0.38227641582489014,-0.20711928606033325 L0.37450939416885376,-0.21341794729232788 L0.3663177490234375,-0.2191528081893921 L0.35777661204338074,-0.22434771060943604 L0.3489075005054474,-0.22895610332489014 L0.3397285044193268,-0.2329077124595642 L0.33026179671287537,-0.23610568046569824 L0.3205430805683136,-0.23842567205429077 L0.31063398718833923,-0.23971813917160034 L0.30064624547958374,-0.23958998918533325 L0.29079023003578186,-0.23800510168075562 L0.2813711166381836,-0.23472487926483154 L0.2727814018726349,-0.22964483499526978 L0.2650618851184845,-0.22329938411712646 L0.2577671408653259,-0.21646779775619507 L0.2509428560733795,-0.20916765928268433 L0.24466414749622345,-0.20139408111572266 L0.239004984498024,-0.1931591033935547 L0.23403288424015045,-0.18449223041534424 L0.22980369627475739,-0.1754397749900818 L0.22635668516159058,-0.16606146097183228 L0.22371138632297516,-0.15642589330673218 L0.22186647355556488,-0.14660519361495972 L0.2208007574081421,-0.13666915893554688 L0.22047598659992218,-0.1266811490058899 L0.2208409309387207,-0.11669427156448364 L0.22183586657047272,-0.1067497730255127 L0.22339695692062378,-0.09687685966491699 L0.22545991837978363,-0.0870932936668396 L0.22808068990707397,-0.07744282484054565 L0.23114314675331116,-0.06792634725570679 L0.23454613983631134,-0.05852717161178589 L0.23824414610862732,-0.04923605918884277 L0.2424149364233017,-0.040147483348846436 L0.24679426848888397,-0.03116077184677124 L0.25141021609306335,-0.022289812564849854 L0.25636887550354004,-0.013607442378997803 L0.26144078373908997,-0.004990339279174805 L0.26683658361434937,0.003428936004638672 L0.27234700322151184,0.011771440505981445 L0.27808907628059387,0.019958555698394775 L0.28397178649902344,0.02804279327392578 L0.29003551602363586,0.035994529724121094 L0.2962372601032257,0.043836772441864014 L0.30260157585144043,0.051550090312957764 L0.30908122658729553,0.059164583683013916 L0.31572848558425903,0.06663542985916138 L0.322456032037735,0.0740322470664978 L0.32937219738960266,0.08125489950180054 L0.33632808923721313,0.08843797445297241 L0.3435027003288269,0.09540396928787231 L0.3506779074668884,0.10236936807632446 L0.3581043481826782,0.1090661883354187 L0.3655308187007904,0.11576300859451294 L0.3731765151023865,0.12220734357833862 L0.3808523416519165,0.12861686944961548 L0.3887346684932709,0.13476866483688354 L0.396661639213562,0.1408647894859314 L0.40481388568878174,0.1466544270515442 L0.4130181670188904,0.1523706316947937 L0.4214619994163513,0.15772801637649536"></path></g></svg>