<svg width="800" height="800" viewBox="-0.38742911994457246 -0.3580091464519501 0.7748582398891449 0.7160182929039002" xmlns="http://www.w3.org/2000/svg" xmlns:xlink="http://www.w3.org/1999/xlink"><defs><clipPath id="circle" clipPathUnits="objectBoundingBox"><circle cx=".5" cy=".5" r=".5" /></clipPath></defs><g transform="scale(1.0 -1.0)"><path stroke-width="0.0144" stroke="#050505" color_index="0" style="fill: none;stroke-linejoin: round;stroke-linecap: round;" d="M-0.36992913484573364,0.11788389086723328 L-0.359940767288208,0.11836013197898865 L-0.3499659299850464,0.11906751990318298 L-0.3399936556816101,0.11981222033500671 L-0.3300214409828186,0.1205568015575409 L-0.3200492262840271,0.12130150198936462 L-0.3100769519805908,0.1220460832118988 L-0.3001047372817993,0.12279078364372253 L-0.2901325225830078,0.12353548407554626 L-0.28016024827957153,0.12428006529808044 L-0.27018803358078003,0.12502476572990417 L-0.2602158188819885,0.1257694661617279 L-0.2502346634864807,0.12638291716575623 L-0.24025295674800873,0.12698695063591003 L-0.23027120530605316,0.1275908648967743 L-0.2202894538640976,0.12819477915763855 L-0.21030770242214203,0.12879881262779236 L-0.20031540095806122,0.1291181743144989 L-0.1903163641691208,0.1292571723461151 L-0.18526716530323029,0.12434622645378113 L-0.18922869861125946,0.11519023776054382 L-0.19446919858455658,0.10667678713798523 L-0.20014043152332306,0.0984404981136322 L-0.20607928931713104,0.09039565920829773 L-0.21213819086551666,0.08244022727012634 L-0.21819712221622467,0.0744846761226654 L-0.2242560237646103,0.06652924418449402 L-0.23029936850070953,0.058562248945236206 L-0.23609741032123566,0.05041477084159851 L-0.24189548194408417,0.042267173528671265 L-0.24734769761562347,0.03388962149620056 L-0.25246989727020264,0.025307267904281616 L-0.2569080591201782,0.016353875398635864 L-0.2601351737976074,0.006909102201461792 L-0.2609167695045471,-0.002977997064590454 L-0.25667864084243774,-0.011797815561294556 L-0.24859820306301117,-0.01764008402824402 L-0.23945830762386322,-0.0216200053691864 L-0.2297181934118271,-0.02381238341331482 L-0.21975813806056976,-0.024567872285842896 L-0.20977647602558136,-0.024073928594589233 L-0.19987715780735016,-0.02270105481147766 L-0.1901012510061264,-0.020617157220840454 L-0.1804618090391159,-0.01796242594718933 L-0.17098768055438995,-0.014762431383132935 L-0.16168181598186493,-0.01110789179801941 L-0.15250864624977112,-0.00713542103767395 L-0.1434493362903595,-0.002901226282119751 L-0.1346142441034317,0.0017828047275543213 L-0.12588359415531158,0.0066529810428619385 L-0.11728815734386444,0.011763602495193481 L-0.10889913141727448,0.01720312237739563 L-0.1006040871143341,0.022785335779190063 L-0.09254045784473419,0.028699487447738647 L-0.08464460074901581,0.03483077883720398 L-0.07689091563224792,0.041145890951156616 L-0.06948961317539215,0.047870129346847534 L-0.0623248815536499,0.05483970046043396 L-0.0554853230714798,0.06212851405143738 L-0.04912024736404419,0.06983610987663269 L-0.04347844421863556,0.07808360457420349 L-0.038963302969932556,0.08698603510856628 L-0.03652283549308777,0.09662792086601257 L-0.03621514141559601,0.1066116988658905 L-0.03726924955844879,0.11654016375541687 L-0.04009631276130676,0.12610694766044617 L-0.044579893350601196,0.13502606749534607 L-0.0506255179643631,0.14297160506248474 L-0.05766817927360535,0.15005621314048767 L-0.06535777449607849,0.156439870595932 L-0.07340225577354431,0.1623750627040863 L-0.08160005509853363,0.16810187697410583 L-0.08979791402816772,0.17382881045341492 L-0.09778307378292084,0.17984434962272644 L-0.10559901595115662,0.18607446551322937 L-0.11288680136203766,0.19291779398918152 L-0.11945539712905884,0.20045003294944763 L-0.12512975931167603,0.2086714208126068 L-0.12981510162353516,0.21749338507652283 L-0.13327884674072266,0.22685977816581726 L-0.13517436385154724,0.23666474223136902 L-0.13570860028266907,0.24663731455802917 L-0.1347934752702713,0.25658294558525085 L-0.13257639110088348,0.2663228213787079 L-0.1292535960674286,0.27574262022972107 L-0.12490688264369965,0.2847388684749603 L-0.11958329379558563,0.2931976020336151 L-0.11302676796913147,0.30073413252830505 L-0.10579608380794525,0.3076413571834564 L-0.09855438768863678,0.3145376145839691 L-0.0918252170085907,0.32193300127983093 L-0.08824978768825531,0.3309273421764374 L-0.09623363614082336,0.3361385762691498 L-0.10603535175323486,0.3379705846309662 L-0.11602026224136353,0.33811041712760925 L-0.12593354284763336,0.33686158061027527 L-0.1356711983680725,0.3346068561077118 L-0.14521920680999756,0.3316449820995331 L-0.15458782017230988,0.32814881205558777 L-0.16373802721500397,0.3241146504878998 L-0.17273537814617157,0.31975671648979187 L-0.18162314593791962,0.3151768147945404 L-0.19034551084041595,0.31028613448143005 L-0.1989675611257553,0.30522415041923523 L-0.20749826729297638,0.30000612139701843 L-0.21594201028347015,0.29465004801750183 L-0.22431840002536774,0.2891882359981537 L-0.23261524736881256,0.2836056649684906 L-0.24091197550296783,0.27802321314811707 L-0.24920867383480072,0.27244076132774353 L-0.25757092237472534,0.26695916056632996 L-0.26555436849594116,0.2609560191631317 L-0.27328795194625854,0.25461623072624207 L-0.2809513211250305,0.24819299578666687 L-0.2885447144508362,0.24168607592582703 L-0.2961381673812866,0.23517903685569763 L-0.3037315011024475,0.22867223620414734 L-0.3111737370491028,0.22199484705924988 L-0.3185466527938843,0.21523913741111755 L-0.325761079788208,0.2083253562450409 L-0.3263791799545288,0.20293769240379333 L-0.31638914346694946,0.20251020789146423 L-0.3063892126083374,0.2025371491909027 L-0.29639285802841187,0.2027352750301361 L-0.2864004969596863,0.2031237781047821 L-0.27641111612319946,0.20357665419578552 L-0.2664296627044678,0.20418331027030945 L-0.2564520239830017,0.20485123991966248 L-0.2464742511510849,0.2055191695690155 L-0.23649661242961884,0.20618709921836853 L-0.22651894390583038,0.206854909658432 L-0.2165413349866867,0.20752283930778503 L-0.2065635770559311,0.20819076895713806 L-0.19657589495182037,0.2086833417415619 L-0.18658702075481415,0.20915445685386658 L-0.17659823596477509,0.20962557196617126 L-0.16660936176776886,0.21009668707847595 L-0.15661117434501648,0.21025678515434265 L-0.14661186933517456,0.2103799283504486 L-0.13661329448223114,0.21041783690452576 L-0.12661685049533844,0.21015378832817078 L-0.11662065982818604,0.2098822295665741 L-0.10664544999599457,0.20917841792106628 L-0.09667608141899109,0.20841369032859802 L-0.08674800395965576,0.20721539855003357 L-0.07685825228691101,0.20576068758964539 L-0.06701245903968811,0.20401152968406677 L-0.057293906807899475,0.20165571570396423 L-0.047703102231025696,0.1988421380519867 L-0.038301020860672,0.1954573094844818 L-0.02917567640542984,0.1913881003856659 L-0.020444929599761963,0.18653282523155212 L-0.012255072593688965,0.18081435561180115 L-0.004804357886314392,0.17417332530021667 L-0.0007722899317741394,0.16517552733421326 L-0.0005637034773826599,0.15520426630973816 L-0.001998230814933777,0.1453171670436859 L-0.004331506788730621,0.13559433817863464 L-0.007190585136413574,0.1260116994380951 L-0.010312244296073914,0.11651262640953064 L-0.013639040291309357,0.10708269476890564 L-0.01703149825334549,0.09767577052116394 L-0.02042391151189804,0.08826884627342224 L-0.023816384375095367,0.07886192202568054 L-0.02704790234565735,0.06939980387687683 L-0.03012263774871826,0.05988416075706482 L-0.03307570517063141,0.05033370852470398 L-0.03552575409412384,0.04063853621482849 L-0.037354737520217896,0.030812352895736694 L-0.03828749060630798,0.020865172147750854 L-0.037446871399879456,0.010930687189102173 L-0.03385522961616516,0.0016860663890838623 L-0.02736801654100418,-0.005858927965164185 L-0.0193575918674469,-0.011819571256637573 L-0.010602809488773346,-0.016641944646835327 L-0.0015119090676307678,-0.02080395817756653 L0.007678069174289703,-0.024746805429458618 L0.016840018332004547,-0.02874895930290222 L0.025732971727848053,-0.03332206606864929 L0.03381368890404701,-0.03920522332191467 L0.041313305497169495,-0.04581299424171448 L0.04805302619934082,-0.05319419503211975 L0.054000675678253174,-0.061224550008773804 L0.05913032218813896,-0.06979873776435852 L0.06342825293540955,-0.07881823182106018 L0.06690595299005508,-0.08818516135215759 L0.06959587335586548,-0.09780862927436829 L0.07154585421085358,-0.10760948061943054 L0.07281310856342316,-0.11752238869667053 L0.0734587162733078,-0.12749609351158142 L0.07354316115379333,-0.13749220967292786 L0.07311815768480301,-0.14748308062553406 L0.07208380848169327,-0.15742912888526917 L0.07062377035617828,-0.16731837391853333 L0.06877721101045609,-0.17714259028434753 L0.0665815994143486,-0.1868983805179596 L0.06375864148139954,-0.1964915692806244 L0.060272376984357834,-0.20586106181144714 L0.05603110417723656,-0.21491321921348572 L0.0509168840944767,-0.223501056432724 L0.04486645385622978,-0.23145297169685364 L0.03793856129050255,-0.2386474907398224 L0.030195318162441254,-0.24495676159858704 L0.021724514663219452,-0.25025394558906555 L0.012621179223060608,-0.2543736398220062 L0.0031249821186065674,-0.2574760615825653 L-0.006633885204792023,-0.2596159279346466 L-0.016546212136745453,-0.2608759105205536 L-0.02652793377637863,-0.2613551914691925 L-0.036520034074783325,-0.26115861535072327 L-0.04648536443710327,-0.26038917899131775 L-0.05640511214733124,-0.25914266705513 L-0.0662526935338974,-0.2574034035205841 L-0.0760125070810318,-0.2552342116832733 L-0.08570823073387146,-0.25279751420021057 L-0.09532196819782257,-0.25004515051841736 L-0.10483333468437195,-0.24696364998817444 L-0.11430750787258148,-0.2437642514705658 L-0.12364250421524048,-0.24017861485481262 L-0.13295495510101318,-0.23653742671012878 L-0.1421438455581665,-0.23259136080741882 L-0.15131251513957977,-0.22860130667686462 L-0.1603529304265976,-0.22432681918144226 L-0.1693933755159378,-0.22005227208137512 L-0.17829041182994843,-0.2154875099658966 L-0.18718214333057404,-0.2109118402004242 L-0.19597776234149933,-0.20615652203559875 L-0.2047206312417984,-0.20130297541618347 L-0.21343524754047394,-0.1963997185230255 L-0.22202931344509125,-0.19128689169883728 L-0.23062346875667572,-0.18617406487464905 L-0.23912440240383148,-0.1809091866016388 L-0.24756796658039093,-0.17555144429206848 L-0.25601160526275635,-0.17019358277320862 L-0.2643052935600281,-0.16460683941841125 L-0.2725939154624939,-0.15901276469230652 L-0.280834436416626,-0.15334877371788025 L-0.288959264755249,-0.14751926064491272 L-0.2970844507217407,-0.1416895091533661 L-0.30508315563201904,-0.13568910956382751 L-0.31302571296691895,-0.12961283326148987 L-0.3209044933319092,-0.12345674633979797 L-0.328624963760376,-0.1171012818813324 L-0.33627110719680786,-0.11065998673439026 L-0.34368300437927246,-0.10394707322120667"></path><path stroke-width="0.0144" stroke="#050505" color_index="0" style="fill: none;stroke-linejoin: round;stroke-linecap: round;" d="M-0.3549814820289612,-0.08241507411003113 L-0.35782909393310547,-0.07282909750938416 L-0.36014479398727417,-0.06310638785362244 L-0.36174702644348145,-0.05324336886405945 L-0.36248695850372314,-0.0432792603969574 L-0.36227166652679443,-0.03328928351402283 L-0.36107951402664185,-0.02336600422859192 L-0.35896116495132446,-0.013595372438430786 L-0.3560252785682678,-0.004036575555801392"></path><path stroke-width="0.0144" stroke="#050505" color_index="0" style="fill: none;stroke-linejoin: round;stroke-linecap: round;" d="M0.16818739473819733,0.007271021604537964 L0.1765175759792328,0.0017385780811309814 L0.18517130613327026,-0.0032654106616973877 L0.19417735934257507,-0.007599145174026489 L0.20353975892066956,-0.011096864938735962 L0.21325469017028809,-0.013427704572677612 L0.2231910079717636,-0.014418572187423706 L0.2331661880016327,-0.013963133096694946 L0.24286629259586334,-0.011600703001022339 L0.25206929445266724,-0.007728606462478638 L0.260395884513855,-0.0022157132625579834 L0.2678803503513336,0.0043960511684417725 L0.27449581027030945,0.011885195970535278 L0.2801826000213623,0.02010592818260193 L0.2851187586784363,0.028797954320907593 L0.2893863022327423,0.03783831000328064 L0.2930622100830078,0.04713746905326843 L0.29612040519714355,0.05665835738182068 L0.2986719608306885,0.06632456183433533 L0.3007984757423401,0.07609137892723083 L0.3025551736354828,0.08593329787254333 L0.30387061834335327,0.09584638476371765 L0.3047659993171692,0.10580369830131531 L0.30539071559906006,0.1157812774181366 L0.30564528703689575,0.12577804923057556 L0.3055126965045929,0.13577470183372498 L0.30516141653060913,0.1457667052745819 L0.3043960928916931,0.15573737025260925 L0.3033306300640106,0.1656772792339325 L0.30205821990966797,0.17559584975242615 L0.3002813458442688,0.18543681502342224 L0.2982856035232544,0.19523224234580994 L0.295997679233551,0.20496699213981628 L0.29325389862060547,0.21458157896995544 L0.2902529835700989,0.22411701083183289 L0.2869209349155426,0.23354551196098328 L0.28310275077819824,0.24278637766838074 L0.2789645791053772,0.25188514590263367 L0.274474561214447,0.2608177363872528 L0.2695133686065674,0.2695002257823944 L0.2640839219093323,0.2778945863246918 L0.25823622941970825,0.2859998643398285 L0.2519448399543762,0.29376503825187683 L0.24519050121307373,0.3011321723461151 L0.23796305060386658,0.30803772807121277 L0.23026396334171295,0.31441542506217957 L0.22210828959941864,0.320199579000473 L0.2135254442691803,0.3253295123577118 L0.2045583575963974,0.3297540843486786 L0.19526150822639465,0.333435982465744 L0.18569719791412354,0.33635374903678894 L0.17593130469322205,0.3385044038295746 L0.16602614521980286,0.3398784101009369 L0.15604695677757263,0.3405091464519501"></path><path stroke-width="0.0144" stroke="#050505" color_index="0" style="fill: none;stroke-linejoin: round;stroke-linecap: round;" d="M0.06056411564350128,0.25689730048179626 L0.07051323354244232,0.2579047381877899 L0.08049270510673523,0.25849148631095886 L0.09048611670732498,0.2587500512599945 L0.1004854217171669,0.25863203406333923 L0.11046723276376724,0.258066862821579 L0.12042815238237381,0.25722381472587585 L0.1303527057170868,0.25599774718284607 L0.14019730687141418,0.25425347685813904 L0.14995764195919037,0.25210198760032654 L0.159593865275383,0.2494489848613739 L0.16903752088546753,0.24617311358451843 L0.17817813158035278,0.2421306073665619 L0.18684789538383484,0.23716720938682556 L0.19480930268764496,0.23114237189292908 L0.20164653658866882,0.2238818109035492 L0.20672212541103363,0.21529468894004822 L0.2094428688287735,0.2057107388973236 L0.20979171991348267,0.19575485587120056 L0.2081109583377838,0.18591544032096863 L0.20484420657157898,0.17647799849510193 L0.2004477083683014,0.16750523447990417 L0.19527602195739746,0.15895435214042664 L0.18954767286777496,0.1507616937160492 L0.18324875831604004,0.14300188422203064 L0.1762838214635849,0.13584062457084656 L0.16859877109527588,0.1294552981853485 L0.16026192903518677,0.12394353747367859 L0.15137919783592224,0.11936041712760925 L0.1421353816986084,0.11555871367454529 L0.13264431059360504,0.11242005228996277 L0.12300251424312592,0.10976871848106384 L0.11325475573539734,0.10753843188285828 L0.10349642485380173,0.10535308718681335 L0.09374627470970154,0.10313567519187927 L0.08412057906389236,0.10042533278465271 L0.07469719648361206,0.09711405634880066 L0.06573539227247238,0.09270665049552917 L0.057820260524749756,0.08663269877433777 L0.05131072551012039,0.07908520102500916 L0.04664478823542595,0.07026359438896179 L0.043603163212537766,0.060756534337997437 L0.04195509850978851,0.05090305209159851 L0.041243597865104675,0.040935009717941284"></path><path stroke-width="0.0144" stroke="#050505" color_index="0" style="fill: none;stroke-linejoin: round;stroke-linecap: round;" d="M0.1412816196680069,-0.03757205605506897 L0.15031056106090546,-0.04187038540840149 L0.15916995704174042,-0.04650840163230896 L0.16802933812141418,-0.05114641785621643 L0.17690809071063995,-0.055745333433151245 L0.1859704554080963,-0.05997303128242493 L0.1951623558998108,-0.06388840079307556 L0.20465877652168274,-0.06698325276374817 L0.21447822451591492,-0.06876710057258606"></path><path stroke-width="0.0144" stroke="#050505" color_index="0" style="fill: none;stroke-linejoin: round;stroke-linecap: round;" d="M-0.11581854522228241,-0.11231043934822083 L-0.10581989586353302,-0.1121458113193512 L-0.09582126140594482,-0.11198118329048157 L-0.08582933247089386,-0.11160191893577576 L-0.07583993673324585,-0.11114129424095154 L-0.06585311889648438,-0.11063674092292786 L-0.05587795376777649,-0.10993233323097229 L-0.0459028035402298,-0.10922792553901672 L-0.03592923283576965,-0.108502596616745 L-0.02596624195575714,-0.10764357447624207 L-0.01600492000579834,-0.10676488280296326 L-0.0060436055064201355,-0.10588619112968445 L0.003917716443538666,-0.10500749945640564 L0.01387903094291687,-0.1041288673877716 L0.02384036034345627,-0.1032501757144928 L0.03380168229341507,-0.10237148404121399 L0.04376900941133499,-0.10156914591789246 L0.05374498665332794,-0.10087636113166809 L0.06372097134590149,-0.10018357634544373 L0.07369693368673325,-0.09949079155921936 L0.08367643505334854,-0.09886434674263 L0.09366969019174576,-0.09849712252616882 L0.10366295278072357,-0.09812989830970764 L0.11365856975317001,-0.09788575768470764 L0.12365855276584625,-0.09787014126777649 L0.1336585432291031,-0.09785446524620056 L0.14365236461162567,-0.09818926453590393 L0.15364564955234528,-0.09855619072914124 L0.1636219471693039,-0.09921935200691223 L0.17359182238578796,-0.09999492764472961 L0.18353664875030518,-0.10103002190589905 L0.19345539808273315,-0.10228964686393738 L0.2033366560935974,-0.10382607579231262 L0.21317018568515778,-0.10563287138938904 L0.22297973930835724,-0.10757514834403992 L0.23273363709449768,-0.10977724194526672 L0.24247559905052185,-0.11203399300575256 L0.2521747946739197,-0.11446806788444519 L0.26187407970428467,-0.11690220236778259 L0.2715733051300049,-0.11933627724647522 L0.2812725305557251,-0.12177035212516785 L0.2909821569919586,-0.12416031956672668 L0.3007453382015228,-0.1263236701488495 L0.3105085790157318,-0.12848708033561707 L0.3203034996986389,-0.13048866391181946 L0.3301598131656647,-0.1321779191493988 L0.34004664421081543,-0.13365653157234192 L0.34997689723968506,-0.13483533263206482 L0.35994458198547363,-0.13560113310813904 L0.36992913484573364,-0.1361238658428192"></path><path stroke-width="0.0144" stroke="#050505" color_index="0" style="fill: none;stroke-linejoin: round;stroke-linecap: round;" d="M0.33560144901275635,0.14628443121910095 L0.33539026975631714,0.13628670573234558 L0.3351166546344757,0.12629148364067078 L0.3344915509223938,0.11631104350090027 L0.3337620794773102,0.10633930563926697 L0.3327367901802063,0.09639200568199158 L0.33159130811691284,0.08645936846733093 L0.3301832973957062,0.07655903697013855 L0.32866978645324707,0.06667563319206238 L0.32690030336380005,0.056833356618881226 L0.325073778629303,0.04700252413749695 L0.32296812534332275,0.03722664713859558 L0.3208625018596649,0.027450889348983765 L0.3184768259525299,0.01774004101753235 L0.3160650134086609,0.008035212755203247 L0.3135244846343994,-0.0016357004642486572 L0.31084269285202026,-0.011269360780715942 L0.3081609010696411,-0.020903021097183228 L0.3053058683872223,-0.030486315488815308 L0.3023999035358429,-0.040054768323898315 L0.2994939088821411,-0.04962322115898132 L0.29651907086372375,-0.05917033553123474 L0.2934536337852478,-0.06868889927864075 L0.29037219285964966,-0.0782022774219513 L0.2872907221317291,-0.08771565556526184 L0.2842092514038086,-0.09722903370857239 L0.28112781047821045,-0.10674241185188293 L0.27804630994796753,-0.11625584959983826 L0.2749648690223694,-0.1257692277431488 L0.27188336849212646,-0.13528260588645935 L0.2689637243747711,-0.14484688639640808 L0.2660483121871948,-0.15441247820854187 L0.2631329298019409,-0.16397807002067566 L0.2602175176143646,-0.17354366183280945 L0.25743669271469116,-0.18314799666404724 L0.25481176376342773,-0.19279733300209045 L0.2521868348121643,-0.20244666934013367 L0.24968144297599792,-0.2121264636516571 L0.24737022817134857,-0.22185572981834412 L0.24505901336669922,-0.23158493638038635 L0.24299800395965576,-0.24136903882026672 L0.241028293967247,-0.25117310881614685 L0.23917938768863678,-0.2609991729259491 L0.23757490515708923,-0.270869642496109 L0.2360057383775711,-0.28074511885643005 L0.234786257147789,-0.2906704843044281 L0.2335667759180069,-0.30059584975242615 L0.23273536562919617,-0.3105609714984894 L0.23191693425178528,-0.32052740454673767 L0.2314816415309906,-0.33051738142967224 L0.23107671737670898,-0.3405091464519501"></path></g></svg>