<svg width="800" height="800" viewBox="-0.38742911994457246 -0.3580091464519501 0.7748582398891449 0.7160182929039002" xmlns="http://www.w3.org/2000/svg"><g stroke-width=".014" stroke="#050505" fill="none" stroke-linejoin="round" stroke-linecap="round"><path d="M-.37-.118h.01l.01-.001h.01l.01-.002h.01l.01-.001h.01l.01-.002h.01l.01-.001h.01l.01-.001.01-.001h.01l.01-.001h.01L-.2-.13h.01l.005.005-.004.009-.005.008-.006.009-.006.008-.006.008-.006.008-.006.007-.006.008-.006.009-.006.008-.005.008-.005.009-.005.009-.003.01v.009l.003.009.008.006.01.004.01.002H-.2L-.19.02l.01-.003.009-.003.01-.004.008-.004.01-.004.008-.005.01-.005.008-.005.008-.005.008-.006.008-.006.008-.006.008-.006.008-.007.007-.007.007-.007.006-.008.006-.008.004-.009.002-.01v-.02l-.003-.01-.005-.008-.006-.008-.007-.007-.007-.006-.008-.006-.009-.006-.008-.006-.008-.006-.008-.006-.007-.007L-.119-.2l-.006-.01-.005-.007-.003-.01-.002-.01v-.02l.002-.01.004-.009.004-.009.005-.008.007-.008.007-.007.007-.007.007-.007.004-.009-.008-.005-.01-.002h-.01l-.01.001-.01.002-.01.003-.009.004-.009.004-.009.004-.009.005-.008.005-.009.005-.008.005-.009.005-.008.006-.009.005-.008.006-.008.006-.009.005-.008.006-.007.006-.008.007-.008.006-.007.007-.008.006-.007.007-.008.007-.007.007v.005h.05l.01-.001h.01l.01-.002h.02l.01-.002h.02l.01-.001h.01l.01-.001h.059l.01.002h.01l.01.002.009.002.01.002.01.003.009.004.009.004.009.004.008.006.007.007L0-.165v.01l-.001.01-.002.01-.003.009-.003.01-.004.009-.003.01-.003.009-.004.01-.003.009-.003.01-.003.009-.003.01-.001.01-.001.01v.01l.004.008.007.008.008.006.008.005L0 .02l.009.004.009.004.009.004.008.006.007.007.007.007.006.008.005.009.004.009.004.01.003.009.002.01v.01l.001.01v.03L.07.167l-.002.01-.002.009-.003.01L.06.205l-.004.01-.005.009L.045.23.038.24.03.245.022.25l-.01.004-.009.003-.01.003h-.01l-.01.001h-.02l-.01-.002-.01-.002-.009-.002-.01-.002-.01-.003-.009-.003-.01-.003L-.123.24l-.01-.003-.01-.004L-.15.229-.16.224-.168.22-.18.215-.186.211l-.01-.005-.009-.005-.008-.005-.009-.005-.009-.005-.008-.005-.009-.005L-.256.17-.264.165-.273.159-.28.153-.289.148-.297.142-.305.136-.313.13-.321.123-.329.117-.336.111-.344.104M-.355.082l-.003-.01L-.36.064l-.002-.01v-.03l.003-.01.003-.009m.524-.012l.009.005.008.005.01.005.009.003.01.002.01.001h.01L.242.012l.01-.004L.26.002l.008-.006.006-.008L.28-.02l.005-.01.005-.008.004-.01.003-.009.003-.01.002-.01.002-.009v-.01l.002-.01v-.05l-.002-.01v-.01L.3-.186l-.002-.01-.002-.009-.003-.01-.003-.01-.003-.009-.004-.009L.28-.252.274-.26.27-.27.264-.278.258-.286.252-.294.245-.3.238-.308.23-.314.222-.32.214-.325.204-.33.196-.333l-.01-.003-.01-.003H.167l-.01-.002"/><path d="M.06-.257h.01l.01-.001h.04l.01.002.01.002.01.002.01.003.009.003.01.004.008.005.008.006.007.007.005.009.002.01v.02l-.004.009L.2-.168l-.005.009-.005.008-.007.008-.007.007-.007.007-.009.005-.009.005-.009.003-.01.004-.009.002-.01.002-.01.003-.01.002L.085-.1l-.01.003-.008.004-.008.006-.007.008-.004.009-.003.01-.002.01v.01m.098.078l.01.004.008.005.009.004.009.005.009.004.01.004.009.003.01.002m-.331.043h.04l.01-.001.01-.001h.01l.01-.001.01-.001.01-.001.01-.001.01-.001h.01l.01-.002h.01l.01-.001L.054.1h.01l.01-.002h.03l.01-.001h.04L.164.1h.01l.01.001.01.001.01.002.01.002.009.002.01.002.01.002.01.002.009.003.01.002.01.003.009.002.01.002.01.002.01.002.01.002.009.002h.01l.01.002h.01"/><path d="M.336-.146v.02l-.002.01v.01l-.001.01-.001.01-.002.01-.001.01-.002.01-.002.009-.002.01-.002.01-.003.01-.002.009-.002.01-.003.01L.308.02.305.03.302.04.3.05.297.06.293.068.29.079.287.087l-.003.01-.003.009-.003.01-.003.009-.003.01-.003.009-.003.01-.003.009-.003.01-.003.01-.002.009-.003.01-.002.01-.003.009-.002.01-.002.01-.002.01L.239.26.238.27.236.28.235.29.234.3.233.31.232.32v.02"/></g></svg>