<svg width="800" height="800"
  viewBox="-0.09735895872116088 -0.09344972848892219 0.19471791744232175 0.18689945697784438"
  xmlns="http://www.w3.org/2000/svg">
  <g stroke-width=".014" stroke="#ea5b0c" fill="none" stroke-linejoin="round" stroke-linecap="round">
    <path
      d="M-.039-.05l-.006-.01-.007-.007-.007-.006-.01-.004-.008.005-.003.01v.009l.005.009.007.007.008.006.009.004.009.005.007.006.002.01v.01l.002.01.001.01.001.01.001.01.001.01m.021-.097l-.003.008-.001.01v.01l.005.008.007-.003v-.02l.008.004.006.008.007.007.008.001" />
    <path
      d="M.034-.05l-.002.01-.001.01.003.009.01.003.008-.004.001-.01-.002-.01L.05-.05l.002.003.004.009.005.009.004.009.004.009.005.009.004.01.003.009L.07.02h-.08l-.01.002-.008.005-.005.008-.001.01.004.01.007.006.009.005.009.004.01.002.01.002.01.002h.02l.01-.002.009-.002.009-.004" />
  </g>
</svg>