<svg width="800" height="800"
  viewBox="-0.09735895872116088 -0.09344972848892219 0.19471791744232175 0.18689945697784438"
  xmlns="http://www.w3.org/2000/svg" xmlns:xlink="http://www.w3.org/1999/xlink">
  <defs>
    <clipPath id="circle" clipPathUnits="objectBoundingBox">
      <circle cx=".5" cy=".5" r=".5" />
    </clipPath>
  </defs>
  <g transform="scale(1.0 -1.0)">
    <path stroke-width="0.0144" stroke="#ea5b0c" color_index="43"
      style="fill: none;stroke-linejoin: round;stroke-linecap: round;"
      d="M-0.038538217544555664,0.05086416006088257 L-0.04473459720611572,0.05870586633682251 L-0.051655113697052,0.06591886281967163 L-0.059423625469207764,0.07219666242599487 L-0.06858527660369873,0.07594972848892212 L-0.07682758569717407,0.07138890027999878 L-0.07985895872116089,0.06191664934158325 L-0.0794636607170105,0.05198746919631958 L-0.07523900270462036,0.04299205541610718 L-0.06834036111831665,0.03579217195510864 L-0.06010150909423828,0.03014284372329712 L-0.05123418569564819,0.02552729845046997 L-0.042124152183532715,0.021403729915618896 L-0.03507357835769653,0.015214622020721436 L-0.03343498706817627,0.005351006984710693 L-0.03213787078857422,-0.004564344882965088 L-0.031008601188659668,-0.014500200748443604 L-0.029975056648254395,-0.02444666624069214 L-0.028998851776123047,-0.03439897298812866 L-0.02803516387939453,-0.04435235261917114 L-0.026972532272338867,-0.054295361042022705">
    </path>
    <path stroke-width="0.0144" stroke="#ea5b0c" color_index="43"
      style="fill: none;stroke-linejoin: round;stroke-linecap: round;"
      d="M-0.006305009126663208,0.04318958520889282 L-0.008910208940505981,0.035206377506256104 L-0.010087430477142334,0.02528172731399536 L-0.009729236364364624,0.015307128429412842 L-0.005310744047164917,0.0066567063331604 L0.0017495453357696533,0.010436832904815674 L0.002530038356781006,0.02038496732711792 L0.0026602745056152344,0.030371367931365967 L0.010088533163070679,0.025824010372161865 L0.01642465591430664,0.018087804317474365 L0.0231112539768219,0.010661542415618896 L0.031108379364013672,0.009702503681182861">
    </path>
    <path stroke-width="0.0144" stroke="#ea5b0c" color_index="43"
      style="fill: none;stroke-linejoin: round;stroke-linecap: round;"
      d="M0.03360292315483093,0.04932934045791626 L0.03204837441444397,0.040187180042266846 L0.03094133734703064,0.030267655849456787 L0.03395366668701172,0.02098184823989868 L0.04328259825706482,0.01849263906478882 L0.0524749755859375,0.021745026111602783 L0.053428977727890015,0.03152650594711304 L0.051437169313430786,0.04131847620010376 L0.04851275682449341,0.050879061222076416 L0.05052259564399719,0.04793590307235718 L0.0550747811794281,0.039032042026519775 L0.05957764387130737,0.03010326623916626 L0.06401965022087097,0.021144092082977295 L0.06838402152061462,0.01214677095413208 L0.07262912392616272,0.0030927062034606934 L0.07665663957595825,-0.006059825420379639 L0.07985895872116089,-0.015510737895965576 L0.07147142291069031,-0.01968616247177124 L0.06153684854507446,-0.020741641521453857 L0.05153873562812805,-0.020797550678253174 L0.04154616594314575,-0.02042025327682495 L0.03156045079231262,-0.01988619565963745 L0.021573185920715332,-0.019383132457733154 L0.011578112840652466,-0.019082725048065186 L0.00158005952835083,-0.01919609308242798 L-0.008379817008972168,-0.020045936107635498 L-0.018124043941497803,-0.022228896617889404 L-0.026871860027313232,-0.02694326639175415 L-0.0322343111038208,-0.035237014293670654 L-0.03325742483139038,-0.04507929086685181 L-0.029225587844848633,-0.054118812084198 L-0.021984338760375977,-0.060961902141571045 L-0.013350367546081543,-0.06598132848739624 L-0.00407448410987854,-0.06970113515853882 L0.005541384220123291,-0.07243317365646362 L0.015354365110397339,-0.0743444561958313 L0.025283604860305786,-0.07551294565200806 L0.035271674394607544,-0.07594972848892212 L0.045262664556503296,-0.07560127973556519 L0.055177003145217896,-0.07433062791824341 L0.06485709547996521,-0.0718575119972229 L0.07388830184936523,-0.06762117147445679">
    </path>
  </g>
</svg>