<svg width="800" height="800" viewBox="-0.191725103110075 -0.1723331677913666 0.38345020622015 0.3446663355827332" xmlns="http://www.w3.org/2000/svg"><path stroke-width=".014" stroke="#050505" d="M-.164-.007l-.003.01-.002.01-.002.009-.002.01v.01l-.001.01v.01l.002.01.002.01.003.009.004.009.005.008.006.008.007.008.008.006.008.006.009.004.01.004.009.004.01.002.009.002.01.002h.04l.01-.001.01-.002.01-.002.01-.002.009-.003.01-.003.008-.004.01-.004.009-.005.008-.005.009-.005.008-.006.008-.006L.094.1.102.093.109.086.115.078.12.07.126.06.131.053l.004-.01L.14.035l.003-.01.002-.009.003-.01.003-.01.003-.009.004-.01.003-.008.003-.01.004-.01L.17-.06l.002-.01.002-.01V-.1L.17-.11.165-.118.158-.125.15-.131.142-.137l-.01-.005-.008-.004-.01-.003-.01-.003-.01-.002H.066l-.01.001-.01.002-.01.003-.009.004-.009.004-.009.005L0-.13l-.008.005-.008.006-.008.007-.007.007-.007.007-.007.008-.006.008-.005.008-.005.008-.005.01-.004.009-.003.009-.003.01-.002.01-.002.01L-.082 0l-.002.01-.001.01-.001.01-.001.01v.01l.001.01.006.007.008.007.008.005.009.005.01.003.01.002h.01l.01-.002.009-.002.01-.004.008-.005L.02.072.028.065.035.06.042.052.05.044.055.036.061.028.066.019.07.01.075.001l.004-.009.003-.01.003-.009.002-.01.001-.01v-.02l-.002-.01-.005-.008-.007-.006-.01-.004-.01-.003-.01-.001h-.02l-.009.002-.01.004-.008.005-.005.008-.005.01-.004.009-.002.01-.002.009v.01l.006.008h.009L0-.03l.003-.01.002-.01" fill="none" stroke-linejoin="round" stroke-linecap="round"/></svg>