<svg width="800" height="800" viewBox="-0.191725103110075 -0.1723331677913666 0.38345020622015 0.3446663355827332" xmlns="http://www.w3.org/2000/svg" xmlns:xlink="http://www.w3.org/1999/xlink"><defs><clipPath id="circle" clipPathUnits="objectBoundingBox"><circle cx=".5" cy=".5" r=".5" /></clipPath></defs><g transform="scale(1.0 -1.0)"><path stroke-width="0.0144" stroke="#050505" color_index="0" style="fill: none;stroke-linejoin: round;stroke-linecap: round;" d="M-0.16376854479312897,0.007112473249435425 L-0.16673918068408966,-0.002435356378555298 L-0.16929803788661957,-0.012101441621780396 L-0.1713903695344925,-0.021878987550735474 L-0.17295701801776886,-0.03175404667854309 L-0.17392747104167938,-0.041705161333084106 L-0.1742251068353653,-0.05169859528541565 L-0.1737699955701828,-0.0616854727268219 L-0.17247696220874786,-0.07159820199012756 L-0.17027060687541962,-0.08134773373603821 L-0.16709230840206146,-0.09082439541816711 L-0.1629134863615036,-0.09990373253822327 L-0.15774522721767426,-0.10845842957496643 L-0.15164147317409515,-0.1163727343082428 L-0.14469464123249054,-0.12355878949165344 L-0.13702009618282318,-0.12996259331703186 L-0.12874098122119904,-0.13556405901908875 L-0.11997617781162262,-0.14037147164344788 L-0.11083205044269562,-0.1444123089313507 L-0.10139958560466766,-0.14772596955299377 L-0.09175316989421844,-0.1503540575504303 L-0.08195425570011139,-0.15234056115150452 L-0.07205213606357574,-0.15372565388679504 L-0.062087129801511765,-0.15454605221748352 L-0.05209238454699516,-0.15483316779136658 L-0.04209576174616814,-0.15461650490760803 L-0.03212116286158562,-0.15391770005226135 L-0.02218947932124138,-0.15275779366493225 L-0.012319933623075485,-0.15115299820899963 L-0.002530451864004135,-0.14911600947380066 L0.007161695510149002,-0.1466573178768158 L0.016739372164011,-0.14378461241722107 L0.026184920221567154,-0.1405034363269806 L0.03547975793480873,-0.13681700825691223 L0.04460449889302254,-0.132727712392807 L0.05353810265660286,-0.128236323595047 L0.06225799396634102,-0.1233428418636322 L0.07073912024497986,-0.11804649233818054 L0.07895390689373016,-0.11234608292579651 L0.08687302470207214,-0.1062416136264801 L0.09446445107460022,-0.09973421692848206 L0.10169348120689392,-0.09282651543617249 L0.10852305591106415,-0.08552399277687073 L0.11491529643535614,-0.07783582806587219 L0.12083080410957336,-0.06977525353431702 L0.12623131275177002,-0.06136086583137512 L0.13107986748218536,-0.05261698365211487 L0.13534413278102875,-0.04357388615608215 L0.13899753987789154,-0.03426721692085266 L0.14201855659484863,-0.02473655343055725 L0.14439751207828522,-0.015025526285171509 L0.1468258798122406,-0.005327016115188599 L0.14978516101837158,0.004224270582199097 L0.15306098759174347,0.013672202825546265 L0.1565011888742447,0.0230618417263031 L0.15998142957687378,0.03243657946586609 L0.1633928120136261,0.041836708784103394 L0.16662082076072693,0.05130097270011902 L0.16952767968177795,0.06086835265159607 L0.17194201052188873,0.07057079672813416 L0.17362211644649506,0.08042523264884949 L0.1742251068353653,0.09040006995201111 L0.17327697575092316,0.1003408133983612 L0.1702595204114914,0.10984942317008972 L0.16493670642375946,0.11828061938285828 L0.15774312615394592,0.1252058446407318 L0.1498740315437317,0.13137301802635193 L0.1415715366601944,0.13694259524345398 L0.1328606754541397,0.14184841513633728 L0.12378047406673431,0.1460307538509369 L0.11438220739364624,0.14943835139274597 L0.10472823679447174,0.15203425288200378 L0.09488815069198608,0.15379855036735535 L0.0849342942237854,0.15472707152366638 L0.07493764162063599,0.15483316779136658 L0.06496411561965942,0.15414246916770935 L0.055072490125894547,0.15269061923027039 L0.045313481241464615,0.15051838755607605 L0.03572973981499672,0.14767012000083923 L0.0263570137321949,0.14418944716453552 L0.017225075513124466,0.14011821150779724 L0.008358288556337357,0.1354977786540985 L-0.00022147223353385925,0.13036379218101501 L-0.008494462817907333,0.12474855780601501 L-0.01644207164645195,0.1186816394329071 L-0.02404676005244255,0.11218973994255066 L-0.03128967806696892,0.10529670119285583 L-0.03815103694796562,0.09802374243736267 L-0.04460893198847771,0.09039029479026794 L-0.05063880607485771,0.08241447806358337 L-0.05621321126818657,0.07411393523216248 L-0.061302732676267624,0.06550762057304382 L-0.06587357819080353,0.056615203619003296 L-0.069887176156044,0.04745790362358093 L-0.07330356538295746,0.038061708211898804 L-0.07607780396938324,0.028456300497055054 L-0.07819066941738129,0.01868376135826111 L-0.08015979826450348,0.008879512548446655 L-0.08201931416988373,-0.0009459555149078369 L-0.08371488749980927,-0.010801106691360474 L-0.08520038425922394,-0.02068975567817688 L-0.08640505373477936,-0.030616432428359985 L-0.08719517290592194,-0.04058411717414856 L-0.08728165924549103,-0.05057981610298157 L-0.0857386440038681,-0.060427576303482056 L-0.07965590059757233,-0.06821814179420471 L-0.07213045656681061,-0.07479622960090637 L-0.06389792263507843,-0.08046165108680725 L-0.054987888783216476,-0.08498325943946838 L-0.045509349554777145,-0.08813861012458801 L-0.03565419837832451,-0.08977082371711731 L-0.025664489716291428,-0.08984115719795227 L-0.015772592276334763,-0.0884334146976471 L-0.006156396120786667,-0.08571413159370422 L0.0030737705528736115,-0.08188000321388245 L0.011862162500619888,-0.07711663842201233 L0.020187992602586746,-0.07158318161964417 L0.028050649911165237,-0.06540802121162415 L0.03545685485005379,-0.05869176983833313 L0.04241836443543434,-0.051515012979507446 L0.04894128814339638,-0.043937116861343384 L0.05503271892666817,-0.03600814938545227 L0.06069191172719002,-0.02776506543159485 L0.06591373682022095,-0.019238024950027466 L0.07068763673305511,-0.010452419519424438 L0.07499469816684723,-0.0014289915561676025 L0.07880540192127228,0.00781509280204773 L0.08208435773849487,0.01726052165031433 L0.08477702736854553,0.026889413595199585 L0.0868186205625534,0.036676615476608276 L0.08811973035335541,0.04658886790275574 L0.08856914937496185,0.05657514929771423 L0.0880289375782013,0.0665559470653534 L0.08631342649459839,0.0763990581035614 L0.08141592144966125,0.08501490950584412 L0.07359147071838379,0.09117826819419861 L0.0644775778055191,0.09525451064109802 L0.054811615496873856,0.09778580069541931 L0.04490334168076515,0.0990961492061615 L0.03491069748997688,0.09933504462242126 L0.024948615580797195,0.0985231101512909 L0.015151429921388626,0.0965547263622284 L0.0057647861540317535,0.0931449830532074 L-0.0025884173810482025,0.08771273493766785 L-0.008421268314123154,0.0796649158000946 L-0.012921076267957687,0.0707370936870575 L-0.016689490526914597,0.061477988958358765 L-0.019482504576444626,0.05188223719596863 L-0.02089182659983635,0.041994184255599976 L-0.020121317356824875,0.032057732343673706 L-0.01530180498957634,0.0235043466091156 L-0.005990844219923019,0.023364752531051636 L0.00023495033383369446,0.031042784452438354 L0.0034423507750034332,0.040489763021469116 L0.004862818866968155,0.05037948489189148"></path></g></svg>