<svg width="800" height="800" viewBox="-0.2534771430492401 -0.202274935245514 0.5069542860984801 0.404549870491028" xmlns="http://www.w3.org/2000/svg" xmlns:xlink="http://www.w3.org/1999/xlink"><defs><clipPath id="circle" clipPathUnits="objectBoundingBox"><circle cx=".5" cy=".5" r=".5" /></clipPath></defs><g transform="scale(1.0 -1.0)"><path stroke-width="0.0144" stroke="#71c059" color_index="36" style="fill: none;stroke-linejoin: round;stroke-linecap: round;" d="M-0.15363797545433044,0.09331482648849487 L-0.1620279848575592,0.0956311821937561 L-0.1714169681072235,0.09223979711532593 L-0.18017801642417908,0.08743256330490112 L-0.18828418850898743,0.08158773183822632 L-0.19552889466285706,0.07470840215682983 L-0.20143237709999084,0.06666046380996704 L-0.20500972867012024,0.05736953020095825 L-0.20484009385108948,0.047448694705963135 L-0.20066258311271667,0.03842848539352417 L-0.19391736388206482,0.031079590320587158 L-0.1848364770412445,0.027879655361175537 L-0.17517587542533875,0.030337154865264893 L-0.16604194045066833,0.034397780895233154 L-0.15721145272254944,0.039088547229766846 L-0.14854690432548523,0.04408055543899536 L-0.13996341824531555,0.049211084842681885 L-0.13139763474464417,0.05437129735946655 L-0.12279590964317322,0.059471189975738525 L-0.11409994959831238,0.06440812349319458 L-0.10524031519889832,0.06904381513595581 L-0.09611904621124268,0.07313638925552368 L-0.08660036325454712,0.07616668939590454 L-0.07668140530586243,0.07661718130111694 L-0.06880798935890198,0.07098931074142456 L-0.0662737488746643,0.06140011548995972 L-0.06652268767356873,0.05141574144363403 L-0.06802502274513245,0.041532695293426514 L-0.07022780179977417,0.03177982568740845 L-0.07288432121276855,0.02213984727859497 L-0.07586163282394409,0.012593686580657959 L-0.07968512177467346,0.0033754706382751465 L-0.08563989400863647,-0.0046250224113464355 L-0.09333804249763489,-0.010973989963531494 L-0.10218247771263123,-0.015608489513397217 L-0.11168918013572693,-0.018678367137908936 L-0.12153580784797668,-0.02038198709487915 L-0.1315179169178009,-0.02087932825088501 L-0.14149507880210876,-0.02027946710586548 L-0.15135440230369568,-0.01863628625869751 L-0.16098293662071228,-0.015954673290252686 L-0.1702410876750946,-0.01219111680984497 L-0.17893055081367493,-0.007259070873260498 L-0.1867453157901764,-0.0010396838188171387 L-0.19321712851524353,0.006558120250701904 L-0.19771823287010193,0.015456736087799072 L-0.1997096836566925,0.025226294994354248 L-0.19989463686943054,0.035217344760894775 L-0.19880685210227966,0.04515165090560913 L-0.19656845927238464,0.05489271879196167 L-0.19334575533866882,0.06435519456863403 L-0.18931177258491516,0.07350248098373413 L-0.18462976813316345,0.08233660459518433 L-0.17943808436393738,0.09088188409805298 L-0.17382964491844177,0.09915977716445923 L-0.16778793931007385,0.10712653398513794 L-0.1612638533115387,0.11470276117324829 L-0.15420714020729065,0.1217842698097229 L-0.14656612277030945,0.12822943925857544 L-0.13830026984214783,0.1338476538658142 L-0.12939885258674622,0.1383870244026184 L-0.11992070078849792,0.14153975248336792 L-0.11003974080085754,0.14297789335250854 L-0.10007080435752869,0.1424540877342224 L-0.09041553735733032,0.13991814851760864 L-0.08143478631973267,0.13555306196212769 L-0.07334858179092407,0.1296887993812561 L-0.06623092293739319,0.1226763129234314 L-0.060060739517211914,0.11481410264968872 L-0.05477452278137207,0.10633057355880737 L-0.05029261112213135,0.09739476442337036 L-0.046540021896362305,0.08812814950942993 L-0.043447524309158325,0.07862025499343872 L-0.04095625877380371,0.06893700361251831 L-0.038770079612731934,0.05918389558792114 L-0.03563693165779114,0.04968792200088501 L-0.03244742751121521,0.040210187435150146 L-0.02942836284637451,0.03067713975906372 L-0.026765376329421997,0.02103942632675171 L-0.024830162525177002,0.011233627796173096 L-0.0253106951713562,0.0013547539710998535 L-0.03284570574760437,-0.005062282085418701 L-0.04176458716392517,-0.009565532207489014 L-0.051134973764419556,-0.01304858922958374 L-0.060735344886779785,-0.015841424465179443 L-0.07047316431999207,-0.018112361431121826 L-0.08030098676681519,-0.01995605230331421 L-0.09019133448600769,-0.021429002285003662 L-0.10012593865394592,-0.022566616535186768 L-0.11009177565574646,-0.023386776447296143 L-0.12007829546928406,-0.023896515369415283 L-0.13007602095603943,-0.02409130334854126 L-0.14007464051246643,-0.023959457874298096 L-0.1500624716281891,-0.023478209972381592 L-0.16002407670021057,-0.02261108160018921 L-0.16993746161460876,-0.021305620670318604 L-0.1797686517238617,-0.019483745098114014 L-0.18946149945259094,-0.017033278942108154 L-0.19891366362571716,-0.01378101110458374 L-0.20792707800865173,-0.009468019008636475 L-0.2160797417163849,-0.0037079453468322754 L-0.22248491644859314,0.003918111324310303 L-0.22615984082221985,0.01319032907485962 L-0.2290618121623993,0.022759616374969482 L-0.23162522912025452,0.032424747943878174 L-0.23375031352043152,0.042195141315460205 L-0.23528340458869934,0.0520748496055603 L-0.2359771430492401,0.06204646825790405 L-0.23540392518043518,0.07201951742172241 L-0.23282650113105774,0.08165258169174194 L-0.22730782628059387,0.08991402387619019 L-0.21893253922462463,0.09525138139724731 L-0.20921733975410461,0.09748595952987671 L-0.19922927021980286,0.09760946035385132 L-0.18930289149284363,0.09643489122390747 L-0.1795082986354828,0.09442847967147827 L-0.16984453797340393,0.09186142683029175 L-0.16029474139213562,0.08889657258987427 L-0.15083912014961243,0.08564335107803345 L-0.1414596140384674,0.08217555284500122 L-0.13214048743247986,0.0785490870475769 L-0.12286725640296936,0.07480686902999878 L-0.11362764239311218,0.07098203897476196 L-0.10440793633460999,0.06710952520370483 L-0.09519869089126587,0.06321209669113159 L-0.08598983287811279,0.059313952922821045 L-0.0767698884010315,0.05544191598892212 L-0.06752923130989075,0.05161958932876587 L-0.058255285024642944,0.047879040241241455 L-0.04893657565116882,0.04425162076950073 L-0.03955957293510437,0.040777742862701416 L-0.03010883927345276,0.0375097393989563 L-0.020568102598190308,0.03451508283615112 L-0.010920017957687378,0.031889379024505615 L-0.0011485815048217773,0.029771149158477783 L0.0087510347366333,0.028381288051605225 L0.018738925457000732,0.02808159589767456 L0.028687268495559692,0.02905672788619995 L0.038513898849487305,0.030895650386810303 L0.04817643761634827,0.033463895320892334 L0.05764567852020264,0.03667265176773071 L0.06689789891242981,0.040463030338287354 L0.07590574026107788,0.04480201005935669 L0.08463859558105469,0.0496709942817688 L0.09305447340011597,0.05506926774978638 L0.10109877586364746,0.061006367206573486 L0.10869497060775757,0.06750613451004028 L0.11573833227157593,0.07460027933120728 L0.12207823991775513,0.08232778310775757 L0.12750566005706787,0.09071904420852661 L0.1317307949066162,0.09977191686630249 L0.1343947947025299,0.10939627885818481 L0.13513901829719543,0.1193506121635437 L0.13376885652542114,0.1292368769645691 L0.1303899884223938,0.13863128423690796 L0.1253536343574524,0.1472567915916443 L0.11907410621643066,0.15502935647964478 L0.1119021475315094,0.1619911789894104 L0.10409411787986755,0.1682339310646057 L0.09582602977752686,0.1738552451133728 L0.08720749616622925,0.17892271280288696 L0.0780211091041565,0.1828410029411316 L0.0682348906993866,0.18477493524551392 L0.05829650163650513,0.18404251337051392 L0.0489463210105896,0.18057972192764282 L0.04062110185623169,0.1750684380531311 L0.033278316259384155,0.16829055547714233 L0.02668708562850952,0.16077405214309692 L0.020619988441467285,0.15282636880874634 L0.01488831639289856,0.1446325182914734 L0.009364873170852661,0.1362965703010559 L0.004029393196105957,0.12783914804458618 L-0.0011138617992401123,0.11926358938217163 L-0.006060808897018433,0.11057311296463013 L-0.010808169841766357,0.10177212953567505 L-0.015353590250015259,0.09286504983901978 L-0.019694507122039795,0.08385664224624634 L-0.02382814884185791,0.07475119829177856 L-0.02775391936302185,0.06555444002151489 L-0.03147116303443909,0.056271135807037354 L-0.03497892618179321,0.046906888484954834 L-0.03827744722366333,0.03746670484542847 L-0.041367948055267334,0.02795642614364624 L-0.04425135254859924,0.01838141679763794 L-0.04692754149436951,0.008746325969696045 L-0.049401938915252686,-0.0009424090385437012 L-0.051676273345947266,-0.010680139064788818 L-0.053488463163375854,-0.02050560712814331 L-0.054051876068115234,-0.030488193035125732 L-0.05430358648300171,-0.0404849648475647 L-0.05452454090118408,-0.05048245191574097 L-0.05484935641288757,-0.06047707796096802 L-0.05540534853935242,-0.0704612135887146 L-0.056375712156295776,-0.08041268587112427 L-0.05814385414123535,-0.09024947881698608 L-0.06198415160179138,-0.09941095113754272 L-0.06994396448135376,-0.10538738965988159 L-0.07914671301841736,-0.10923975706100464 L-0.08899238705635071,-0.11086410284042358 L-0.09896621108055115,-0.11040419340133667 L-0.10871347784996033,-0.10821682214736938 L-0.1180557906627655,-0.10466986894607544 L-0.126924067735672,-0.10005933046340942 L-0.13529756665229797,-0.09459894895553589 L-0.14317157864570618,-0.08843940496444702 L-0.1505431830883026,-0.08168572187423706 L-0.1574033796787262,-0.0744127631187439 L-0.1637321412563324,-0.06667298078536987 L-0.16949424147605896,-0.05850273370742798 L-0.17463883757591248,-0.04993051290512085 L-0.17908987402915955,-0.040978968143463135 L-0.18274089694023132,-0.0316733717918396 L-0.18544813990592957,-0.022051870822906494 L-0.18701717257499695,-0.012182295322418213 L-0.18720939755439758,-0.002193748950958252 L-0.18576845526695251,0.007688701152801514 L-0.18250200152397156,0.01712256669998169 L-0.17733833193778992,0.025656163692474365 L-0.16913506388664246,0.03114241361618042 L-0.15924528241157532,0.03211098909378052 L-0.14943483471870422,0.030259549617767334 L-0.13999828696250916,0.0269659161567688 L-0.13087871670722961,0.022867977619171143 L-0.1219954788684845,0.018277347087860107 L-0.11328408122062683,0.013368070125579834 L-0.10469260811805725,0.008251011371612549 L-0.0961819589138031,0.0030004382133483887 L-0.08771643042564392,-0.002322375774383545 L-0.07926487922668457,-0.007667720317840576 L-0.07080003619194031,-0.012991607189178467 L-0.062287598848342896,-0.01823943853378296 L-0.0536935031414032,-0.02335149049758911 L-0.04497402906417847,-0.028247058391571045 L-0.036076873540878296,-0.0328100323677063 L-0.026930153369903564,-0.0368465781211853 L-0.017446279525756836,-0.03999751806259155 L-0.007581591606140137,-0.041493356227874756"></path><path stroke-width="0.0144" stroke="#71c059" color_index="36" style="fill: none;stroke-linejoin: round;stroke-linecap: round;" d="M-0.02030465006828308,-0.08594435453414917 L-0.011892348527908325,-0.08064371347427368 L-0.0030742883682250977,-0.07592779397964478 L0.0057888031005859375,-0.07129698991775513 L0.014669716358184814,-0.066700279712677 L0.023553699254989624,-0.06210964918136597 L0.03243756294250488,-0.05751866102218628 L0.041313380002975464,-0.05291217565536499 L0.0501786470413208,-0.04828530550003052 L0.05902582406997681,-0.04362410306930542 L0.06785312294960022,-0.038925349712371826 L0.07665017247200012,-0.034170329570770264 L0.08540788292884827,-0.029343068599700928 L0.09411022067070007,-0.024416983127593994 L0.10272911190986633,-0.019346415996551514 L0.11120271682739258,-0.01403731107711792 L0.11933866143226624,-0.00822979211807251 L0.12312981486320496,-0.0019033551216125488 L0.11396455764770508,-0.005861103534698486 L0.10514578223228455,-0.010574638843536377 L0.09644803404808044,-0.015508949756622314 L0.08782485127449036,-0.020572364330291748 L0.07925793528556824,-0.025730550289154053 L0.07074415683746338,-0.03097599744796753 L0.062297970056533813,-0.03632932901382446 L0.054027825593948364,-0.041949331760406494 L0.045987069606781006,-0.0478939414024353 L0.038064926862716675,-0.053996264934539795 L0.030141085386276245,-0.06009644269943237 L0.0220964252948761,-0.0660356879234314 L0.013818860054016113,-0.0716446042060852 L0.0050743818283081055,-0.07648807764053345 L-0.0037460029125213623,-0.08119982481002808 L-0.012566685676574707,-0.08591097593307495 L-0.021385282278060913,-0.090626060962677 L-0.030199825763702393,-0.0953487753868103 L-0.03900939226150513,-0.10008078813552856 L-0.04781681299209595,-0.104816734790802 L-0.05661827325820923,-0.10956376791000366 L-0.06541407108306885,-0.11432117223739624 L-0.07420381903648376,-0.1190900206565857 L-0.08298668265342712,-0.12387126684188843 L-0.09176173806190491,-0.12866681814193726 L-0.10052791237831116,-0.1334788203239441 L-0.10928353667259216,-0.13830989599227905 L-0.11802634596824646,-0.14316397905349731 L-0.12675312161445618,-0.14804702997207642 L-0.13545963168144226,-0.1529659628868103 L-0.1441393792629242,-0.15793198347091675 L-0.15277788043022156,-0.1629694104194641 L-0.16134944558143616,-0.1681196093559265 L-0.16976097226142883,-0.1735256314277649 L-0.17174950242042542,-0.180109441280365 L-0.16278329491615295,-0.18435877561569214 L-0.15284165740013123,-0.18477493524551392 L-0.1431160867214203,-0.18252187967300415 L-0.13383498787879944,-0.17881304025650024 L-0.12489882111549377,-0.1743285059928894 L-0.11617264151573181,-0.1694452166557312 L-0.10753235220909119,-0.1644110083580017 L-0.09886017441749573,-0.15943187475204468 L-0.09003141522407532,-0.15473800897598267 L-0.08090144395828247,-0.15066760778427124 L-0.0714435875415802,-0.14742237329483032 L-0.06195110082626343,-0.1442771553993225 L-0.05244535207748413,-0.1411721110343933 L-0.04292801022529602,-0.1381029486656189 L-0.03340056538581848,-0.13506513833999634 L-0.023864299058914185,-0.1320553421974182 L-0.014320194721221924,-0.1290704607963562 L-0.004769414663314819,-0.12610691785812378 L0.004787027835845947,-0.12316173315048218 L0.014348387718200684,-0.12023228406906128 L0.023913323879241943,-0.11731487512588501 L0.03348076343536377,-0.1144055724143982 L0.04304882884025574,-0.11149829626083374 L0.05261760950088501,-0.1085934042930603 L0.06218510866165161,-0.10568434000015259 L0.07175210118293762,-0.10277360677719116 L0.08131551742553711,-0.09985095262527466 L0.0908748209476471,-0.09691506624221802 L0.10042911767959595,-0.09396296739578247 L0.1099773645401001,-0.0909913182258606 L0.1195184588432312,-0.08799690008163452 L0.1290513575077057,-0.08497625589370728 L0.1385749876499176,-0.08192664384841919 L0.14808720350265503,-0.07884162664413452 L0.15758730471134186,-0.07571953535079956 L0.16707439720630646,-0.07255798578262329 L0.1765468418598175,-0.06935280561447144 L0.18600288033485413,-0.06609982252120972 L0.1956024020910263,-0.06333333253860474 L0.20541170239448547,-0.061390578746795654 L0.21516527235507965,-0.059193551540374756 L0.22457578778266907,-0.05585247278213501 L0.23256100714206696,-0.04996615648269653 L0.2359771430492401,-0.04076188802719116"></path></g></svg>