<svg width="800" height="800" viewBox="-0.2534771430492401 -0.202274935245514 0.5069542860984801 0.404549870491028" xmlns="http://www.w3.org/2000/svg"><path d="M-.154-.093l-.008-.003-.01.004-.008.005-.008.005-.008.007-.005.008-.004.01v.01l.004.009.007.007.01.003.009-.002.009-.004.009-.005.008-.005.009-.005.009-.005.008-.005.009-.005.009-.005.009-.004.01-.003h.01l.007.005.003.01v.01l-.002.01-.002.01-.003.009-.003.01-.004.009-.006.008-.007.006-.01.005-.009.003-.01.001h-.029L-.16.016-.17.012-.178.007-.186.001l-.006-.008-.005-.008-.002-.01v-.01l.001-.01.002-.01.004-.01.004-.009.004-.008.006-.009.005-.008.006-.008.007-.008.007-.007.007-.006.009-.006.009-.004.01-.004.009-.001h.01l.01.003.009.004.008.006.007.007.006.008.005.009.005.009.003.009.004.01.002.01.002.009.003.01.004.009.003.01.002.009.002.01v.01l-.008.006-.009.005-.01.003-.009.003-.01.002-.01.002-.01.001-.01.002h-.02l-.01.001h-.02L-.16.022-.17.02h-.01L-.19.017-.198.014l-.01-.005-.008-.005-.006-.008-.004-.01-.003-.009-.003-.01-.002-.01-.001-.01-.001-.009v-.01l.003-.01.006-.008.008-.005.01-.002h.02l.01.003.01.002.009.003.01.003.009.004.009.003.01.004.008.004.01.004.009.004.009.004.01.004.008.003.01.004.01.004.008.003.01.003.01.003.01.003.009.002.01.002h.01l.01-.001.01-.002.01-.002.009-.004.009-.003.009-.005.009-.005.008-.005.008-.006.008-.007.007-.007.006-.007.006-.009L.132-.1l.002-.01.001-.01-.001-.01L.13-.138.125-.147.12-.155.112-.162.104-.168.096-.174.087-.179.078-.183l-.01-.002-.01.001-.01.003-.007.006-.008.007-.006.007-.006.008-.006.008-.006.009-.005.008-.005.009-.005.008-.005.01-.004.008-.005.01-.004.008-.004.01-.003.009-.004.01-.003.009-.003.009-.003.01-.003.01L-.049 0l-.003.01-.001.01-.001.01v.03l-.001.01-.001.01-.002.01-.004.008-.008.006-.01.004-.009.002h-.01l-.01-.003-.01-.003L-.126.1-.135.095-.143.088-.151.082-.157.074-.164.067-.169.059l-.006-.01-.004-.008-.004-.01-.002-.009-.002-.01v-.01l.001-.01.003-.01.006-.008.008-.005.01-.001.01.002.009.003.01.004.008.005.009.005.008.005.009.005.008.005.009.006.008.005.009.005.008.005.009.005.009.005.01.004.009.003.01.001M-.02.086L-.012.08l.009-.005L.006.07.015.067.024.062.032.058l.01-.005L.05.048.06.044.068.039.077.034.085.03l.01-.005L.102.02.11.014.12.008.123.002.114.006.105.01.096.016.088.02.079.026.071.03.062.036.054.042.046.048.038.054.03.06.022.066.014.072.005.076l-.009.005-.009.005L-.02.09l-.01.004L-.038.1l-.009.005-.009.005-.008.004-.01.005-.008.005-.009.005L-.1.133l-.008.005-.009.005-.009.005-.008.005-.01.005-.008.005-.008.005-.009.006-.002.006.01.004h.01l.009-.001.01-.004.008-.005.009-.005.008-.005.01-.005.008-.004.01-.004.009-.004.009-.003.01-.003.01-.003.009-.003.01-.003.009-.003.01-.003.009-.003.01-.003.009-.003.01-.003.009-.003.01-.002.01-.003.009-.003L.082.1.09.097.1.094.11.091.12.088.13.085.138.082l.01-.003.009-.003.01-.003.009-.004.009-.003.01-.003.01-.002.01-.002.009-.003L.233.05.236.04" stroke-width=".014" stroke="#71c059" fill="none" stroke-linejoin="round" stroke-linecap="round"/></svg>