<svg width="800" height="800" viewBox="-0.16066295087337493 -0.09679956912994392 0.32132590174674985 0.19359913825988784" xmlns="http://www.w3.org/2000/svg"><g stroke-width=".014" stroke="#802750" fill="none" stroke-linejoin="round" stroke-linecap="round"><path d="M-.071-.08l-.01.001-.01.002-.01.002-.01.003-.009.003-.009.004-.008.006-.006.008v.01l.007.007.008.005.01.003.01.003.009.002.01.002v.002l-.01.001-.009.003-.009.004-.007.007-.006.008-.002.01.001.01.005.009.007.007.007.006.009.006.01.003h.01l.009-.002.008-.006L-.06.04l.005-.009.004-.009.003-.01.003-.009.003-.01.002-.01.004-.008.006.006.003.01.003.01.002.01v.01l.001.01-.003.008h-.01V.03l.002-.01.002-.01.004-.009.004-.009.005-.009.006-.008.008-.006.008.003.003.01.002.01v.03m.017-.036l.006-.002.005-.008-.002-.01-.008-.003L.02-.03v.04l.004.009.007.007.01-.001.005-.008.004-.01.004-.009.004-.009"/><path d="M.092-.035L.084-.04l-.008.005-.002.01v.02l.003.009.005.002.005-.009.004-.009.005-.008.007-.008.007.001.003.01v.02L.109.009l-.01.004L.09.016.08.018.07.021.06.023.05.026.04.028.032.031l-.01.002-.01.003-.009.003-.01.003-.008.004-.01.004-.008.005-.007.007-.004.01.006.007h.01l.01-.002.009-.003L0 .071.008.068l.01-.003.01-.001.01-.001.01-.002h.01l.01-.002.009-.001.01-.002.01-.001.01-.002.01-.002.009-.003.01-.004.006-.007"/></g></svg>