<svg width="800" height="800"
  viewBox="-0.16066295087337493 -0.09679956912994392 0.32132590174674985 0.19359913825988784"
  xmlns="http://www.w3.org/2000/svg" xmlns:xlink="http://www.w3.org/1999/xlink">
  <defs>
    <clipPath id="circle" clipPathUnits="objectBoundingBox">
      <circle cx=".5" cy=".5" r=".5" />
    </clipPath>
  </defs>
  <g transform="scale(1.0 -1.0)">
    <path stroke-width="0.0144" stroke="#802750" color_index="33"
      style="fill: none;stroke-linejoin: round;stroke-linecap: round;"
      d="M-0.07124240696430206,0.07929956912994385 L-0.08121295273303986,0.07860374450683594 L-0.09110169112682343,0.07712674140930176 L-0.10088954865932465,0.07508432865142822 L-0.110538050532341,0.0724630355834961 L-0.11996828019618988,0.0691448450088501 L-0.12900470197200775,0.06487751007080078 L-0.13718239963054657,0.059158921241760254 L-0.1430077999830246,0.051143765449523926 L-0.14316295087337494,0.04137313365936279 L-0.13647226989269257,0.034117698669433594 L-0.12765853106975555,0.029425859451293945 L-0.11828373372554779,0.025956392288208008 L-0.10867725312709808,0.023183703422546387 L-0.0989527553319931,0.020855188369750977 L-0.08917020261287689,0.018781423568725586 L-0.08829422295093536,0.017071962356567383 L-0.09822700917720795,0.01603984832763672 L-0.10779730975627899,0.013193130493164062 L-0.1166098564863205,0.008506059646606445 L-0.12413255870342255,0.001956343650817871 L-0.12957917153835297,-0.006383180618286133 L-0.13193081319332123,-0.016044259071350098 L-0.13057534396648407,-0.0258944034576416 L-0.12604670226573944,-0.034769415855407715 L-0.11944757401943207,-0.042258381843566895 L-0.11163459718227386,-0.04848635196685791 L-0.1030714362859726,-0.053634047508239746 L-0.09372825920581818,-0.05713760852813721 L-0.08380542695522308,-0.05788719654083252 L-0.07431979477405548,-0.054931044578552246 L-0.0664256364107132,-0.048854947090148926 L-0.0602276474237442,-0.041027188301086426 L-0.05530945956707001,-0.03232765197753906 L-0.05129469931125641,-0.02317202091217041 L-0.04791800677776337,-0.013760805130004883 L-0.04498390853404999,-0.004201650619506836 L-0.04232262074947357,0.005437612533569336 L-0.03969760239124298,0.015086770057678223 L-0.03606368601322174,0.02434563636779785 L-0.03038822114467621,0.01768946647644043 L-0.027037665247917175,0.00827169418334961 L-0.024407878518104553,-0.0013746023178100586 L-0.022381052374839783,-0.011165261268615723 L-0.021079495549201965,-0.02107691764831543 L-0.02098889648914337,-0.031064152717590332 L-0.024480417370796204,-0.04016923904418945 L-0.033245399594306946,-0.03963601589202881 L-0.0342833548784256,-0.02982175350189209 L-0.03249232470989227,-0.019992589950561523 L-0.029622092843055725,-0.010416746139526367 L-0.026019588112831116,-0.001090407371520996 L-0.021761640906333923,0.007955193519592285 L-0.016786113381385803,0.016625404357910156 L-0.0108557790517807,0.024666190147399902 L-0.0033114999532699585,0.03114771842956543 L0.004945114254951477,0.02798914909362793 L0.00809548795223236,0.0185394287109375 L0.00952024757862091,0.008646011352539062 L0.010194256901741028,-0.0013298988342285156 L0.010424569249153137,-0.011326789855957031 L0.010350152850151062,-0.021326184272766113">
    </path>
    <path stroke-width="0.0144" stroke="#802750" color_index="33"
      style="fill: none;stroke-linejoin: round;stroke-linecap: round;"
      d="M0.02653537690639496,0.0141143798828125 L0.03279881179332733,0.016001582145690918 L0.03827543556690216,0.024264812469482422 L0.03642572462558746,0.033542633056640625 L0.027500227093696594,0.03704690933227539 L0.02113233506679535,0.029789090156555176 L0.018749669194221497,0.02010178565979004 L0.01812441647052765,0.010129690170288086 L0.01878361403942108,0.00015795230865478516 L0.020773783326148987,-0.009632110595703125 L0.024621769785881042,-0.018832087516784668 L0.031740859150886536,-0.025615572929382324 L0.041205987334251404,-0.024531006813049316 L0.047353073954582214,-0.016743183135986328 L0.05142955482006073,-0.007619023323059082 L0.054916784167289734,0.001753091812133789 L0.05920957028865814,0.010751843452453613">
    </path>
    <path stroke-width="0.0144" stroke="#802750" color_index="33"
      style="fill: none;stroke-linejoin: round;stroke-linecap: round;"
      d="M0.0917205661535263,0.03485512733459473 L0.08362226188182831,0.04057717323303223 L0.07572086155414581,0.03640162944793701 L0.07361926138401031,0.026671648025512695 L0.07355313003063202,0.01667928695678711 L0.07460276782512665,0.006738781929016113 L0.07681570947170258,-0.0030028820037841797 L0.08225886523723602,-0.005171537399291992 L0.08686666190624237,0.003702402114868164 L0.09143586456775665,0.012597203254699707 L0.09640772640705109,0.0212709903717041 L0.10255385935306549,0.0291215181350708 L0.11044134199619293,0.027684569358825684 L0.11283572018146515,0.01801145076751709 L0.11368705332279205,0.008050680160522461 L0.11393775045871735,-0.0019453763961791992 L0.10815079510211945,-0.009096026420593262 L0.09885652363300323,-0.012766003608703613 L0.08929584920406342,-0.015694499015808105 L0.079646036028862,-0.01831686496734619 L0.06995798647403717,-0.02079486846923828 L0.06025363504886627,-0.0232083797454834 L0.05054710805416107,-0.02561318874359131 L0.04084797203540802,-0.028047800064086914 L0.03116603195667267,-0.03054940700531006 L0.0215122252702713,-0.0331575870513916 L0.011900320649147034,-0.03591585159301758 L0.0023489445447921753,-0.03887665271759033 L-0.007110998034477234,-0.04211688041687012 L-0.016428455710411072,-0.045744895935058594 L-0.025499537587165833,-0.04994773864746094 L-0.03408022224903107,-0.05506753921508789 L-0.041401758790016174,-0.06182241439819336 L-0.04455788433551788,-0.0710829496383667 L-0.03931359946727753,-0.07882273197174072 L-0.029415026307106018,-0.07929956912994385 L-0.0196390300989151,-0.07722961902618408 L-0.010069712996482849,-0.07433044910430908 L-0.0005956143140792847,-0.07113051414489746 L0.008883193135261536,-0.06794476509094238 L0.0184871107339859,-0.06516659259796143 L0.02835078537464142,-0.06357181072235107 L0.038294121623039246,-0.06250905990600586 L0.04823972284793854,-0.06146740913391113 L0.05817992985248566,-0.06037592887878418 L0.06811012327671051,-0.05919694900512695 L0.07802574336528778,-0.05790114402770996 L0.08791981637477875,-0.056450724601745605 L0.09778313338756561,-0.054804444313049316 L0.10759784281253815,-0.05289053916931152 L0.11733107268810272,-0.05060017108917236 L0.12690480053424835,-0.047721028327941895 L0.13606883585453033,-0.043749213218688965 L0.14316295087337494,-0.03697490692138672">
    </path>
  </g>
</svg>