<svg width="800" height="800" viewBox="-0.2106372582912445 -0.1218668985366822 0.421274516582489 0.2437337970733644" xmlns="http://www.w3.org/2000/svg"><g stroke-width=".014" stroke="#ea5b0c" fill="none" stroke-linejoin="round" stroke-linecap="round"><path d="M-.112-.09h-.02l-.01.002-.01.002-.009.004-.009.005-.006.007-.003.01-.001.01v.02l.003.009.008.004.01.002h.01l.01-.001-.001-.008-.009-.005h-.01l-.009.004-.007.006-.006.009-.005.008-.003.01-.003.01-.001.01v.01l.002.009.006.008.01.003h.03l.009-.003.009-.004.007-.007.005-.009.004-.01.003-.009.003-.01.003-.009.004-.009.005-.008.007-.008.008-.006.008.002.005.008.004.01.002.01.002.01.002.01v.01l-.002.006-.003-.01v-.03l.002-.01.002-.009.003-.01.004-.009.007-.007.008.005.005.009.003.01.003.009.003.01.002.009.002.01m.011-.054l.01.001h.01L.024-.05l.003-.01-.003-.009-.007-.006-.01-.003-.01.003-.006.007-.002.01-.001.01-.001.01v.01l.002.01.004.01.006.007.01.003.01-.001.008-.005.008-.006.008-.006"/><path d="M.075-.09l-.004.007-.003.01-.003.01-.001.009-.002.01v.01l.002.01.004.009.008.005h.01l.006-.008.003-.01.001-.01v-.03L.093-.076l-.002-.01-.002-.01-.005-.007.003.01.004.008.003.01.004.009.005.009.004.009.004.01.001.007-.009.003-.01.004-.009.003-.01.004-.009.003-.009.004-.01.003-.009.004L.028 0l-.01.004L.01.007.001.01l-.01.003-.008.004-.01.004-.009.005-.009.004-.009.004-.008.005-.01.004L-.08.05l-.01.004-.007.006-.008.006-.008.006-.007.007-.006.008-.003.01.005.007h.01L-.106.1l.01-.003.009-.004.01-.003.009-.002.01-.003.01-.002.009-.003.01-.003.01-.002.009-.002L0 .07.01.069.02.067.03.066.04.065.05.064.06.063.07.062.08.06h.01L.1.058.11.057.12.055.13.053.14.051.148.048l.01-.003.009-.003.009-.005.008-.005.008-.006"/></g></svg>