<svg width="800" height="800" viewBox="-0.2106372582912445 -0.1218668985366822 0.421274516582489 0.2437337970733644"
  xmlns="http://www.w3.org/2000/svg" xmlns:xlink="http://www.w3.org/1999/xlink">
  <defs>
    <clipPath id="circle" clipPathUnits="objectBoundingBox">
      <circle cx=".5" cy=".5" r=".5" />
    </clipPath>
  </defs>
  <g transform="scale(1.0 -1.0)">
    <path stroke-width="0.0144" stroke="#ea5b0c" color_index="43"
      style="fill: none;stroke-linejoin: round;stroke-linecap: round;"
      d="M-0.11203238368034363,0.09081804752349854 L-0.12202662229537964,0.0905226469039917 L-0.13198822736740112,0.08966398239135742 L-0.14187464118003845,0.08817529678344727 L-0.15160471200942993,0.0858839750289917 L-0.1610012948513031,0.08248734474182129 L-0.16961908340454102,0.07745873928070068 L-0.17629438638687134,0.07009828090667725 L-0.17920571565628052,0.06060683727264404 L-0.18034306168556213,0.0506739616394043 L-0.1807968020439148,0.04068636894226074 L-0.1803196370601654,0.030704379081726074 L-0.1774425506591797,0.021228671073913574 L-0.16874974966049194,0.016596555709838867 L-0.158921480178833,0.014822602272033691 L-0.14893388748168945,0.014563441276550293 L-0.13916146755218506,0.016418933868408203 L-0.14041364192962646,0.023862123489379883 L-0.14898213744163513,0.028899192810058594 L-0.15884438157081604,0.029500365257263184 L-0.16787543892860413,0.02537405490875244 L-0.175164133310318,0.018564462661743164 L-0.18097370862960815,0.01043856143951416 L-0.18559497594833374,0.001577615737915039 L-0.1891748011112213,-0.007754325866699219 L-0.19172871112823486,-0.017417550086975098 L-0.1931372582912445,-0.027310967445373535 L-0.19306927919387817,-0.037297844886779785 L-0.19077244400978088,-0.04699409008026123 L-0.18488752841949463,-0.05493009090423584 L-0.17557397484779358,-0.0581592321395874 L-0.16559725999832153,-0.058817505836486816 L-0.15560051798820496,-0.058756232261657715 L-0.14566555619239807,-0.05767512321472168 L-0.1360117793083191,-0.05512034893035889 L-0.12715604901313782,-0.050534725189208984 L-0.11990204453468323,-0.0437016487121582 L-0.11465707421302795,-0.03521251678466797 L-0.11097395420074463,-0.02592289447784424 L-0.10809245705604553,-0.01634812355041504 L-0.10534036159515381,-0.006734371185302734 L-0.10216355323791504,0.0027452707290649414 L-0.098093181848526,0.01187276840209961 L-0.09278842806816101,0.020337343215942383 L-0.08613929152488708,0.02778935432434082 L-0.07831177115440369,0.03399395942687988 L-0.06953111290931702,0.03212141990661621 L-0.06450742483139038,0.023520588874816895 L-0.06116184592247009,0.014102697372436523 L-0.05864742398262024,0.004426002502441406 L-0.056713640689849854,-0.005383968353271484 L-0.05530351400375366,-0.015282750129699707 L-0.05456465482711792,-0.025252103805541992 L-0.05723249912261963,-0.03226971626281738 L-0.05998951196670532,-0.02278459072113037 L-0.06036761403083801,-0.012796163558959961 L-0.05999067425727844,-0.0028047561645507812 L-0.05909803509712219,0.007154345512390137 L-0.05773189663887024,0.0170595645904541 L-0.055838197469711304,0.02687704563140869 L-0.05323562026023865,0.036528944969177246 L-0.049420058727264404,0.04575669765472412 L-0.04248356819152832,0.0525815486907959 L-0.034255921840667725,0.04797971248626709 L-0.029407858848571777,0.03925609588623047 L-0.02581384778022766,0.029927849769592285 L-0.02285689115524292,0.020376205444335938 L-0.020303994417190552,0.010708093643188477 L-0.018045514822006226,0.0009667873382568359 L-0.016014307737350464,-0.008824586868286133">
    </path>
    <path stroke-width="0.0144" stroke="#ea5b0c" color_index="43"
      style="fill: none;stroke-linejoin: round;stroke-linecap: round;"
      d="M-0.004588037729263306,0.04477035999298096 L0.0052651166915893555,0.04387938976287842 L0.015223920345306396,0.044296979904174805 L0.023768097162246704,0.04908394813537598 L0.02678227424621582,0.05845284461975098 L0.024404972791671753,0.06800806522369385 L0.0169680118560791,0.07449030876159668 L0.007282644510269165,0.07660996913909912 L-0.00227472186088562,0.0740814208984375 L-0.00860700011253357,0.06659114360809326 L-0.010925114154815674,0.056872010231018066 L-0.01242208480834961,0.04698741436004639 L-0.013075202703475952,0.037012338638305664 L-0.012692511081695557,0.027025341987609863 L-0.010952472686767578,0.01718902587890625 L-0.007287204265594482,0.00791323184967041 L-0.0008340775966644287,0.00037360191345214844 L0.008428990840911865,-0.0030279159545898438 L0.01825869083404541,-0.001601576805114746 L0.027242958545684814,0.0027407407760620117 L0.03533506393432617,0.008602499961853027 L0.04272282123565674,0.015336751937866211">
    </path>
    <path stroke-width="0.0144" stroke="#ea5b0c" color_index="43"
      style="fill: none;stroke-linejoin: round;stroke-linecap: round;"
      d="M0.0752277672290802,0.09081804752349854 L0.07103624939918518,0.08307123184204102 L0.06795619428157806,0.07355928421020508 L0.06545653939247131,0.06387829780578613 L0.06355403363704681,0.054062843322753906 L0.06239108741283417,0.044133782386779785 L0.062270134687423706,0.03414130210876465 L0.0638069212436676,0.024280071258544922 L0.06821751594543457,0.015385270118713379 L0.07638724148273468,0.009845137596130371 L0.08608527481555939,0.010060906410217285 L0.09234051406383514,0.017629265785217285 L0.09513384103775024,0.027207612991333008 L0.09632238745689392,0.03713107109069824 L0.09659405052661896,0.04712510108947754 L0.09623478353023529,0.057117342948913574 L0.0953739732503891,0.06707918643951416 L0.09405812621116638,0.07699131965637207 L0.09224928915500641,0.08682501316070557 L0.08971495926380157,0.09649372100830078 L0.08471246063709259,0.10436689853668213 L0.08774752914905548,0.09487175941467285 L0.09152133762836456,0.08561134338378906 L0.09544885158538818,0.0764150619506836 L0.09945397078990936,0.06725215911865234 L0.10351470112800598,0.058113694190979004 L0.10761605203151703,0.048993468284606934 L0.11174814403057098,0.039887189865112305 L0.11337803304195404,0.031867265701293945 L0.10395509004592896,0.028519511222839355 L0.09453555941581726,0.0251619815826416 L0.08512023091316223,0.02179276943206787 L0.0757102370262146,0.018408656120300293 L0.06631384789943695,0.014986991882324219 L0.05700123310089111,0.011347413063049316 L0.04768463969230652,0.007714509963989258 L0.03835192322731018,0.004122734069824219 L0.029027223587036133,0.0005103349685668945 L0.019719719886779785,-0.0031461715698242188 L0.01043403148651123,-0.006857633590698242 L0.0011753439903259277,-0.010636091232299805 L-0.008053958415985107,-0.014485597610473633 L-0.01724952459335327,-0.018414974212646484 L-0.026405125856399536,-0.02243673801422119 L-0.035515785217285156,-0.026559114456176758 L-0.044574469327926636,-0.030794501304626465 L-0.05357092618942261,-0.03516054153442383 L-0.06249445676803589,-0.039673447608947754 L-0.07132881879806519,-0.04435849189758301 L-0.08005231618881226,-0.04924666881561279 L-0.08863407373428345,-0.05437958240509033 L-0.09702631831169128,-0.05981600284576416 L-0.10515385866165161,-0.06563997268676758 L-0.11288493871688843,-0.07197868824005127 L-0.1199609637260437,-0.07903599739074707 L-0.12578928470611572,-0.08713793754577637 L-0.12885922193527222,-0.09657633304595947 L-0.12438327074050903,-0.10436689853668213 L-0.11451202630996704,-0.10346114635467529 L-0.10502392053604126,-0.10031676292419434 L-0.09573203325271606,-0.09662127494812012 L-0.08643803000450134,-0.09293162822723389 L-0.07689514756202698,-0.08997130393981934 L-0.067190021276474,-0.08756113052368164 L-0.05750730633735657,-0.08506226539611816 L-0.04783660173416138,-0.08251738548278809 L-0.03816750645637512,-0.07996571063995361 L-0.028489351272583008,-0.07744932174682617 L-0.018791496753692627,-0.07500994205474854 L-0.009064584970474243,-0.07268941402435303 L0.0006991028785705566,-0.07052934169769287 L0.010526567697525024,-0.06868493556976318 L0.020416975021362305,-0.06721067428588867 L0.030338972806930542,-0.06596517562866211 L0.04027697443962097,-0.06485414505004883 L0.050222933292388916,-0.06381666660308838 L0.06017114222049713,-0.06280040740966797 L0.07011766731739044,-0.0617673397064209 L0.08005835115909576,-0.060680508613586426 L0.08998903632164001,-0.05950522422790527 L0.09990444779396057,-0.05820798873901367 L0.10979737341403961,-0.056749582290649414 L0.11965824663639069,-0.05508887767791748 L0.12947404384613037,-0.05318009853363037 L0.1392253190279007,-0.05096638202667236 L0.148884579539299,-0.04838097095489502 L0.15840835869312286,-0.04533576965332031 L0.16773182153701782,-0.04172539710998535 L0.17675186693668365,-0.037415385246276855 L0.18530555069446564,-0.03224539756774902 L0.1931372582912445,-0.026041030883789062">
    </path>
  </g>
</svg>