<svg width="800" height="800" viewBox="-0.6936511862277984 -0.3818679916858673 1.3873023724555968 0.7637359833717347"
  xmlns="http://www.w3.org/2000/svg" xmlns:xlink="http://www.w3.org/1999/xlink">
  <defs>
    <clipPath id="circle" clipPathUnits="objectBoundingBox">
      <circle cx=".5" cy=".5" r=".5" />
    </clipPath>
  </defs>
  <g transform="scale(1.0 -1.0)">
    <path stroke-width="0.0144" stroke="#4b4b4b" color_index="35"
      style="fill: none;stroke-linejoin: round;stroke-linecap: round;"
      d="M-0.414827436208725,0.19555774331092834 L-0.41487541794776917,0.1855579912662506 L-0.415083110332489,0.17556026577949524 L-0.4155004024505615,0.1655692160129547 L-0.4161722660064697,0.15559223294258118 L-0.4171619117259979,0.14564183354377747 L-0.41857126355171204,0.1357426941394806 L-0.42057082056999207,0.12594690918922424 L-0.42348480224609375,0.1163875162601471 L-0.42804864048957825,0.10752108693122864 L-0.4358961582183838,0.10657742619514465 L-0.44119659066200256,0.11500945687294006 L-0.44440126419067383,0.12446287274360657 L-0.4449041187763214,0.13438370823860168 L-0.4384499490261078,0.14105644822120667 L-0.4298607409000397,0.13670018315315247 L-0.4240858554840088,0.12855854630470276 L-0.41938871145248413,0.11973288655281067 L-0.4150644838809967,0.11071637272834778 L-0.4106449484825134,0.1017468273639679 L-0.40507835149765015,0.09348896145820618 L-0.3962368071079254,0.08891287446022034 L-0.38641369342803955,0.0873655378818512 L-0.3767472505569458,0.0896625816822052 L-0.3684352934360504,0.09515443444252014 L-0.36172354221343994,0.10254374146461487 L-0.356373131275177,0.11098149418830872 L-0.3521401584148407,0.12003543972969055 L-0.3488694429397583,0.1294812262058258 L-0.3464893400669098,0.13919034600257874 L-0.3450053930282593,0.14907589554786682 L-0.34451207518577576,0.15905871987342834 L-0.3452397584915161,0.16902390122413635 L-0.34767866134643555,0.17870166897773743 L-0.35280320048332214,0.18721309304237366 L-0.361363023519516,0.1921088993549347 L-0.37129008769989014,0.19256582856178284 L-0.38092097640037537,0.18996480107307434 L-0.3898918330669403,0.18556824326515198 L-0.39823824167251587,0.1800689995288849 L-0.4060443043708801,0.17382314801216125 L-0.4133753478527069,0.16702476143836975 L-0.4202757179737091,0.15978899598121643 L-0.4267686605453491,0.1521851122379303 L-0.4328606426715851,0.1442563831806183 L-0.438541054725647,0.1360277235507965 L-0.4437805116176605,0.1275116503238678 L-0.44852495193481445,0.11871066689491272 L-0.45268553495407104,0.10961964726448059 L-0.45611587166786194,0.1002298891544342 L-0.4585707187652588,0.09054198861122131 L-0.4596203863620758,0.08060970902442932 L-0.458508163690567,0.07070234417915344 L-0.4542139172554016,0.06174543499946594 L-0.4468282163143158,0.05505970120429993 L-0.4380219876766205,0.05036857724189758 L-0.4284026622772217,0.047700434923172 L-0.41845014691352844,0.04685536026954651 L-0.4084782302379608,0.04749897122383118 L-0.3986501395702362,0.049319297075271606 L-0.3890404999256134,0.05207434296607971 L-0.37968459725379944,0.05559840798377991 L-0.37060192227363586,0.059777528047561646 L-0.36181509494781494,0.06454780697822571 L-0.35336410999298096,0.06989017128944397 L-0.34551137685775757,0.07603839039802551 L-0.34274694323539734,0.085450679063797 L-0.34366267919540405,0.09539845585823059 L-0.34486618638038635,0.10532239079475403 L-0.3436143100261688,0.11515370011329651 L-0.33714357018470764,0.12266948819160461 L-0.32974088191986084,0.12939229607582092 L-0.32227638363838196,0.13604679703712463 L-0.3148592412471771,0.1427537500858307 L-0.3075644075870514,0.14959338307380676 L-0.3004586100578308,0.15662887692451477 L-0.2936136722564697,0.16391804814338684 L-0.28712034225463867,0.17152145504951477 L-0.28109627962112427,0.17950084805488586 L-0.2757038474082947,0.18791857361793518 L-0.2711697816848755,0.19682565331459045 L-0.2678009867668152,0.2062319815158844 L-0.26597610116004944,0.21605077385902405 L-0.26604652404785156,0.22603335976600647 L-0.2681595981121063,0.23578932881355286 L-0.2721458375453949,0.2449447214603424 L-0.2776243984699249,0.25329867005348206 L-0.28419557213783264,0.2608284056186676 L-0.29154130816459656,0.2676079571247101 L-0.2994380295276642,0.27373936772346497 L-0.30773434042930603,0.2793196737766266 L-0.3163270652294159,0.2844327986240387 L-0.3251786231994629,0.2890823185443878 L-0.3343049883842468,0.2931654751300812 L-0.34369492530822754,0.2965978682041168 L-0.3533223569393158,0.2992912828922272 L-0.3631434440612793,0.30115655064582825 L-0.3730938732624054,0.3021121323108673 L-0.38308966159820557,0.3020942509174347 L-0.39303281903266907,0.30107203125953674 L-0.40282127261161804,0.2990472614765167 L-0.41236039996147156,0.29606035351753235 L-0.4215720593929291,0.29217806458473206 L-0.4304015338420868,0.28749004006385803 L-0.43881481885910034,0.2820897400379181 L-0.4467986226081848,0.2760719358921051 L-0.45435333251953125,0.2695228159427643 L-0.4614889323711395,0.2625187933444977 L-0.4682203233242035,0.2551253139972687 L-0.4745674729347229,0.247399240732193 L-0.48054924607276917,0.23938658833503723 L-0.48618489503860474,0.2311268150806427 L-0.49149298667907715,0.2226525843143463 L-0.4964907169342041,0.2139916718006134 L-0.5011928081512451,0.20516660809516907 L-0.5056134462356567,0.1961973011493683 L-0.5097638368606567,0.18709972500801086 L-0.5136539936065674,0.1778877079486847 L-0.5172942876815796,0.16857412457466125 L-0.5206916332244873,0.15916922688484192 L-0.5238505601882935,0.1496817171573639 L-0.5267777442932129,0.14011994004249573 L-0.5294740200042725,0.13049057126045227 L-0.5319435596466064,0.12080064415931702 L-0.534184455871582,0.11105504631996155 L-0.5361987352371216,0.10126033425331116 L-0.5379804372787476,0.09142068028450012 L-0.5395298004150391,0.08154180645942688 L-0.5408371686935425,0.07162776589393616 L-0.5418977737426758,0.06168451905250549 L-0.5427019596099854,0.05171731114387512 L-0.5432360172271729,0.04173186421394348 L-0.5434845685958862,0.03173521161079407 L-0.5434298515319824,0.021735817193984985 L-0.5430489778518677,0.01174357533454895 L-0.5423116683959961,0.0017713606357574463 L-0.5411834716796875,-0.008164018392562866 L-0.5396194458007812,-0.01804003119468689 L-0.5375654697418213,-0.02782544493675232 L-0.5349526405334473,-0.03747639060020447 L-0.5316957235336304,-0.046928733587265015 L-0.527690052986145,-0.05608794093132019 L-0.5226091146469116,-0.064687579870224 L-0.516345739364624,-0.07247516512870789 L-0.509310245513916,-0.07957705855369568 L-0.501734733581543,-0.08610162138938904 L-0.49375709891319275,-0.09212872385978699 L-0.4854634404182434,-0.09771397709846497 L-0.47691094875335693,-0.10289439558982849 L-0.4681396782398224,-0.1076953113079071 L-0.4591781198978424,-0.11213108897209167 L-0.45004773139953613,-0.11620810627937317 L-0.44076499342918396,-0.11992540955543518 L-0.4313430190086365,-0.1232735812664032 L-0.4217936396598816,-0.1262393295764923 L-0.41212788224220276,-0.12879982590675354 L-0.4023567736148834,-0.13092276453971863 L-0.3924940824508667,-0.13256803154945374 L-0.38255783915519714,-0.13368317484855652 L-0.37257301807403564,-0.1342003047466278 L-0.36257657408714294,-0.1340356171131134 L-0.35262492299079895,-0.1330854594707489 L-0.34280338883399963,-0.13122692704200745 L-0.3332397937774658,-0.12832441926002502 L-0.32411661744117737,-0.12424799799919128 L-0.31567084789276123,-0.11891177296638489 L-0.3081654906272888,-0.11232009530067444 L-0.30182453989982605,-0.10460165143013 L-0.2963615655899048,-0.09622642397880554 L-0.29118943214416504,-0.08766838908195496 L-0.2862919569015503,-0.07895025610923767 L-0.2816554307937622,-0.07009062170982361 L-0.2772642970085144,-0.06110653281211853 L-0.2731019854545593,-0.05201420187950134 L-0.2691504955291748,-0.04282829165458679 L-0.26539158821105957,-0.033561915159225464 L-0.2618063688278198,-0.024226874113082886 L-0.25837546586990356,-0.014834016561508179 L-0.25507986545562744,-0.005392640829086304 L-0.2519000768661499,0.00408819317817688 L-0.24881692230701447,0.013600975275039673 L-0.24581140279769897,0.02313867211341858 L-0.2428663671016693,0.03269520401954651 L-0.23995697498321533,0.04226270318031311 L-0.237070694565773,0.051836997270584106 L-0.23418383300304413,0.0614112913608551 L-0.2312784045934677,0.07097986340522766 L-0.22833897173404694,0.0805380642414093 L-0.22534064948558807,0.09007790684700012 L-0.22906410694122314,0.0971401035785675 L-0.23899346590042114,0.09816184639930725 L-0.2489897757768631,0.09798350930213928 L-0.2589651942253113,0.09729138016700745 L-0.26891419291496277,0.09628596901893616 L-0.2788380980491638,0.095055490732193 L-0.2887381613254547,0.093645840883255 L-0.298615425825119,0.09208515286445618 L-0.30847030878067017,0.0903879702091217 L-0.3183021545410156,0.08856216073036194 L-0.32810938358306885,0.08660855889320374 L-0.3378889858722687,0.0845213234424591 L-0.3476361632347107,0.08228805661201477 L-0.3573426306247711,0.07988384366035461 L-0.3669927418231964,0.07726255059242249 L-0.37655285000801086,0.07433167099952698 L-0.3859257102012634,0.07085481286048889 L-0.3943459689617157,0.06561437249183655 L-0.4001659154891968,0.05752101540565491 L-0.4038182199001312,0.048234015703201294 L-0.4055981934070587,0.038406163454055786 L-0.4058666527271271,0.028417378664016724 L-0.404896080493927,0.018470317125320435 L-0.4028469920158386,0.00868728756904602 L-0.39977386593818665,-0.0008239448070526123 L-0.39560848474502563,-0.00990721583366394 L-0.3900672495365143,-0.018211930990219116 L-0.3823806047439575,-0.024473756551742554 L-0.37293991446495056,-0.02346178889274597 L-0.3670109808444977,-0.015529125928878784 L-0.36966440081596375,-0.006902426481246948 L-0.3791780173778534,-0.004045218229293823 L-0.38914984464645386,-0.0033844411373138428 L-0.3991457223892212,-0.003606051206588745 L-0.40911877155303955,-0.0043284595012664795 L-0.41906294226646423,-0.005381673574447632 L-0.4289781451225281,-0.00667843222618103 L-0.4388677477836609,-0.008160203695297241 L-0.44873344898223877,-0.009792536497116089 L-0.4585774838924408,-0.011551707983016968 L-0.4684014916419983,-0.0134182870388031 L-0.4782073497772217,-0.015379875898361206 L-0.4879953861236572,-0.01742681860923767 L-0.4977671504020691,-0.01955088973045349 L-0.5075228214263916,-0.02174779772758484 L-0.5172631740570068,-0.02401241660118103 L-0.5269871950149536,-0.026344627141952515 L-0.5366950035095215,-0.028743833303451538 L-0.5463863611221313,-0.0312100350856781 L-0.5560587644577026,-0.03374883532524109 L-0.5657083988189697,-0.03637251257896423 L-0.5753284692764282,-0.03910192847251892 L-0.5849006175994873,-0.041995614767074585 L-0.5943067073822021,-0.04537138342857361 L-0.6032557487487793,-0.04983446002006531 L-0.6122257709503174,-0.054254382848739624 L-0.6211738586425781,-0.05871877074241638 L-0.6300688982009888,-0.06328794360160828 L-0.6388806104660034,-0.06801554560661316 L-0.6475651264190674,-0.07297226786613464 L-0.6560503244400024,-0.07826206088066101 L-0.6641877889633179,-0.08406910300254822 L-0.671563982963562,-0.09080258011817932 L-0.6761511564254761,-0.09949871897697449 L-0.6711099147796631,-0.10751435160636902 L-0.6621884107589722,-0.11202433705329895 L-0.653035044670105,-0.11604854464530945 L-0.6436991691589355,-0.11962965130805969 L-0.6342052221298218,-0.12276706099510193 L-0.6245770454406738,-0.12546512484550476 L-0.6148380041122437,-0.1277318298816681 L-0.6050113439559937,-0.12958064675331116 L-0.5951172113418579,-0.1310279667377472 L-0.5851743221282959,-0.13208988308906555 L-0.5751993656158447,-0.13278958201408386 L-0.5652062892913818,-0.1331460177898407 L-0.5552066564559937,-0.13318201899528503 L-0.5452104806900024,-0.13292011618614197 L-0.5352253913879395,-0.132381409406662 L-0.5252573490142822,-0.13158610463142395 L-0.5153108835220337,-0.13055548071861267 L-0.5053890347480774,-0.12930890917778015 L-0.49549391865730286,-0.12786468863487244 L-0.48562678694725037,-0.12624046206474304 L-0.4757881164550781,-0.1244528591632843 L-0.465977281332016,-0.12251749634742737 L-0.4561936855316162,-0.12044855952262878 L-0.44643571972846985,-0.11826220154762268 L-0.4367019236087799,-0.11597082018852234 L-0.42699021100997925,-0.11358723044395447 L-0.4172983467578888,-0.11112388968467712 L-0.4076239764690399,-0.10859218239784241 L-0.397964745759964,-0.10600444674491882 L-0.38831785321235657,-0.10337045788764954 L-0.3786795139312744,-0.1007053554058075 L-0.3690485656261444,-0.09801432490348816 L-0.3594193458557129,-0.09531649947166443 L-0.34979093074798584,-0.09261545538902283 L-0.3401598036289215,-0.0899251401424408 L-0.3305221498012543,-0.087256520986557 L-0.3208756148815155,-0.08462104201316833 L-0.3112166225910187,-0.08203253149986267 L-0.30154186487197876,-0.07950291037559509 L-0.29184839129447937,-0.07704576849937439 L-0.28213343024253845,-0.07467576861381531 L-0.27239400148391724,-0.0724080502986908 L-0.2626280188560486,-0.0702577531337738 L-0.2528470754623413,-0.06817671656608582 L-0.24307194352149963,-0.06606754660606384 L-0.23330415785312653,-0.06392452120780945 L-0.22354327142238617,-0.061751216650009155 L-0.21378900110721588,-0.05954846739768982 L-0.20404201745986938,-0.05731341242790222 L-0.19430136680603027,-0.05505034327507019 L-0.18456755578517914,-0.05275866389274597 L-0.17484061419963837,-0.05043777823448181 L-0.1651199460029602,-0.04809066653251648 L-0.15540637075901031,-0.04571458697319031 L-0.14569920301437378,-0.04331275820732117 L-0.13599848747253418,-0.040884941816329956 L-0.12630432844161987,-0.03843018412590027 L-0.1166163980960846,-0.03595194220542908 L-0.10693532228469849,-0.033446282148361206 L-0.09726033359766006,-0.030917853116989136 L-0.08759155869483948,-0.02836427092552185 L-0.07792939990758896,-0.02578696608543396 L-0.06827324628829956,-0.02318701148033142 L-0.0586237795650959,-0.020562857389450073 L-0.04898015409708023,-0.017917484045028687 L-0.03934304788708687,-0.015247553586959839 L-0.02971179410815239,-0.012557357549667358 L-0.020086999982595444,-0.009844034910202026 L-0.01046794094145298,-0.007109850645065308 L-0.0008552754297852516,-0.0043540894985198975 L0.008751589804887772,-0.0015773475170135498 L0.018352467566728592,0.0012197792530059814 L0.027946971356868744,0.004038125276565552 L0.03753584995865822,0.006875544786453247 L0.04711848497390747,0.009734541177749634 L0.05669568479061127,0.01261165738105774 L0.06626632809638977,0.015510231256484985 L0.07583163678646088,0.018426567316055298 L0.08539076894521713,0.021363407373428345 L0.09494408965110779,0.02431836724281311 L0.10449151694774628,0.027292519807815552 L0.1140332818031311,0.030285149812698364 L0.12356922030448914,0.033296138048172 L0.13309909403324127,0.0363258421421051 L0.14262352883815765,0.039373189210891724 L0.15214139223098755,0.04244163632392883 L0.16165392100811005,0.045525699853897095 L0.1711617410182953,0.04862406849861145 L0.18066315352916718,0.051741987466812134 L0.190158411860466,0.054879337549209595 L0.1996482014656067,0.05803218483924866 L0.20913198590278625,0.06120386719703674 L0.21861012279987335,0.06439223885536194 L0.2280823141336441,0.06759801506996155 L0.23754927515983582,0.07081905007362366 L0.24700933694839478,0.07406070828437805 L0.2564648389816284,0.07731512188911438 L0.2659147381782532,0.08058610558509827 L0.27535754442214966,0.08387735486030579 L0.28479519486427307,0.08718374371528625 L0.29422733187675476,0.09050539135932922 L0.3036544620990753,0.09384170174598694 L0.3130747079849243,0.09719708561897278 L0.3224881589412689,0.10057094693183899 L0.3318968117237091,0.1039591133594513 L0.3412998616695404,0.10736218094825745 L0.35069742798805237,0.11078062653541565 L0.3600875735282898,0.11421945691108704 L0.36947211623191833,0.11767342686653137 L0.3788509666919708,0.12114253640174866 L0.38822463154792786,0.124627023935318 L0.3975919187068939,0.12812760472297668 L0.40695199370384216,0.13164761662483215 L0.4163060784339905,0.13518264889717102 L0.4256545305252075,0.13873329758644104 L0.43499717116355896,0.1422993242740631 L0.44433367252349854,0.14588108658790588 L0.45366233587265015,0.14948299527168274 L0.4629852771759033,0.15310052037239075 L0.4723016917705536,0.1567336618900299 L0.4816121459007263,0.16038289666175842 L0.4909162223339081,0.1640479862689972 L0.5002131462097168,0.16773131489753723 L0.5095027685165405,0.1714330017566681 L0.510503888130188,0.1751883327960968 L0.5005090236663818,0.1752493679523468 L0.490529328584671,0.17462900280952454 L0.4805956184864044,0.17349258065223694 L0.47081422805786133,0.1714363396167755 L0.4610859751701355,0.16912105679512024 L0.45135629177093506,0.1668114960193634 L0.44162657856941223,0.16450241208076477 L0.4318970739841461,0.16219225525856018 L0.422169029712677,0.15987566113471985 L0.41244205832481384,0.15755513310432434 L0.40271812677383423,0.15522077679634094 L0.3929976522922516,0.1528729498386383 L0.38328102231025696,0.15050891041755676 L0.3735698461532593,0.14812293648719788 L0.363864541053772,0.14571359753608704 L0.3541654646396637,0.14327874779701233 L0.34447354078292847,0.1408158838748932 L0.33479034900665283,0.13831844925880432 L0.32511627674102783,0.13578656315803528 L0.31545281410217285,0.13321450352668762 L0.30580005049705505,0.13060227036476135 L0.2961599826812744,0.12794342637062073 L0.2865329682826996,0.12523844838142395 L0.27692005038261414,0.12248101830482483 L0.26732337474823,0.11967137455940247 L0.2577432692050934,0.11680343747138977 L0.2481810450553894,0.11387696862220764 L0.2386387586593628,0.11088696122169495 L0.22911669313907623,0.10783258080482483 L0.2196064591407776,0.10474064946174622 L0.2101016491651535,0.1016334593296051 L0.20060144364833832,0.0985119640827179 L0.19110573828220367,0.09537604451179504 L0.18161490559577942,0.09222570061683655 L0.17212927341461182,0.08906081318855286 L0.16264794766902924,0.08588114380836487 L0.15317212045192719,0.08268681168556213 L0.14370110630989075,0.0794767439365387 L0.13423624634742737,0.0762498676776886 L0.12477640807628632,0.0730079710483551 L0.11532191932201385,0.06975057721138 L0.10587232559919357,0.0664776861667633 L0.09642881155014038,0.06318965554237366 L0.08698996901512146,0.059885650873184204 L0.07755711674690247,0.05656591057777405 L0.06812993437051773,0.05322936177253723 L0.058709584176540375,0.04987505078315735 L0.04929467290639877,0.04650464653968811 L0.03988558426499367,0.043117910623550415 L0.030482664704322815,0.03971484303474426 L0.021084949374198914,0.036295086145401 L0.01169406995177269,0.03285899758338928 L0.002309175208210945,0.029405981302261353 L-0.007068597711622715,0.0259343683719635 L-0.01644022949039936,0.02244427800178528 L-0.025804638862609863,0.018937379121780396 L-0.0351632684469223,0.015412837266921997 L-0.044514838606119156,0.011871010065078735 L-0.053859882056713104,0.008311659097671509 L-0.06319807469844818,0.004734545946121216 L-0.07252992689609528,0.0011395514011383057 L-0.08185330033302307,-0.0024755895137786865 L-0.09116996824741364,-0.006109088659286499 L-0.10047803819179535,-0.009762972593307495 L-0.10978005826473236,-0.013433903455734253 L-0.11907561123371124,-0.017121165990829468 L-0.12836217880249023,-0.020830124616622925 L-0.13764159381389618,-0.024557918310165405 L-0.1469128578901291,-0.028305143117904663 L-0.15617574751377106,-0.032072514295578 L-0.16543135046958923,-0.03585943579673767 L-0.17467841506004333,-0.039665549993515015 L-0.18391749262809753,-0.043492287397384644 L-0.19314803183078766,-0.04733976721763611 L-0.20236988365650177,-0.05120691657066345 L-0.2115836888551712,-0.05509409308433533 L-0.2207876294851303,-0.05900248885154724 L-0.22998341917991638,-0.0629321038722992 L-0.2391701340675354,-0.06688210368156433 L-0.24834829568862915,-0.07085296511650085 L-0.2575163245201111,-0.07484588027000427 L-0.26667508482933044,-0.07886013388633728 L-0.2758246958255768,-0.08289560675621033 L-0.2849648892879486,-0.08695229887962341 L-0.2940947115421295,-0.09103229641914368 L-0.3032149374485016,-0.09513404965400696 L-0.3123250901699066,-0.09925755858421326 L-0.32142534852027893,-0.10340312123298645 L-0.33051425218582153,-0.10757258534431458 L-0.33959347009658813,-0.1117645800113678 L-0.3486616611480713,-0.11597880721092224 L-0.3577200472354889,-0.12021628022193909 L-0.3667660057544708,-0.12447795271873474 L-0.3758017122745514,-0.12876304984092712 L-0.3848259449005127,-0.13307103514671326 L-0.39383915066719055,-0.13740280270576477 L-0.4028400182723999,-0.14175978302955627 L-0.4118296205997467,-0.14614072442054749 L-0.4208073019981384,-0.15054556727409363 L-0.4297727644443512,-0.15497437119483948 L-0.43872588872909546,-0.15942975878715515 L-0.4476659893989563,-0.16390928626060486 L-0.4557495415210724,-0.16963526606559753 L-0.4603685736656189,-0.1784343421459198 L-0.4623669385910034,-0.18821653723716736 L-0.4629107117652893,-0.19819673895835876 L-0.4626331329345703,-0.2081911861896515 L-0.4619193971157074,-0.21816518902778625 L-0.4611232578754425,-0.22813370823860168 L-0.4610365927219391,-0.23812302947044373 L-0.46241989731788635,-0.2480224072933197 L-0.4645180106163025,-0.25779834389686584 L-0.4668959677219391,-0.2675119936466217 L-0.4692855179309845,-0.27722159028053284 L-0.47142571210861206,-0.2869897186756134 L-0.4729093015193939,-0.2968745529651642 L-0.4727683365345001,-0.3068464696407318 L-0.4679773449897766,-0.3152894675731659 L-0.45831018686294556,-0.3170834481716156 L-0.44832488894462585,-0.31658509373664856 L-0.43839216232299805,-0.3154411017894745 L-0.42855003476142883,-0.313679963350296 L-0.4188288152217865,-0.31134042143821716 L-0.40925097465515137,-0.3084687292575836 L-0.3998313844203949,-0.30511602759361267 L-0.39057472348213196,-0.3013339340686798 L-0.381481796503067,-0.2971743643283844 L-0.3725457191467285,-0.29268595576286316 L-0.36375826597213745,-0.28791525959968567 L-0.35510456562042236,-0.2829034626483917 L-0.3465717136859894,-0.2776901423931122 L-0.33814239501953125,-0.2723093330860138 L-0.32980042695999146,-0.26679566502571106 L-0.32152703404426575,-0.2611781656742096 L-0.31330615282058716,-0.2554849684238434 L-0.3051193654537201,-0.24974235892295837 L-0.29694831371307373,-0.2439781129360199 L-0.28877580165863037,-0.2382148802280426 L-0.2805843949317932,-0.23247942328453064 L-0.27235716581344604,-0.22679439187049866 L-0.26407551765441895,-0.22119000554084778 L-0.2557227313518524,-0.21569135785102844 L-0.24728305637836456,-0.210328608751297 L-0.23873862624168396,-0.20513275265693665 L-0.230075865983963,-0.20013853907585144 L-0.22128021717071533,-0.1953812539577484 L-0.21234044432640076,-0.19090119004249573 L-0.20324723422527313,-0.1867412030696869 L-0.1940641701221466,-0.1827821433544159 L-0.18486592173576355,-0.17885908484458923 L-0.17565219104290009,-0.1749717891216278 L-0.1664240062236786,-0.17112049460411072 L-0.15718035399913788,-0.1673043668270111 L-0.14792293310165405,-0.16352340579032898 L-0.13865093886852264,-0.15977755188941956 L-0.1293661743402481,-0.15606465935707092 L-0.12006740272045135,-0.1523844301700592 L-0.11075861006975174,-0.14873197674751282 L-0.10143952816724777,-0.14510539174079895 L-0.09211169928312302,-0.1415015161037445 L-0.08277493715286255,-0.1379193365573883 L-0.07343389093875885,-0.1343500316143036 L-0.06409014761447906,-0.13078650832176208 L-0.05474665015935898,-0.12722399830818176 L-0.04540503770112991,-0.12365487217903137 L-0.036069899797439575,-0.12006941437721252 L-0.026746302843093872,-0.11645415425300598 L-0.017437592148780823,-0.11280110478401184 L-0.008150365203619003,-0.10909315943717957 L0.0011093709617853165,-0.10531821846961975 L0.010336052626371384,-0.10146155953407288 L0.019521746784448624,-0.09750953316688538 L0.028659045696258545,-0.09344556927680969 L0.03774027153849602,-0.08925828337669373 L0.0467582605779171,-0.08493778109550476 L0.05570567399263382,-0.08047160506248474 L0.06457445025444031,-0.07585307955741882 L0.07336103171110153,-0.07107815146446228 L0.0820586085319519,-0.06614407896995544 L0.090665303170681,-0.061052173376083374 L0.09917790442705154,-0.05580541491508484 L0.10759620368480682,-0.050407618284225464 L0.1159193366765976,-0.044865697622299194 L0.12415024638175964,-0.039186328649520874 L0.1322900950908661,-0.03337833285331726 L0.14034219086170197,-0.027448147535324097 L0.14831028878688812,-0.0214061439037323 L0.15619760751724243,-0.015258997678756714 L0.1640084832906723,-0.009014695882797241 L0.17174746096134186,-0.002681225538253784 L0.17941708862781525,0.0037346184253692627 L0.1870238333940506,0.010226994752883911 L0.19456978142261505,0.01678827404975891 L0.20205941796302795,0.023414641618728638 L0.20949597656726837,0.030100136995315552 L0.21688276529312134,0.03684070706367493 L0.22140000760555267,0.04557028412818909 L0.22313229739665985,0.055412083864212036 L0.22398953139781952,0.06537416577339172 L0.224387988448143,0.0753653347492218 L0.22449283301830292,0.08536496758460999 L0.22438731789588928,0.09536400437355042 L0.22412289679050446,0.10536041855812073 L0.22372934222221375,0.11535242199897766 L0.2232302874326706,0.12534013390541077 L0.2226414680480957,0.1353224813938141 L0.22197328507900238,0.14530065655708313 L0.22123698890209198,0.15527275204658508 L0.22043801844120026,0.1652410328388214 L0.21958160400390625,0.17520394921302795 L0.2186715006828308,0.18516269326210022 L0.21771053969860077,0.1951165497303009 L0.21670031547546387,0.20506551861763 L0.21563947200775146,0.21500888466835022 L0.2145286351442337,0.2249470055103302 L0.21336494386196136,0.23487892746925354 L0.212138369679451,0.24480333924293518 L0.2108340859413147,0.25471773743629456 L0.20940276980400085,0.26461508870124817 L0.20747719705104828,0.27442148327827454 L0.20451410114765167,0.28397098183631897 L0.20126841962337494,0.2934294044971466 L0.19804424047470093,0.30289557576179504 L0.1950264871120453,0.3124291002750397 L0.192405104637146,0.32207778096199036 L0.19047677516937256,0.3318864405155182 L0.1898341327905655,0.34185245633125305 L0.1919594258069992,0.3515489399433136 L0.19907674193382263,0.3582834303379059 L0.20855335891246796,0.36140695214271545 L0.21841390430927277,0.3630436956882477 L0.22837410867214203,0.36391571164131165 L0.23836582899093628,0.3643092215061188 L0.24836552143096924,0.3643679916858673 L0.2583630681037903,0.36417916417121887 L0.2683556377887726,0.3637942373752594 L0.2783406972885132,0.3632505238056183 L0.2883179485797882,0.3625747263431549 L0.2982860505580902,0.3617836534976959 L0.3082471787929535,0.3608957827091217 L0.3181988000869751,0.35992005467414856 L0.3281435966491699,0.3588680326938629 L0.3380797505378723,0.3577435314655304 L0.34800979495048523,0.356558233499527 L0.35793158411979675,0.3553115427494049 L0.36784660816192627,0.354011207818985 L0.3777545392513275,0.3526604473590851 L0.3876563310623169,0.35126081109046936 L0.39755138754844666,0.3498136103153229 L0.4074390232563019,0.34832027554512024 L0.4173203110694885,0.34678152203559875 L0.4271933436393738,0.34519627690315247 L0.4370593726634979,0.3435632288455963 L0.44691577553749084,0.3418760597705841 L0.4567607641220093,0.3401205837726593 L0.46657973527908325,0.3382284939289093 L0.4763478934764862,0.3360864222049713 L0.4860742390155792,0.33376625180244446 L0.4957544505596161,0.3312561810016632 L0.5053794384002686,0.3285459578037262 L0.5149427652359009,0.3256237804889679 L0.5244350433349609,0.32247820496559143 L0.5338464975357056,0.319099098443985 L0.5431654453277588,0.31547263264656067 L0.5523810386657715,0.3115905821323395 L0.5614786148071289,0.307441383600235 L0.5704452991485596,0.3030150234699249 L0.5792657136917114,0.2983042299747467 L0.5879230499267578,0.29330018162727356 L0.596400260925293,0.2879970371723175 L0.6046810150146484,0.28239157795906067 L0.6127464771270752,0.27648141980171204 L0.6205791234970093,0.27026548981666565 L0.6281638145446777,0.26374879479408264 L0.6354813575744629,0.2569345533847809 L0.6425185203552246,0.24983027577400208 L0.6492611169815063,0.24244704842567444 L0.6556993722915649,0.234795480966568 L0.6618169546127319,0.22688701748847961 L0.6670876741409302,0.21839848160743713 L0.6711117029190063,0.20925310254096985 L0.6738971471786499,0.1996554434299469 L0.6755332946777344,0.18979576230049133 L0.6761511564254761,0.1798185408115387 L0.6758944988250732,0.1698247492313385 L0.6748943328857422,0.1598762571811676 L0.6732659339904785,0.15001168847084045 L0.6711040735244751,0.14024892449378967 L0.6684869527816772,0.13059881329536438 L0.665479302406311,0.12106230854988098 L0.6621326208114624,0.11163976788520813 L0.6584900617599487,0.10232678055763245 L0.6545875072479248,0.09312024712562561 L0.6504524946212769,0.08401516079902649 L0.6461114883422852,0.07500699162483215 L0.6415847539901733,0.06609049439430237 L0.6368896961212158,0.057261377573013306 L0.6320416927337646,0.04851546883583069 L0.6270534992218018,0.03984823822975159 L0.6219366788864136,0.03125670552253723 L0.6167000532150269,0.022736936807632446 L0.6113542318344116,0.014286428689956665 L0.6059041023254395,0.005901962518692017 L0.6003583669662476,-0.0024189651012420654 L0.5947220325469971,-0.010679572820663452 L0.5890007019042969,-0.018880456686019897 L0.5831979513168335,-0.027025073766708374 L0.5773190259933472,-0.035113900899887085 L0.5713659524917603,-0.043149203062057495 L0.5653425455093384,-0.05113145709037781 L0.559251070022583,-0.05906197428703308 L0.5530961751937866,-0.06694349646568298 L0.5468807220458984,-0.07477721571922302 L0.5406103134155273,-0.08256694674491882 L0.5343176126480103,-0.090338796377182 L0.5282459259033203,-0.0982833206653595 L0.5221152305603027,-0.10618355870246887 L0.5158447027206421,-0.11397311091423035 L0.5094363689422607,-0.12164995074272156 L0.5028932094573975,-0.1292113959789276 L0.49621692299842834,-0.13665685057640076 L0.4894113838672638,-0.14398297667503357 L0.4824785888195038,-0.15119001269340515 L0.47542208433151245,-0.1582755744457245 L0.46824517846107483,-0.16523846983909607 L0.46095022559165955,-0.172078937292099 L0.45354199409484863,-0.17879518866539001 L0.4460228383541107,-0.18538782000541687 L0.4383968412876129,-0.19185641407966614 L0.4306672215461731,-0.19820114970207214 L0.42283838987350464,-0.20442166924476624 L0.4149126708507538,-0.21051964163780212 L0.40689465403556824,-0.21649476885795593 L0.3987867832183838,-0.2223488986492157 L0.39059391617774963,-0.2280820906162262 L0.3823181688785553,-0.23369619250297546 L0.3739643096923828,-0.23919162154197693 L0.36553412675857544,-0.24457129836082458 L0.3570326864719391,-0.2498357594013214 L0.34846189618110657,-0.25498756766319275 L0.3398255407810211,-0.26002809405326843 L0.33112600445747375,-0.26495984196662903 L0.3223671317100525,-0.26978442072868347 L0.31355080008506775,-0.27450427412986755 L0.30468088388442993,-0.27912119030952454 L0.29575884342193604,-0.28363803029060364 L0.28678804636001587,-0.2880564033985138 L0.2777704894542694,-0.29237911105155945 L0.2687087059020996,-0.2966085970401764 L0.25960567593574524,-0.300746887922287 L0.2504623234272003,-0.3047972023487091 L0.24128150939941406,-0.3087601363658905 L0.23206506669521332,-0.31264176964759827 L0.22281530499458313,-0.3164408504962921 L0.2135336846113205,-0.3201628029346466 L0.20422165095806122,-0.3238079249858856 L0.19488170742988586,-0.3273802697658539 L0.18551452457904816,-0.3308812081813812 L0.17612232267856598,-0.33431413769721985 L0.16670635342597961,-0.3376806676387787 L0.15726739168167114,-0.3409842550754547 L0.1478079855442047,-0.34422627091407776 L0.1383281648159027,-0.3474104702472687 L0.12883006036281586,-0.3505379855632782 L0.11931400001049042,-0.3536124527454376 L0.10978222638368607,-0.3566349446773529 L0.10010260343551636,-0.35912343859672546 L0.09024923294782639,-0.3608204424381256 L0.08032923191785812,-0.3620814383029938 L0.0703747496008873,-0.3630261719226837 L0.06039808690547943,-0.3637072741985321 L0.050408028066158295,-0.3641516864299774 L0.040410615503787994,-0.3643679916858673 L0.03041064366698265,-0.3643558919429779 L0.020414013415575027,-0.364106684923172 L0.010426804423332214,-0.36360421776771545 L0.0004579564556479454,-0.36282452940940857 L-0.009481516666710377,-0.36172983050346375 L-0.019373634830117226,-0.3602701723575592 L-0.02919115126132965,-0.3583734333515167 L-0.03888798877596855,-0.35593608021736145 L-0.048380956053733826,-0.35280153155326843 L-0.057508163154125214,-0.34873130917549133 L-0.06592355668544769,-0.3433549106121063 L-0.07336582243442535,-0.336679607629776 L-0.08055221289396286,-0.3297261893749237 L-0.08751881867647171,-0.3225533068180084 L-0.09425341337919235,-0.3151613175868988 L-0.10074090212583542,-0.30755242705345154 L-0.1069696918129921,-0.2997295558452606 L-0.11292629688978195,-0.2916979491710663 L-0.1185985580086708,-0.2834630310535431 L-0.12397480010986328,-0.27503201365470886 L-0.1290448158979416,-0.2664131224155426 L-0.13379915058612823,-0.25761619210243225 L-0.13822990655899048,-0.24865183234214783 L-0.14232930541038513,-0.2395314872264862 L-0.1460934430360794,-0.23026767373085022 L-0.14951837062835693,-0.22087273001670837 L-0.15260189771652222,-0.211360901594162 L-0.155344158411026,-0.2017442286014557 L-0.15774601697921753,-0.19203785061836243 L-0.15980976819992065,-0.18225356936454773 L-0.1615401953458786,-0.17240527272224426 L-0.16294118762016296,-0.16250422596931458 L-0.16401980817317963,-0.15256312489509583 L-0.16478246450424194,-0.14259228110313416 L-0.165236696600914,-0.13260319828987122 L-0.1653909832239151,-0.12260445952415466 L-0.1652531772851944,-0.11260625720024109 L-0.1648326814174652,-0.10261532664299011 L-0.16413778066635132,-0.09263971447944641 L-0.16317780315876007,-0.0826861560344696 L-0.1619614064693451,-0.07276079058647156 L-0.1604965627193451,-0.06286892294883728 L-0.15879322588443756,-0.053015559911727905 L-0.15686021745204926,-0.043204158544540405 L-0.15470261871814728,-0.03344032168388367 L-0.15233086049556732,-0.023725837469100952 L-0.14975199103355408,-0.014064282178878784 L-0.14697133004665375,-0.004458636045455933 L-0.1439986526966095,0.005088597536087036 L-0.14083699882030487,0.01457563042640686 L-0.1374949812889099,0.02400091290473938 L-0.13397705554962158,0.03336217999458313 L-0.13028976321220398,0.04265597462654114 L-0.12643733620643616,0.05188432335853577 L-0.12242384254932404,0.061044126749038696 L-0.11825594305992126,0.07013395428657532 L-0.11393555998802185,0.07915177941322327 L-0.10946854203939438,0.08809879422187805 L-0.10485614091157913,0.0969710648059845 L-0.10010391473770142,0.10577037930488586 L-0.09521349519491196,0.11449185013771057 L-0.0901886448264122,0.12313774228096008 L-0.08503080159425735,0.13170519471168518 L-0.07974299788475037,0.14019277691841125 L-0.07432806491851807,0.1485990583896637 L-0.06878522038459778,0.156922847032547 L-0.06310252845287323,0.16515091061592102 L-0.05671662837266922,0.17284634709358215 L-0.05023771896958351,0.18046191334724426 L-0.04369377717375755,0.18802371621131897 L-0.037091344594955444,0.19553425908088684 L-0.030428854748606682,0.20299175381660461 L-0.023707345128059387,0.21039608120918274 L-0.01692422479391098,0.21774378418922424 L-0.010073782876133919,0.22502818703651428 L-0.0031508198007941246,0.23224511742591858 L0.0038504619151353836,0.23938587307929993 L0.01093713752925396,0.2464393675327301 L0.018122363835573196,0.25339487195014954 L0.025417998433113098,0.2602340281009674 L0.03284193202853203,0.26693418622016907 L0.040415868163108826,0.2734619677066803 L0.048174500465393066,0.27977052330970764 L0.056161969900131226,0.2857854664325714 L0.06444568186998367,0.2913852035999298 L0.07312875241041183,0.29633715748786926 L0.08237152546644211,0.3001202642917633 L0.09223558008670807,0.3012663424015045 L0.1007322445511818,0.29652705788612366">
    </path>
  </g>
</svg>