<svg width="800" height="800" viewBox="-0.6936511862277984 -0.3818679916858673 1.3873023724555968 0.7637359833717347"
  xmlns="http://www.w3.org/2000/svg">
  <path stroke-width=".014" stroke="#4b4b4b"
    d="M-.415-.196v.03l-.001.01-.001.01-.002.01-.002.01-.002.01-.005.008-.008.001-.005-.008-.003-.01v-.01l.006-.006.008.004.006.008.005.01.004.008.004.01.006.008.009.004.01.002.01-.003.008-.005.006-.008.006-.008.004-.009.003-.01.003-.01.001-.01v-.019l-.003-.01-.005-.008-.008-.005h-.01l-.01.002-.009.004-.008.006-.008.006-.007.007-.007.007-.007.008-.006.008-.006.008-.005.008-.005.01-.004.008-.003.01-.003.01v.02l.005.008.007.007.009.005.01.002.01.001h.01l.01-.002.009-.003.01-.004.008-.004.01-.005.008-.005.007-.006.003-.01v-.01l-.002-.01.001-.01.007-.007.007-.006.008-.007.007-.007.007-.007.008-.007.006-.007.007-.008.006-.008.005-.008.005-.009.003-.01.002-.01v-.009l-.002-.01-.004-.009-.006-.008-.006-.008-.008-.007-.007-.006-.009-.005-.008-.005-.01-.005-.008-.004-.01-.004-.01-.002-.01-.002-.01-.001h-.019l-.01.003-.01.003-.009.004-.008.005-.009.005-.008.006-.007.006-.007.007-.007.008-.007.008-.006.008-.005.008-.005.008-.005.009-.005.009-.005.009-.004.009-.004.01-.003.008-.004.01-.003.01-.003.009-.002.01-.003.01-.002.009-.002.01-.002.01-.002.01v.01l-.002.01v.01l-.001.01v.04l.002.01.001.009.002.01.003.01.003.009.004.01.005.008.007.007.007.008.007.006.008.006.009.006.008.005.009.005.009.004.009.004.01.004.009.003.01.003.009.003.01.002.01.002h.01l.01.001h.02l.01-.003.009-.003.009-.004.008-.005.008-.007.006-.007.006-.009.005-.008.005-.009.004-.009.005-.009.004-.009.004-.01.004-.008.003-.01.004-.01.003-.009.003-.01.003-.009.003-.01.003-.009.003-.01.003-.009.003-.01.003-.009.003-.01.003-.01-.004-.006-.01-.001h-.02l-.01.002h-.01l-.01.002-.01.002-.01.002-.01.001-.01.002-.009.002-.01.003-.01.002-.009.003-.01.003-.009.003-.008.005-.006.008-.004.01-.002.01v.01l.001.01.002.01L-.4 0l.004.009.006.008.008.006h.01l.005-.008-.003-.01-.01-.002h-.03l-.01.001-.009.002-.01.001-.01.002-.01.002-.01.001-.01.002-.009.002-.01.003-.01.002-.01.002-.009.002-.01.003-.01.002-.01.003-.009.002-.01.003-.009.003-.01.003-.008.005-.01.004L-.62.06l-.01.004-.008.005-.009.005-.008.005-.008.006-.008.007L-.675.1l.005.009.009.004.009.004.01.004.009.003.01.002.01.003.009.002.01.001.01.001h.01l.01.001h.03l.01-.001.01-.001.01-.002.01-.001.01-.002.01-.002.009-.001.01-.003.01-.002.01-.002.009-.002.01-.003.01-.002.009-.003.01-.003.01-.002.009-.003.01-.003.01-.002L-.34.09l.01-.003.01-.002.009-.003.01-.002.01-.003.009-.002.01-.003.01-.002.01-.002.009-.002.01-.002.01-.002.01-.002.009-.003.01-.002.01-.002.01-.003.009-.002.01-.002.01-.003.009-.002.01-.003.01-.002.01-.003.009-.002.01-.003.01-.002.009-.003.01-.002.009-.003.01-.003.01-.002L-.02.01l.01-.003L0 .004.008.002l.01-.003.009-.003.01-.003.01-.003.009-.003.01-.003.009-.002.01-.003.009-.003.01-.003.009-.003.01-.003.01-.003.009-.003.01-.003.009-.004.01-.003.009-.003.01-.003.01-.003.01-.003.009-.003.01-.004.009-.003.009-.003.01-.003.009-.004.01-.003.009-.003.01-.004.009-.003.01-.003.008-.004.01-.003.01-.003.009-.004.01-.003.008-.004.01-.003.01-.004.009-.003.009-.004.01-.003.009-.004.009-.003.01-.004.009-.003.009-.004.01-.004.009-.003.009-.004.01-.004L.51-.17v-.004H.49l-.01.002-.01.002-.009.002-.01.002-.01.002-.01.003-.009.002-.01.002-.01.003-.009.002-.01.002-.01.003-.01.002-.009.003-.01.002-.01.003-.009.002-.01.003-.01.002-.009.003-.01.003-.01.003-.009.002-.01.003-.009.003-.01.003-.009.003-.01.003-.009.003-.01.003-.009.004-.01.003-.009.003-.01.003-.009.003-.01.004-.009.003-.01.003-.009.003-.01.004-.009.003-.009.003-.01.003-.009.004-.01.003-.009.003-.01.004L.03-.04l-.009.004-.01.003-.009.004-.01.003-.008.004-.01.003-.01.004-.009.003-.009.004-.01.003L-.072 0l-.009.003-.01.004L-.1.01l-.01.003-.01.004-.008.004-.01.004-.009.003-.01.004-.008.004-.01.004-.009.003-.01.004-.008.004-.01.004L-.22.06l-.01.003-.01.004-.008.004-.01.004-.009.004-.009.004-.009.004-.01.004-.008.004-.01.004-.008.004-.01.005-.009.004-.009.004-.009.004-.009.004-.009.005-.009.004-.009.004-.009.005-.009.004-.009.005-.009.004-.009.004-.009.005-.008.006-.004.008-.002.01v.04l.001.01-.001.01-.003.01-.002.01-.002.01-.002.009-.002.01v.01l.005.008.01.002h.01l.01-.002.01-.001.01-.003.009-.003.01-.003.008-.004.01-.004.008-.004.01-.005.008-.005.008-.005.009-.006.008-.005.008-.006.009-.006.008-.005.008-.006.008-.006.008-.006.009-.005.008-.006.008-.005.009-.006.008-.005L-.23.2l.009-.005.009-.004.009-.004.009-.004.01-.004.008-.004.01-.004.009-.004.01-.003L-.14.16l.01-.004.009-.004.01-.003.009-.004.009-.003.01-.004.009-.004.009-.003.01-.004.009-.003.009-.004.01-.004.009-.003.009-.004.01-.004L.01.101.02.098.029.093.038.09.047.085.056.08.065.076.073.07l.01-.005L.09.061.099.056.108.05.116.045.124.039.132.033.14.027.148.021.156.015.164.01.172.003l.007-.007.008-.006.008-.007.007-.006L.21-.03l.008-.007.004-.009.002-.01.001-.01v-.059l-.001-.01-.001-.01v-.01L.22-.165v-.01l-.001-.01-.001-.01-.001-.01-.001-.009-.001-.01-.002-.01v-.01L.21-.255l-.002-.01-.002-.01-.002-.009L.2-.294.198-.302l-.003-.01-.003-.01L.19-.331v-.01l.002-.01.007-.006.01-.003.01-.002h.01l.01-.001h.04l.01.001.01.001.01.001.01.001.01.001.01.001.009.001.01.002.01.001.01.001.01.002.01.001.01.002.01.001.01.002.01.001.009.002.01.002.01.002.01.002.01.002.009.003.01.002.009.003.01.004.009.003.01.004.008.003.01.005.008.004.01.005.008.005.008.005.009.006.008.006.008.006.007.006.007.007.008.007.006.008.007.007.006.008.005.009.004.009.003.01.002.01v.02l-.001.01-.002.009-.002.01-.003.01-.003.009-.003.01-.004.009-.003.009-.005.009-.004.009-.004.009-.005.009-.005.008-.005.01-.005.008-.005.008-.006.009-.005.008L.6.002.595.011.589.019.583.027.577.035.571.043.565.051.56.06.553.067.547.075.54.083.534.09.528.098.522.106.516.114.509.122.503.129.496.137.49.144.482.151.475.158.468.165.461.172.454.18.446.185.438.192.431.198.423.204.415.211.407.216.399.222.39.228.382.234.374.239.366.245.357.25.348.255.34.26.33.265.322.27.314.275l-.01.004-.008.005-.01.004-.008.004-.01.005L.26.3.25.305.241.309.232.313l-.01.003L.215.32l-.01.004-.01.003-.008.004-.01.003-.01.004L.158.34l-.01.003-.009.003-.01.004L.12.354.11.357.1.359.09.361.08.362.07.363H.06L.05.365H.01L0 .363-.01.362-.02.36-.03.358-.038.356l-.01-.003-.009-.004-.008-.006-.007-.006L-.081.33-.088.323-.094.315-.101.308-.107.3-.113.292-.119.283-.124.275-.129.266-.134.258l-.004-.01L-.142.24-.146.23-.15.22-.153.212l-.002-.01-.003-.009-.002-.01-.002-.01v-.01l-.002-.01v-.01l-.001-.01v-.04l.002-.01.001-.01.002-.01.001-.009.002-.01.002-.01.003-.01.002-.009.003-.01.003-.01.003-.009.004-.009.003-.01.004-.009.004-.009.004-.009.004-.01.004-.008.005-.01.004-.008.005-.009.005-.008.005-.01.005-.008.005-.008.006-.009.005-.008.006-.008.006-.008.007-.007.006-.008.007-.008.007-.007.006-.007.007-.008.007-.007.007-.007.007-.007.007-.007.007-.007.007-.007.008-.007.007-.006.008-.007.008-.006.008-.005.01-.005L.081-.3l.01-.001.009.004"
    fill="none" stroke-linejoin="round" stroke-linecap="round" /></svg>