<svg xmlns="http://www.w3.org/2000/svg" xmlns:xlink="http://www.w3.org/1999/xlink" fill="none" stroke="#000" width="936" height="504" viewBox="0 0 936 504"><g transform="translate(-3.300003099999998 99.5000124) rotate(0)"><g transform="translate(0 0)"><g transform="scale(4)"><path stroke-width="0.25" d="M1.8,5.9 L2.6,6.4 L3.5,6.9 L4.3,7.5 L5.2,8.0 L6.1,8.5 L6.9,9.0 L7.8,9.5 L8.6,10.0 L9.4,10.6 L10.2,11.2 L11.0,11.8 L11.7,12.5 L12.4,13.3 L13.0,14.1 L13.5,15.0 L13.9,15.9 L14.3,16.8 L14.6,17.7 L14.8,18.7 L15.0,19.7 L15.0,20.7 L14.9,21.7 L14.7,22.7 L14.5,23.7 L14.3,24.6 L13.9,25.6 L13.5,26.5 L13.0,27.3 L12.3,28.0 L11.4,28.5 L10.4,28.6 L9.5,28.3 L8.6,27.8 L7.9,27.1 L7.2,26.4 L6.8,25.4 L6.7,24.5 L6.8,23.5 L7.0,22.5 L7.5,21.6 L8.0,20.8 L8.6,20.0 L9.3,19.2 L10.0,18.5 L10.7,17.8 L11.5,17.2 L12.3,16.6 L13.1,16.0 L13.9,15.4 L14.8,14.9 L15.6,14.4 L16.5,13.9 L17.4,13.5 L18.3,13.1 L19.2,12.7 L20.2,12.3 L21.1,12.0 L22.1,11.7 L23.0,11.5 L24.0,11.3 L25.0,11.2 L26.0,11.1 L27.0,11.2 L28.0,11.3 L29.0,11.6 L29.8,12.1 L30.6,12.7 L31.2,13.5 L31.7,14.4 L32.0,15.3 L32.1,16.3 L32.0,17.3 L31.8,18.3 L31.4,19.2 L31.0,20.1 L30.4,20.9 L29.8,21.7 L29.1,22.5 L28.4,23.1 L27.6,23.8 L26.8,24.4 L26.0,24.9 L25.1,25.4 L24.2,25.8 L23.2,26.1 L22.3,26.4 L21.3,26.5 L20.3,26.6 L19.3,26.5 L18.3,26.3 L17.4,25.9 L16.5,25.4 L15.7,24.9 L15.0,24.2 L14.3,23.4 L13.8,22.5 L13.5,21.6 L13.3,20.6 L13.2,19.6 L13.2,18.6 L13.3,17.6 L13.6,16.7 L13.8,15.7 L14.2,14.8 L14.6,13.9 L15.1,13.0 L15.6,12.1 L16.1,11.3 L16.7,10.4 L17.3,9.6 L17.9,8.9 L18.6,8.1 L19.3,7.4 L20.0,6.7 L20.7,6.1 L21.5,5.4 L22.3,4.8 L23.2,4.3 L24.0,3.8 L24.9,3.3 L25.8,2.9 L26.7,2.5 L27.7,2.2 L28.7,2.0 L29.7,1.8 L30.7,1.8 L31.6,1.8 L32.6,2.0 L33.6,2.2 L34.5,2.6 L35.4,3.1 L36.3,3.6 L37.0,4.3 L37.7,5.0 L38.3,5.8 L38.8,6.7 L39.1,7.6 L39.4,8.6 L39.6,9.5 L39.8,10.5 L39.8,11.5 L39.8,12.5 L39.7,13.5 L39.6,14.5 L39.4,15.5 L39.2,16.5 L38.9,17.4 L38.6,18.4 L38.3,19.3 L37.9,20.2 L37.4,21.1 L36.9,22.0 L36.4,22.8 L35.8,23.7 L35.2,24.4 L34.5,25.1 L33.7,25.8 L32.9,26.3 L32.0,26.7 L31.0,27.0 L30.0,26.9 L29.0,26.7"/></g></g></g><g transform="translate(148.13630030000007 536.9401858) rotate(270)"><g transform="translate(312 0)"><g transform="scale(3)"><path stroke-width="0.3333333333333333" d="M9.9,10.9 L9.0,10.7 L8.0,11.0 L7.2,11.6 L6.4,12.1 L5.6,12.8 L5.1,13.7 L4.8,14.6 L4.8,15.6 L5.3,16.5 L6.0,17.1 L7.0,17.4 L7.9,17.1 L8.9,16.7 L9.7,16.2 L10.6,15.7 L11.4,15.2 L12.3,14.7 L13.2,14.2 L14.0,13.7 L14.9,13.2 L15.8,12.9 L16.8,12.6 L17.8,12.7 L18.5,13.3 L18.7,14.3 L18.7,15.3 L18.5,16.3 L18.2,17.3 L17.9,18.2 L17.6,19.2 L17.2,20.1 L16.6,20.8 L15.8,21.4 L14.9,21.8 L13.9,22.1 L12.9,22.2 L11.9,22.2 L10.9,22.2 L9.9,22.1 L9.0,21.7 L8.1,21.3 L7.3,20.7 L6.5,20.1 L5.9,19.3 L5.5,18.4 L5.4,17.4 L5.4,16.4 L5.6,15.4 L5.8,14.4 L6.2,13.5 L6.6,12.6 L7.1,11.7 L7.6,10.9 L8.2,10.0 L8.8,9.3 L9.5,8.5 L10.2,7.8 L11.0,7.2 L11.8,6.7 L12.8,6.3 L13.7,6.0 L14.7,5.9 L15.7,6.0 L16.6,6.3 L17.5,6.8 L18.3,7.4 L19.0,8.1 L19.5,8.9 L20.0,9.8 L20.5,10.7 L20.8,11.6 L21.1,12.6 L21.3,13.6 L21.6,14.5 L21.9,15.5 L22.3,16.4 L22.5,17.4 L22.7,18.3 L22.9,19.3 L22.7,20.2 L21.9,20.8 L21.0,21.3 L20.0,21.6 L19.1,21.8 L18.1,22.0 L17.1,22.2 L16.1,22.3 L15.2,22.5 L14.2,22.5 L13.2,22.5 L12.2,22.6 L11.2,22.6 L10.2,22.6 L9.2,22.4 L8.2,22.2 L7.2,22.2 L6.2,21.9 L5.3,21.5 L4.4,21.1 L3.6,20.5 L3.0,19.7 L2.7,18.7 L2.4,17.8 L2.1,16.8 L1.9,15.8 L1.8,14.9 L1.7,13.9 L1.7,12.9 L2.1,11.9 L2.7,11.1 L3.6,10.7 L4.5,10.5 L5.5,10.5 L6.5,10.5 L7.5,10.8 L8.5,11.0 L9.4,11.3 L10.4,11.6 L11.3,12.0 L12.2,12.4 L13.2,12.7 L14.1,13.2 L15.0,13.5 L15.9,13.9 L16.8,14.3 L17.7,14.7 L18.7,15.1 L19.6,15.4 L20.5,15.8 L21.5,16.2 L22.4,16.4 L23.4,16.7 L24.4,17.0 L25.3,17.2 L26.3,17.4 L27.3,17.4 L28.3,17.3 L29.3,17.1 L30.3,16.9 L31.2,16.5 L32.1,16.1 L33.0,15.6 L33.9,15.2 L34.7,14.6 L35.5,14.0 L36.3,13.3 L37.0,12.6 L37.6,11.9 L38.1,11.0 L38.5,10.1 L38.7,9.1 L38.8,8.1 L38.7,7.1 L38.2,6.3 L37.7,5.4 L37.2,4.6 L36.4,3.9 L35.6,3.3 L34.8,2.7 L33.9,2.3 L33.0,1.9 L32.0,1.7 L31.0,1.8 L30.1,2.1 L29.3,2.8 L28.6,3.4 L27.9,4.2 L27.3,5.0 L26.7,5.8 L26.2,6.7 L25.6,7.5 L25.2,8.4 L24.6,9.2 L24.2,10.1 L23.7,11.0 L23.3,11.9 L22.9,12.8 L22.5,13.7 L22.2,14.7 L21.8,15.6 L21.5,16.6 L21.2,17.5 L20.9,18.5 L20.6,19.4 L20.3,20.4 L20.1,21.4 L20.0,22.4 L19.9,23.4 L19.9,24.4 L19.9,25.4 L19.9,26.4 L19.8,27.3 L19.7,28.3 L19.4,29.3 L18.9,30.1 L18.1,30.7 L17.2,31.0 L16.2,31.2 L15.2,31.1 L14.2,30.8 L13.3,30.5 L12.4,30.0 L11.6,29.5 L10.8,28.9 L10.1,28.2 L9.4,27.4 L8.8,26.7 L8.2,25.8 L7.7,25.0 L7.3,24.1 L7.0,23.1 L6.8,22.2 L6.6,21.2 L6.6,20.2 L6.8,19.2 L7.1,18.3 L7.8,17.5 L8.6,17.1 L9.6,17.0 L10.6,17.3 L11.5,17.6 L12.5,18.0 L13.3,18.5 L14.2,19.0 L15.0,19.5 L15.9,20.0 L16.7,20.6 L17.6,21.1 L18.4,21.6 L19.3,22.1 L20.2,22.6 L21.0,23.1 L21.9,23.6 L22.9,24.0 L23.8,24.2"/><path stroke-width="0.3333333333333333" d="M23.3,28.8 L24.1,28.2 L25.0,27.7 L25.8,27.2 L26.8,26.9 L27.7,26.4 L28.6,26.0 L29.5,25.5 L30.3,25.0 L31.2,24.6 L32.1,24.1 L33.0,23.6 L33.9,23.2 L34.8,22.7 L35.6,22.1 L36.4,21.6 L37.2,21.0 L37.4,20.5 L36.5,20.9 L35.6,21.4 L34.7,21.9 L33.8,22.4 L33.0,22.9 L32.1,23.4 L31.3,23.9 L30.5,24.5 L29.7,25.1 L28.9,25.7 L28.1,26.3 L27.3,26.9 L26.5,27.5 L25.6,27.9 L24.7,28.4 L23.8,28.9 L22.9,29.3 L22.0,29.8 L21.2,30.4 L20.3,30.8 L19.5,31.3 L18.6,31.8 L17.7,32.2 L16.8,32.7 L16.0,33.2 L15.1,33.7 L14.2,34.2 L13.3,34.7 L12.5,35.2 L11.6,35.7 L10.7,36.1 L9.9,36.6 L9.0,37.2 L8.3,37.8 L8.8,38.4 L9.7,38.6 L10.7,38.5 L11.7,38.3 L12.6,37.8 L13.4,37.3 L14.3,36.8 L15.2,36.3 L16.1,35.9 L17.0,35.5 L17.9,35.1 L18.8,34.7 L19.8,34.4 L20.8,34.1 L21.7,33.8 L22.7,33.5 L23.6,33.2 L24.6,32.9 L25.5,32.6 L26.5,32.3 L27.4,32.0 L28.4,31.7 L29.3,31.4 L30.3,31.2 L31.3,30.9 L32.2,30.6 L33.2,30.3 L34.1,30.0 L35.1,29.7 L36.0,29.4 L37.0,29.1 L37.9,28.8 L38.9,28.5 L39.8,28.2 L40.8,27.9 L41.7,27.6 L42.7,27.2 L43.6,26.9 L44.6,26.6 L45.5,26.4 L46.5,26.2 L47.5,25.9 L48.3,25.4 L48.8,24.5"/></g></g></g><g transform="translate(826.6720416000001 306.5028872999999) rotate(180)"><g transform="translate(624 0)"><g transform="scale(5)"><path stroke-width="0.2" d="M1.8,6.0 L2.1,7.0 L2.4,7.9 L2.7,8.9 L3.0,9.8 L3.3,10.8 L3.6,11.7 L3.9,12.7 L4.2,13.6"/><path stroke-width="0.2" d="M8.9,9.4 L8.6,8.5 L7.8,9.0 L7.3,9.9 L6.9,10.8 L6.6,11.8 L6.4,12.8 L6.5,13.7 L7.3,14.1 L8.1,13.6 L8.6,12.7 L9.1,11.8 L9.4,10.9 L9.8,10.0 L10.1,9.9 L10.2,10.9 L10.4,11.9 L10.6,12.9 L10.8,13.9 L11.0,14.8 L11.2,15.8 L11.4,16.8 L11.6,17.8 L11.7,18.8 L11.8,19.8 L11.8,20.8 L11.6,21.7 L11.1,22.5 L10.2,22.9 L9.2,23.0 L8.2,22.8 L7.3,22.4 L6.5,21.9 L5.8,21.2 L5.4,20.3 L5.4,19.3 L5.8,18.5 L6.6,17.8 L7.4,17.2 L8.2,16.6 L9.0,16.0 L9.8,15.4 L10.5,14.7"/><path stroke-width="0.2" d="M11.2,6.3 L12.1,6.7 L12.8,7.3 L13.5,8.1 L14.0,8.9 L14.5,9.8 L14.9,10.7 L14.3,10.6 L14.0,9.7 L14.0,8.7 L14.1,7.7 L14.4,6.7 L14.8,5.8 L15.3,5.0 L16.2,4.7 L16.9,5.2 L17.3,6.1 L17.4,7.1 L17.4,8.1 L17.4,9.0"/><path stroke-width="0.2" d="M19.7,2.8 L18.9,3.3 L18.3,4.1 L17.9,5.0 L17.8,6.0 L18.0,7.0 L18.4,7.9 L19.2,8.6 L20.2,8.8 L21.1,8.6 L22.1,8.2 L22.9,7.6 L23.6,6.9 L23.9,6.0 L24.0,5.0 L23.7,4.0 L23.2,3.1 L22.6,2.4 L21.7,1.9"/><path stroke-width="0.2" d="M24.7,9.5 L23.7,9.6 L22.7,9.8 L21.7,10.1 L20.8,10.5 L19.9,10.9 L19.0,11.3 L18.1,11.8 L17.2,12.2 L16.4,12.8 L15.5,13.3 L14.7,13.9 L13.9,14.5 L13.1,15.2 L12.5,15.9 L11.9,16.7 L12.3,17.6 L13.2,17.8 L14.2,17.7 L15.2,17.6 L16.2,17.4 L17.2,17.1 L18.1,16.7 L19.0,16.3 L19.9,15.9 L20.8,15.4 L21.7,15.0 L22.6,14.6 L23.6,14.3 L24.5,14.1 L25.5,13.8 L26.5,13.5 L27.4,13.2 L28.4,12.9 L29.3,12.4"/></g></g></g><g transform="translate(7.852991100000025 357.47533010000006) rotate(270)"><g transform="translate(0 168)"><g transform="scale(5)"><path stroke-width="0.2" d="M9.0,1.8 L8.0,1.8 L7.0,2.0 L6.0,2.2 L5.0,2.5 L4.1,2.8 L3.2,3.2 L2.4,3.8 L1.8,4.6 L1.8,5.6 L2.5,6.3 L3.4,6.8 L4.3,7.1 L5.3,7.4 L6.3,7.6 L7.2,7.9 L6.4,8.1 L5.5,8.3 L4.6,8.8 L3.8,9.4 L3.2,10.2 L2.9,11.2 L3.0,12.2 L3.4,13.1 L4.1,13.8 L4.8,14.5 L5.7,15.0 L6.6,15.4 L7.6,15.5 L8.6,15.2 L9.4,14.6 L10.0,13.9 L10.5,13.0 L10.9,12.1 L11.3,11.2 L11.6,10.2 L11.8,9.2 L12.1,8.3 L12.5,7.3 L13.1,8.0 L13.4,8.9 L13.7,9.9 L13.9,10.9 L14.0,11.8 L14.0,12.8 L13.6,13.7 L12.8,13.5 L12.7,12.5 L12.9,11.5 L13.2,10.6 L13.6,9.6 L14.0,8.7 L14.5,7.9 L15.2,7.1 L16.0,6.7 L16.7,7.2 L17.0,8.2 L17.1,9.2 L17.1,10.2 L17.1,11.2"/><path stroke-width="0.2" d="M18.8,8.3 L19.6,7.8 L19.9,6.9 L19.4,6.2 L18.6,6.3 L18.1,7.2 L17.9,8.2 L17.9,9.2 L18.1,10.2 L18.4,11.1 L18.9,11.9 L19.8,12.2 L20.6,11.7 L21.1,10.9 L21.4,9.9 L21.8,9.0"/><path stroke-width="0.2" d="M25.3,6.2 L24.5,5.6 L23.6,6.2 L23.5,7.2 L23.5,8.2 L23.6,9.1 L23.9,10.0 L24.6,9.7 L25.0,8.9 L25.5,8.0 L26.1,7.2 L26.9,6.9 L27.3,7.6 L27.4,8.6 L27.5,9.6 L27.0,10.5 L26.2,10.9 L25.2,11.2 L24.2,11.5 L23.3,11.7 L22.3,12.0 L21.3,12.2 L20.4,12.5 L19.4,12.7 L18.4,13.0 L17.5,13.2 L16.5,13.5 L15.6,13.9 L14.6,14.2 L13.7,14.6 L12.8,15.1 L12.1,15.8 L11.7,16.7 L12.1,17.5 L13.1,17.6 L14.1,17.4 L15.0,17.2 L16.0,16.8 L16.9,16.5 L17.9,16.2 L18.9,16.1 L19.9,16.0 L20.8,15.9 L21.8,15.7 L22.8,15.6 L23.8,15.5 L24.8,15.4 L25.8,15.2 L26.8,15.0 L27.8,14.8 L28.7,14.5 L29.6,14.1 L30.4,13.4"/></g></g></g><g transform="translate(-169.69999689999995 665.8610329) rotate(270)"><g transform="translate(312 168)"><g transform="scale(1)"><path stroke-width="1" d="M20.4,24.2 L20.6,23.2 L21.0,22.3 L21.5,21.4 L22.0,20.5 L22.4,19.6 L22.6,18.6 L22.5,17.6 L22.3,16.7 L21.8,15.8 L21.1,15.1 L20.2,14.6 L19.3,14.2 L18.3,14.0 L17.4,13.8 L16.4,13.7 L15.4,13.7 L14.4,13.7 L13.4,13.7 L12.4,13.8 L11.4,14.0 L10.4,14.2 L9.4,14.4 L8.5,14.7 L7.6,15.1 L6.7,15.7 L6.0,16.4 L5.6,17.3 L5.3,18.2 L5.0,19.2 L4.9,20.2 L4.8,21.2 L4.8,22.2 L4.8,23.2 L4.8,24.2 L4.9,25.2 L5.0,26.2 L5.1,27.2 L5.2,28.2 L5.4,29.2 L5.6,30.1 L5.8,31.1 L6.0,32.1 L6.2,33.1 L6.5,34.0 L6.7,35.0 L7.0,36.0 L7.3,36.9 L7.5,37.9 L7.8,38.8 L8.2,39.8 L8.5,40.7 L8.8,41.7 L9.2,42.6 L9.5,43.6 L9.9,44.5 L10.2,45.4 L10.6,46.3 L11.0,47.3 L11.4,48.2 L11.8,49.1 L12.3,50.0 L12.7,50.9 L13.2,51.8 L13.7,52.6 L14.2,53.5 L14.7,54.4 L15.3,55.2 L15.9,56.0 L16.5,56.7 L17.3,57.3 L18.2,57.9 L19.1,58.2 L20.1,58.5 L21.1,58.7 L22.1,58.7 L23.0,58.6 L24.0,58.4 L25.0,58.0 L25.9,57.6 L26.7,57.1 L27.5,56.4 L28.1,55.7 L28.7,54.8 L29.1,53.9 L29.4,52.9 L29.5,52.0 L29.5,51.0 L29.5,50.0 L29.4,49.0 L29.4,48.0 L29.3,47.0 L29.0,46.0 L28.5,45.6 L28.5,46.6 L28.6,47.6 L28.6,48.6 L28.7,49.6 L28.8,50.6 L28.9,51.6 L29.0,52.6 L29.2,53.6 L29.3,54.6 L29.5,55.6 L29.6,56.5 L29.7,57.5 L29.9,58.5 L30.0,59.5 L30.2,60.5 L30.4,61.5 L30.5,62.5 L30.7,63.4 L30.9,64.4 L31.2,65.4 L31.4,66.4 L31.6,67.3 L31.9,68.3 L32.2,69.3 L32.5,70.2 L32.8,71.2 L33.1,72.1 L33.4,73.1 L33.7,74.0 L33.9,75.0 L34.1,76.0 L34.3,77.0 L34.5,77.9 L34.7,78.9 L34.9,79.9 L35.1,80.9 L35.4,81.5"/><path stroke-width="1" d="M20.6,22.9 L20.7,21.9 L21.2,21.0 L21.8,20.2 L22.4,19.5 L23.1,18.8 L23.9,18.1 L24.7,17.5 L25.5,17.0 L26.4,16.4 L27.2,15.9 L28.1,15.5 L29.0,15.0 L29.9,14.6 L30.9,14.3 L31.8,14.0 L32.8,13.7 L33.8,13.6 L34.8,13.5 L35.8,13.6 L36.7,13.9 L37.5,14.5 L38.1,15.3 L38.5,16.2 L38.8,17.2 L39.1,18.1 L39.3,19.1 L39.5,20.1 L39.6,21.1 L39.8,22.1 L39.9,23.1 L40.0,24.1 L40.0,25.1 L40.1,26.1 L40.1,27.1 L40.2,28.1 L40.2,29.1 L40.3,30.1 L40.3,31.1 L40.3,32.1 L40.3,33.1 L40.4,34.1 L40.4,35.1 L40.4,36.1 L40.5,37.0 L40.5,38.0 L40.6,39.0 L40.7,40.0 L40.8,41.0 L41.0,42.0 L41.1,43.0 L41.1,44.0 L41.0,45.0 L41.0,46.0 L40.9,47.0 L40.9,48.0 L40.9,49.0 L41.0,50.0 L41.2,51.0"/><path stroke-width="1" d="M52.3,23.5 L51.5,22.9 L50.6,22.7 L49.6,23.1 L48.9,23.8 L48.4,24.6 L47.9,25.5 L47.6,26.5 L47.3,27.4 L47.1,28.4 L46.9,29.4 L46.7,30.4 L46.6,31.4 L46.5,32.4 L46.5,33.4 L46.5,34.4 L46.6,35.4 L46.8,36.3 L47.0,37.3 L47.4,38.2 L48.0,39.0 L48.7,39.8 L49.4,40.5 L50.2,41.1 L50.9,41.8 L51.7,42.4 L52.6,42.9 L53.5,43.4 L54.4,43.7 L55.4,43.7 L56.3,43.4 L57.1,42.7 L57.6,41.8 L57.9,40.9 L58.1,39.9 L58.2,38.9 L58.3,37.9 L58.2,36.9 L58.2,35.9 L58.1,34.9 L57.9,33.9 L57.8,33.0 L57.5,32.0 L57.3,31.0 L57.0,30.1 L56.7,29.1 L56.3,28.2 L56.0,27.2 L56.0,27.1 L56.6,28.0 L57.0,28.9 L57.3,29.8 L57.5,30.8 L57.8,31.8 L58.1,32.7 L58.4,33.7 L58.7,34.6 L59.1,35.6 L59.4,36.5 L59.8,37.4 L60.2,38.3 L60.6,39.2 L61.0,40.1 L61.5,41.0 L62.0,41.9 L62.5,42.8 L63.0,43.6 L63.6,44.4 L64.2,45.2 L64.9,45.9 L65.7,46.6 L66.5,47.1 L67.4,47.5 L68.4,47.6 L69.4,47.5 L70.3,47.0 L71.1,46.5"/><path stroke-width="1" d="M56.8,25.1 L57.7,24.8 L58.6,24.2 L59.3,23.6 L60.1,22.9 L60.8,22.2 L61.6,21.7 L62.5,21.2 L63.5,20.9 L64.5,21.0 L65.4,21.3 L66.3,21.8 L67.1,22.4 L67.8,23.1 L68.4,23.9 L69.0,24.7 L69.4,25.6 L69.8,26.5 L70.2,27.5 L70.5,28.4 L70.8,29.4 L71.1,30.3 L71.3,31.3 L71.5,32.3 L71.8,33.2 L72.0,34.2 L72.2,35.2 L72.4,36.2 L72.6,37.2 L72.8,38.1 L72.9,39.1 L73.1,40.1 L73.3,41.1 L73.4,42.1 L73.6,43.0 L73.6,42.1 L73.2,41.2 L72.9,40.2 L73.2,40.0 L73.8,40.8 L74.2,41.8"/><path stroke-width="1" d="M66.3,1.7 L67.2,2.3 L67.7,3.1 L68.2,4.0 L68.6,4.9 L68.9,5.8 L69.3,6.8 L69.6,7.7 L69.9,8.7 L70.1,9.6 L70.4,10.6 L70.8,11.5 L71.1,12.5 L71.4,13.4 L71.7,14.4 L71.9,15.4 L72.2,16.3 L72.4,17.3 L72.6,18.3 L72.8,19.3 L73.0,20.2 L73.1,21.2 L73.3,22.2 L73.4,23.2 L73.6,24.2 L73.7,25.2 L73.8,26.2 L74.0,27.2 L74.1,28.2 L74.2,29.2 L74.3,30.2 L74.4,31.2 L74.5,32.2 L74.6,33.1 L74.7,34.1 L74.8,35.1 L74.9,36.1 L75.0,37.1 L75.2,38.1 L75.3,39.1 L75.5,40.1 L75.6,41.1 L75.8,42.1 L75.9,43.1 L76.1,44.0 L76.2,45.0 L76.3,46.0 L76.5,47.0 L76.6,48.0 L76.8,49.0 L77.0,50.0 L77.2,50.9 L77.5,51.9 L77.8,52.8 L78.3,53.7 L78.7,54.6 L79.2,55.5 L79.7,56.4"/><path stroke-width="1" d="M63.4,9.4 L64.3,9.9 L65.2,10.3 L66.2,10.5 L67.2,10.6 L68.2,10.7 L69.2,10.7 L70.1,10.6 L71.1,10.5 L72.1,10.3 L73.1,10.1 L74.1,9.9 L75.1,9.7 L76.0,9.5 L77.0,9.2 L78.0,9.0 L78.9,8.7 L79.9,8.5 L80.9,8.2 L81.8,8.0 L82.8,7.8 L83.8,7.6 L84.8,7.4 L85.8,7.2"/><path stroke-width="1" d="M82.1,21.5 L82.5,22.5 L82.8,23.4 L83.0,24.4 L83.2,25.4 L83.5,26.3 L83.7,27.3 L83.9,28.3 L84.1,29.3 L84.3,30.3 L84.5,31.2 L84.7,32.2 L84.9,33.2 L85.0,34.2 L85.2,35.2 L85.4,36.2 L85.5,37.1 L85.7,38.1 L85.8,39.1 L86.0,40.1 L86.1,41.1 L86.2,42.1"/><path stroke-width="1" d="M80.3,14.6 L80.3,14.6"/><path stroke-width="1" d="M86.1,21.9 L86.8,21.2 L87.6,20.6 L88.5,20.0 L89.4,19.6 L90.3,19.3 L91.3,19.2 L92.3,19.3 L93.3,19.5 L94.2,19.9 L95.1,20.4 L95.9,20.9 L96.7,21.6 L97.4,22.3 L98.1,23.0 L98.7,23.8 L99.3,24.6 L99.9,25.4 L100.5,26.2 L101.0,27.1 L101.5,27.9 L102.0,28.8 L102.5,29.7 L102.9,30.6 L103.4,31.5 L103.8,32.4 L103.9,33.4 L104.0,34.4 L104.0,35.4 L104.1,36.4 L104.1,37.4 L104.4,38.3 L105.0,39.1 L105.5,38.4 L105.2,37.5 L104.9,36.5 L104.6,35.5 L104.4,34.6 L104.1,33.6 L103.8,32.7 L103.5,31.7 L103.2,30.7 L103.0,29.8 L102.8,28.8 L102.7,27.8 L102.5,26.8 L102.4,25.8 L102.2,24.8 L102.1,23.8 L102.1,22.8 L102.0,21.8 L102.0,20.8 L102.0,19.8 L102.0,18.8 L102.1,17.8 L102.3,16.9 L102.5,15.9 L102.9,15.0 L103.4,14.1 L104.0,13.3 L104.7,12.6 L105.6,12.1 L106.5,11.7 L107.4,11.4 L108.4,11.2 L109.4,11.1 L110.4,11.2 L111.4,11.3 L112.3,11.6 L113.3,11.9 L114.2,12.4 L115.1,12.8 L115.9,13.4 L116.7,14.0 L117.5,14.6 L118.2,15.3 L118.9,16.0 L119.6,16.7 L120.3,17.5 L120.9,18.2 L121.5,19.0 L122.1,19.9 L122.6,20.7 L123.1,21.6 L123.6,22.4 L124.0,23.3 L124.4,24.3 L124.8,25.2 L125.1,26.1 L125.3,27.1 L125.5,28.1 L125.7,29.1"/><path stroke-width="1" d="M137.1,26.9 L136.2,27.4 L135.2,27.8 L134.3,28.2 L133.4,28.5 L132.5,28.9 L131.6,29.3 L130.6,29.7 L129.7,30.1 L128.8,30.5 L127.9,30.9 L126.9,31.2 L126.0,31.5 L125.0,31.9 L124.1,32.2 L123.1,32.5 L122.2,32.8 L121.2,33.1 L120.3,33.4 L119.3,33.7 L118.4,34.0 L117.4,34.3 L116.5,34.6 L115.5,34.9 L114.6,35.2 L113.6,35.5 L112.7,35.8 L111.7,36.1 L110.7,36.4 L109.8,36.7 L108.8,37.0 L107.9,37.3 L106.9,37.6 L106.0,37.9 L105.0,38.3 L104.1,38.6 L103.1,38.9 L102.2,39.2 L101.3,39.6 L100.3,39.9 L99.4,40.3 L98.4,40.6 L97.5,41.0 L96.6,41.3 L95.7,41.7 L94.7,42.1 L93.8,42.4 L92.9,42.8 L91.9,43.2 L91.0,43.5 L90.1,43.9 L89.1,44.3 L88.2,44.6 L87.3,45.0 L86.4,45.4 L85.4,45.7 L84.5,46.1 L83.6,46.5 L82.6,46.9 L81.7,47.2 L80.8,47.6 L79.9,48.0 L78.9,48.3 L78.0,48.7 L77.1,49.1 L76.1,49.5 L75.2,49.8 L74.3,50.2 L73.4,50.6 L72.4,51.0 L71.5,51.3 L70.6,51.7 L69.7,52.1 L68.7,52.5 L67.8,52.8 L66.9,53.2 L66.0,53.6 L65.0,54.0 L64.1,54.4 L63.2,54.8 L62.3,55.1 L61.3,55.5 L60.4,55.9 L59.5,56.3 L58.6,56.7 L57.7,57.1 L56.7,57.5 L55.8,57.9 L54.9,58.3 L54.0,58.7 L53.1,59.1 L52.1,59.5 L51.2,59.9 L50.3,60.3 L49.4,60.7 L48.5,61.1 L47.6,61.5 L46.7,61.9 L45.7,62.3 L44.8,62.7 L43.9,63.1 L43.0,63.5 L42.1,64.0 L41.2,64.4 L40.3,64.8 L39.4,65.2 L38.5,65.7 L37.6,66.1 L36.7,66.5 L35.8,66.9 L34.9,67.4 L34.0,67.8 L33.1,68.2 L32.2,68.7 L31.3,69.1 L30.4,69.6 L29.5,70.0 L28.6,70.4 L27.7,70.9 L26.8,71.3 L25.9,71.8 L25.0,72.3 L24.1,72.7 L23.2,73.2 L22.4,73.6 L21.5,74.1 L20.6,74.6 L19.7,75.0 L18.8,75.5 L17.9,76.0 L17.1,76.5 L16.2,77.0 L15.3,77.4 L14.4,77.9 L13.6,78.4 L12.7,78.9 L11.8,79.4 L11.0,79.9 L10.1,80.4 L9.2,80.9 L8.4,81.4 L7.5,81.9 L6.7,82.5 L5.8,83.0 L4.9,83.5 L4.1,84.0 L3.2,84.5 L2.4,85.1 L1.9,85.7 L2.9,85.8 L3.9,85.8 L4.9,85.6 L5.9,85.5 L6.8,85.3 L7.8,85.1 L8.8,84.9 L9.8,84.6 L10.7,84.3 L11.7,84.0 L12.6,83.7 L13.6,83.4 L14.5,83.1 L15.5,82.8 L16.4,82.4 L17.4,82.1 L18.3,81.8 L19.3,81.5 L20.2,81.2 L21.2,80.8 L22.1,80.5 L23.1,80.2 L24.0,79.9 L24.9,79.6 L25.9,79.3 L26.8,78.9 L27.8,78.6 L28.7,78.3 L29.7,78.0 L30.6,77.7 L31.6,77.4 L32.5,77.0 L33.5,76.7 L34.4,76.4 L35.4,76.1 L36.3,75.8 L37.3,75.5 L38.3,75.2 L39.2,75.0 L40.2,74.7 L41.1,74.4 L42.1,74.1 L43.1,73.9 L44.0,73.6 L45.0,73.3 L46.0,73.1 L46.9,72.8 L47.9,72.6 L48.9,72.3 L49.8,72.0 L50.8,71.8 L51.8,71.5 L52.7,71.3 L53.7,71.0 L54.7,70.7 L55.6,70.5 L56.6,70.2 L57.5,70.0 L58.5,69.7 L59.5,69.4 L60.4,69.2 L61.4,68.9 L62.4,68.7 L63.3,68.4 L64.3,68.1 L65.3,67.9 L66.2,67.6 L67.2,67.4 L68.2,67.1 L69.1,66.8 L70.1,66.6 L71.1,66.3 L72.0,66.1 L73.0,65.8 L74.0,65.6 L74.9,65.3 L75.9,65.0 L76.9,64.8 L77.8,64.5 L78.8,64.3 L79.8,64.0 L80.7,63.8 L81.7,63.5 L82.7,63.3 L83.6,63.0 L84.6,62.8 L85.6,62.5 L86.5,62.3 L87.5,62.0 L88.5,61.8 L89.4,61.5 L90.4,61.3 L91.4,61.0 L92.4,60.8 L93.3,60.5 L94.3,60.3 L95.3,60.0 L96.2,59.8 L97.2,59.6 L98.2,59.3 L99.1,59.1 L100.1,58.8 L101.1,58.6 L102.1,58.4 L103.0,58.1 L104.0,57.9 L105.0,57.6 L105.9,57.4 L106.9,57.2 L107.9,57.0 L108.9,56.7 L109.8,56.5 L110.8,56.3 L111.8,56.0 L112.8,55.8 L113.7,55.6 L114.7,55.4 L115.7,55.2 L116.7,55.0 L117.7,54.9 L118.7,54.7 L119.6,54.6 L120.6,54.4 L121.6,54.3 L122.6,54.1 L123.6,54.0 L124.6,53.8 L125.6,53.7 L126.6,53.5 L127.5,53.3 L128.5,53.1 L129.5,52.9 L130.5,52.7 L131.5,52.4 L132.4,52.2 L133.4,51.9 L134.3,51.6 L135.3,51.3 L136.2,50.9 L137.1,50.5 L138.0,50.1"/></g></g></g><g transform="translate(-625.7999878 -170) rotate(0)"><g transform="translate(624 168)"><g transform="scale(1)"><path stroke-width="1" d="M57.9,23.0 L56.9,22.9 L55.9,22.7 L55.0,22.5 L54.0,22.2 L53.0,22.0 L52.0,21.8 L51.0,21.7 L50.0,21.6 L49.0,21.7 L48.1,22.0 L47.2,22.4 L46.4,23.0 L45.6,23.6 L44.8,24.3 L44.1,25.0 L43.5,25.8 L42.9,26.6 L42.3,27.4 L41.8,28.3 L41.4,29.1 L40.9,30.0 L40.5,30.9 L40.1,31.9 L39.7,32.8 L39.4,33.7 L39.1,34.7 L38.8,35.6 L38.5,36.6 L38.3,37.6 L38.0,38.5 L37.8,39.5 L37.6,40.5 L37.4,41.5 L37.2,42.5 L37.0,43.4 L36.9,44.4 L36.8,45.4 L36.6,46.4 L36.5,47.4 L36.4,48.4 L36.3,49.4 L36.2,50.4 L36.1,51.4 L36.1,52.4 L36.0,53.4 L35.9,54.4 L35.9,55.4 L35.9,56.4 L35.8,57.4 L35.8,58.4 L35.8,59.4 L35.8,60.4 L35.8,61.4 L35.8,62.4 L35.8,63.4 L35.8,64.4 L35.8,65.4 L35.8,66.4 L35.8,67.4 L35.9,68.4 L35.9,69.4 L36.0,70.4 L36.1,71.4 L36.3,72.4 L36.5,73.3 L36.7,74.3 L36.9,75.3 L37.2,76.2 L37.6,77.2 L38.0,78.1 L38.4,79.0 L39.0,79.8 L39.6,80.6 L40.3,81.3 L41.1,81.9 L42.0,82.4 L42.9,82.9 L43.8,83.2 L44.8,83.3 L45.8,83.5 L46.8,83.5 L47.8,83.5 L48.8,83.4 L49.8,83.3 L50.8,83.3 L51.8,83.1 L52.8,83.0 L53.7,82.8 L54.7,82.4 L55.6,82.1 L56.5,81.6 L57.3,81.0 L58.0,80.3 L58.7,79.5 L59.2,78.7 L59.6,77.8 L59.9,76.8 L60.1,75.9 L60.3,74.9 L60.3,73.9 L60.3,72.9 L60.3,71.9 L60.2,70.9 L60.1,69.9 L60.0,68.9 L59.8,67.9 L59.7,66.9 L59.5,65.9 L59.3,64.9 L59.0,64.0 L58.8,63.0 L58.6,62.0 L58.4,61.1 L58.1,60.1 L57.9,59.1 L57.6,58.1 L57.4,57.2 L57.2,56.2 L57.0,55.2 L56.8,54.2 L56.6,53.3 L56.4,52.3 L56.2,51.3 L56.1,50.3 L56.0,49.3 L55.9,48.3 L55.9,47.3 L56.0,46.3 L56.1,45.3 L56.2,44.3 L56.5,43.4 L56.9,42.5 L57.5,41.6 L58.0,40.8 L58.6,40.0 L59.2,39.2 L59.8,38.4 L60.4,37.6 L61.1,36.8 L61.8,36.1 L62.4,35.3 L63.1,34.6 L63.8,33.9 L64.5,33.2 L65.2,32.4 L65.9,31.7 L66.6,31.0 L67.3,30.3 L68.0,29.6 L68.8,29.0 L69.5,28.3 L70.3,27.7 L71.1,27.1 L71.9,26.5 L72.8,25.9 L73.6,25.4 L74.4,24.9 L75.3,24.4 L76.2,24.0 L77.1,23.5 L78.1,23.2 L79.0,22.9 L80.0,22.7 L81.0,22.6 L82.0,22.7 L82.9,22.9 L83.7,23.6 L83.9,24.6 L83.9,25.6 L83.7,26.6 L83.4,27.5 L83.0,28.5 L82.6,29.4 L82.2,30.3 L81.8,31.2 L81.4,32.1 L81.2,33.1 L81.1,34.1 L80.9,35.1 L80.7,36.1 L80.6,37.0 L80.4,38.0 L80.2,39.0 L80.0,40.0 L79.8,41.0 L79.6,42.0 L79.4,42.9 L79.2,43.9 L79.0,44.9 L78.8,45.9 L78.6,46.8 L78.3,47.8 L78.1,48.8 L77.9,49.8 L77.7,50.7 L77.5,51.7 L77.3,52.7 L77.1,53.7 L76.9,54.7 L76.7,55.6 L76.5,56.6 L76.3,57.6 L76.1,58.6 L75.9,59.6 L75.6,60.5 L75.4,61.5 L75.2,62.5 L75.1,63.5 L75.0,64.5 L75.2,65.4 L75.7,66.3 L76.5,66.9 L77.4,67.3 L78.4,67.5 L79.4,67.7 L80.4,67.7 L81.4,67.7 L82.3,67.5 L83.3,67.3 L84.3,67.1 L85.2,66.8 L86.2,66.4 L87.1,66.0 L88.0,65.6 L88.9,65.1 L89.7,64.6 L90.6,64.1 L91.4,63.6 L92.3,63.0 L93.1,62.4 L93.9,61.8 L94.7,61.2 L95.4,60.6 L96.2,59.9 L96.9,59.2 L97.6,58.5 L98.3,57.8 L99.0,57.0 L99.6,56.3 L100.3,55.5 L100.9,54.7 L101.5,53.9 L102.1,53.1 L102.7,52.3 L103.3,51.5 L103.9,50.7 L104.5,49.9 L105.0,49.1 L105.6,48.2 L106.1,47.4 L106.6,46.5 L107.1,45.7 L107.6,44.8 L108.1,43.9 L108.6,43.1 L109.1,42.2 L109.5,41.3 L110.0,40.4 L110.4,39.5 L110.9,38.6 L111.3,37.7 L111.7,36.8 L112.1,35.9 L112.5,35.0 L112.9,34.0 L113.3,33.1 L113.7,32.2 L114.0,31.3 L114.4,30.3 L114.8,29.4 L115.1,28.5 L115.5,27.5 L115.8,26.6 L116.2,25.6 L116.5,24.7 L116.8,23.8 L117.2,22.8 L117.5,21.9 L117.8,20.9 L118.2,20.0 L118.5,19.0 L118.8,18.1 L119.2,17.2 L119.5,16.2 L119.8,15.3 L120.2,14.3 L120.5,13.4 L120.9,12.5 L121.2,11.5 L121.6,10.6 L122.1,9.7 L122.5,8.8 L123.0,7.9 L123.5,7.1 L124.1,6.3 L124.7,5.5 L125.3,4.7 L126.0,4.0 L126.8,3.4 L127.6,2.8 L128.5,2.3 L129.5,2.0 L130.5,1.8 L131.4,1.7 L132.4,1.8 L133.4,2.0 L134.4,2.3 L135.3,2.7 L136.2,3.1 L137.1,3.5 L138.0,4.1 L138.8,4.6 L139.6,5.2 L140.4,5.8 L141.2,6.4 L142.0,7.1 L142.7,7.7 L143.5,8.4 L144.2,9.1 L144.9,9.8 L145.6,10.5 L146.3,11.2 L147.0,11.9 L147.7,12.6 L148.4,13.3 L149.1,14.1 L149.8,14.8 L150.5,15.5 L151.2,16.2 L151.9,16.9 L152.6,17.6 L153.3,18.3 L154.0,19.1 L154.6,19.8 L155.3,20.6 L155.9,21.3 L156.6,22.1 L157.1,22.9 L157.7,23.8 L158.2,24.6 L158.7,25.5 L159.1,26.4 L159.5,27.3 L159.8,28.3 L160.0,29.3 L160.2,30.2 L160.3,31.2 L160.4,32.2 L160.4,33.2 L160.3,34.2 L160.3,35.2 L160.1,36.2 L159.9,37.2 L159.7,38.2 L159.4,39.1 L159.0,40.1 L158.6,41.0 L158.1,41.8 L157.6,42.7 L157.0,43.5 L156.4,44.3 L155.7,45.0 L155.0,45.8 L154.3,46.4 L153.5,47.1 L152.7,47.7 L151.9,48.3 L151.1,48.8 L150.2,49.3 L149.4,49.8 L148.5,50.3 L147.6,50.7 L146.7,51.1 L145.7,51.5 L144.8,51.9 L143.9,52.2 L142.9,52.6 L142.0,52.9 L141.0,53.2 L140.1,53.5 L139.1,53.7 L138.1,54.0 L137.2,54.2 L136.2,54.5 L135.2,54.7 L134.2,54.9 L133.3,55.1 L132.3,55.3 L131.3,55.4 L130.3,55.6 L129.3,55.7 L128.3,55.9 L127.3,56.0 L126.4,56.2 L125.4,56.3 L124.4,56.4 L123.4,56.5 L122.4,56.6 L121.4,56.7 L120.4,56.8 L119.4,56.9 L118.4,57.0 L117.4,57.1 L116.4,57.2 L115.4,57.2 L114.4,57.3 L113.4,57.4 L112.4,57.5 L111.4,57.5 L110.4,57.6 L109.4,57.7 L108.4,57.8 L107.4,57.9 L106.4,58.0 L105.4,58.1 L104.4,58.2 L103.5,58.3 L102.5,58.4 L101.5,58.5 L100.5,58.6 L99.5,58.7 L98.5,58.8 L97.5,58.8 L96.5,58.9 L95.5,59.0 L94.5,59.1 L93.5,59.2 L92.5,59.2 L91.5,59.3 L90.5,59.3 L89.5,59.4 L88.5,59.4 L87.5,59.4 L86.5,59.4 L85.5,59.5 L84.5,59.5 L83.5,59.5 L82.5,59.5 L81.5,59.5 L80.5,59.5 L79.5,59.5 L78.5,59.5 L77.5,59.5 L76.5,59.5 L75.5,59.5 L74.5,59.5 L73.5,59.5 L72.5,59.5 L71.5,59.5 L70.5,59.5 L69.5,59.5 L68.5,59.4 L67.5,59.4 L66.5,59.4 L65.5,59.4 L64.5,59.4 L63.5,59.3 L62.5,59.3 L61.5,59.3 L60.5,59.3 L59.5,59.3 L58.5,59.3 L57.5,59.2 L56.5,59.2 L55.5,59.3 L54.5,59.3 L53.5,59.3 L52.5,59.3 L51.5,59.4 L50.5,59.4 L49.5,59.5 L48.5,59.5 L47.5,59.6 L46.5,59.7 L45.5,59.8 L44.5,59.9 L43.5,60.0 L42.5,60.1 L41.5,60.2 L40.5,60.3 L39.6,60.4 L38.6,60.5 L37.6,60.7 L36.6,60.8 L35.6,61.0 L34.6,61.2 L33.6,61.4 L32.7,61.6 L31.7,61.8 L30.7,62.0 L29.7,62.3 L28.8,62.6 L27.8,62.8 L26.9,63.1 L25.9,63.5 L25.0,63.8 L24.0,64.2 L23.1,64.6 L22.2,65.0 L21.3,65.4 L20.4,65.9 L19.5,66.3 L18.7,66.8 L17.8,67.4 L17.0,67.9 L16.2,68.5 L15.3,69.0 L14.5,69.6 L13.7,70.2 L12.9,70.8 L12.1,71.4 L11.3,72.0 L10.6,72.7 L9.8,73.3 L9.1,74.0 L8.4,74.8 L7.8,75.5 L7.2,76.4 L6.8,77.3 L6.5,78.2 L6.6,79.2 L7.0,80.1 L7.7,80.8 L8.5,81.4 L9.4,81.7 L10.4,82.1 L11.3,82.3 L12.3,82.5 L13.3,82.6 L14.3,82.8 L15.3,82.9 L16.3,83.0 L17.3,83.0 L18.3,83.1 L19.3,83.1 L20.3,83.1 L21.3,83.2 L22.3,83.2 L23.3,83.1 L24.3,83.1 L25.3,83.1 L26.3,83.1 L27.3,83.1 L28.3,83.0 L29.3,83.0 L30.3,82.9 L31.3,82.9 L32.3,82.8 L33.3,82.7 L34.3,82.7 L35.3,82.6 L36.3,82.5 L37.3,82.4 L38.3,82.4 L39.3,82.3 L40.3,82.2 L41.3,82.1 L42.3,82.1 L43.3,82.1 L44.3,82.0 L45.3,82.0 L46.3,82.0 L47.3,82.0 L48.3,82.0 L49.3,82.0 L50.3,81.9 L51.3,81.9 L52.3,81.8 L53.3,81.8 L54.3,81.7 L55.3,81.7 L56.2,81.6 L57.2,81.6 L58.2,81.5 L59.2,81.4 L60.2,81.4 L61.2,81.3 L62.2,81.2 L63.2,81.1 L64.2,81.0 L65.2,80.9 L66.2,80.8 L67.2,80.7 L68.2,80.6 L69.2,80.5 L70.2,80.4 L71.2,80.3 L72.2,80.2 L73.2,80.1 L74.2,79.9 L75.2,79.8 L76.1,79.7 L77.1,79.6 L78.1,79.4 L79.1,79.3 L80.1,79.1 L81.1,79.0 L82.1,78.8 L83.1,78.7 L84.1,78.5 L85.1,78.4 L86.0,78.2 L87.0,78.1 L88.0,77.9 L89.0,77.7 L90.0,77.5 L91.0,77.4 L92.0,77.2 L92.9,77.0 L93.9,76.8 L94.9,76.6 L95.9,76.5 L96.9,76.3 L97.8,76.1 L98.8,75.9 L99.8,75.7 L100.8,75.5 L101.8,75.3 L102.7,75.1 L103.7,74.9 L104.7,74.7 L105.7,74.5 L106.7,74.3 L107.6,74.0 L108.6,73.8 L109.6,73.6 L110.6,73.4 L111.5,73.2 L112.5,73.0 L113.5,72.7 L114.5,72.5 L115.4,72.3 L116.4,72.0 L117.4,71.8 L118.4,71.6 L119.3,71.3 L120.3,71.1 L121.3,70.9 L122.2,70.6 L123.2,70.4 L124.2,70.2 L125.2,69.9 L126.1,69.7 L127.1,69.4 L128.1,69.2 L129.0,68.9 L130.0,68.7 L131.0,68.4 L131.9,68.2 L132.9,67.9 L133.9,67.7 L134.8,67.4 L135.8,67.1 L136.8,66.9 L137.7,66.6 L138.7,66.4 L139.7,66.1 L140.6,65.8 L141.6,65.6 L142.6,65.3 L143.5,65.1 L144.5,64.8 L145.5,64.5 L146.4,64.3 L147.4,64.0 L148.3,63.7 L149.3,63.5 L150.3,63.2 L151.2,62.9 L152.2,62.6 L153.2,62.4 L154.1,62.1 L155.1,61.8 L156.0,61.6 L157.0,61.3 L158.0,61.0 L158.9,60.7 L159.9,60.5 L160.9,60.2 L161.8,59.9 L162.8,59.6 L163.7,59.2 L164.6,58.9 L165.6,58.5 L166.5,58.2 L167.4,57.8 L168.4,57.4 L169.3,57.0 L170.2,56.7 L171.1,56.3 L172.1,55.9 L173.0,55.6 L173.9,55.2 L174.9,54.8 L175.8,54.5 L176.7,54.1 L177.7,53.8 L178.6,53.4 L179.5,53.1 L180.5,52.8 L181.4,52.4 L182.4,52.1 L183.3,51.8 L184.3,51.5 L185.2,51.2 L186.2,50.9 L187.2,50.6 L188.1,50.3 L189.1,50.1 L190.1,49.8 L191.0,49.6 L192.0,49.4 L193.0,49.2 L194.0,49.0 L195.0,48.9 L196.0,48.8 L196.9,48.7 L197.9,48.7 L198.9,48.7 L199.9,48.7 L200.9,48.9 L201.9,49.1 L202.8,49.5 L203.7,50.0 L204.4,50.6 L205.0,51.4 L205.4,52.4 L205.6,53.3 L205.6,54.3 L205.6,55.3 L205.4,56.3 L205.2,57.3 L204.9,58.3 L204.6,59.2 L204.2,60.1 L203.7,61.0 L203.2,61.8 L202.6,62.7 L202.0,63.5 L201.4,64.2 L200.7,65.0 L200.0,65.7 L199.2,66.3 L198.5,67.0 L197.7,67.6 L196.9,68.2 L196.1,68.8 L195.2,69.3 L194.4,69.9 L193.5,70.4 L192.7,70.9 L191.8,71.4 L190.9,71.8 L190.0,72.3 L189.1,72.8 L188.2,73.2 L187.3,73.6 L186.4,74.0 L185.5,74.5 L184.6,74.9 L183.7,75.3 L182.8,75.7 L181.8,76.1 L180.9,76.4 L180.0,76.8 L179.1,77.2 L178.1,77.6 L177.2,78.0 L176.3,78.4 L175.4,78.8 L174.5,79.2 L173.5,79.6 L172.6,80.0 L171.7,80.4 L170.8,80.8 L169.9,81.3 L169.0,81.7 L168.2,82.2 L167.3,82.7 L166.5,83.3 L165.7,83.9 L164.9,84.5 L164.1,85.1 L163.3,85.7 L162.5,86.3 L161.6,86.8 L160.8,87.4 L159.9,87.9 L159.1,88.4 L158.1,88.8 L157.2,89.1 L156.2,89.3 L155.2,89.5 L154.3,89.4 L153.3,89.2 L152.4,88.8 L151.5,88.2 L150.7,87.7 L149.9,87.1 L149.1,86.5 L148.3,85.9 L147.5,85.2 L146.8,84.6 L146.0,83.9 L145.3,83.3 L144.5,82.6 L143.8,81.9 L143.1,81.2 L142.4,80.5 L141.7,79.8 L141.0,79.0 L140.3,78.3 L139.7,77.6 L139.0,76.8 L138.3,76.1 L137.7,75.3 L137.1,74.5 L136.4,73.7 L135.8,73.0 L135.2,72.2 L134.6,71.4 L134.0,70.5 L133.5,69.7 L132.9,68.9 L132.3,68.1 L131.8,67.2 L131.2,66.4 L130.7,65.6 L130.2,64.7 L129.7,63.8 L129.2,63.0 L128.7,62.1 L128.3,61.2 L127.8,60.3 L127.4,59.4 L127.0,58.5 L126.6,57.6 L126.2,56.6 L125.9,55.7 L125.6,54.7 L125.2,53.8 L124.9,52.9 L124.6,51.9 L124.3,50.9 L124.0,50.0 L123.7,49.0 L123.4,48.1 L123.2,47.1 L122.9,46.2 L122.6,45.2 L122.3,44.2 L122.1,43.3 L121.8,42.3 L121.5,41.3 L121.2,40.4 L120.9,39.4 L120.6,38.5 L120.3,37.5 L120.0,36.6 L119.7,35.6 L119.4,34.7 L119.1,33.7 L118.7,32.8 L118.4,31.9 L118.0,30.9 L117.6,30.0 L117.2,29.1 L116.8,28.2 L116.3,27.3 L115.9,26.4 L115.4,25.5 L114.9,24.7 L114.4,23.8 L113.8,23.0 L113.3,22.1 L112.7,21.4 L112.0,20.6 L111.4,19.8 L110.7,19.1 L109.9,18.4 L109.1,17.8 L108.2,17.4 L107.3,17.0 L106.4,16.7 L105.4,16.5 L104.4,16.4 L103.4,16.3 L102.4,16.3 L101.4,16.3 L100.4,16.3 L99.4,16.3 L98.4,16.4 L97.4,16.4 L96.4,16.5 L95.4,16.5 L94.4,16.6 L93.4,16.7 L92.4,16.8 L91.4,16.8 L90.4,16.9 L89.4,17.0 L88.4,17.1 L87.4,17.2 L86.4,17.3 L85.4,17.4 L84.4,17.5 L83.4,17.6 L82.5,17.7 L81.5,17.8 L80.5,18.0 L79.5,18.1 L78.5,18.2 L77.5,18.3 L76.5,18.5 L75.5,18.6 L74.5,18.7 L73.5,18.9 L72.5,19.0 L71.6,19.2 L70.6,19.3 L69.6,19.5 L68.6,19.6 L67.6,19.8 L66.6,19.9 L65.6,20.1 L64.6,20.2 L63.6,20.4 L62.7,20.5 L61.7,20.7 L60.7,20.8 L59.7,21.0 L58.7,21.2 L57.7,21.3 L56.7,21.5 L55.7,21.6 L54.8,21.8 L53.8,21.9 L52.8,22.1 L51.8,22.3 L50.8,22.4 L49.8,22.6 L48.8,22.7 L47.8,22.9 L46.9,23.1 L45.9,23.2 L44.9,23.3 L43.9,23.5 L42.9,23.6 L41.9,23.7 L40.9,23.9 L39.9,24.0 L38.9,24.1 L37.9,24.2 L36.9,24.2 L35.9,24.3 L34.9,24.4 L33.9,24.5 L32.9,24.5 L31.9,24.6 L30.9,24.6 L29.9,24.7 L28.9,24.7 L27.9,24.7 L26.9,24.8 L25.9,24.8 L24.9,24.8 L23.9,24.8 L22.9,24.8 L21.9,24.8 L20.9,24.7 L20.0,24.6 L19.0,24.5 L18.0,24.5 L17.0,24.5 L16.0,24.6 L15.0,24.8 L14.0,25.1 L13.2,25.6 L12.4,26.3 L11.8,27.1 L11.3,27.9 L10.9,28.8 L10.6,29.8 L10.5,30.8 L10.6,31.8 L10.9,32.7 L11.3,33.6 L11.8,34.5 L12.5,35.2 L13.2,35.9 L14.0,36.5 L14.8,37.1 L15.7,37.6 L16.5,38.1 L17.4,38.6 L18.3,39.0 L19.3,39.4 L20.2,39.7 L21.1,40.1 L22.1,40.4 L23.0,40.7 L24.0,40.9 L25.0,41.2 L26.0,41.4 L27.0,41.5 L27.9,41.6 L28.9,41.8 L29.9,41.9 L30.9,42.0 L31.9,42.1 L32.9,42.2 L33.9,42.3 L34.9,42.4 L35.9,42.5 L36.9,42.5 L37.9,42.6 L38.9,42.7 L39.9,42.7 L40.9,42.8 L41.9,42.9 L42.9,42.9 L43.9,43.0 L44.9,43.0 L45.9,43.1 L46.9,43.1 L47.9,43.2 L48.9,43.3 L49.9,43.3 L50.9,43.4 L51.9,43.4 L52.9,43.5 L53.9,43.5 L54.9,43.6 L55.9,43.6 L56.9,43.7 L57.9,43.7 L58.9,43.8 L59.9,43.8 L60.9,43.9 L61.9,44.0 L62.9,44.0 L63.9,44.1 L64.8,44.2 L65.8,44.3 L66.8,44.4 L67.8,44.4 L68.8,44.5 L69.8,44.6 L70.8,44.7 L71.8,44.9 L72.8,45.0 L73.8,45.1 L74.8,45.2 L75.8,45.4 L76.8,45.5 L77.8,45.6 L78.7,45.8 L79.7,46.0 L80.7,46.1 L81.7,46.3 L82.7,46.5 L83.7,46.7 L84.6,46.9 L85.6,47.1 L86.6,47.4 L87.6,47.6 L88.5,47.9 L89.5,48.1 L90.5,48.4 L91.4,48.7 L92.4,49.0 L93.3,49.3 L94.3,49.6 L95.2,50.0 L96.1,50.3 L97.1,50.7 L98.0,51.0 L98.9,51.4 L99.8,51.8 L100.7,52.3 L101.6,52.7 L102.5,53.1 L103.4,53.6 L104.3,54.1 L105.2,54.6 L106.0,55.2 L106.8,55.8 L107.5,56.5 L108.1,57.2 L108.7,58.0 L109.3,58.9 L109.8,59.7 L110.2,60.6 L110.6,61.6 L111.0,62.5 L111.3,63.5 L111.5,64.4 L111.8,65.4 L112.0,66.4 L112.3,67.3 L112.7,68.3 L113.0,69.2 L113.3,70.1 L113.7,71.1 L114.0,72.0 L114.4,73.0 L114.7,73.9 L115.0,74.9 L115.3,75.8 L115.6,76.8 L115.8,77.7 L116.1,78.7 L116.3,79.7 L116.4,80.7 L116.5,81.7 L116.5,82.7 L116.4,83.7 L116.1,84.6 L115.6,85.5 L115.0,86.3 L114.3,87.0 L113.6,87.7 L112.9,88.4 L112.1,89.0 L111.2,89.5 L110.4,90.1 L109.5,90.6 L108.6,91.0 L107.7,91.4 L106.8,91.8 L105.8,92.1 L104.9,92.5 L103.9,92.7 L103.0,93.0 L102.0,93.1 L101.0,93.3 L100.0,93.4 L99.0,93.4 L98.0,93.4 L97.0,93.3 L96.0,93.1 L95.1,92.8 L94.1,92.5 L93.3,92.0 L92.5,91.3 L91.9,90.6 L91.3,89.7 L91.0,88.8 L90.8,87.8 L90.6,86.8 L90.6,85.8 L90.7,84.8 L90.9,83.8 L91.1,82.8 L91.3,81.9 L91.7,81.0 L92.2,80.1 L92.7,79.2 L93.3,78.4 L94.0,77.7 L94.7,77.0 L95.4,76.3 L96.2,75.7 L97.0,75.1 L97.8,74.5 L98.7,73.9 L99.5,73.4 L100.4,72.9 L101.3,72.4 L102.1,72.0 L103.0,71.5 L103.9,71.1 L104.8,70.7 L105.7,70.2 L106.7,69.8 L107.6,69.4 L108.5,69.0 L109.4,68.6 L110.3,68.2 L111.3,67.9 L112.2,67.5 L113.1,67.1 L114.0,66.7 L115.0,66.4 L115.9,66.0 L116.8,65.6 L117.8,65.3 L118.7,64.9 L119.6,64.6 L120.6,64.3 L121.5,63.9 L122.5,63.6 L123.4,63.3 L124.4,62.9 L125.3,62.6 L126.3,62.3 L127.2,62.0 L128.2,61.7 L129.1,61.4 L130.1,61.1 L131.0,60.8 L132.0,60.5 L132.9,60.2 L133.9,59.9 L134.8,59.6 L135.8,59.3 L136.8,59.0 L137.7,58.8 L138.7,58.5 L139.6,58.2 L140.6,57.9 L141.6,57.7 L142.5,57.4 L143.5,57.1 L144.5,56.8 L145.4,56.6 L146.4,56.3 L147.3,56.1 L148.3,55.8 L149.3,55.5 L150.2,55.3 L151.2,55.0 L152.2,54.8 L153.1,54.5 L154.1,54.3 L155.1,54.0 L156.0,53.8 L157.0,53.5 L158.0,53.2 L158.9,53.0 L159.9,52.7 L160.9,52.5 L161.8,52.2 L162.8,52.0 L163.8,51.7 L164.8,51.5 L165.7,51.2 L166.7,51.0 L167.7,50.7 L168.6,50.5 L169.6,50.2 L170.6,49.9 L171.5,49.7 L172.5,49.4 L173.5,49.2 L174.4,49.0 L175.4,48.7 L176.4,48.5 L177.3,48.2 L178.3,47.9 L179.3,47.7 L180.2,47.4 L181.2,47.1 L182.1,46.8 L183.1,46.4 L184.0,46.1 L185.0,45.8 L185.9,45.4 L186.8,45.0 L187.7,44.6 L188.6,44.2 L189.5,43.8 L190.4,43.3 L191.3,42.8 L192.2,42.3 L193.0,41.8 L193.8,41.2 L194.6,40.6 L195.3,39.9 L196.0,39.2 L196.7,38.4 L197.2,37.6 L197.7,36.7 L198.0,35.8 L198.3,34.8 L198.4,33.8 L198.4,32.8 L198.4,31.8 L198.4,30.8 L198.2,29.8 L198.0,28.8 L197.7,27.9 L197.3,27.0 L196.8,26.1 L196.3,25.3 L195.6,24.5 L194.9,23.8 L194.2,23.2 L193.3,22.6 L192.5,22.1 L191.6,21.6 L190.7,21.2 L189.7,20.9 L188.8,20.6 L187.8,20.3 L186.8,20.1 L185.9,19.9 L184.9,19.7 L183.9,19.5 L182.9,19.4 L181.9,19.3 L180.9,19.2 L179.9,19.1 L178.9,19.1 L177.9,19.0 L176.9,19.0 L175.9,18.9 L174.9,18.9 L173.9,18.9 L172.9,18.9 L171.9,18.9 L170.9,18.8 L169.9,18.8 L168.9,18.8 L167.9,18.8 L166.9,18.8 L165.9,18.7 L164.9,18.7 L163.9,18.7 L162.9,18.7 L161.9,18.7 L160.9,18.7 L159.9,18.7 L158.9,18.7 L157.9,18.7 L156.9,18.7 L155.9,18.7 L154.9,18.7 L153.9,18.7 L152.9,18.7 L151.9,18.7 L150.9,18.7 L149.9,18.7 L148.9,18.8 L147.9,18.8 L146.9,18.8 L145.9,18.8 L144.9,18.8 L143.9,18.9 L142.9,18.9 L141.9,18.9 L140.9,18.9 L139.9,18.9 L138.9,19.0 L137.9,19.0 L136.9,19.0 L135.9,19.1 L134.9,19.1 L133.9,19.1 L132.9,19.1 L131.9,19.2 L130.9,19.2 L129.9,19.2 L128.9,19.3 L127.9,19.3 L126.9,19.3 L125.9,19.4 L124.9,19.4 L123.9,19.5 L122.9,19.5 L121.9,19.5 L120.9,19.6 L119.9,19.6 L118.9,19.6 L117.9,19.7 L116.9,19.7 L115.9,19.7 L114.9,19.8 L113.9,19.8 L112.9,19.9 L111.9,19.9 L110.9,19.9 L109.9,20.0 L108.9,20.0 L107.9,20.0 L106.9,20.1 L105.9,20.1 L104.9,20.1 L103.9,20.2 L102.9,20.2 L101.9,20.2 L100.9,20.3 L99.9,20.3 L98.9,20.3 L97.9,20.3 L96.9,20.4 L95.9,20.4 L94.9,20.4 L93.9,20.4 L92.9,20.5 L91.9,20.5 L90.9,20.5 L89.9,20.5 L88.9,20.6 L87.9,20.6 L86.9,20.6 L85.9,20.6 L84.9,20.6 L83.9,20.6 L82.9,20.6 L81.9,20.6 L80.9,20.6 L80.0,20.7 L79.0,20.7 L77.9,20.7 L76.9,20.7 L76.0,20.6 L75.0,20.6 L74.0,20.6 L73.0,20.6 L72.0,20.6 L71.0,20.5 L70.0,20.5 L69.0,20.5 L68.0,20.4 L67.0,20.4 L66.0,20.3 L65.0,20.3 L64.0,20.2 L63.0,20.2 L62.0,20.2 L61.0,20.1 L60.0,20.1 L59.0,20.0 L58.0,20.0 L57.0,19.9 L56.0,19.9 L55.0,19.9 L54.0,19.8 L53.0,19.8 L52.0,19.8 L51.0,19.8 L50.0,19.7 L49.0,19.7 L48.0,19.7 L47.0,19.7 L46.0,19.7 L45.0,19.6 L44.0,19.4 L43.0,19.2 L42.1,18.9 L41.2,18.4 L40.6,17.6 L40.3,16.7 L40.3,15.7 L40.6,14.7 L41.1,14.0 L42.0,13.9 L42.9,14.4 L43.7,15.0 L44.5,15.6 L45.3,16.3 L46.0,17.0 L46.7,17.6 L47.4,18.4 L48.1,19.1 L48.8,19.8 L49.5,20.5 L50.2,21.2 L50.9,22.0 L51.5,22.7 L52.2,23.5 L52.9,24.2 L53.5,25.0 L54.2,25.7 L54.8,26.5 L55.5,27.3 L56.1,28.0 L56.8,28.8 L57.4,29.6 L58.0,30.4 L58.6,31.2 L59.1,32.0 L59.7,32.8 L60.3,33.6 L60.9,34.5 L61.4,35.3 L62.0,36.1 L62.6,36.9 L63.2,37.7 L63.8,38.5 L64.4,39.3 L65.1,40.1 L65.7,40.8 L66.3,41.6 L67.0,42.4 L67.6,43.1 L68.3,43.9 L69.0,44.6 L69.7,45.3 L70.4,46.0 L71.1,46.7 L71.8,47.4 L72.6,48.1 L73.3,48.7 L74.1,49.3 L74.9,50.0 L75.7,50.5 L76.5,51.1 L77.4,51.7 L78.2,52.2 L79.1,52.7 L79.9,53.2 L80.8,53.7 L81.7,54.1 L82.6,54.5 L83.6,54.9 L84.5,55.3 L85.4,55.7 L86.4,56.0 L87.3,56.3 L88.3,56.6 L89.2,56.8 L90.2,57.1 L91.2,57.4 L92.1,57.6 L93.1,57.9 L94.1,58.1 L95.0,58.3 L96.0,58.6 L97.0,58.8 L98.0,59.0 L98.9,59.2 L99.9,59.5 L100.9,59.7 L101.9,59.9 L102.9,60.1 L103.8,60.3 L104.8,60.5 L105.8,60.6 L106.8,60.8 L107.8,61.0 L108.8,61.2 L109.7,61.3 L110.7,61.5 L111.7,61.7 L112.7,61.8 L113.7,62.0 L114.7,62.1 L115.7,62.3 L116.7,62.4 L117.6,62.6 L118.6,62.7 L119.6,62.8 L120.6,62.9 L121.6,63.1 L122.6,63.2 L123.6,63.3 L124.6,63.4 L125.6,63.5 L126.6,63.6 L127.6,63.7 L128.6,63.8 L129.6,63.9 L130.6,64.0 L131.6,64.1 L132.6,64.2 L133.6,64.2 L134.6,64.3 L135.5,64.4 L136.5,64.5 L137.5,64.5 L138.5,64.6 L139.5,64.6 L140.5,64.7 L141.5,64.7 L142.5,64.8 L143.5,64.8 L144.5,64.9 L145.5,64.9 L146.5,65.0 L147.5,65.0 L148.5,65.0 L149.5,65.0 L150.5,65.1 L151.5,65.1 L152.5,65.1 L153.5,65.1 L154.5,65.1 L155.5,65.2 L156.5,65.2 L157.5,65.2 L158.5,65.2 L159.5,65.2 L160.5,65.2 L161.5,65.2 L162.5,65.2 L163.5,65.2 L164.5,65.2 L165.5,65.2 L166.5,65.2 L167.5,65.2 L168.5,65.3 L169.5,65.3 L170.5,65.3 L171.5,65.4 L172.5,65.4 L173.5,65.5 L174.5,65.5 L175.5,65.6 L176.5,65.7 L177.5,65.8 L178.5,65.9 L179.5,66.1 L180.5,66.2 L181.5,66.4 L182.4,66.6 L183.4,66.9 L184.3,67.3 L185.1,67.9 L185.6,68.7 L185.7,69.7 L185.6,70.7 L185.4,71.7 L185.3,72.7 L185.2,73.7 L185.3,74.7 L185.7,75.6 L186.1,76.5 L186.5,77.5 L186.9,78.4 L187.3,79.3 L187.6,80.2 L188.0,81.2 L188.3,82.1 L188.5,83.1 L188.6,84.1 L188.6,85.1 L188.4,86.1 L188.0,87.0 L187.4,87.8 L186.8,88.6 L186.1,89.3 L185.4,90.0 L184.6,90.6 L183.8,91.2 L182.9,91.7 L182.1,92.2 L181.2,92.7 L180.3,93.1 L179.3,93.5 L178.4,93.9 L177.5,94.2 L176.5,94.5 L175.6,94.8 L174.6,95.1 L173.6,95.3 L172.7,95.6 L171.7,95.8 L170.7,96.0 L169.7,96.2 L168.8,96.4 L167.8,96.6 L166.8,96.8 L165.8,97.0 L164.8,97.1 L163.8,97.3 L162.8,97.5 L161.9,97.6 L160.9,97.8 L159.9,97.9 L158.9,98.1 L157.9,98.2 L156.9,98.4 L155.9,98.6 L155.0,98.7 L154.0,99.0 L153.0,99.2 L152.0,99.4 L151.1,99.6 L150.1,99.9 L149.1,100.2 L148.2,100.4 L147.2,100.7 L146.2,101.0 L145.3,101.2 L144.3,101.5 L143.4,101.8 L142.4,102.1 L141.4,102.4 L140.5,102.7 L139.5,103.0 L138.6,103.3 L137.6,103.6 L136.7,103.9 L135.7,104.2 L134.8,104.5 L133.8,104.8 L132.9,105.1 L131.9,105.4 L130.9,105.6 L130.0,105.9 L129.0,106.2 L128.0,106.4 L127.1,106.7 L126.1,106.9 L125.1,107.2 L124.2,107.4 L123.2,107.6 L122.2,107.8 L121.2,108.0 L120.2,108.2 L119.3,108.4 L118.3,108.5 L117.3,108.7 L116.3,108.8 L115.3,108.9 L114.3,109.0 L113.3,109.1 L112.3,109.2 L111.3,109.3 L110.3,109.3 L109.3,109.4 L108.3,109.5 L107.3,109.5 L106.3,109.6 L105.3,109.6 L104.3,109.6 L103.3,109.6 L102.3,109.7 L101.3,109.7 L100.3,109.7 L99.3,109.7 L98.3,109.7 L97.3,109.6 L96.3,109.6 L95.3,109.6 L94.3,109.6 L93.3,109.5 L92.3,109.5 L91.3,109.5 L90.3,109.4 L89.3,109.4 L88.3,109.3 L87.3,109.3 L86.3,109.2 L85.3,109.1 L84.3,109.1 L83.3,109.0 L82.3,108.9 L81.3,108.8 L80.3,108.8 L79.3,108.7 L78.4,108.6 L77.4,108.5 L76.4,108.4 L75.4,108.3 L74.4,108.3 L73.4,108.2 L72.4,108.1 L71.4,108.0 L70.4,107.9 L69.4,107.8 L68.4,107.7 L67.4,107.6 L66.4,107.5 L65.4,107.4 L64.4,107.3 L63.4,107.1 L62.4,107.0 L61.4,106.9 L60.4,106.9 L59.4,106.9 L58.4,106.9 L57.4,106.9 L56.4,106.9 L55.4,106.8 L54.4,106.8 L53.4,106.8 L52.4,106.8 L51.4,106.8 L50.4,106.7 L49.4,106.7 L48.4,106.6 L47.4,106.6 L46.4,106.5 L45.5,106.4 L44.5,106.3 L43.5,106.2 L42.5,106.0 L41.5,105.9 L40.5,105.7 L39.5,105.5 L38.5,105.3 L37.6,105.1 L36.6,104.8 L35.7,104.5 L34.7,104.2 L33.8,103.8 L32.9,103.3 L32.1,102.8 L31.3,102.2 L30.6,101.4 L30.1,100.6 L29.7,99.7 L29.5,98.7 L29.5,97.7 L29.5,96.7 L29.7,95.7 L30.1,94.8 L30.6,93.9 L31.3,93.2 L32.0,92.6 L32.9,92.0 L33.8,91.6 L34.7,91.3 L35.7,91.0 L36.7,90.8 L37.6,90.6 L38.6,90.5 L39.6,90.4 L40.6,90.4 L41.6,90.3 L42.6,90.3 L43.6,90.4 L44.6,90.4 L45.6,90.4 L46.6,90.5 L47.6,90.6 L48.6,90.6 L49.6,90.7 L50.6,90.8 L51.6,90.9 L52.6,91.0 L53.6,91.0 L54.6,91.1 L55.6,91.1 L56.6,91.1 L57.6,91.1 L58.6,91.1 L59.6,91.1 L60.6,91.1 L61.6,91.1 L62.6,91.1 L63.6,91.1 L64.6,91.0 L65.6,91.0 L66.6,91.0 L67.6,91.0 L68.6,91.0 L69.6,90.9 L70.6,90.9 L71.6,90.9 L72.6,90.8 L73.6,90.8 L74.6,90.8 L75.6,90.7 L76.6,90.7 L77.6,90.7 L78.6,90.6 L79.6,90.6 L80.6,90.5 L81.6,90.5 L82.6,90.4 L83.6,90.4 L84.6,90.3 L85.6,90.3 L86.6,90.2 L87.6,90.1 L88.6,90.1 L89.6,90.0 L90.6,90.0 L91.6,89.9 L92.6,89.8 L93.6,89.7 L94.6,89.7 L95.6,89.6 L96.6,89.5 L97.6,89.4 L98.6,89.3 L99.6,89.2 L100.6,89.2 L101.5,89.1 L102.5,89.0 L103.5,88.9 L104.5,88.8 L105.5,88.7 L106.5,88.6 L107.5,88.5 L108.5,88.4 L109.5,88.2 L110.5,88.1 L111.5,88.0 L112.5,87.9 L113.5,87.8 L114.5,87.6 L115.5,87.5 L116.5,87.4 L117.4,87.3 L118.4,87.1 L119.4,87.0 L120.4,86.9 L121.4,86.7 L122.4,86.6 L123.4,86.4 L124.4,86.3 L125.4,86.1 L126.3,86.0 L127.3,85.8 L128.3,85.6 L129.3,85.5 L130.3,85.3 L131.3,85.1 L132.3,84.9 L133.2,84.8 L134.2,84.6 L135.2,84.4 L136.2,84.2 L137.2,84.0 L138.2,83.8 L139.1,83.6 L140.1,83.4 L141.1,83.2 L142.1,83.0 L143.1,82.8 L144.0,82.6 L145.0,82.4 L146.0,82.2 L147.0,81.9 L147.9,81.7 L148.9,81.5 L149.9,81.2 L150.8,81.0 L151.8,80.7 L152.8,80.5 L153.8,80.2 L154.7,80.0 L155.7,79.7 L156.6,79.5 L157.6,79.2 L158.6,78.9 L159.5,78.6 L160.5,78.4 L161.5,78.1 L162.4,77.8 L163.4,77.5 L164.3,77.2 L165.3,76.9 L166.2,76.6 L167.2,76.3 L168.1,76.0 L169.1,75.6 L170.0,75.3 L171.0,75.0 L171.9,74.6 L172.8,74.2 L173.7,73.8 L174.6,73.4 L175.5,72.9 L176.3,72.3 L177.1,71.8 L177.9,71.1 L178.7,70.5 L179.4,69.8 L180.0,69.0 L180.7,68.2 L181.3,67.4 L181.8,66.6 L182.3,65.7 L182.7,64.8 L183.2,63.9 L183.5,63.0 L183.8,62.0 L184.1,61.1 L184.3,60.1 L184.5,59.1 L184.7,58.1 L184.8,57.2 L184.9,56.2 L185.0,55.2 L185.0,54.2 L185.0,53.2 L185.0,52.2 L184.9,51.2 L184.9,50.2 L184.8,49.2 L184.6,48.2 L184.5,47.2 L184.3,46.2 L184.2,45.2 L183.9,44.2 L183.7,43.3 L183.5,42.3 L183.2,41.3 L183.0,40.4 L182.7,39.4 L182.3,38.5 L182.0,37.5 L181.7,36.6 L181.3,35.6 L181.0,34.7 L180.6,33.8 L180.2,32.9 L179.8,32.0 L179.3,31.1 L178.9,30.2 L178.4,29.3 L178.0,28.4 L177.5,27.5 L177.1,26.6 L176.7,25.7 L176.3,24.8 L175.9,23.8 L175.6,22.9 L175.2,21.9 L174.9,21.0 L174.6,20.1 L174.3,19.1 L174.0,18.2 L173.7,17.2 L173.4,16.2 L173.1,15.3 L172.8,14.3 L172.6,13.3 L172.4,12.4 L172.2,11.4 L171.9,10.4 L171.6,9.5 L171.2,8.6 L170.5,8.4 L170.0,9.2 L169.7,10.1 L169.5,11.1 L169.4,12.1 L169.3,13.1 L169.2,14.1 L169.1,15.1 L169.0,16.1 L169.0,17.1 L168.9,18.1 L168.8,19.1 L168.6,20.1 L168.5,21.1 L168.2,22.0 L167.9,23.0 L167.6,23.9 L167.2,24.9 L166.9,25.8 L166.6,26.8 L166.3,27.7 L165.9,28.7 L165.6,29.6 L165.3,30.5 L165.0,31.5 L164.7,32.4 L164.3,33.4 L164.0,34.3 L163.7,35.3 L163.4,36.2 L163.0,37.2 L162.7,38.1 L162.3,39.0 L162.0,40.0 L161.6,40.9 L161.2,41.8 L160.9,42.8 L160.5,43.7 L160.1,44.6 L159.7,45.5 L159.3,46.4 L158.9,47.4 L158.5,48.3 L158.0,49.2 L157.6,50.0 L157.1,50.9 L156.6,51.8 L156.1,52.7 L155.6,53.6 L155.1,54.4 L154.6,55.3 L154.1,56.1 L153.5,56.9 L152.9,57.7 L152.3,58.6 L151.7,59.3 L151.1,60.1 L150.5,60.9 L149.8,61.6 L149.1,62.4 L148.4,63.1 L147.7,63.8 L147.0,64.5 L146.2,65.1 L145.5,65.8 L144.7,66.4 L143.9,67.0 L143.1,67.6 L142.2,68.1 L141.4,68.7 L140.5,69.2 L139.6,69.6 L138.7,70.1 L137.8,70.5 L136.9,70.8 L135.9,71.2 L135.0,71.5 L134.0,71.8 L133.1,72.0 L132.1,72.3 L131.1,72.5 L130.1,72.6 L129.1,72.8 L128.2,72.9 L127.2,73.0 L126.2,73.1 L125.2,73.2 L124.2,73.2 L123.2,73.3 L122.2,73.3 L121.2,73.3 L120.2,73.4 L119.2,73.4 L118.2,73.3 L117.2,73.3 L116.2,73.3 L115.2,73.3 L114.2,73.3 L113.2,73.3 L112.2,73.3 L111.2,73.3 L110.2,73.3 L109.2,73.3 L108.2,73.3 L107.2,73.3 L106.2,73.3 L105.2,73.4 L104.2,73.4 L103.2,73.5 L102.2,73.7 L101.2,73.8 L100.2,74.0 L99.2,74.1 L98.2,74.3 L97.2,74.4 L96.3,74.6 L95.3,74.8 L94.3,74.9 L93.3,75.1 L92.3,75.2 L91.3,75.4 L90.3,75.5 L89.3,75.6 L88.3,75.7 L87.4,75.9 L86.4,75.9 L85.4,76.0 L84.4,76.1 L83.4,76.1 L82.4,76.1 L81.4,76.1 L80.4,76.0 L79.4,75.9 L78.4,75.7 L77.4,75.5 L76.4,75.3 L75.5,74.9 L74.6,74.5 L73.7,74.0 L72.8,73.6 L71.9,73.1 L71.1,72.6 L70.2,72.2 L69.3,71.7 L68.4,71.2 L67.5,70.7 L66.7,70.2 L65.8,69.8 L64.9,69.3 L64.0,68.8 L63.1,68.4 L62.2,67.9 L61.4,67.4 L60.5,67.0 L59.6,66.6 L58.7,66.1 L57.8,65.7 L56.8,65.3 L55.9,64.9 L55.0,64.5 L54.1,64.1 L53.2,63.7 L52.2,63.4 L51.3,63.0 L50.3,62.7 L49.4,62.4 L48.4,62.1 L47.5,61.7 L46.6,61.4 L45.6,61.1 L44.7,60.8 L43.7,60.4 L42.8,60.1 L41.8,59.8 L40.9,59.4 L40.0,59.0 L39.0,58.7 L38.1,58.3 L37.2,57.9 L36.3,57.5 L35.4,57.1 L34.5,56.7 L33.6,56.2 L32.7,55.8 L31.8,55.3 L30.9,54.8 L30.0,54.3 L29.2,53.8 L28.4,53.3 L27.5,52.7 L26.7,52.1 L26.0,51.5 L25.2,50.8 L24.5,50.1 L23.8,49.4 L23.1,48.7 L22.5,47.9 L21.9,47.1 L21.4,46.2 L20.9,45.3 L20.5,44.4 L20.2,43.5 L19.9,42.5 L19.7,41.5 L19.7,40.5 L20.1,39.6 L20.7,38.8 L21.5,38.2 L22.4,37.7 L23.3,37.3 L24.2,37.0 L25.1,36.7 L26.1,36.4 L27.1,36.1 L28.1,35.9 L29.0,35.7 L30.0,35.6 L31.0,35.4 L32.0,35.3 L33.0,35.1 L34.0,35.0 L35.0,34.9 L36.0,34.8 L37.0,34.7 L38.0,34.7 L39.0,34.6 L40.0,34.5 L41.0,34.5 L42.0,34.4 L43.0,34.4 L44.0,34.3 L45.0,34.3 L46.0,34.3 L47.0,34.2 L48.0,34.2 L49.0,34.2 L50.0,34.2 L51.0,34.2 L52.0,34.2 L53.0,34.2 L54.0,34.2 L55.0,34.2 L56.0,34.1 L57.0,34.1 L58.0,34.1 L59.0,34.0 L60.0,34.0 L61.0,34.0 L62.0,33.9 L63.0,33.9 L64.0,33.8 L65.0,33.8 L66.0,33.8 L67.0,33.7 L67.9,33.7 L68.9,33.6 L69.9,33.5 L70.9,33.5 L71.9,33.4 L72.9,33.3 L73.9,33.3 L74.9,33.2 L75.9,33.1 L76.9,33.0 L77.9,32.9 L78.9,32.8 L79.9,32.7 L80.9,32.6 L81.9,32.5 L82.9,32.4 L83.9,32.3 L84.9,32.2 L85.9,32.1 L86.9,32.0 L87.9,31.9 L88.9,31.8 L89.9,31.7 L90.9,31.6 L91.8,31.5 L92.8,31.4 L93.8,31.3 L94.8,31.2 L95.8,31.1 L96.8,31.0 L97.8,30.9 L98.8,30.8 L99.8,30.7 L100.8,30.6 L101.8,30.5 L102.8,30.4 L103.8,30.3 L104.8,30.2 L105.8,30.1 L106.8,29.9 L107.8,29.8 L108.8,29.7 L109.8,29.6 L110.7,29.5 L111.7,29.4 L112.7,29.4 L113.7,29.3 L114.7,29.2 L115.7,29.1 L116.7,29.0 L117.7,29.0 L118.7,28.9 L119.7,28.9 L120.7,28.8 L121.7,28.8 L122.7,28.8 L123.7,28.8 L124.7,28.8 L125.7,28.8 L126.7,28.8 L127.7,28.8 L128.7,28.8 L129.7,28.8 L130.7,28.8 L131.7,28.8 L132.7,28.8 L133.7,28.8 L134.7,28.8 L135.7,28.8 L136.7,28.8 L137.7,28.8 L138.7,28.8 L139.7,28.8 L140.7,28.8 L141.7,28.8 L142.7,28.8 L143.7,28.8 L144.7,28.8 L145.7,28.8 L146.7,28.9 L147.7,28.9 L148.7,29.0 L149.7,29.1 L150.7,29.2 L151.7,29.3 L152.7,29.4 L153.7,29.4 L154.7,29.5 L155.7,29.6 L156.7,29.7 L157.7,29.7 L158.7,29.8 L159.7,29.9 L160.7,29.9 L161.7,30.0 L162.7,30.0 L163.7,30.0 L164.7,30.0 L165.7,30.0 L166.7,30.0 L167.7,30.0 L168.7,30.0 L169.7,29.9 L170.7,29.8 L171.7,29.8 L172.7,29.6 L173.6,29.5 L174.6,29.3 L175.6,29.1 L176.6,28.9 L177.5,28.6 L178.5,28.3 L179.4,27.9 L180.3,27.5 L181.1,26.9 L181.9,26.3 L182.6,25.6 L183.2,24.8 L183.7,23.9 L184.0,23.0 L184.2,22.0 L184.2,21.0 L184.2,20.0 L184.0,19.0 L183.8,18.0 L183.5,17.1 L183.1,16.2 L182.7,15.2 L182.3,14.3 L181.8,13.5 L181.2,12.7 L180.5,11.9 L179.8,11.3 L179.0,10.7 L178.1,10.2 L177.2,9.7 L176.3,9.4 L175.3,9.1 L174.4,8.8 L173.4,8.6 L172.4,8.5 L171.4,8.4 L170.4,8.3 L169.4,8.3 L168.4,8.3 L167.4,8.3 L166.4,8.3 L165.4,8.4 L164.4,8.4 L163.4,8.5 L162.4,8.6 L161.4,8.7 L160.4,8.8 L159.4,8.9 L158.4,9.0 L157.4,9.1 L156.4,9.2 L155.4,9.2 L154.5,9.3 L153.5,9.4 L152.5,9.5 L151.5,9.6 L150.5,9.7 L149.5,9.9 L148.5,10.0 L147.5,10.1 L146.5,10.2 L145.5,10.4 L144.5,10.5 L143.5,10.7 L142.5,10.8 L141.6,11.0 L140.6,11.1 L139.6,11.3 L138.6,11.4 L137.6,11.6 L136.6,11.8 L135.6,11.9 L134.7,12.1 L133.7,12.3 L132.7,12.5 L131.7,12.7 L130.7,12.8 L129.7,13.0 L128.8,13.2 L127.8,13.4 L126.8,13.6 L125.8,13.8 L124.8,14.0 L123.8,14.2 L122.9,14.4 L121.9,14.6 L120.9,14.7 L119.9,14.9 L118.9,15.1 L118.0,15.3 L117.0,15.5 L116.0,15.7 L115.0,15.9 L114.0,16.1 L113.0,16.3 L112.1,16.5 L111.1,16.6 L110.1,16.8 L109.1,17.0 L108.1,17.2 L107.1,17.4 L106.2,17.5 L105.2,17.7 L104.2,17.9 L103.2,18.0 L102.2,18.2 L101.2,18.4 L100.2,18.5 L99.3,18.7 L98.3,18.8 L97.3,18.9 L96.3,19.1 L95.3,19.2 L94.3,19.3 L93.3,19.5 L92.3,19.6 L91.3,19.7 L90.3,19.8 L89.3,19.9 L88.3,20.0 L87.3,20.1 L86.3,20.2 L85.3,20.2 L84.3,20.3 L83.4,20.3 L82.4,20.4 L81.4,20.4 L80.4,20.4 L79.4,20.4 L78.4,20.4 L77.4,20.3 L76.4,20.3 L75.4,20.2 L74.4,20.2 L73.4,20.1 L72.4,20.0 L71.4,19.9 L70.4,19.8 L69.4,19.7 L68.4,19.6 L67.4,19.4 L66.4,19.3 L65.4,19.1 L64.4,18.9 L63.5,18.7 L62.5,18.5 L61.5,18.3 L60.5,18.1 L59.6,17.8 L58.6,17.6 L57.6,17.3 L56.7,17.0 L55.7,16.7 L54.8,16.3 L53.9,16.0 L52.9,15.6 L52.0,15.2 L51.1,14.7 L50.3,14.3 L49.4,13.8 L48.5,13.3 L47.6,12.9 L46.7,12.4 L45.8,12.0 L44.9,11.5 L44.0,11.1 L43.1,10.7 L42.2,10.3 L41.2,9.9 L40.3,9.6 L39.4,9.2 L38.4,8.9 L37.4,8.7 L36.5,8.5 L35.5,8.3 L34.5,8.2 L33.5,8.2 L32.5,8.3 L31.5,8.5 L30.6,8.8 L29.6,9.1 L28.7,9.5 L27.8,9.9 L26.9,10.3 L26.0,10.8 L25.1,11.3 L24.2,11.8 L23.4,12.3 L22.5,12.8 L21.7,13.3 L20.8,13.9 L20.0,14.4 L19.2,15.0 L18.4,15.6 L17.6,16.2 L16.8,16.8 L16.0,17.5 L15.3,18.1 L14.5,18.7 L13.8,19.4 L13.0,20.1 L12.3,20.7 L11.5,21.4 L10.8,22.1 L10.1,22.8 L9.4,23.5 L8.7,24.3 L8.1,25.0 L7.4,25.8 L6.8,26.6 L6.3,27.4 L5.7,28.3 L5.2,29.1 L4.7,30.0 L4.3,30.9 L3.9,31.8 L3.5,32.7 L3.1,33.7 L2.8,34.6 L2.6,35.6 L2.3,36.5 L2.1,37.5 L2.0,38.5 L1.8,39.5 L1.8,40.5 L1.8,41.5 L1.8,42.5 L1.9,43.5 L2.0,44.5 L2.2,45.5 L2.4,46.4 L2.8,47.4 L3.1,48.3 L3.6,49.2 L4.1,50.1 L4.6,50.9 L5.2,51.7 L5.9,52.5 L6.6,53.2 L7.3,53.9 L8.1,54.5 L8.9,55.0 L9.8,55.6 L10.6,56.1 L11.5,56.5 L12.4,57.0 L13.3,57.5 L14.2,57.9 L15.1,58.4 L15.9,58.9 L16.8,59.4 L17.6,59.9 L18.5,60.5 L19.3,61.1 L20.0,61.7 L20.8,62.4 L21.4,63.2 L22.0,64.0 L22.4,64.9 L22.8,65.8 L23.0,66.8 L23.1,67.8 L23.1,68.8 L23.0,69.8 L22.9,70.8 L22.7,71.8 L22.6,72.7 L22.4,73.7 L22.1,74.7 L21.9,75.7 L21.6,76.6 L21.3,77.6 L21.0,78.5 L20.7,79.5 L20.4,80.4 L20.1,81.4 L19.7,82.3 L19.4,83.3 L19.1,84.2 L18.8,85.2 L18.5,86.1 L18.2,87.1 L17.9,88.0 L17.6,89.0 L17.3,90.0 L17.1,90.9 L16.9,91.9 L16.7,92.9 L16.5,93.9 L16.4,94.9 L16.2,95.9 L16.2,96.9 L16.2,97.9 L16.2,98.9 L16.3,99.8 L16.4,100.8 L16.6,101.8 L16.8,102.8 L17.2,103.7 L17.6,104.6 L18.1,105.5 L18.7,106.3 L19.5,106.9 L20.4,107.3 L21.3,107.7 L22.3,108.0 L23.2,108.2 L24.2,108.4 L25.2,108.5 L26.2,108.6 L27.2,108.6 L28.2,108.6 L29.2,108.6 L30.2,108.6 L31.2,108.6 L32.2,108.5 L33.2,108.4 L34.2,108.4 L35.2,108.3 L36.2,108.2 L37.2,108.1 L38.2,108.0 L39.2,107.9 L40.2,107.8 L41.2,107.7 L42.2,107.7 L43.2,107.7 L44.2,107.7 L45.2,107.7 L46.2,107.6 L47.2,107.6 L48.2,107.6 L49.2,107.6 L50.2,107.5 L51.2,107.5 L52.2,107.4 L53.2,107.4 L54.2,107.3 L55.2,107.3 L56.2,107.2 L57.2,107.1 L58.2,107.1 L59.2,107.0 L60.2,106.9 L61.2,106.8 L62.2,106.7 L63.1,106.6 L64.1,106.6 L65.1,106.5 L66.1,106.3 L67.1,106.2 L68.1,106.1 L69.1,106.0 L70.1,105.9 L71.1,105.8 L72.1,105.6 L73.1,105.5 L74.1,105.4 L75.1,105.2 L76.1,105.1 L77.0,105.0 L78.0,104.8 L79.0,104.7 L80.0,104.5 L81.0,104.4 L82.0,104.2 L83.0,104.1 L84.0,103.9 L85.0,103.7 L85.9,103.6 L86.9,103.4 L87.9,103.2 L88.9,103.1 L89.9,102.9 L90.9,102.7 L91.9,102.6 L92.8,102.4 L93.8,102.2 L94.8,102.0 L95.8,101.8 L96.8,101.7 L97.8,101.5 L98.7,101.3 L99.7,101.1 L100.7,100.9 L101.7,100.7 L102.7,100.6 L103.6,100.4 L104.6,100.2 L105.6,100.0 L106.6,99.8 L107.6,99.6 L108.6,99.4 L109.5,99.2 L110.5,99.0 L111.5,98.9 L112.5,98.7 L113.5,98.5 L114.4,98.3 L115.4,98.1 L116.4,97.9 L117.4,97.7 L118.4,97.5 L119.4,97.3 L120.3,97.2 L121.3,97.0 L122.3,96.8 L123.3,96.6 L124.3,96.4 L125.3,96.3 L126.2,96.1 L127.2,95.9 L128.2,95.7 L129.2,95.6 L130.2,95.4 L131.2,95.2 L132.2,95.1 L133.1,94.9 L134.1,94.7 L135.1,94.6 L136.1,94.4 L137.1,94.3 L138.1,94.1 L139.1,94.0 L140.1,93.8 L141.1,93.7 L142.0,93.5 L143.0,93.4 L144.0,93.3 L145.0,93.2 L146.0,93.1 L147.0,93.0 L148.0,92.9 L149.0,92.8 L150.0,92.7 L151.0,92.6 L152.0,92.5 L153.0,92.4 L154.0,92.3 L155.0,92.3 L156.0,92.2 L157.0,92.1 L158.0,91.9 L159.0,91.8 L159.9,91.7 L160.9,91.5 L161.9,91.3 L162.9,91.2 L163.9,91.0 L164.9,90.8 L165.9,90.6 L166.8,90.5 L167.8,90.3 L168.8,90.1 L169.8,90.0 L170.8,89.8 L171.8,89.7 L172.8,89.6 L173.8,89.5 L174.8,89.4 L175.8,89.3 L176.8,89.2 L177.8,89.2 L178.8,89.1 L179.8,89.1 L180.7,89.2 L181.7,89.3 L182.7,89.4 L183.7,89.6 L184.7,89.9 L185.6,90.2 L186.5,90.7 L187.3,91.2 L188.1,91.9 L188.8,92.6 L189.5,93.3 L190.2,94.1 L190.9,94.7 L191.7,95.4 L192.5,95.9 L193.4,96.3 L194.4,96.5 L195.4,96.5 L196.4,96.3 L197.3,95.9 L198.1,95.3 L198.8,94.6 L199.4,93.8 L199.8,92.9 L200.0,91.9 L200.1,90.9 L200.2,89.9 L200.3,88.9 L200.4,87.9 L200.5,86.9 L200.6,85.9 L200.6,85.0 L200.7,84.0 L200.8,83.0 L200.8,82.0 L200.8,81.0 L200.9,80.0 L200.9,79.0 L200.9,78.0 L200.9,77.0 L200.9,76.0 L200.9,75.0 L200.9,74.0 L200.9,73.0 L200.9,72.0 L200.8,71.0 L200.8,70.0 L200.8,69.0 L200.7,68.0 L200.7,67.0 L200.6,66.0 L200.6,65.0 L200.5,64.0 L200.5,63.0 L200.4,62.0 L200.4,61.0 L200.3,60.0 L200.2,59.0 L200.2,58.0 L200.1,57.0 L200.0,56.0 L200.0,55.0 L199.9,54.0 L199.8,53.0 L199.8,52.0 L199.7,51.0 L199.6,50.0 L199.6,49.0 L199.5,48.0 L199.4,47.0 L199.4,46.0 L199.3,45.0 L199.2,44.0 L199.2,43.0 L199.1,42.0 L199.0,41.0 L199.0,40.0 L198.9,39.0 L198.9,38.0 L198.8,37.0 L198.8,36.0 L198.8,35.0 L198.8,34.0 L198.8,33.0 L198.8,32.0 L198.8,31.0 L198.9,30.0 L198.9,29.0 L198.9,28.0 L198.9,27.0 L198.8,26.0 L198.8,25.0 L198.8,24.0 L198.7,23.0 L198.6,22.0 L198.5,21.0 L198.4,20.0 L198.2,19.1 L198.0,18.1 L197.8,17.1 L197.5,16.1 L197.2,15.2 L196.8,14.3 L196.3,13.4 L195.6,12.6 L194.9,11.9 L194.1,11.4 L193.2,11.0 L192.2,10.7 L191.2,10.6 L190.3,10.4 L189.3,10.4 L188.3,10.3 L187.3,10.3 L186.3,10.4 L185.3,10.4 L184.3,10.5 L183.3,10.5 L182.3,10.6 L181.3,10.7 L180.3,10.8 L179.3,11.0 L178.3,11.1 L177.3,11.2 L176.3,11.4 L175.3,11.5 L174.3,11.7 L173.3,11.8 L172.4,12.0 L171.4,12.2 L170.4,12.3 L169.4,12.5 L168.4,12.7 L167.4,12.9 L166.5,13.0 L165.5,13.2 L164.5,13.4 L163.5,13.6 L162.5,13.8 L161.5,13.9 L160.5,14.1 L159.6,14.3 L158.6,14.4 L157.6,14.6 L156.6,14.8 L155.6,15.0 L154.6,15.1 L153.7,15.3 L152.7,15.5 L151.7,15.7 L150.7,15.9 L149.7,16.0 L148.7,16.2 L147.7,16.4 L146.8,16.5 L145.8,16.7 L144.8,16.8 L143.8,17.0 L142.8,17.1 L141.8,17.2 L140.8,17.3 L139.8,17.4 L138.8,17.5 L137.8,17.6 L136.8,17.7 L135.8,17.7 L134.8,17.8 L133.8,17.8 L132.8,17.8 L131.8,17.8 L130.8,17.9 L129.8,17.9 L128.8,17.9 L127.8,17.9 L126.8,17.9 L125.8,17.9 L124.8,17.9 L123.8,17.9 L122.8,17.8 L121.8,17.8 L120.8,17.7 L119.8,17.7 L118.8,17.6 L117.8,17.5 L116.8,17.4 L115.9,17.3 L114.9,17.3 L113.9,17.2 L112.9,17.1 L111.9,17.0 L110.9,16.9 L109.9,16.8 L108.9,16.7 L107.9,16.7 L106.9,16.6 L105.9,16.5 L104.9,16.5 L103.9,16.4 L102.9,16.4 L101.9,16.3 L100.9,16.3 L99.9,16.3 L98.9,16.3 L97.9,16.3 L96.9,16.4 L95.9,16.4 L94.9,16.5 L93.9,16.6 L92.9,16.7 L91.9,16.9 L90.9,17.1 L90.0,17.3 L89.0,17.6 L88.1,17.9 L87.1,18.3 L86.2,18.7 L85.4,19.3 L84.6,19.8 L83.8,20.5 L83.1,21.2 L82.5,22.0 L81.9,22.8 L81.4,23.7 L81.1,24.6 L80.8,25.5 L80.5,26.5 L80.4,27.5 L80.3,28.5 L80.2,29.5 L80.2,30.5 L80.3,31.5 L80.4,32.5 L80.5,33.5 L80.7,34.5 L80.9,35.4 L81.1,36.4 L81.3,37.4 L81.6,38.4 L81.9,39.3 L82.4,40.2 L83.0,41.0 L83.6,41.8 L84.3,42.5 L84.9,43.3 L85.6,44.0 L86.2,44.8 L86.9,45.5 L87.7,46.1 L88.5,46.8 L89.3,47.3 L90.2,47.8 L91.1,48.2 L92.0,48.6 L93.0,48.9 L93.9,49.1 L94.9,49.3 L95.9,49.4 L96.9,49.5 L97.9,49.5 L98.9,49.5 L99.9,49.4 L100.9,49.3 L101.9,49.1 L102.9,48.9 L103.8,48.6 L104.8,48.4 L105.7,48.1 L106.7,47.7 L107.6,47.4 L108.6,47.0 L109.5,46.7 L110.4,46.3 L111.4,45.9 L112.3,45.5 L113.2,45.2 L114.1,44.8 L115.1,44.5 L116.0,44.2 L117.0,43.8 L117.9,43.5 L118.9,43.2 L119.8,42.9 L120.8,42.6 L121.7,42.3 L122.7,42.1 L123.7,41.8 L124.6,41.5 L125.6,41.3 L126.6,41.0 L127.5,40.7 L128.5,40.5 L129.5,40.3 L130.4,40.0 L131.4,39.8 L132.4,39.6 L133.4,39.4 L134.4,39.2 L135.3,39.0 L136.3,38.8 L137.3,38.7 L138.3,38.5 L139.3,38.4 L140.3,38.2 L141.3,38.1 L142.3,38.0 L143.3,37.9 L144.3,37.8 L145.3,37.8 L146.3,37.7 L147.3,37.7 L148.3,37.7 L149.3,37.7 L150.3,37.7 L151.2,37.7 L152.2,37.8 L153.2,37.9 L154.2,38.1 L155.2,38.2 L156.2,38.4 L157.2,38.7 L158.1,39.0 L159.1,39.3 L160.0,39.7 L160.9,40.1 L161.8,40.6 L162.6,41.2 L163.4,41.8 L164.1,42.5 L164.8,43.2 L165.4,44.0 L165.9,44.9 L166.4,45.7 L166.7,46.7 L167.0,47.6 L167.3,48.6 L167.5,49.6 L167.6,50.6 L167.6,51.6"/></g></g></g></svg>