<svg xmlns="http://www.w3.org/2000/svg" version="1.1" xmlns:xlink="http://www.w3.org/1999/xlink" xmlns:svgjs="http://svgjs.com/svgjs" fill="none" stroke-width="1.44" stroke="#000000" stroke-linejoin="round" stroke-linecap="round" viewBox="0 0 62.4 45.5"><polygon points="39.8,12.5 39.7,13.5 39.6,14.5 39.2,16.5 38.6,18.4 38.3,19.3 37.9,20.2 37.4,21.1 36.9,22.0 36.4,22.8 35.8,23.7 35.2,24.4 34.5,25.1 33.7,25.8 32.9,26.3 32.0,26.7 31.0,27.0 10.4,28.6 9.5,28.3 8.6,27.8 7.9,27.1 7.2,26.4 6.8,25.4 1.8,5.9 29.7,1.8 31.6,1.8 32.6,2.0 33.6,2.2 34.5,2.6 36.3,3.6 37.0,4.3 37.7,5.0 38.3,5.8 38.8,6.7 39.1,7.6 39.4,8.6 39.6,9.5 39.8,10.5 39.8,12.5"></polygon></svg>