<svg xmlns="http://www.w3.org/2000/svg" version="1.1" xmlns:xlink="http://www.w3.org/1999/xlink" xmlns:svgjs="http://svgjs.com/svgjs" fill="none" stroke-width="1.44" stroke="#000000" stroke-linejoin="round" stroke-linecap="round" viewBox="0 0 62.4 45.5"><path d="M1.8,5.9 L2.6,6.4 L3.5,6.9 L4.3,7.5 L5.2,8.0 L6.1,8.5 L6.9,9.0 L7.8,9.5 L8.6,10.0 L9.4,10.6 L10.2,11.2 L11.0,11.8 L11.7,12.5 L12.4,13.3 L13.0,14.1 L13.5,15.0 L13.9,15.9 L14.3,16.8 L14.6,17.7 L14.8,18.7 L15.0,19.7 L15.0,20.7 L14.9,21.7 L14.7,22.7 L14.5,23.7 L14.3,24.6 L13.9,25.6 L13.5,26.5 L13.0,27.3 L12.3,28.0 L11.4,28.5 L10.4,28.6 L9.5,28.3 L8.6,27.8 L7.9,27.1 L7.2,26.4 L6.8,25.4 L6.7,24.5 L6.8,23.5 L7.0,22.5 L7.5,21.6 L8.0,20.8 L8.6,20.0 L9.3,19.2 L10.0,18.5 L10.7,17.8 L11.5,17.2 L12.3,16.6 L13.1,16.0 L13.9,15.4 L14.8,14.9 L15.6,14.4 L16.5,13.9 L17.4,13.5 L18.3,13.1 L19.2,12.7 L20.2,12.3 L21.1,12.0 L22.1,11.7 L23.0,11.5 L24.0,11.3 L25.0,11.2 L26.0,11.1 L27.0,11.2 L28.0,11.3 L29.0,11.6 L29.8,12.1 L30.6,12.7 L31.2,13.5 L31.7,14.4 L32.0,15.3 L32.1,16.3 L32.0,17.3 L31.8,18.3 L31.4,19.2 L31.0,20.1 L30.4,20.9 L29.8,21.7 L29.1,22.5 L28.4,23.1 L27.6,23.8 L26.8,24.4 L26.0,24.9 L25.1,25.4 L24.2,25.8 L23.2,26.1 L22.3,26.4 L21.3,26.5 L20.3,26.6 L19.3,26.5 L18.3,26.3 L17.4,25.9 L16.5,25.4 L15.7,24.9 L15.0,24.2 L14.3,23.4 L13.8,22.5 L13.5,21.6 L13.3,20.6 L13.2,19.6 L13.2,18.6 L13.3,17.6 L13.6,16.7 L13.8,15.7 L14.2,14.8 L14.6,13.9 L15.1,13.0 L15.6,12.1 L16.1,11.3 L16.7,10.4 L17.3,9.6 L17.9,8.9 L18.6,8.1 L19.3,7.4 L20.0,6.7 L20.7,6.1 L21.5,5.4 L22.3,4.8 L23.2,4.3 L24.0,3.8 L24.9,3.3 L25.8,2.9 L26.7,2.5 L27.7,2.2 L28.7,2.0 L29.7,1.8 L30.7,1.8 L31.6,1.8 L32.6,2.0 L33.6,2.2 L34.5,2.6 L35.4,3.1 L36.3,3.6 L37.0,4.3 L37.7,5.0 L38.3,5.8 L38.8,6.7 L39.1,7.6 L39.4,8.6 L39.6,9.5 L39.8,10.5 L39.8,11.5 L39.8,12.5 L39.7,13.5 L39.6,14.5 L39.4,15.5 L39.2,16.5 L38.9,17.4 L38.6,18.4 L38.3,19.3 L37.9,20.2 L37.4,21.1 L36.9,22.0 L36.4,22.8 L35.8,23.7 L35.2,24.4 L34.5,25.1 L33.7,25.8 L32.9,26.3 L32.0,26.7 L31.0,27.0 L30.0,26.9 L29.0,26.7"></path></svg>