<svg xmlns="http://www.w3.org/2000/svg" width="435" height="204" viewBox="0 0 435 204"><g transform="translate(0 0)"><rect x="0" y="0" width="435" height="204" class="bin" transform="translate(0 0)" fill="none"/><g transform="translate(205 -5.400000100000007) rotate(90)"><polygon id="polygon_6" stroke-width="0.3333333333333333" points="87.89999771118164,173.19999885559082 85.19999885559082,174.69999885559082 33.30000114440918,203.5 30.59999942779541,204.69999885559082 27.59999942779541,205 24.59999942779541,204.39999771118164 21.90000057220459,203.19999885559082 19.5,201.69999885559082 17.40000057220459,199.60000228881836 16.200000286102295,196.89999771118164 5.3999998569488525,154 65.10000228881836,141.7000002861023 67.80000114440918,143.2000002861023 69.60000228881836,145.2999997138977 87.89999771118164,173.19999885559082 "/></g><g transform="translate(-71.99999999999999 152.5133136) rotate(270)"><polygon id="polygon_3" stroke-width="0.5" points="80.19999694824219,98.20000076293945 78.5999984741211,99.20000076293945 76.80000305175781,100.20000076293945 75,101 73,101.79999923706055 69.19999694824219,102.79999923706055 20.399999618530273,112.79999923706055 18.399999618530273,113.20000076293945 16.799999237060547,112.5999984741211 5.800000190734863,103.5999984741211 4.400000095367432,102.4000015258789 3.8000001907348633,100.4000015258789 3.5999999046325684,98.60000038146973 3.8000001907348633,96.60000038146973 6.400000095367432,80.39999961853027 7,78.39999961853027 8.199999809265137,77 10,76 11.800000190734863,75.19999980926514 13.800000190734863,74.80000019073486 15.800000190734863,74.40000009536743 17.799999237060547,74.19999980926514 59.400001525878906,72 80.19999694824219,98.20000076293945 "/></g><g transform="translate(384 259.87275569999997) rotate(180)"><polygon id="polygon_5" stroke-width="1" points="384,106.5999984741211 370.4000015258789,109.5999984741211 368.4000015258789,110 366.4000015258789,110.29999923706055 365.4000015258789,110.4000015258789 351.0999984741211,111.4000015258789 305.69999980926514,94.60000038146973 303.69999980926514,95 301.69999980926514,95.29999923706055 299.69999980926514,95.5 298.69999980926514,95.60000038146973 297.69999980926514,95.70000076293945 296.69999980926514,95.79999923706055 295.69999980926514,95.89999961853027 294.69999980926514,95.89999961853027 293.7000000476837,95.89999961853027 291.7000000476837,79.60000038146973 308.29999923706055,75.59999990463257 333.9000015258789,69.79999995231628 370.8000030517578,92.89999961853027 384,106.5999984741211 "/></g><g transform="translate(140.432382 -74.27393219999999) rotate(90)"><polygon id="polygon_4" stroke-width="0.5" points="220.5999984741211,86.39999961853027 213.4000015258789,97.79999923706055 211.5999984741211,98.39999961853027 209.5999984741211,99 186.20000076293945,104 184.20000076293945,104.4000015258789 180.20000076293945,105 178.20000076293945,105.20000076293945 176.20000076293945,105.4000015258789 172.20000076293945,105.5999984741211 168.20000076293945,105.79999923706055 164.20000076293945,105.79999923706055 149.80000019073486,98 149.59999990463257,96 148.80000019073486,82 148.59999990463257,78 148.59999990463257,74 150,73.40000009536743 210.8000030517578,71.80000019073486 212.4000015258789,72.19999980926514 220.5999984741211,86.39999961853027 "/></g><g transform="translate(56.65427340000003 205.8000031) rotate(270)"><polygon id="polygon_1" stroke-width="0.5" points="205.79999923706055,26.799999237060547 204.20000076293945,28.200000762939453 202.4000015258789,29 200.5999984741211,29.600000381469727 194.5999984741211,30.799999237060547 171.20000076293945,35.20000076293945 169.20000076293945,35 158.19999980926514,30.799999237060547 156.39999961853027,30 154.60000038146973,29 153.19999980926514,27.600000381469727 151.80000019073486,26.200000762939453 151,24.399999618530273 148.59999990463257,11.199999809265137 148.59999990463257,9.199999809265137 149.80000019073486,7.599999904632568 151.40000009536743,6.400000095367432 153.19999980926514,5.599999904632568 155,5 157,4.400000095367432 159,4 161,3.5999999046325684 163,3.5999999046325684 194,11.199999809265137 198.79999923706055,13.800000190734863 199.5999984741211,15.199999809265137 205.79999923706055,26.799999237060547 "/></g><g transform="translate(101.0608559 52.330469699999995) rotate(90)"><polygon id="polygon_0" transform="scale(1)" stroke-width="1" points="48.8,24.6 48.2,25.4 47.4,25.9 11.5,38.2 10.6,38.5 9.6,38.7 8.7,38.5 8.2,37.8 2.3,17.6 1.9,15.7 1.7,14.7 1.7,13.7 1.8,12.7 2.2,11.8 2.8,11.0 11.7,6.7 12.6,6.3 13.6,6.0 30.8,1.9 31.8,1.7 32.7,1.8 33.7,2.2 34.6,2.6 36.2,3.8 36.9,4.4 37.6,5.2 38.2,6.0 48.8,24.6"/></g><g transform="translate(60.74531450000006 456.79700059999993) rotate(270)"><polygon id="polygon_2" stroke-width="1" points="338.79999923706055,23.899999618530273 312.20000076293945,32.400001525878906 305.30000019073486,34.5 304.30000019073486,34.79999923706055 302.3999996185303,35.29999923706055 299.5,36 295.19999980926514,32.20000076293945 294.5,31.399999618530273 294,30.600000381469727 293.5,29.700000762939453 291.90000009536743,23.100000381469727 291.7000000476837,21.100000381469727 291.7999999523163,20.100000381469727 292.2999999523163,18.200000762939453 292.7000000476837,17.200000762939453 293.5,15.399999618530273 294,14.600000381469727 294.59999990463257,13.800000190734863 295.30000019073486,13 304.1000003814697,5.300000190734863 305.69999980926514,4 306.5,3.4000000953674316 307.29999923706055,2.9000000953674316 308.20000076293945,2.4000000953674316 309.1000003814697,2 310.1000003814697,1.7999999523162842 311.1000003814697,1.7999999523162842 312,2.0999999046325684 312.79999923706055,2.700000047683716 338.79999923706055,23.899999618530273 "/></g></g></svg>
