<svg width="800" height="800" viewBox="-0.25610316723585125 -0.1890682744979859 0.5122063344717025 0.3781365489959718" xmlns="http://www.w3.org/2000/svg" xmlns:xlink="http://www.w3.org/1999/xlink"><defs><clipPath id="circle" clipPathUnits="objectBoundingBox"><circle cx=".5" cy=".5" r=".5" /></clipPath></defs><g transform="scale(1.0 -1.0)"><path stroke-width="0.0144" stroke="#802750" color_index="33" style="fill: none;stroke-linejoin: round;stroke-linecap: round;" d="M-0.1801280975341797,0.057921409606933594 L-0.18535667657852173,0.0661771297454834 L-0.19488412141799927,0.06553220748901367 L-0.2027990221977234,0.059476256370544434 L-0.2094179391860962,0.05199015140533447 L-0.21520614624023438,0.04383957386016846 L-0.22035324573516846,0.035268187522888184 L-0.2249370813369751,0.0263824462890625 L-0.22897815704345703,0.017237067222595215 L-0.23245388269424438,0.007862210273742676 L-0.23530280590057373,-0.0017211437225341797 L-0.23741376399993896,-0.011492729187011719 L-0.23860317468643188,-0.02141702175140381 L-0.23857873678207397,-0.03140866756439209 L-0.23688524961471558,-0.04124748706817627 L-0.23292911052703857,-0.05039632320404053 L-0.22635811567306519,-0.05787050724029541 L-0.2176753282546997,-0.06272721290588379 L-0.20780819654464722,-0.06409287452697754 L-0.19784963130950928,-0.06329846382141113 L-0.18805038928985596,-0.06132316589355469 L-0.1784340739250183,-0.0585864782333374 L-0.16899210214614868,-0.05529606342315674 L-0.15971490740776062,-0.05156540870666504 L-0.15059712529182434,-0.047460198402404785 L-0.14164069294929504,-0.043013811111450195 L-0.1328549087047577,-0.038239240646362305 L-0.12426053732633591,-0.03312814235687256 L-0.11589997261762619,-0.027643561363220215 L-0.10785137861967087,-0.02171170711517334 L-0.10028963536024094,-0.015173912048339844 L-0.09372919052839279,-0.007649898529052734 L-0.0910879597067833,0.0016685724258422852 L-0.09815087169408798,0.008480548858642578 L-0.10773574560880661,0.010773301124572754 L-0.11710020154714584,0.007556557655334473 L-0.12473102658987045,0.0011402368545532227 L-0.13085949420928955,-0.006746888160705566 L-0.13579687476158142,-0.015435338020324707 L-0.1396636962890625,-0.024651288986206055 L-0.1423856019973755,-0.03426623344421387 L-0.14356523752212524,-0.04418039321899414 L-0.14182579517364502,-0.05394315719604492 L-0.13405433297157288,-0.05941498279571533 L-0.12436693161725998,-0.057349205017089844 L-0.11562242358922958,-0.052524447441101074 L-0.10755231231451035,-0.04662501811981201 L-0.09989272803068161,-0.04019737243652344 L-0.09213229268789291,-0.03389084339141846 L-0.08470889180898666,-0.027196288108825684 L-0.07839997857809067,-0.019466161727905273 L-0.07591768354177475,-0.010033845901489258 L-0.08020394295454025,-0.0010529756546020508 L-0.08614584058523178,0.006984233856201172 L-0.0927218422293663,0.01451563835144043 L-0.09969504922628403,0.021681904792785645 L-0.10698302835226059,0.02852809429168701 L-0.11456757038831711,0.03504383563995361 L-0.12248452752828598,0.04115033149719238 L-0.13085675239562988,0.046610474586486816 L-0.14009582996368408,0.05027294158935547 L-0.1496526598930359,0.04765820503234863 L-0.15833821892738342,0.04272115230560303 L-0.16643229126930237,0.03685343265533447 L-0.17413941025733948,0.030483245849609375 L-0.18158644437789917,0.02380990982055664 L-0.1888669729232788,0.016954898834228516 L-0.1960594654083252,0.010007500648498535 L-0.20326602458953857,0.00307464599609375 L-0.21070849895477295,-0.0036011934280395508 L-0.2178824543952942,-0.004694342613220215 L-0.2150161862373352,0.004847407341003418 L-0.2106737494468689,0.013852238655090332 L-0.20580577850341797,0.022586464881896973 L-0.2006293535232544,0.031141996383666992 L-0.19522911310195923,0.03955817222595215 L-0.18964701890945435,0.04785490036010742 L-0.18390876054763794,0.05604434013366699 L-0.17802762985229492,0.0641319751739502 L-0.17201149463653564,0.07211971282958984 L-0.1658647656440735,0.08000743389129639 L-0.1595882773399353,0.08779215812683105 L-0.15318062901496887,0.09546935558319092 L-0.14663508534431458,0.10302925109863281 L-0.13994818925857544,0.11046445369720459 L-0.13310766220092773,0.11775851249694824 L-0.1261032223701477,0.12489533424377441 L-0.11891793459653854,0.1318497657775879 L-0.11153184622526169,0.13859045505523682 L-0.10391926020383835,0.14507389068603516 L-0.09604614228010178,0.15123796463012695 L-0.0878707692027092,0.15699434280395508 L-0.07933958619832993,0.1622070074081421 L-0.07038982957601547,0.1666584014892578 L-0.06096883863210678,0.16998505592346191 L-0.05111532658338547,0.17156827449798584 L-0.0412139818072319,0.1705031394958496 L-0.0322703942656517,0.16615259647369385 L-0.02467607706785202,0.1596543788909912 L-0.017761550843715668,0.1524357795715332 L-0.011596731841564178,0.14456748962402344 L-0.006242237985134125,0.13612663745880127 L-0.0017298981547355652,0.1272069215774536 L0.0019376054406166077,0.11790728569030762 L0.0047815218567848206,0.10832345485687256 L0.00684095174074173,0.0985403060913086 L0.00816536694765091,0.08863067626953125 L0.008808650076389313,0.07865297794342041 L0.008822716772556305,0.06865465641021729 L0.008258827030658722,0.05867183208465576 L0.007162369787693024,0.04873335361480713 L0.005573339760303497,0.03886139392852783 L0.003526456654071808,0.02907407283782959 L0.0010528340935707092,0.019385576248168945 L-0.0018216893076896667,0.009808540344238281 L-0.005077682435512543,0.0003540515899658203 L-0.008696876466274261,-0.008967280387878418 L-0.012665443122386932,-0.018145442008972168 L-0.016975335776805878,-0.0271683931350708 L-0.02161862701177597,-0.03602445125579834 L-0.02659221738576889,-0.04469907283782959 L-0.031896404922008514,-0.05317556858062744 L-0.03753497451543808,-0.06143355369567871 L-0.043514929711818695,-0.06944739818572998 L-0.04984702914953232,-0.07718610763549805 L-0.056545935571193695,-0.08460915088653564 L-0.06363113969564438,-0.09166395664215088 L-0.0711270198225975,-0.09828031063079834 L-0.07905953377485275,-0.10436546802520752 L-0.0874234065413475,-0.10984349250793457 L-0.09603669494390488,-0.11492276191711426 L-0.1048118993639946,-0.11971735954284668 L-0.11373146623373032,-0.1242377758026123 L-0.12279393523931503,-0.1284642219543457 L-0.13200441002845764,-0.13235688209533691 L-0.14137202501296997,-0.13585376739501953 L-0.15090909600257874,-0.1388564109802246 L-0.16062402725219727,-0.14121615886688232 L-0.17050978541374207,-0.14269208908081055 L-0.18049776554107666,-0.1428825855255127 L-0.19031625986099243,-0.14112162590026855 L-0.19915741682052612,-0.13656067848205566 L-0.20671367645263672,-0.13002383708953857 L-0.21319580078125,-0.12242305278778076 L-0.2183537483215332,-0.1138695478439331 L-0.22201240062713623,-0.10457539558410645 L-0.2241111397743225,-0.09480893611907959 L-0.22469818592071533,-0.08483517169952393 L-0.22388893365859985,-0.0748753547668457 L-0.22182029485702515,-0.06509804725646973 L-0.21862393617630005,-0.055628299713134766 L-0.2144109010696411,-0.046564459800720215 L-0.20927095413208008,-0.037991881370544434 L-0.20327413082122803,-0.029995203018188477 L-0.19647526741027832,-0.02266871929168701 L-0.18892163038253784,-0.016123533248901367 L-0.18066561222076416,-0.01049184799194336 L-0.17177492380142212,-0.005929231643676758 L-0.16235175728797913,-0.0026067495346069336 L-0.15254700183868408,-0.0006898641586303711 L-0.1425648331642151,-0.0003008842468261719 L-0.13264477252960205,-0.001479029655456543 L-0.12301986664533615,-0.004157304763793945 L-0.11389868706464767,-0.008229255676269531 L-0.10584353655576706,-0.01411426067352295 L-0.09935566037893295,-0.021698713302612305 L-0.0942753478884697,-0.030303597450256348 L-0.08993601053953171,-0.03931224346160889 L-0.08559005707502365,-0.048317790031433105 L-0.08099319785833359,-0.057198524475097656 L-0.07658334821462631,-0.06617331504821777 L-0.07242926210165024,-0.07526910305023193 L-0.06861921399831772,-0.08451390266418457 L-0.06529157608747482,-0.09394240379333496 L-0.06267520040273666,-0.10359036922454834 L-0.06117110699415207,-0.11346817016601562 L-0.061476998031139374,-0.12344169616699219 L-0.06453331559896469,-0.13291501998901367 L-0.07060300558805466,-0.14080333709716797 L-0.07866030186414719,-0.1466892957687378 L-0.08764433115720749,-0.15106403827667236 L-0.09703462570905685,-0.15449512004852295 L-0.10661371797323227,-0.1573631763458252 L-0.11628492921590805,-0.15990519523620605 L-0.1260010004043579,-0.1622709035873413 L-0.1357349455356598,-0.16456198692321777 L-0.1454702913761139,-0.16684746742248535 L-0.15519499778747559,-0.16917753219604492 L-0.1649048924446106,-0.17156827449798584 L-0.16021353006362915,-0.1699005365371704 L-0.15060031414031982,-0.16714632511138916 L-0.14098334312438965,-0.1644052267074585 L-0.1313663125038147,-0.16166424751281738 L-0.12175058573484421,-0.158919095993042 L-0.11213966459035873,-0.15615606307983398 L-0.10253509134054184,-0.15337181091308594 L-0.09294276684522629,-0.15054583549499512 L-0.08337100595235825,-0.14765119552612305 L-0.07381441444158554,-0.14470767974853516 L-0.06414251774549484,-0.14216995239257812 L-0.05440642684698105,-0.13988816738128662 L-0.044670961797237396,-0.1376035213470459 L-0.03500112146139145,-0.13505828380584717 L-0.025481633841991425,-0.13200139999389648 L-0.016066990792751312,-0.12863051891326904 L-0.006685279309749603,-0.12516891956329346 L0.002667345106601715,-0.12162959575653076 L0.011995114386081696,-0.11802494525909424 L0.021301545202732086,-0.1143655776977539 L0.03059396892786026,-0.11067092418670654 L0.039874471724033356,-0.10694646835327148 L0.04915044456720352,-0.1032106876373291 L0.05842647701501846,-0.09947502613067627 L0.06770602613687515,-0.09574759006500244 L0.0769960954785347,-0.09204709529876709 L0.08630035072565079,-0.08838224411010742 L0.09562473744153976,-0.08476924896240234 L0.10497371107339859,-0.08121967315673828 L0.11435104161500931,-0.07774674892425537 L0.12376134842634201,-0.0743633508682251 L0.13320761919021606,-0.0710827112197876 L0.14269348978996277,-0.06791746616363525 L0.1522214114665985,-0.06488168239593506 L0.1617933213710785,-0.06198728084564209 L0.17141032218933105,-0.05924701690673828 L0.18108490109443665,-0.05672121047973633 L0.1909940242767334,-0.05542707443237305 L0.20097920298576355,-0.05489683151245117 L0.21096976101398468,-0.054463744163513184 L0.22092771530151367,-0.05357766151428223 L0.23065054416656494,-0.05132651329040527 L0.23860317468643188,-0.0455554723739624"></path></g></svg>
