<svg width="800" height="800" viewBox="-0.25610316723585125 -0.1890682744979859 0.5122063344717025 0.3781365489959718" xmlns="http://www.w3.org/2000/svg"><path stroke-width=".014" stroke="#802750" d="M-.18-.058l-.005-.008h-.01l-.008.007-.006.007-.006.008-.005.009-.005.009-.004.009-.003.01-.003.009-.002.01-.002.01v.01l.002.01.004.008.007.008.008.005.01.001h.01l.01-.003.01-.002.009-.004.01-.003.008-.005.01-.004.008-.005.009-.005.008-.005.008-.006L-.1.015l.006-.007.003-.01-.007-.006-.01-.003-.01.003L-.124 0-.13.007l-.005.008-.004.01-.002.01-.002.01.002.009.008.005.01-.002.008-.004.008-.006L-.1.04l.008-.006.007-.007.007-.008.002-.009L-.08.001l-.006-.008-.007-.008L-.1-.022l-.007-.007-.008-.006-.007-.006-.009-.006-.01-.003-.009.002-.008.005-.008.006-.008.007-.008.006-.007.007-.007.007-.007.007-.008.007h-.007l.003-.009.004-.009.005-.009L-.2-.03l.006-.009.005-.008.006-.008.006-.008.006-.008.006-.008.006-.008.007-.007.006-.008.007-.007.007-.008.007-.007.007-.007.007-.007.008-.006.008-.006.008-.006.009-.005.009-.005.009-.003.01-.002.01.001.009.005.007.006.007.008.006.007.006.009.004.009.004.01.003.009.002.01.001.01v.04l-.002.01-.002.009L0-.02l-.003.01-.002.01-.005.009-.004.01-.004.008-.005.009-.005.009-.005.008-.006.008-.006.008-.006.008-.007.008-.007.007-.007.006-.008.006-.008.006-.009.005-.009.005-.009.004-.009.004-.009.004-.01.004-.009.003-.01.002-.01.002h-.01L-.19.14-.198.137-.207.13-.213.122-.218.114l-.004-.01-.002-.01v-.02l.002-.009.003-.01.005-.008.005-.009.006-.008.007-.007.007-.007L-.18.01l.01-.004.009-.003.01-.002h.02l.009.003.01.004.007.006.007.008.005.008.004.01.004.008.005.01.004.008.005.01.003.009.004.009.002.01.002.01v.01l-.004.009L-.07.14l-.008.006-.009.004-.009.003-.01.003-.01.003-.009.002-.01.003-.01.002-.01.002-.009.003L-.16.17l.01-.003.009-.003.01-.002.01-.003.009-.003.01-.003.01-.002.009-.003.01-.003.009-.003.01-.002.01-.002.009-.003.01-.003.009-.003.01-.004.009-.003.009-.004.01-.004L.03.111.04.107.05.103.057.1l.01-.003.009-.004.01-.004.009-.003.01-.006.01-.003.009-.004.01-.003.009-.003.01-.003.009-.003.01-.003.01-.002L.19.055h.02L.22.054.23.05.239.046" fill="none" stroke-linejoin="round" stroke-linecap="round"/></svg>