<svg width="800" height="800" viewBox="-0.6453751492500305 -0.2101664710044861 1.290750298500061 0.4203329420089722" xmlns="http://www.w3.org/2000/svg" xmlns:xlink="http://www.w3.org/1999/xlink"><defs><clipPath id="circle" clipPathUnits="objectBoundingBox"><circle cx=".5" cy=".5" r=".5" /></clipPath></defs><g transform="scale(1.0 -1.0)"><path stroke-width="0.0144" stroke="#050505" color_index="0" style="fill: none;stroke-linejoin: round;stroke-linecap: round;" d="M-0.6278751492500305,-0.056637585163116455 L-0.6211287975311279,-0.04925602674484253 L-0.614040732383728,-0.04220706224441528 L-0.6066436171531677,-0.03548461198806763 L-0.5989676713943481,-0.0290796160697937 L-0.5909940004348755,-0.0230446457862854 L-0.5827319025993347,-0.017414510250091553 L-0.5742769837379456,-0.012082040309906006 L-0.5656474828720093,-0.007031381130218506 L-0.5567741394042969,-0.0024201273918151855 L-0.5477501749992371,0.0018811821937561035 L-0.5386215448379517,0.0059623122215271 L-0.5293768644332886,0.009774744510650635 L-0.5201313495635986,0.013585388660430908 L-0.51085364818573,0.01731342077255249 L-0.5014695525169373,0.020768702030181885 L-0.4920651614665985,0.02416282892227173 L-0.48247841000556946,0.027007877826690674 L-0.4727923572063446,0.02947467565536499 L-0.4630289077758789,0.03163689374923706 L-0.45318466424942017,0.03337937593460083 L-0.4432818591594696,0.034730613231658936 L-0.43331536650657654,0.035465776920318604 L-0.423327773809433,0.03527921438217163 L-0.41345787048339844,0.033782899379730225 L-0.4042428135871887,0.030018627643585205 L-0.396977961063385,0.023274719715118408 L-0.3932384252548218,0.014073550701141357 L-0.3923549950122833,0.004139721393585205 L-0.3933810591697693,-0.005797326564788818 L-0.39539262652397156,-0.015585601329803467 L-0.3980391323566437,-0.025224506855010986 L-0.401043564081192,-0.03476148843765259 L-0.40434741973876953,-0.04419976472854614 L-0.4078340232372284,-0.053572237491607666 L-0.41132062673568726,-0.06294471025466919 L-0.4148072600364685,-0.07231730222702026 L-0.41826239228248596,-0.08170086145401001 L-0.42142415046691895,-0.09118777513504028 L-0.42458590865135193,-0.10067480802536011 L-0.4272315502166748,-0.11031562089920044 L-0.42946749925613403,-0.1200551986694336 L-0.43099868297576904,-0.12992852926254272 L-0.43149474263191223,-0.13990294933319092 L-0.4305989444255829,-0.14984530210494995 L-0.4274882376194,-0.15931451320648193 L-0.42197585105895996,-0.16758990287780762 L-0.4143630564212799,-0.174008309841156 L-0.4057607650756836,-0.17909348011016846 L-0.39671599864959717,-0.18333935737609863 L-0.38732093572616577,-0.18673980236053467 L-0.3776671588420868,-0.1893172264099121 L-0.3678382337093353,-0.19111871719360352 L-0.3579043745994568,-0.19220948219299316 L-0.34792008996009827,-0.19266647100448608 L-0.3379235565662384,-0.192571759223938 L-0.32794174551963806,-0.19197028875350952 L-0.3180079758167267,-0.1908300518989563 L-0.30812153220176697,-0.18935036659240723 L-0.29827651381492615,-0.18760251998901367 L-0.2885153591632843,-0.18542981147766113 L-0.2788037061691284,-0.18305575847625732 L-0.26914548873901367,-0.18046385049819946 L-0.2595606744289398,-0.17761766910552979 L-0.25000837445259094,-0.1746591329574585 L-0.24052727222442627,-0.17148327827453613 L-0.2310769259929657,-0.16821342706680298 L-0.22166210412979126,-0.16484498977661133 L-0.21229523420333862,-0.16134357452392578 L-0.20293618738651276,-0.15782147645950317 L-0.19362403452396393,-0.1541767120361328 L-0.1843119114637375,-0.15053194761276245 L-0.1749996840953827,-0.1468871831893921 L-0.16568756103515625,-0.14324241876602173 L-0.1563754826784134,-0.13959765434265137 L-0.14703112840652466,-0.13603836297988892 L-0.1376253068447113,-0.132642924785614 L-0.12821942567825317,-0.12924742698669434 L-0.11873462051153183,-0.1260906457901001 L-0.10915946960449219,-0.12320643663406372"></path><path stroke-width="0.0144" stroke="#050505" color_index="0" style="fill: none;stroke-linejoin: round;stroke-linecap: round;" d="M-0.29902613162994385,0.031553804874420166 L-0.29117801785469055,0.03775113821029663 L-0.28332990407943726,0.043948471546173096 L-0.2754817605018616,0.05014580488204956 L-0.2675993740558624,0.056298673152923584 L-0.2596110701560974,0.06231421232223511 L-0.25162273645401,0.06832975149154663 L-0.243634432554245,0.0743454098701477 L-0.2355114072561264,0.08017486333847046 L-0.2273036688566208,0.0858873724937439 L-0.21907493472099304,0.09156841039657593 L-0.21064095199108124,0.09694129228591919 L-0.20220698416233063,0.10231417417526245 L-0.19353868067264557,0.10729986429214478 L-0.18482697010040283,0.11220604181289673 L-0.17590855062007904,0.11672955751419067 L-0.16685034334659576,0.12095624208450317 L-0.1576465368270874,0.12485939264297485 L-0.1482389271259308,0.12825018167495728 L-0.1386304646730423,0.13101273775100708 L-0.1288657784461975,0.13314872980117798 L-0.11982347071170807,0.1304911971092224 L-0.11756628006696701,0.12095123529434204 L-0.11839036643505096,0.11099857091903687 L-0.12025436758995056,0.10117441415786743 L-0.12248583137989044,0.0914265513420105 L-0.12471728771924973,0.08167868852615356 L-0.1267164647579193,0.07188457250595093 L-0.12832191586494446,0.062017977237701416 L-0.12872785329818726,0.052028119564056396 L-0.12896275520324707,0.04203087091445923 L-0.12919765710830688,0.03203362226486206 L-0.1294325590133667,0.022036373615264893 L-0.12944835424423218,0.012037098407745361 L-0.12940827012062073,0.002037227153778076 L-0.12936818599700928,-0.00796276330947876 L-0.12889055907726288,-0.017950236797332764 L-0.12836003303527832,-0.027936160564422607 L-0.12726694345474243,-0.03787583112716675 L-0.12579965591430664,-0.04776090383529663 L-0.12365740537643433,-0.05751901865005493 L-0.12042513489723206,-0.06696420907974243 L-0.11519871652126312,-0.07541269063949585"></path><path stroke-width="0.0144" stroke="#050505" color_index="0" style="fill: none;stroke-linejoin: round;stroke-linecap: round;" d="M-0.077800452709198,0.02258521318435669 L-0.0717553198337555,0.03055030107498169 L-0.06562384963035583,0.03844994306564331 L-0.059492383152246475,0.04634970426559448 L-0.05372460559010506,0.05451697111129761 L-0.04822653904557228,0.0628623366355896 L-0.04347682371735573,0.07165759801864624 L-0.03914548456668854,0.08066445589065552 L-0.03546575456857681,0.0899544358253479 L-0.03281211107969284,0.09958094358444214 L-0.03212428092956543,0.10950249433517456 L-0.036109358072280884,0.1183440089225769 L-0.045505646616220474,0.12067908048629761 L-0.05501919239759445,0.1177864670753479 L-0.06351988017559052,0.11256581544876099 L-0.07111503928899765,0.10608237981796265 L-0.077830471098423,0.09868365526199341 L-0.08350006490945816,0.09045463800430298 L-0.08818372339010239,0.08163124322891235 L-0.09181610494852066,0.07232779264450073 L-0.09432975202798843,0.06266075372695923 L-0.09565801918506622,0.05275768041610718 L-0.09561870992183685,0.042765915393829346 L-0.09440606832504272,0.03285115957260132 L-0.09207882732152939,0.02313762903213501 L-0.08872486650943756,0.013726890087127686 L-0.08448176085948944,0.004680335521697998 L-0.07971708476543427,-0.004111588001251221 L-0.07495241612195969,-0.01290351152420044 L-0.07018280029296875,-0.02169269323348999 L-0.06506411731243134,-0.03028327226638794 L-0.05994544178247452,-0.03887397050857544 L-0.05458671599626541,-0.047313153743743896 L-0.049038756638765335,-0.05563300848007202 L-0.043012913316488266,-0.06360918283462524 L-0.03628862649202347,-0.07096320390701294 L-0.03191886842250824,-0.0652502179145813 L-0.03241314738988876,-0.05526858568191528 L-0.033541906625032425,-0.04533308744430542 L-0.034703534096479416,-0.03540068864822388 L-0.0356573611497879,-0.025449812412261963 L-0.03571182116866112,-0.01546400785446167 L-0.03488624840974808,-0.005505621433258057 L-0.03341672569513321,0.00437849760055542 L-0.031178811565041542,0.01411670446395874 L-0.027926674112677574,0.023559391498565674 L-0.023339178413152695,0.032421648502349854 L-0.016612667590379715,0.03974789381027222 L-0.00753086106851697,0.043620288372039795 L0.0023468341678380966,0.04284733533859253 L0.011522166430950165,0.03897124528884888 L0.019518429413437843,0.03308004140853882 L0.024809084832668304,0.02463585138320923 L0.028514068573713303,0.015356481075286865 L0.03147009015083313,0.005808413028717041 L0.03399134799838066,-0.0038666129112243652 L0.036176539957523346,-0.013624966144561768 L0.03818676993250847,-0.02342003583908081 L0.04011468589305878,-0.03323251008987427 L0.042042605578899384,-0.043044865131378174 L0.043970540165901184,-0.05285733938217163 L0.04635854437947273,-0.06256777048110962 L0.049285344779491425,-0.07210856676101685"></path><path stroke-width="0.0144" stroke="#050505" color_index="0" style="fill: none;stroke-linejoin: round;stroke-linecap: round;" d="M0.09110838174819946,0.031553804874420166 L0.09163615107536316,0.021571457386016846 L0.09319711476564407,0.011702239513397217 L0.09584273397922516,0.0020703673362731934 L0.09959310293197632,-0.007187187671661377 L0.10446575284004211,-0.01590818166732788 L0.11052126437425613,-0.023853957653045654 L0.11750613152980804,-0.030992448329925537 L0.12531088292598724,-0.03722769021987915 L0.13387592136859894,-0.042369544506073 L0.14302383363246918,-0.04638165235519409 L0.15258507430553436,-0.04926842451095581 L0.16243062913417816,-0.05096226930618286 L0.17241664230823517,-0.05114561319351196 L0.18232087790966034,-0.04988950490951538 L0.1918581873178482,-0.046968042850494385 L0.20061734318733215,-0.04218977689743042 L0.20801126956939697,-0.03551226854324341 L0.21359267830848694,-0.027265608310699463 L0.21710702776908875,-0.017927706241607666 L0.21845538914203644,-0.008038818836212158 L0.21825011074543,0.0019449591636657715 L0.21576684713363647,0.011576950550079346 L0.21031516790390015,0.019912898540496826 L0.20298241078853607,0.02667182683944702 L0.1946401447057724,0.03216272592544556 L0.18566930294036865,0.03656643629074097 L0.17629604041576385,0.04004138708114624 L0.1666802614927292,0.04277545213699341 L0.15689349174499512,0.044819533824920654 L0.1469859629869461,0.046169817447662354 L0.1370035856962204,0.04674404859542847 L0.12701818346977234,0.046336233615875244 L0.11720104515552521,0.044542014598846436 L0.10840518027544022,0.04002267122268677"></path><path stroke-width="0.0144" stroke="#050505" color_index="0" style="fill: none;stroke-linejoin: round;stroke-linecap: round;" d="M0.21816366910934448,0.019595682621002197 L0.21804530918598175,0.009596407413482666 L0.21792694926261902,-0.00040286779403686523 L0.2180543839931488,-0.010400831699371338 L0.21828387677669525,-0.020398199558258057 L0.21865065395832062,-0.03038841485977173 L0.219457745552063,-0.0403558611869812 L0.22066916525363922,-0.05027645826339722 L0.22246000170707703,-0.060105860233306885 L0.22525712847709656,-0.0696902871131897 L0.22991985082626343,-0.07846421003341675 L0.23821192979812622,-0.08345299959182739"></path><path stroke-width="0.0144" stroke="#050505" color_index="0" style="fill: none;stroke-linejoin: round;stroke-linecap: round;" d="M0.2689858078956604,-0.03870028257369995 L0.26838791370391846,-0.02872079610824585 L0.26723700761795044,-0.018788278102874756 L0.265935480594635,-0.008873283863067627 L0.2646339535713196,0.0010415911674499512 L0.26336154341697693,0.010959804058074951 L0.26242080330848694,0.020915448665618896 L0.26148009300231934,0.030871093273162842 L0.26113682985305786,0.04086345434188843 L0.26123490929603577,0.05085569620132446 L0.26206472516059875,0.06081134080886841 L0.2639479637145996,0.07061785459518433 L0.2673042118549347,0.08001166582107544 L0.27284950017929077,0.08829599618911743 L0.2807564437389374,0.09434181451797485 L0.2902463376522064,0.09739536046981812 L0.3002151548862457,0.0978274941444397 L0.309959352016449,0.09608608484268188 L0.31638357043266296,0.08868652582168579 L0.31934356689453125,0.07916265726089478 L0.32059434056282043,0.0692482590675354 L0.3210609257221222,0.059263527393341064 L0.3210870027542114,0.04926425218582153 L0.3207327723503113,0.03927093744277954 L0.32030612230300903,0.029280006885528564 L0.3198794722557068,0.019289076328277588 L0.31979629397392273,0.009292066097259521 L0.32004985213279724,-0.000704348087310791 L0.3201388120651245,-0.010703027248382568 L0.3201362192630768,-0.020703017711639404 L0.32001015543937683,-0.03070133924484253 L0.3198448717594147,-0.03518587350845337 L0.3200277090072632,-0.025187551975250244 L0.32024049758911133,-0.015190303325653076 L0.32081592082977295,-0.005206882953643799 L0.3214466869831085,0.0047721266746521 L0.32245346903800964,0.014721333980560303 L0.3236335813999176,0.024648725986480713 L0.32511913776397705,0.03453773260116577 L0.32702431082725525,0.04435199499130249 L0.3292824923992157,0.0540890097618103 L0.33203792572021484,0.06369775533676147 L0.33548781275749207,0.0730789303779602 L0.3398984372615814,0.08204108476638794 L0.34560731053352356,0.09022516012191772 L0.3536983132362366,0.09590429067611694 L0.3633502721786499,0.09524363279342651 L0.37089091539382935,0.08881956338882446 L0.3761424124240875,0.08033710718154907 L0.3801347613334656,0.07118028402328491 L0.38322997093200684,0.061677515506744385 L0.38567107915878296,0.05198484659194946 L0.38764363527297974,0.042185842990875244 L0.3892878293991089,0.032322704792022705 L0.3904537856578827,0.022390902042388916 L0.3914198577404022,0.012440264225006104 L0.3921296298503876,0.002465546131134033 L0.392589807510376,-0.007521927356719971 L0.39288851618766785,-0.017517387866973877 L0.39304766058921814,-0.02751535177230835"></path><path stroke-width="0.0144" stroke="#050505" color_index="0" style="fill: none;stroke-linejoin: round;stroke-linecap: round;" d="M0.45732659101486206,0.11675554513931274 L0.4624359905719757,0.12531107664108276 L0.4681225121021271,0.13353687524795532 L0.47380903363227844,0.14176267385482788 L0.4794718623161316,0.15000420808792114 L0.4848584532737732,0.15842944383621216 L0.49024498462677,0.16685467958450317 L0.49500441551208496,0.1756468415260315 L0.49858999252319336,0.18493813276290894 L0.4941556453704834,0.19178694486618042 L0.4842105209827423,0.19266647100448608 L0.47426292300224304,0.1918923258781433 L0.46461695432662964,0.1893215775489807 L0.4555349051952362,0.185183584690094 L0.44725215435028076,0.17960423231124878 L0.4397468864917755,0.17301291227340698 L0.4330327808856964,0.16560989618301392 L0.4271198511123657,0.15754848718643188 L0.4218834340572357,0.149030864238739 L0.4172534942626953,0.14016729593276978 L0.41324564814567566,0.13100582361221313 L0.40976065397262573,0.12163561582565308 L0.40674763917922974,0.11210507154464722 L0.40416669845581055,0.10244828462600708 L0.40198957920074463,0.09268921613693237 L0.40036270022392273,0.08282250165939331 L0.3991657793521881,0.07289797067642212 L0.3983721435070038,0.06293398141860962 L0.39800646901130676,0.05294233560562134 L0.39821863174438477,0.04294461011886597 L0.39900293946266174,0.032978355884552 L0.40038007497787476,0.02307969331741333 L0.4024578332901001,0.013306081295013428 L0.4053722023963928,0.003750145435333252 L0.409281849861145,-0.005442440509796143 L0.4145301878452301,-0.013931810855865479 L0.421245276927948,-0.02131098508834839 L0.42960068583488464,-0.02673262357711792 L0.43911242485046387,-0.029678523540496826 L0.44765469431877136,-0.025821030139923096 L0.45115941762924194,-0.01652771234512329 L0.45251309871673584,-0.0066261887550354 L0.4532368779182434,0.0033461451530456543 L0.4535846412181854,0.0133400559425354 L0.45393240451812744,0.023334085941314697 L0.45428019762039185,0.03332799673080444 L0.4550541043281555,0.04329794645309448 L0.45597535371780396,0.05325049161911011 L0.4576164782047272,0.06311231851577759 L0.46039000153541565,0.07270807027816772 L0.4647395610809326,0.0816839337348938 L0.4716460108757019,0.08882468938827515 L0.4809309244155884,0.09148627519607544 L0.47893792390823364,0.08219808340072632 L0.47406578063964844,0.07347112894058228 L0.4688771963119507,0.0649225115776062 L0.4636886417865753,0.05637389421463013 L0.4587477445602417,0.047683537006378174 L0.4540724456310272,0.03884834051132202 L0.4508846402168274,0.029403507709503174 L0.4545454978942871,0.02139371633529663 L0.46448180079460144,0.020448744297027588 L0.47446393966674805,0.019895493984222412 L0.484459787607193,0.019607841968536377 L0.4944586157798767,0.019584953784942627 L0.5044583678245544,0.019648730754852295 L0.5144548416137695,0.019906580448150635 L0.5244508981704712,0.020186007022857666 L0.5344470143318176,0.020465433597564697 L0.5444431304931641,0.020744740962982178 L0.5544400215148926,0.02098149061203003 L0.5644394755363464,0.02108520269393921"></path><path stroke-width="0.0144" stroke="#050505" color_index="0" style="fill: none;stroke-linejoin: round;stroke-linecap: round;" d="M0.5709289908409119,0.15711432695388794 L0.5639432072639465,0.1499965786933899 L0.5575801730155945,0.14228218793869019 L0.5516118407249451,0.13425856828689575 L0.5457624793052673,0.12615090608596802 L0.5402019619941711,0.11783939599990845 L0.5349212884902954,0.10935240983963013 L0.5299422740936279,0.10068362951278687 L0.5255828499794006,0.0916861891746521 L0.5225012302398682,0.08219462633132935 L0.5232848525047302,0.07256311178207397 L0.5322787761688232,0.06878310441970825 L0.5422107577323914,0.0677383542060852 L0.5522029399871826,0.06784814596176147 L0.5621675252914429,0.0686538815498352 L0.5720970034599304,0.06983929872512817 L0.582026481628418,0.07102471590042114 L0.5919867753982544,0.07186704874038696 L0.6019692420959473,0.07214587926864624 L0.6118596196174622,0.07085639238357544 L0.6207109093666077,0.06641179323196411 L0.6261496543884277,0.05817157030105591 L0.6278751492500305,0.04837828874588013 L0.6274313926696777,0.0384100079536438 L0.6256169080734253,0.02858823537826538 L0.6226510405540466,0.01904970407485962 L0.6186219453811646,0.009904444217681885 L0.6135715246200562,0.0012783408164978027 L0.6077551245689392,-0.006850302219390869 L0.601315975189209,-0.014496028423309326 L0.594373345375061,-0.021689951419830322 L0.5870106816291809,-0.02845686674118042 L0.5792635083198547,-0.03477853536605835 L0.5712634921073914,-0.040772974491119385 L0.563071608543396,-0.04650360345840454 L0.5546790957450867,-0.051940977573394775 L0.5461048483848572,-0.05708342790603638 L0.5374611020088196,-0.062110960483551025 L0.5286384224891663,-0.06681841611862183 L0.519787609577179,-0.07147091627120972 L0.5108115673065186,-0.07587891817092896 L0.5018329620361328,-0.08028167486190796 L0.49277281761169434,-0.0845140814781189 L0.48366206884384155,-0.08863645792007446 L0.47455114126205444,-0.09275847673416138 L0.46544021368026733,-0.09688037633895874 L0.4563292860984802,-0.10100239515304565 L0.4472455680370331,-0.10518282651901245"></path></g></svg>