<svg width="800" height="800" viewBox="-0.6453751492500305 -0.2101664710044861 1.290750298500061 0.4203329420089722" xmlns="http://www.w3.org/2000/svg"><g stroke-width=".014" stroke="#050505" fill="none" stroke-linejoin="round" stroke-linecap="round"><path d="M-.628.057L-.62.049l.007-.007.007-.007.008-.006.008-.006.008-.006.009-.005.008-.005.01-.005.008-.004.01-.004.009-.004.009-.004.01-.003.009-.004.009-.003.01-.003.01-.002.009-.003.01-.001.01-.002h.02l.01.001.009.004.007.007.004.009v.02l-.002.01-.003.01L-.4.035l-.003.01-.004.009-.003.009-.004.01-.003.009-.003.01L-.425.1l-.002.01-.002.01-.002.009v.02l.004.01.005.008.008.006.008.005.01.004.009.004.01.002.01.002.01.001h.03L-.318.19l.01-.002.01-.001.01-.003.01-.002L-.27.18l.01-.002.009-.003.01-.004.009-.003.01-.003.009-.004.01-.003.008-.004.01-.003.009-.004.01-.004.009-.003.009-.004.01-.003.009-.004.01-.003.009-.003m-.189-.155l.008-.006.008-.006.008-.006.007-.006.008-.006.008-.006.008-.006.008-.006.009-.006.008-.006.008-.005.009-.005.008-.005.01-.005.008-.005.01-.004.008-.004.01-.003.01-.003.01-.002.008.003.002.009v.01l-.002.01-.002.01-.003.01-.002.01-.001.009v.01l-.001.01v.07l.002.01.001.01.002.01.004.009.005.008m.037-.098l.006-.008.006-.007.007-.008.005-.009.006-.008.005-.009.004-.009.004-.009.002-.01v-.01l-.003-.008-.01-.003-.009.003-.009.005-.007.007-.007.007-.006.009-.004.008-.004.01-.002.01-.002.01v.01l.002.01.002.009.003.01.005.008.004.01.005.008.005.009.005.008.005.009.005.008.006.009.006.008.007.007.004-.006v-.01l-.002-.01v-.01l-.002-.01v-.01l.001-.01.002-.01.002-.01.003-.009.005-.008.006-.008.01-.004.01.001.009.004.008.006.005.008.004.01.002.01.003.009.002.01.002.01.002.01.002.009.002.01.002.01.003.01m.042-.105v.01l.002.01.003.01.004.01.004.008.007.008.007.007.007.006.009.005.009.004.01.003.01.002h.01L.182.05.191.047.2.042.208.036.214.027l.003-.01.001-.009v-.01l-.002-.01L.21-.02.203-.027.195-.032l-.01-.005L.177-.04l-.01-.003-.01-.002-.009-.001h-.02l-.01.001-.009.005m.109.02v.05L.22.04l.002.01.001.01.003.01.005.008.008.005m.03-.044v-.01L.266.019v-.01l-.001-.01-.002-.01v-.01L.26-.03v-.02l.001-.01.002-.01.003-.009.006-.008.008-.006.01-.003h.02l.006.008.003.01.002.01v.04L.32-.02v.055-.03l.001-.01.001-.01.002-.01.001-.01.002-.01.002-.01.003-.009.003-.01.005-.008.006-.008.008-.006h.01l.007.007.005.009.004.009.003.01.003.009.002.01.001.01.001.01.001.01.001.01v.02l.001.01m.064-.145l.005-.008.006-.009.006-.008.005-.008.006-.008.005-.009.005-.009.004-.009-.005-.007h-.02l-.01.003-.008.004-.009.005-.007.007-.007.007-.006.008-.005.009-.005.009-.004.009-.003.01-.003.009-.003.01-.002.01-.002.01v.01l-.002.01v.02L.4-.034l.001.01.002.01.003.01.004.008.006.009L.42.02l.01.007.01.003.007-.004.003-.01.002-.01v-.03l.001-.01.001-.01.001-.01.002-.01.002-.009.005-.009.007-.007L.48-.09l-.002.009-.005.009-.005.008-.005.009-.005.008-.005.01-.003.009.004.008h.01l.01.001h.07l.01-.001h.01"/><path d="M.57-.157L.565-.15l-.006.008-.006.008-.006.008-.006.008-.005.009-.005.008-.004.01-.003.009v.01l.01.003.01.001h.02l.01-.002.009-.001h.01l.01-.001.01.001.009.005.005.008.002.01v.01l-.002.01-.003.009-.004.01-.005.008-.006.008L.6.014.594.022.587.028.579.035.571.04.563.047.555.052.546.057.537.062.53.067.519.07.512.076.5.08.494.085l-.01.004-.008.004-.01.004L.456.1.447.105"/></g></svg>