<svg xmlns="http://www.w3.org/2000/svg" fill="none" viewBox="0 0 1200 1000" height="500" width="600">
<g transform="rotate(-10 50 100) translate(-36 45.5) skewX(40) scale(1 0.5)">
	<rect style="fill:red;stroke:black;stroke-width:5;opacity:0.5" height="150" width="150" ry="20" rx="20" y="20" x="50"></rect>
	<polygon points="450,218.0999984741211 447.3000030517578,219.29999923706055 445.3999938964844,219.9000015258789 444.3999938964844,220.20000076293945 442.5,220.70000076293945 394.6999969482422,231.29999923706055 392.6999969482422,231.79999923706055 390.8000030517578,232.3000030517578 388.9000015258789,232.8000030517578 386,233.5999984741211 384,234.0999984741211 382.0999984741211,234.5999984741211 380.1999969482422,235.0999984741211 379.1999969482422,235.4000015258789 377.3000030517578,235.9000015258789 375.29999923706055,236.4000015258789 374.4000015258789,236.6999969482422 372.4000015258789,237.1999969482422 369.5,238 367.5999984741211,238.5 365.70000076293945,239 364.70000076293945,239.3000030517578 362.79999923706055,239.8000030517578 360.9000015258789,240.3000030517578 359.9000015258789,240.5999984741211 358,241.0999984741211 355.0999984741211,241.9000015258789 353.0999984741211,242.4000015258789 352.20000076293945,242.6999969482422 351.20000076293945,243 349.29999923706055,243.5 347.4000015258789,249.5 315.90000009536743,253.8000030517578 314.90000009536743,253.8000030517578 313.89999997615814,253.6999969482422 314.40000009536743,253.0999984741211 315.2000000476837,252.5 316.90000009536743,251.5 317.80000019073486,251 318.19999980926514,201.0999984741211 317.80000019073486,199.10000038146973 317.40000009536743,197.20000076293945 317.19999980926514,196.20000076293945 317.09999990463257,195.20000076293945 316.90000009536743,193.20000076293945 316.80000019073486,192.20000076293945 316.80000019073486,191.20000076293945 316.80000019073486,189.20000076293945 317,187.20000076293945 317.30000019073486,186.20000076293945 317.59999990463257,185.29999923706055 318,184.39999961853027 318.69999980926514,183.69999980926514 319.59999990463257,183.10000038146973 320.5,182.69999980926514 321.3999996185303,182.39999961853027 323.3999996185303,182 324.3999996185303,181.80000019073486 325.3999996185303,181.69999980926514 327.3999996185303,181.69999980926514 328.3999996185303,181.69999980926514 329.3999996185303,181.80000019073486 345.79999923706055,181.60000038146973 378.3000030517578,169.70000004768372 423.4000015258789,179.30000019073486 425.3000030517578,179.89999961853027 427.0999984741211,180.80000019073486 449.1000061035156,194.89999961853027 450,218.0999984741211" stroke-width="1" stroke="black" xmlns="http://www.w3.org/2000/svg"></polygon>
</g>
<g transform="rotate(30) translate(400) scale(0.75)">
<path d="M 223.031 194.749 V 188.018 H 197.922 V 197.104 H 210.889 L 210.848 198.053 C 210.6 205.445 204.943 210.442 196.807 210.442 C 186.896 210.442 180.619 202.555 180.619 189.629 C 180.619 176.951 186.525 169.476 196.353 169.476 C 203.084 169.476 208.164 173.193 209.981 179.428 H 222.494 C 220.718 167.37 210.228 159.152 196.312 159.152 C 178.802 159.152 167.9 170.715 167.9 189.794 C 167.9 209.162 178.802 220.766 196.601 220.766 C 213.202 220.766 223.031 210.979 223.031 194.749 z" stroke="black"></path>
<path d="M200,150 S120,-80 140,150 S170,180 180,180 Z" stroke="black"></path>
<path d="M100,200 Q250,100 400,125 T600 200 Z" stroke="black"></path>
<path d="M 90 9.6 l 10 0 V 27 V 89 H 23 v 10 h 10 C 33 43 38 47 43 47 c 0 5 5 10 10 10 S 63 67 63 67 s -10 10 10 10 Q 50 50 73 57 q 20 -5 0 -10 T 70 40 t 0 -15 A 5 5 45 1 0 40 20 a 5 5 20 0 1 -10 -10 z" stroke="black"></path>
<path d="M250,100 A120,80 0 1,0 250,200 Z" stroke="black"></path>
<g transform="scale(0.75) translate(70 100)">
<path d="M 671.2 7C 666.5 8.899999999999977  667.4000000000001 10.799999999999955 677.8000000000001 21.299999999999955C 690.1 33.59999999999991  696.7 41.799999999999955 706.8000000000001 57C 720.5 77.5  732.1 103.09999999999991 740 130C 741.2 134.0999999999999  742.8000000000001 139.29999999999995 743.5 141.5C 744.9000000000001 145.5999999999999  747.5 155.19999999999993 751.1 168.69999999999993C 754.5 181.5  755.8000000000001 187 758 197.5C 759.2 203  760.8000000000001 210 761.5 213C 762.2 216  763.1 220.69999999999993 763.5 223.5C 763.8000000000001 226.19999999999993  764.7 231.39999999999998 765.5 235C 766.2 238.5999999999999  767.8000000000001 247.79999999999995 769 255.5C 770.1 263.19999999999993  771.7 273.0999999999999 772.5 277.5C 773.3000000000001 281.9  774.9000000000001 291.79999999999995 776 299.5C 777.2 307.19999999999993  778.8000000000001 316.9 779.5 321C 780.2 325.0999999999999  781.1 330.5 781.5 333C 788.2 382.9  796.1 407.4 810.2 422.5C 813.9000000000001 426.5  817 430.6 817 431.6C 817 432.5  814.1 439.19999999999993 810.6 446.4C 807.1 453.59999999999997  800.5 467.09999999999997 796 476.5C 783.5 502.29999999999995  766.7 536.0999999999999 759.7 549.5999999999999C 741 585.2  720.9000000000001 614.2 701.8000000000001 633.2C 687.9000000000001 647.0999999999999  686.5 646.4 692.4000000000001 628.7C 695.9000000000001 618.0999999999999  701.7 598.0999999999999 703 592C 703.5 590.0999999999999  705 583.3 706.4000000000001 577C 712.8000000000001 549.2  717.4000000000001 516.5999999999999 719.9000000000001 481C 720.7 469  719.8000000000001 439.6 718 422.5C 716.4000000000001 406.5  715.6 358.9 716.8000000000001 345.5C 719.2 318.4  728.1 289.69999999999993 739.1 273.19999999999993C 742.3000000000001 268.4  742.6 267.19999999999993 740.7 266.4C 739.5 266  726.7 269.5999999999999 721.5 271.9C 702.6 280.19999999999993  688 290.4 679.4000000000001 301.29999999999995C 669 314.5999999999999  656.7 337.0999999999999 650.9000000000001 353.5C 649.1 358.5  647.5 361.6 646.5 361.79999999999995C 644.4000000000001 362.29999999999995  629.9000000000001 356.6 624.5 353.19999999999993C 618.1 349.29999999999995  611.1 341.9 608.2 336C 605.8000000000001 331  605.6 329.5 605.6 319C 605.7 307.19999999999993  606.7 302.79999999999995 612.2 290C 614.7 284.19999999999993  624.2 265.79999999999995 630.1 255C 632 251.5999999999999  641.8000000000001 230.19999999999993 642.5 227.89999999999998C 642.9000000000001 226.5999999999999  643.6 225 644 224.5C 644.4000000000001 223.89999999999998  646 219.39999999999998 647.5 214.5C 649 209.5  650.8000000000001 203.69999999999993 651.5 201.5C 652.2 199.29999999999995  653.3000000000001 193.0999999999999 654 187.79999999999995C 655.2 179.39999999999998  655.1 176.89999999999998 653.8000000000001 169.29999999999995C 652 159.5  648.7 151 646.8000000000001 151C 642.9000000000001 151  627 160.69999999999993 614.6 170.5C 582.2 196.0999999999999  550.9 235.89999999999998 540 265.5C 537.1 273.19999999999993  536.6 274.29999999999995 535.3000000000001 274.69999999999993C 533.7 275.29999999999995  523.4 266.0999999999999 516.6 258C 505 244.0999999999999  498.5 232.39999999999998 490.5 211C 485.70000000000005 198.19999999999993  479.40000000000003 170.69999999999993 476.5 150C 474.90000000000003 138.39999999999998  473 100.69999999999993 473.3 87.09999999999991C 473.40000000000003 82.5  473.1 79.59999999999991 472.40000000000003 79.29999999999995C 469.8 78.39999999999998  453.70000000000005 107.79999999999995 446.20000000000005 127.19999999999993C 438.70000000000005 146.5999999999999  433 168.79999999999995 429.40000000000003 192.5999999999999C 427.1 208.5  427.8 246.19999999999993 430.8 260.5C 438 295  447.6 312.29999999999995 467.20000000000005 326.29999999999995C 470.8 328.9  474.20000000000005 331 474.8 331C 475.3 331  476.3 331.69999999999993 477 332.5C 479.20000000000005 335.0999999999999  477.6 336.29999999999995 462.8 342.9C 457.8 345.0999999999999  440.3 351.1 431.5 353.5C 420.6 356.6  408.20000000000005 358.79999999999995 398 359.5C 392.5 359.9  387.70000000000005 360.69999999999993 387.40000000000003 361.19999999999993C 386.3 363  392.5 373.4 398.1 379C 404.70000000000005 385.69999999999993  411.70000000000005 389.29999999999995 425 392.79999999999995C 434 395.19999999999993  436.3 395.29999999999995 472 395.9C 505.5 396.4  509.90000000000003 396.69999999999993 512.8000000000001 398.29999999999995C 517.2 400.69999999999993  518.5 404.19999999999993 516.4 408.1C 515.6 409.79999999999995  509.8 414.79999999999995 503.20000000000005 419.69999999999993C 478.70000000000005 437.79999999999995  471.20000000000005 445.29999999999995 463.40000000000003 459.5C 459.70000000000005 466.2  459.5 466.9 459.6 475.7C 459.70000000000005 488.4  460.6 489.5 471.1 488.5C 478.3 487.9  485 486 498 481C 501 479.79999999999995  504.90000000000003 478.4 506.5 477.79999999999995C 508.20000000000005 477.29999999999995  510.40000000000003 476.4 511.5 475.9C 530.4 467.5  554.5 464.59999999999997 567.9 469.09999999999997C 599.2 479.7  628.9000000000001 510.79999999999995 644 549C 645.2 552  646.6 555.5999999999999 647.2 557C 649 561.5  652.1 574.3 654 585.8C 659.5 617.7  653.8000000000001 659.4 639.8000000000001 688.4C 634.2 700.0999999999999  633.7 701 632.8000000000001 701C 631.7 701  631.8000000000001 696.5999999999999 632.9000000000001 695.4C 633.5 694.9  634.3000000000001 692.7 634.9000000000001 690.5C 635.4000000000001 688.3  637 682.7 638.5 678C 652.2 632.8  643.2 573.7 616.5 533.5C 610.3000000000001 524.2  593.7 508.09999999999997 585.4 503.29999999999995C 573.3000000000001 496.4  567.2 494.7 554 494.59999999999997C 543.5 494.5  542 494.7 537 497.09999999999997C 526.4 502.2  517.2 512.4 510 527.0999999999999C 507.70000000000005 531.7  505.40000000000003 536.3 504.90000000000003 537.2C 504.40000000000003 538.2  504 539.9 504 541C 504 542.8  504.70000000000005 543 509.8 543C 518.4 543  539.6 545.7 545.4 547.5999999999999C 576.8000000000001 557.5  595.4 574.8 604.1 602.0999999999999C 606.2 608.7  606.4 611.4 606.4 626.5C 606.4 647.8  604.8000000000001 655 595.9 672.5999999999999C 579.1 706  540.4 739.9 486.5 768.7C 472.1 776.4  425.70000000000005 799 424.40000000000003 799C 424.1 799  422.20000000000005 799.7 420.20000000000005 800.6C 404.40000000000003 807.7  401 809.1 390.3 813.4C 359.20000000000005 825.6  349.70000000000005 829 322.5 838C 309.3 842.4  297.2 846.5 295.5 847.1C 293.90000000000003 847.7  290.7 848.6 288.5 849.1C 286.3 849.6  282.7 850.7 280.5 851.4C 278.3 852.1  274 853.4 271 854.3C 268 855.2  262.40000000000003 856.8 258.5 857.9C 254.70000000000002 859  247.70000000000002 860.9 243 862.1C 238.3 863.3  232.5 864.8 230 865.5C 217.5 869  195.9 874.3 173.5 879.5C 170.20000000000002 880.2  163.70000000000002 881.8 159 882.9C 154.3 884  146 885.8 140.5 887C 135 888.2  127.80000000000001 889.8 124.5 890.5C 119.10000000000001 891.7  112.5 893.1 90.5 897.6C 78.5 900  63.7 902.8 59.5 903.5C 54.2 904.4  53.1 905.5 44.300000000000004 918.9C 35.5 932.2  25.200000000000003 943.3 14.600000000000001 951C 2.5 959.8  3.1 960 31.400000000000002 957.5C 73.10000000000001 953.9  118.9 944.9 184.5 927.5C 203.70000000000002 922.4  209.9 920.6 231 914.3C 235.70000000000002 912.9  242.20000000000002 911 245.5 910C 254.5 907.3  279.40000000000003 899.3 289 895.8C 293.7 894.2  298.90000000000003 892.5 300.5 892C 305.8 890.5  324.40000000000003 883.9 327.70000000000005 882.4C 329.40000000000003 881.7  331.3 881 331.90000000000003 881C 332.5 881  334.40000000000003 880.4 336.20000000000005 879.6C 338 878.9  342.20000000000005 877.2 345.5 876C 348.8 874.8  353.1 873.3 355 872.5C 356.90000000000003 871.8  361 870.3 364 869.2C 382.8 862.3  432.70000000000005 842.2 447 835.8C 449.5 834.7  452.40000000000003 833.5 453.5 833C 454.6 832.5  457.5 831.3 460 830.2C 462.5 829.1  466.1 827.5 468 826.7C 469.90000000000003 825.9  474.70000000000005 823.8 478.5 822C 482.40000000000003 820.2  488 817.7 491 816.3C 499.40000000000003 812.5  555.4 784.6 564.5 779.7C 579.2 771.8  581.4 770.6 604 757.6C 633.5 740.6  646.9000000000001 732.3 672.5 715.1C 704.6 693.5999999999999  726.8000000000001 675.0999999999999 752.7 648.7C 770.4000000000001 630.5999999999999  778.3000000000001 624.9 794.4000000000001 619C 822.9000000000001 608.5  842.4000000000001 611.9 865.2 631.4C 874 638.9  881.4000000000001 647.4 887.8000000000001 657.5C 904.1 683  908.5 688.2 920.7 696.3C 934.9000000000001 705.7  946.6 709.3 963.5 709.4C 975.7 709.4  985.2 707.9 997.5 703.9C 1004.9000000000001 701.5  1018 695 1018 693.7C 1018 693.2  1016 690.5999999999999 1013.5 687.8C 1006.1 679.5  1003.4000000000001 673.8 998.1 655.5C 993 638  989.7 628.0999999999999 986.9000000000001 622.5C 978.4000000000001 605.8  966 595.5 942.5 586C 926.2 579.3  917.9000000000001 577.7 899 577.8C 875.8000000000001 577.9  859.8000000000001 580.9 823.5 591.9C 808.6 596.4  801.1 598.2 790 599.5999999999999C 783.7 600.3  778 601 777.3000000000001 601C 773.9000000000001 601  775.2 597.5 781.7 588.3C 805 555.5  828 515.3 843.4000000000001 480.5C 844.9000000000001 477.2  846.5 473.79999999999995 846.9000000000001 472.9C 847.4000000000001 472.09999999999997  849 468.2 850.5 464.4C 852 460.59999999999997  853.9000000000001 456.09999999999997 854.6 454.5C 855.4000000000001 452.79999999999995  856.4000000000001 450.1 856.9000000000001 448.5C 858.9000000000001 442.1  863.1 431.5 864 430.6C 865.1 429.5  867.5 430.1 881 434.79999999999995C 894.6 439.6  902.7 441.19999999999993 916 441.69999999999993C 928.7 442.29999999999995  934 441.69999999999993 950.5 438C 967.2 434.4  973 432.9 992.5 427.4C 1021.6 419.29999999999995  1039.7 416.69999999999993 1051.1000000000001 418.9C 1054.6000000000001 419.6  1059.4 421.1 1061.7 422.19999999999993C 1068.8 425.69999999999993  1080.2 438.5 1087 450.69999999999993C 1088.3 453.09999999999997  1089.9 455 1090.6000000000001 455C 1092.4 455  1095.2 448.19999999999993 1098 437.5C 1099.9 429.69999999999993  1100.2 426.9 1099.7 416.5C 1099.3 409  1098.4 402 1097.1000000000001 397.69999999999993C 1092.6000000000001 382.4  1082.1000000000001 368.4 1069.5 360.9C 1065.8 358.79999999999995  1063.5 356.69999999999993 1063.5 355.6C 1063.5 354.5  1066.1000000000001 352.5 1071 349.79999999999995C 1097.4 335.5  1118.4 322.5999999999999 1134 311.0999999999999C 1153.3 296.79999999999995  1174.3 275.79999999999995 1181.5 263.5999999999999C 1191.9 245.79999999999995  1191.4 227.69999999999993 1180.2 217.79999999999995C 1171.7 210.39999999999998  1150.3 202.89999999999998 1126.5 198.89999999999998C 1117.8 197.39999999999998  1114.6000000000001 195.29999999999995 1114.2 190.5999999999999C 1113.7 185.19999999999993  1117.3 181.0999999999999 1127.6000000000001 175C 1132.2 172.29999999999995  1136.2 170 1136.5 170C 1137.4 170  1167.1000000000001 152.39999999999998 1175 147.19999999999993C 1191.2 136.5  1206.8 123.89999999999998 1222.4 109C 1239.4 92.69999999999993  1255.7 70.09999999999991 1270.3000000000002 42.39999999999998C 1275 33.5  1274.8000000000002 33.299999999999955 1258 29.699999999999932C 1234.2 24.5  1226.3 23.59999999999991 1207 23.5C 1185.1000000000001 23.5  1178.4 24.799999999999955 1154.5 33.39999999999998C 1137.4 39.59999999999991  1118.5 53.19999999999993 1091.6000000000001 78.79999999999995C 1075 94.59999999999991  1067.5 100.29999999999995 1055 106.5C 1050.9 108.5  1046.1000000000001 110.89999999999998 1044.5 111.69999999999993C 1040 114  1037.5 113.09999999999991 1037.7 109.5C 1040.9 64.29999999999995  1039.6000000000001 44.69999999999993 1032.2 27.899999999999977C 1030.5 24.09999999999991  1027.5 21.09999999999991 1026.5 22.199999999999932C 1026.3 22.399999999999977  1025.7 27 1025.1000000000001 32.5C 1024 42.69999999999993  1021.8000000000001 52.69999999999993 1018.2 63.5C 1016.3000000000001 69.29999999999995  1015.7 70.89999999999998 1012.1 79.39999999999998C 1010.2 84  989.8000000000001 124.79999999999995 985 133.5C 983.2 136.79999999999995  974.4000000000001 152.0999999999999 965.5 167.5C 956.6 182.89999999999998  947.5 198.5999999999999 945.4000000000001 202.5C 943.3000000000001 206.29999999999995  940.3000000000001 211.69999999999993 938.7 214.5C 931.9000000000001 226  921.9000000000001 246.0999999999999 919 254C 917.3000000000001 258.69999999999993  915.3000000000001 263.19999999999993 914.6 264C 913.8000000000001 264.79999999999995  913 266.19999999999993 912.7 267C 911.1 271.4  912.7 246 915.5 222.5C 916.3000000000001 215.89999999999998  917.2 208 917.5 205C 917.8000000000001 202  918.7 194.0999999999999 919.5 187.5C 927.2 123.19999999999993  929.3000000000001 76.39999999999998 925.6 50.5C 924.7 43.89999999999998  923.7 37.799999999999955 923.4000000000001 36.89999999999998C 922.9000000000001 35.09999999999991  916.6 32.09999999999991 907 29.199999999999932C 897 26.09999999999991  894.1 25.59999999999991 893.5 27.199999999999932C 893.3000000000001 27.899999999999977  892.6 41.299999999999955 892.1 57C 890 116.69999999999993  882.8000000000001 181.29999999999995 872.5 233.5C 871.8000000000001 237.29999999999995  870.2 245.69999999999993 869 252C 867 263.0999999999999  866.2 267 862.1 285C 861.1 289.69999999999993  859.4000000000001 297.0999999999999 858.5 301.5C 857.5 305.9  855.3000000000001 314.69999999999993 853.7 321C 852.1 327.29999999999995  850.4000000000001 334.29999999999995 849.8000000000001 336.5C 849.3000000000001 338.69999999999993  848.3000000000001 342.29999999999995 847.6 344.5C 846.8000000000001 346.69999999999993  845.2 352.1 844 356.5C 842.8000000000001 360.9  841.2 366.1 840.5 368C 839.8000000000001 369.9  838.2 374.6 837 378.5C 835.1 384.6  833 390.5 828.8000000000001 401.19999999999993C 828.2 402.79999999999995  827.2 404 826.5 404C 825.2 404  816.5 387.19999999999993 813.5 379C 805.3000000000001 356.1  802.2 342.79999999999995 797.5 309.5C 796.7 303.4  795.1 292.4 794.1 285C 793 277.5999999999999  791.4000000000001 266.0999999999999 790.6 259.5C 789.7 252.89999999999998  788.3000000000001 242.29999999999995 787.4000000000001 236C 786.5 229.69999999999993  785.4000000000001 221.5999999999999 785 218C 782.7 199.79999999999995  773.8000000000001 153.89999999999998 769.5 139C 768.8000000000001 136.5  767.9000000000001 132.89999999999998 767.5 131C 766.5 126.19999999999993  762.6 112.79999999999995 760 105.5C 758.9000000000001 102.19999999999993  757.5 98.09999999999991 756.9000000000001 96.29999999999995C 753 83.59999999999991  737.5 54 725.4000000000001 36C 716 22  715.7 21.699999999999932 703.5 16.5C 697.5 14  691.6 11.5 690.5 11C 683.3000000000001 7.699999999999932  674.3000000000001 5.7999999999999545 671.2 7z" stroke="black"></path>
</g>
<ellipse transform="rotate(90)" style="fill:yellow;stroke:purple;stroke-width:2" ry="50" rx="100" cy="80" cx="200"></ellipse>
<circle stroke-width="10" stroke="blue" fill="red" r="100" cy="200" cx="600"></circle>
</g>
<line x1="0" y1="0" x2="200" y2="200" transform="scale(2)" />
</svg>
