<svg width="800" height="800" viewBox="-0.1976195815205574 -0.10330160140991218 0.3952391630411148 0.20660320281982436"
  xmlns="http://www.w3.org/2000/svg" xmlns:xlink="http://www.w3.org/1999/xlink">
  <g transform="scale(1.0 -1.0)">
    <path stroke-width="0.0144" stroke="#03326c" color_index="48"
      style="fill: none;stroke-linejoin: round;stroke-linecap: round;"
      d="M-0.1801195740699768,0.07258617877960205 L-0.17993241548538208,0.06258797645568848 L-0.17972397804260254,0.052590370178222656 L-0.17925286293029785,0.04260146617889404 L-0.17875218391418457,0.03261423110961914 L-0.17810708284378052,0.02263510227203369 L-0.17746198177337646,0.012655854225158691 L-0.1768168807029724,0.002676725387573242 L-0.17617177963256836,-0.007302403450012207 L-0.1755266785621643,-0.017281651496887207 L-0.17508387565612793,-0.027271270751953125 L-0.17469418048858643,-0.03726363182067871 L-0.17430442571640015,-0.04725611209869385 L-0.17414212226867676,-0.05725383758544922">
    </path>
    <path stroke-width="0.0144" stroke="#03326c" color_index="48"
      style="fill: none;stroke-linejoin: round;stroke-linecap: round;"
      d="M-0.17264574766159058,0.07557570934295654 L-0.16265183687210083,0.07522821426391602 L-0.15268868207931519,0.07437407970428467 L-0.14272820949554443,0.07348525524139404 L-0.13275206089019775,0.07284092903137207">
    </path>
    <path stroke-width="0.0144" stroke="#03326c" color_index="48"
      style="fill: none;stroke-linejoin: round;stroke-linecap: round;"
      d="M-0.09940207749605179,0.01877450942993164L-0.09940207749605179,0.01877450942993164"></path>
    <path stroke-width="0.0144" stroke="#03326c" color_index="48"
      style="fill: none;stroke-linejoin: round;stroke-linecap: round;"
      d="M-0.17414051294326782,0.009805917739868164 L-0.16414380073547363,0.009554266929626465 L-0.15414726734161377,0.009291887283325195 L-0.14415019750595093,0.009110331535339355 L-0.13415122032165527,0.009252429008483887 L-0.1241619661450386,0.009580850601196289 L-0.11420703679323196,0.010514378547668457 L-0.10442111641168594,0.012526631355285645 L-0.09518186002969742,0.016268134117126465">
    </path>
    <path stroke-width="0.0144" stroke="#03326c" color_index="48"
      style="fill: none;stroke-linejoin: round;stroke-linecap: round;"
      d="M-0.07249624282121658,0.01578497886657715 L-0.0824713483452797,0.015187740325927734 L-0.09221313148736954,0.013038158416748047 L-0.100398488342762,0.0075751543045043945 L-0.10276297479867935,-0.0018200874328613281 L-0.09955192357301712,-0.011214971542358398 L-0.09395591169595718,-0.019475817680358887 L-0.08725912123918533,-0.02688777446746826 L-0.07984102517366409,-0.033582448959350586 L-0.07185203582048416,-0.03958702087402344 L-0.06335524469614029,-0.044849276542663574 L-0.05431611090898514,-0.04910123348236084 L-0.04468957334756851,-0.051712870597839355 L-0.034912146627902985,-0.05072188377380371 L-0.029116161167621613,-0.04305887222290039 L-0.02883739024400711,-0.033135414123535156 L-0.030893690884113312,-0.023366332054138184 L-0.034094877541065216,-0.013897538185119629 L-0.03788972645998001,-0.004646658897399902 L-0.042162664234638214,0.004394412040710449 L-0.05026457458734512,0.00915670394897461 L-0.060254551470279694,0.009176492691040039 L-0.07000438123941422,0.010640263557434082">
    </path>
    <path stroke-width="0.0144" stroke="#03326c" color_index="48"
      style="fill: none;stroke-linejoin: round;stroke-linecap: round;"
      d="M-0.030642755329608917,0.06062805652618408 L-0.027942515909671783,0.05099952220916748 L-0.02500654011964798,0.0414433479309082 L-0.021841295063495636,0.03195750713348389 L-0.018334008753299713,0.02259540557861328 L-0.014685310423374176,0.013285160064697266 L-0.010510452091693878,0.004198312759399414 L-0.005978234112262726,-0.004708766937255859 L-0.0008685365319252014,-0.013293623924255371 L0.005147062242031097,-0.021261215209960938">
    </path>
    <path stroke-width="0.0144" stroke="#03326c" color_index="48"
      style="fill: none;stroke-linejoin: round;stroke-linecap: round;"
      d="M0.029147975146770477,0.05763852596282959 L0.02639555186033249,0.048103928565979004 L0.02142297476530075,0.03944385051727295 L0.015261881053447723,0.03157758712768555 L0.008206389844417572,0.024507999420166016 L0.00020240992307662964,0.01854836940765381 L-0.009265966713428497,0.01569366455078125 L-0.007882155478000641,0.012225747108459473 L0.0015914961695671082,0.009025812149047852 L0.011075221002101898,0.005854249000549316 L0.02053862065076828,0.002625703811645508 L0.029885999858379364,-0.0009276866912841797 L0.039166681468486786,-0.00463712215423584 L0.04815258830785751,-0.009014725685119629 L0.05639379471540451,-0.014638900756835938">
    </path>
    <path stroke-width="0.0144" stroke="#03326c" color_index="48"
      style="fill: none;stroke-linejoin: round;stroke-linecap: round;"
      d="M0.04857998341321945,0.06660711765289307 L0.053377799689769745,0.05784416198730469 L0.057326607406139374,0.048662424087524414 L0.060771726071834564,0.03927648067474365 L0.06407492607831955,0.029837846755981445 L0.06737812608480453,0.020399093627929688 L0.07118987292051315,0.0111541748046875 L0.07555025070905685,0.0021698474884033203 L0.08111714571714401,-0.006111621856689453">
    </path>
    <path stroke-width="0.0144" stroke="#03326c" color_index="48"
      style="fill: none;stroke-linejoin: round;stroke-linecap: round;"
      d="M0.0904335007071495,0.06959664821624756 L0.0875563845038414,0.06004917621612549 L0.08371197432279587,0.05081808567047119 L0.07983743399381638,0.041599273681640625 L0.07615550607442856,0.03230750560760498 L0.07445689290761948,0.022973179817199707 L0.08379017561674118,0.019460320472717285 L0.09337341040372849,0.016606569290161133 L0.10301431268453598,0.013950824737548828 L0.11265524476766586,0.011295199394226074 L0.1222950741648674,0.008635878562927246">
    </path>
    <path stroke-width="0.0144" stroke="#03326c" color_index="48"
      style="fill: none;stroke-linejoin: round;stroke-linecap: round;"
      d="M0.1203288659453392,0.05315423011779785 L0.1208149716258049,0.043170928955078125 L0.12469571083784103,0.034819841384887695 L0.13074752688407898,0.042409539222717285 L0.1343977153301239,0.05171000957489014 L0.13717910647392273,0.06130707263946533 L0.13909912109375,0.07110965251922607 L0.13958421349525452,0.08106136322021484 L0.1333296298980713,0.08580160140991211 L0.1257985234260559,0.07932043075561523 L0.11949201673269272,0.07156574726104736 L0.11373906582593918,0.06338739395141602 L0.10903092473745346,0.05460190773010254 L0.10681372135877609,0.04490804672241211 L0.10751571506261826,0.03498661518096924 L0.1108614131808281,0.025604963302612305 L0.11632021516561508,0.01725149154663086 L0.12342774122953415,0.010251402854919434 L0.1316533386707306,0.004595160484313965 L0.14088737964630127,0.0008066892623901367 L0.15067097544670105,-0.0010870695114135742 L0.16063371300697327,-0.0006198883056640625 L0.17007213830947876,0.0025877952575683594 L0.17828959226608276,0.008211731910705566">
    </path>
    <path stroke-width="0.0144" stroke="#03326c" color_index="48"
      style="fill: none;stroke-linejoin: round;stroke-linecap: round;"
      d="M0.1801195740699768,0.01130068302154541 L0.1707083284854889,0.008884549140930176 L0.1614893674850464,0.00501561164855957 L0.15235450863838196,0.0009469985961914062 L0.1432810127735138,-0.003256082534790039 L0.13415822386741638,-0.007351875305175781 L0.12491484731435776,-0.011162996292114258 L0.11562754958868027,-0.014870524406433105 L0.10623868554830551,-0.01831233501434326 L0.09682150930166245,-0.0216752290725708 L0.08736487478017807,-0.02492666244506836 L0.0779082402586937,-0.028178095817565918 L0.06844153255224228,-0.03139972686767578 L0.058947496116161346,-0.03454029560089111 L0.049453459680080414,-0.037680983543395996 L0.03995945304632187,-0.04082155227661133 L0.03045865148305893,-0.04394102096557617 L0.02090548723936081,-0.04689681529998779 L0.01135232299566269,-0.049852728843688965 L0.0017991885542869568,-0.05280864238739014 L-0.007755078375339508,-0.055760741233825684 L-0.017363525927066803,-0.05853164196014404 L-0.026971973478794098,-0.0613025426864624 L-0.03658042103052139,-0.06407344341278076 L-0.0461888387799263,-0.06684434413909912 L-0.05584288388490677,-0.06945145130157471 L-0.06550169736146927,-0.07204115390777588 L-0.07516054064035416,-0.0746309757232666 L-0.08481938391923904,-0.07722067832946777 L-0.09450069814920425,-0.07972431182861328 L-0.10419256240129471,-0.08218777179718018 L-0.10744471102952957,-0.08529937267303467 L-0.09746376425027847,-0.08580160140991211 L-0.08746499568223953,-0.08574628829956055 L-0.07746658474206924,-0.08559548854827881 L-0.06747464090585709,-0.08519506454467773 L-0.05748263746500015,-0.08479475975036621 L-0.04750553518533707,-0.0841372013092041 L-0.03754446655511856,-0.08325576782226562 L-0.027583397924900055,-0.08237433433532715 L-0.017644234001636505,-0.08130097389221191 L-0.007741250097751617,-0.07991158962249756 L0.002075664699077606,-0.07802057266235352 L0.011825792491436005,-0.07580804824829102 L0.021483831107616425,-0.07321667671203613 L0.031133882701396942,-0.0705944299697876 L0.040783993899822235,-0.06797218322753906 L0.050434015691280365,-0.06534993648529053 L0.06012808531522751,-0.06291019916534424 L0.06998559087514877,-0.0612415075302124 L0.07986687868833542,-0.059705257415771484 L0.08974816650152206,-0.058169007301330566 L0.0996229276061058,-0.05659472942352295 L0.109451524913311,-0.05475127696990967 L0.11928018182516098,-0.05290794372558594 L0.1290251910686493,-0.050685882568359375 L0.138666570186615,-0.048055291175842285 L0.14795202016830444,-0.04439234733581543">
    </path>
  </g>
</svg>