<svg width="800" height="800" viewBox="-0.1976195815205574 -0.10330160140991218 0.3952391630411148 0.20660320281982436" xmlns="http://www.w3.org/2000/svg"><g stroke-width=".014" stroke="#03326c" fill="none" stroke-linejoin="round" stroke-linecap="round"><path d="M-.18-.073v.03l.001.01v.01l.002.01v.02l.001.01v.01l.001.01v.02m.002-.133h.01l.01.002h.01l.01.001m-.041.063h.06l.01-.003.009-.003m.023 0h-.01l-.01.003-.008.005-.003.01.003.01.006.007.007.008.007.007.008.006.009.005.009.004.01.003.01-.001.005-.008v-.01L-.03.023l-.003-.01-.004-.008-.004-.01-.008-.004h-.01l-.01-.002M-.03-.06l.002.009.003.01.003.009.004.01.003.009.004.009.005.009.005.008.006.008M.03-.058l-.004.01-.005.009-.006.007-.007.007L0-.019l-.01.003.002.004.01.003.01.003.009.003.009.004.01.004.008.004.008.006M.049-.067l.004.01.004.008.004.01.003.01.003.009.004.009.005.009.005.008M.09-.07l-.002.01-.004.01-.004.008-.004.01-.002.009.01.004.01.002.009.003.01.003.01.002"/><path d="M.12-.053v.01l.005.008.006-.007.003-.01.003-.01.002-.01v-.01L.134-.085l-.007.007-.007.007-.005.009-.005.008-.002.01v.01l.004.01.005.008.007.007.009.005L.14 0l.01.002h.01l.01-.004.007-.005"/><path d="M.18-.011L.17-.01l-.009.004-.009.004-.009.004-.009.004-.01.004-.008.004-.01.003-.01.004-.009.003-.01.003L.068.03l-.01.004L.05.038.04.04.03.044.02.047.012.05l-.01.003-.009.003-.01.003-.009.002-.01.003-.01.003-.009.002-.01.003-.01.003-.009.002-.01.003-.01.002-.002.003h.059l.01-.002h.01l.01-.002.01-.001.01-.002.009-.002.01-.003.01-.002L.04.068.05.065.06.063.07.06h.01L.09.058.1.057.11.055.12.053.128.05l.01-.003.009-.004"/></g></svg>