<svg width="800" height="800" viewBox="-0.4811241644620895 -0.22598363637924201 0.962248328924179 0.45196727275848403"
  xmlns="http://www.w3.org/2000/svg" xmlns:xlink="http://www.w3.org/1999/xlink">
  <defs>
    <clipPath id="circle" clipPathUnits="objectBoundingBox">
      <circle cx=".5" cy=".5" r=".5" />
    </clipPath>
  </defs>
  <g transform="scale(1.0 -1.0)">
    <path stroke-width="0.0144" stroke="#fabf39" color_index="37"
      style="fill: none;stroke-linejoin: round;stroke-linecap: round;"
      d="M-0.46362417936325073,0.10982900857925415 L-0.453626811504364,0.10962265729904175 L-0.44363051652908325,0.10934978723526001 L-0.4336342215538025,0.10911363363265991 L-0.4236375689506531,0.10937315225601196 L-0.4136824607849121,0.11019891500473022 L-0.40386301279067993,0.11202436685562134 L-0.3943488597869873,0.11506646871566772 L-0.3854724168777466,0.11964422464370728">
    </path>
    <path stroke-width="0.0144" stroke="#fabf39" color_index="37"
      style="fill: none;stroke-linejoin: round;stroke-linecap: round;"
      d="M-0.43372881412506104,0.09488123655319214 L-0.4330095648765564,0.08491438627243042 L-0.43137019872665405,0.07505577802658081 L-0.4291059970855713,0.0653190016746521 L-0.4264637231826782,0.05567449331283569 L-0.42348748445510864,0.04612773656845093 L-0.42049920558929443,0.036584675312042236 L-0.4175109267234802,0.027041614055633545 L-0.4147845506668091,0.017421305179595947">
    </path>
    <path stroke-width="0.0144" stroke="#fabf39" color_index="37"
      style="fill: none;stroke-linejoin: round;stroke-linecap: round;"
      d="M-0.3858962059020996,0.06349116563796997 L-0.3758998513221741,0.06376022100448608 L-0.36593085527420044,0.06446593999862671 L-0.35608232021331787,0.06612056493759155 L-0.3515549898147583,0.07234972715377808 L-0.3606773018836975,0.07612496614456177 L-0.3706059455871582,0.07705920934677124 L-0.3803977370262146,0.07522135972976685 L-0.38811320066452026,0.06914454698562622 L-0.3916419744491577,0.05985945463180542 L-0.3919185400009155,0.049928486347198486 L-0.38881683349609375,0.04047340154647827 L-0.3831017017364502,0.03230816125869751 L-0.3756808638572693,0.025652825832366943 L-0.36707431077957153,0.020608961582183838 L-0.3574613332748413,0.01800018548965454 L-0.34849226474761963,0.021200239658355713">
    </path>
    <path stroke-width="0.0144" stroke="#fabf39" color_index="37"
      style="fill: none;stroke-linejoin: round;stroke-linecap: round;"
      d="M-0.30517876148223877,0.07544928789138794 L-0.31517255306243896,0.07509785890579224 L-0.3250545263290405,0.0736880898475647 L-0.3334614634513855,0.06890887022018433 L-0.33059656620025635,0.05993884801864624 L-0.32334619760513306,0.05307263135910034 L-0.3153764009475708,0.04703909158706665 L-0.30724501609802246,0.041218459606170654 L-0.3012619614601135,0.03458601236343384 L-0.3090636134147644,0.02836066484451294 L-0.31805503368377686,0.024104416370391846 L-0.3277684450149536,0.024261534214019775 L-0.3311502933502197,0.0328790545463562 L-0.32784503698349,0.042248308658599854">
    </path>
    <path stroke-width="0.0144" stroke="#fabf39" color_index="37"
      style="fill: none;stroke-linejoin: round;stroke-linecap: round;"
      d="M-0.29770487546920776,0.1501876711845398 L-0.2964100241661072,0.14028197526931763 L-0.2944132089614868,0.13048630952835083 L-0.2922210097312927,0.12072962522506714 L-0.28976190090179443,0.11103695631027222 L-0.28728461265563965,0.10134857892990112 L-0.2847509980201721,0.09167534112930298 L-0.28209036588668823,0.08203572034835815 L-0.27942973375320435,0.07239621877670288 L-0.27676910161972046,0.06275659799575806 L-0.27403825521469116,0.053137004375457764 L-0.2712515592575073,0.043533146381378174 L-0.2684648036956787,0.033929288387298584 L-0.2656781077384949,0.024325430393218994 L-0.26288485527038574,0.014723479747772217 L-0.2600162625312805,0.005143702030181885">
    </path>
    <path stroke-width="0.0144" stroke="#fabf39" color_index="37"
      style="fill: none;stroke-linejoin: round;stroke-linecap: round;"
      d="M-0.3216211795806885,0.10534459352493286 L-0.3119356036186218,0.10755568742752075 L-0.3019478917121887,0.10744208097457886 L-0.29200416803359985,0.10641258955001831 L-0.2820761203765869,0.10521525144577026 L-0.27212363481521606,0.1042967438697815 L-0.26214170455932617,0.10405737161636353 L-0.2523089051246643,0.10566896200180054">
    </path>
    <path stroke-width="0.0144" stroke="#fabf39" color_index="37"
      style="fill: none;stroke-linejoin: round;stroke-linecap: round;"
      d="M-0.20652402937412262,0.10683935880661011 L-0.21183781325817108,0.11528676748275757 L-0.21944032609462738,0.12157052755355835 L-0.2288917750120163,0.12007707357406616 L-0.2355061024427414,0.11268609762191772 L-0.2396446317434311,0.1036033034324646 L-0.24236266314983368,0.09399169683456421 L-0.24350129067897797,0.08406823873519897 L-0.24316726624965668,0.07409268617630005 L-0.24065415561199188,0.06445568799972534 L-0.2362072914838791,0.05550891160964966 L-0.2304927259683609,0.04732769727706909 L-0.2227766066789627,0.04105597734451294 L-0.2131039947271347,0.03905600309371948 L-0.20349116623401642,0.04154235124588013 L-0.1948951631784439,0.046623289585113525 L-0.1863469034433365,0.05166119337081909">
    </path>
    <path stroke-width="0.0144" stroke="#fabf39" color_index="37"
      style="fill: none;stroke-linejoin: round;stroke-linecap: round;"
      d="M-0.1855972558259964,0.1442086100578308 L-0.18426521122455597,0.13431423902511597 L-0.18173004686832428,0.12464624643325806 L-0.17857696115970612,0.11515837907791138 L-0.1751754730939865,0.10575610399246216 L-0.17159335315227509,0.09641975164413452 L-0.16801123321056366,0.08708328008651733 L-0.16466660797595978,0.07766586542129517 L-0.16474829614162445,0.07000607252120972 L-0.17094172537326813,0.07766789197921753 L-0.17393849790096283,0.08717280626296997 L-0.17504458129405975,0.09708601236343384 L-0.17314903438091278,0.1068163514137268 L-0.16539309918880463,0.11215430498123169 L-0.1562022715806961,0.10889309644699097 L-0.14980138838291168,0.10127800703048706 L-0.14483638107776642,0.09260684251785278 L-0.14064572751522064,0.083529531955719 L-0.1366998702287674,0.07434087991714478 L-0.13203950226306915,0.06679433584213257">
    </path>
    <path stroke-width="0.0144" stroke="#fabf39" color_index="37"
      style="fill: none;stroke-linejoin: round;stroke-linecap: round;"
      d="M-0.11534316837787628,0.11730283498764038 L-0.12048514187335968,0.10889869928359985 L-0.11712636053562164,0.1000475287437439 L-0.10860036313533783,0.09493881464004517 L-0.09915150701999664,0.09169834852218628 L-0.08937081694602966,0.08963960409164429">
    </path>
    <path stroke-width="0.0144" stroke="#fabf39" color_index="37"
      style="fill: none;stroke-linejoin: round;stroke-linecap: round;"
      d="M-0.0959111750125885,0.13524001836776733 L-0.08605284988880157,0.1337537169456482 L-0.07714192569255829,0.129305899143219 L-0.0701337456703186,0.12222534418106079 L-0.06558726727962494,0.11335557699203491 L-0.06343783438205719,0.10362392663955688 L-0.06431707739830017,0.09698635339736938 L-0.0664483904838562,0.10673719644546509 L-0.06753839552402496,0.11666709184646606 L-0.06754793226718903,0.12665051221847534 L-0.06519116461277008,0.13627415895462036 L-0.05675826966762543,0.14009910821914673 L-0.04939241707324982,0.13389652967453003 L-0.04596780240535736,0.12453562021255493 L-0.04431895911693573,0.11468178033828735 L-0.04362994432449341,0.10471183061599731">
    </path>
    <path stroke-width="0.0144" stroke="#fabf39" color_index="37"
      style="fill: none;stroke-linejoin: round;stroke-linecap: round;"
      d="M-0.04209950566291809,0.20848363637924194 L-0.04176945984363556,0.19848912954330444 L-0.040926337242126465,0.18852680921554565 L-0.03971204161643982,0.17860370874404907 L-0.038275107741355896,0.16870778799057007 L-0.03652885556221008,0.15886157751083374 L-0.03474593162536621,0.14902180433273315 L-0.03296302258968353,0.13918203115463257 L-0.031201720237731934,0.129338800907135 L-0.029788345098495483,0.11943918466567993 L-0.02837495505809784,0.10953956842422485 L-0.027601420879364014,0.09957021474838257 L-0.027165502309799194,0.08958345651626587">
    </path>
    <path stroke-width="0.0144" stroke="#fabf39" color_index="37"
      style="fill: none;stroke-linejoin: round;stroke-linecap: round;"
      d="M-0.060036733746528625,0.1666300892829895 L-0.05003701150417328,0.1665545105934143 L-0.04004290699958801,0.16670387983322144 L-0.030070394277572632,0.16737240552902222 L-0.020314574241638184,0.16947871446609497 L-0.011398687958717346,0.1738409399986267">
    </path>
    <path stroke-width="0.0144" stroke="#fabf39" color_index="37"
      style="fill: none;stroke-linejoin: round;stroke-linecap: round;"
      d="M-0.019677981734275818,0.10833412408828735 L-0.01274225115776062,0.11536675691604614 L-0.0066025108098983765,0.12326008081436157 L-0.00031729042530059814,0.13103288412094116 L0.006308138370513916,0.13852077722549438 L0.014129027724266052,0.14469987154006958 L0.02348201721906662,0.14531642198562622 L0.028450079262256622,0.1368362307548523 L0.030219674110412598,0.12700766324996948 L0.03092944622039795,0.11704021692276001">
    </path>
    <path stroke-width="0.0144" stroke="#fabf39" color_index="37"
      style="fill: none;stroke-linejoin: round;stroke-linecap: round;"
      d="M0.05057612806558609,0.10534459352493286 L0.0423993319272995,0.09958785772323608 L0.03400731086730957,0.09415572881698608 L0.02545175701379776,0.08898347616195679 L0.0167098268866539,0.08412772417068481 L0.007815584540367126,0.07956165075302124 L-0.0011399835348129272,0.07511216402053833 L-0.010271266102790833,0.07103556394577026 L-0.019417881965637207,0.06699484586715698 L-0.028695717453956604,0.06326371431350708 L-0.03797367215156555,0.05953282117843628 L-0.047370702028274536,0.056112825870513916 L-0.05676773190498352,0.052692949771881104 L-0.06622983515262604,0.04946035146713257 L-0.07572367787361145,0.04631930589675903 L-0.08522287011146545,0.04319494962692261 L-0.09479421377182007,0.040298521518707275 L-0.10436557233333588,0.03740209341049194 L-0.11394448578357697,0.03453165292739868 L-0.12357588112354279,0.0318416953086853 L-0.1332072764635086,0.029151618480682373 L-0.14283867180347443,0.026461660861968994 L-0.1524934619665146,0.023857414722442627 L-0.16215746104717255,0.02128690481185913 L-0.17184020578861237,0.018788158893585205 L-0.18152372539043427,0.016292154788970947 L-0.1912071853876114,0.01379615068435669 L-0.2008907049894333,0.011300146579742432 L-0.2105741649866104,0.008804142475128174 L-0.22025765478610992,0.006308138370513916 L-0.22994114458560944,0.003812134265899658 L-0.23962463438510895,0.0013161301612854004 L-0.2492779940366745,-0.0012933611869812012 L-0.258924663066864,-0.003928124904632568 L-0.2685713768005371,-0.006562769412994385 L-0.2781716585159302,-0.009361207485198975 L-0.2877681851387024,-0.012173235416412354 L-0.29736465215682983,-0.014985144138336182 L-0.3069611191749573,-0.01779717206954956 L-0.3165576457977295,-0.02060908079147339 L-0.32618653774261475,-0.02330535650253296 L-0.33584994077682495,-0.02587789297103882 L-0.34551340341567993,-0.028450310230255127 L-0.35520899295806885,-0.03089088201522827 L-0.36497408151626587,-0.03304570913314819 L-0.37474924325942993,-0.03515070676803589 L-0.3845812678337097,-0.0369756817817688 L-0.39440637826919556,-0.03883785009384155 L-0.4042314887046814,-0.040699899196624756 L-0.41401398181915283,-0.04277068376541138 L-0.4237831234931946,-0.04490703344345093 L-0.43355226516723633,-0.04704326391220093 L-0.44320154190063477,-0.04965764284133911 L-0.4478246569633484,-0.05303412675857544 L-0.4378271698951721,-0.052944839000701904 L-0.42782914638519287,-0.052746593952178955 L-0.41784340143203735,-0.05223363637924194 L-0.4078604578971863,-0.051650822162628174 L-0.3978995084762573,-0.050781309604644775 L-0.387944757938385,-0.0498315691947937 L-0.37801551818847656,-0.048654019832611084 L-0.36809998750686646,-0.047357380390167236 L-0.35820454359054565,-0.04592400789260864 L-0.3483366370201111,-0.044303834438323975 L-0.3384714126586914,-0.04266887903213501 L-0.3286569118499756,-0.040751636028289795 L-0.31884247064590454,-0.03883439302444458 L-0.3090556263923645,-0.0367853045463562 L-0.2992969751358032,-0.03460162878036499 L-0.28953832387924194,-0.03241795301437378 L-0.27981722354888916,-0.030075252056121826 L-0.2701128125190735,-0.02766197919845581 L-0.2604082226753235,-0.025248706340789795 L-0.2507264018058777,-0.022747695446014404 L-0.24106524884700775,-0.020166456699371338 L-0.2314041405916214,-0.017585337162017822 L-0.22175602614879608,-0.014956414699554443 L-0.21212314069271088,-0.01227182149887085 L-0.20249025523662567,-0.009587109088897705 L-0.19285733997821808,-0.006902515888214111 L-0.18322445452213287,-0.004217803478240967 L-0.17359156906604767,-0.001533210277557373 L-0.16395868360996246,0.0011513829231262207 L-0.15432582795619965,0.0038360953330993652 L-0.14469294250011444,0.006520688533782959 L-0.13502682745456696,0.0090828537940979 L-0.1253528743982315,0.011615574359893799 L-0.11567892134189606,0.014148294925689697 L-0.1060049831867218,0.016680896282196045 L-0.09633104503154755,0.019213616847991943 L-0.08660273253917694,0.0215262770652771 L-0.07686270773410797,0.023791611194610596 L-0.067122682929039,0.026056945323944092 L-0.05735452473163605,0.028192579746246338 L-0.047551438212394714,0.03016716241836548 L-0.0377483069896698,0.03214186429977417 L-0.02791169285774231,0.03393489122390747 L-0.018049627542495728,0.03559082746505737 L-0.008187681436538696,0.037246644496917725 L0.00172501802444458,0.03856438398361206 L0.011638537049293518,0.03987663984298706 L0.021576903760433197,0.04097038507461548 L0.03153197467327118,0.04191714525222778 L0.04149720072746277,0.04272657632827759 L0.05148136615753174,0.043289005756378174 L0.06146875023841858,0.043765127658843994 L0.07146705687046051,0.0439487099647522">
    </path>
    <path stroke-width="0.0144" stroke="#4b4b4b" color_index="35"
      style="fill: none;stroke-linejoin: round;stroke-linecap: round;"
      d="M0.10139824450016022,-0.14876598119735718 L0.10214368999004364,-0.15872973203659058 L0.10396303236484528,-0.16855329275131226 L0.10672523081302643,-0.17815488576889038 L0.11038229614496231,-0.18745273351669312 L0.1149907261133194,-0.19631797075271606 L0.12109673023223877,-0.20420163869857788 L0.12969481945037842,-0.20848363637924194 L0.13598430156707764,-0.2014203667640686 L0.13810354471206665,-0.1916707158088684 L0.13872243463993073,-0.1816919445991516">
    </path>
    <path stroke-width="0.0144" stroke="#4b4b4b" color_index="35"
      style="fill: none;stroke-linejoin: round;stroke-linecap: round;"
      d="M0.14175699651241302,-0.11588102579116821 L0.14165610074996948,-0.12588053941726685 L0.14155521988868713,-0.13588005304336548 L0.14145433902740479,-0.14587944746017456 L0.14144310355186462,-0.15587836503982544 L0.1416856348514557,-0.1658753752708435 L0.14195021986961365,-0.17587071657180786 L0.1448489874601364,-0.18327397108078003 L0.14793789386749268,-0.17380791902542114 L0.1495102494955063,-0.16393476724624634 L0.15132023394107819,-0.15411633253097534 L0.15616615116596222,-0.14560049772262573 L0.1655200570821762,-0.14246255159378052 L0.17549613118171692,-0.14257270097732544 L0.18407021462917328,-0.14698046445846558 L0.18926876783370972,-0.1554815173149109 L0.19309620559215546,-0.1647135615348816 L0.19619238376617432,-0.1742212176322937 L0.19942574203014374,-0.183621346950531">
    </path>
    <path stroke-width="0.0144" stroke="#4b4b4b" color_index="35"
      style="fill: none;stroke-linejoin: round;stroke-linecap: round;"
      d="M0.22695878148078918,-0.14428168535232544 L0.22748008370399475,-0.15426701307296753 L0.2281579077243805,-0.16424411535263062 L0.2295839786529541,-0.17410939931869507 L0.23296061158180237,-0.16733425855636597 L0.23240306973457336,-0.1573607325553894 L0.23089855909347534,-0.14747601747512817 L0.22957560420036316,-0.13757473230361938 L0.2330862283706665,-0.13033169507980347 L0.2383575588464737,-0.13838475942611694 L0.24196821451187134,-0.1477096676826477 L0.2455531358718872,-0.15704494714736938 L0.24918153882026672,-0.16636210680007935 L0.2533320486545563,-0.17546004056930542">
    </path>
    <path stroke-width="0.0144" stroke="#4b4b4b" color_index="35"
      style="fill: none;stroke-linejoin: round;stroke-linecap: round;"
      d="M0.25535938143730164,-0.12484961748123169 L0.2647438943386078,-0.12400275468826294 L0.27321988344192505,-0.12924069166183472 L0.280426561832428,-0.13615530729293823 L0.28673192858695984,-0.14390164613723755 L0.2919541299343109,-0.1524093747138977 L0.29349929094314575,-0.1619928479194641 L0.2849177122116089,-0.16121691465377808 L0.2834937572479248,-0.15152579545974731 L0.2852246165275574,-0.1416948437690735 L0.2880796790122986,-0.13211590051651 L0.29153019189834595,-0.12273317575454712 L0.29548418521881104,-0.11355048418045044 L0.3006248474121094,-0.105771005153656 L0.30679255723953247,-0.11349862813949585 L0.30984383821487427,-0.1229824423789978 L0.31122279167175293,-0.13287681341171265 L0.31159448623657227,-0.14286845922470093 L0.31279802322387695,-0.15210241079330444">
    </path>
    <path stroke-width="0.0144" stroke="#4b4b4b" color_index="35"
      style="fill: none;stroke-linejoin: round;stroke-linecap: round;"
      d="M0.3271082639694214,-0.023205459117889404 L0.3271082639694214,-0.03320544958114624 L0.3271082639694214,-0.043205440044403076 L0.3271082639694214,-0.05320543050765991 L0.3271082639694214,-0.06320542097091675 L0.3271082639694214,-0.07320541143417358 L0.3271082639694214,-0.08320540189743042 L0.3271082639694214,-0.0932055115699768 L0.3271082639694214,-0.10320550203323364 L0.3271082639694214,-0.11320549249649048 L0.3271082639694214,-0.12320548295974731">
    </path>
    <path stroke-width="0.0144" stroke="#4b4b4b" color_index="35"
      style="fill: none;stroke-linejoin: round;stroke-linecap: round;"
      d="M0.3016971945762634,-0.06954330205917358 L0.31131768226623535,-0.06681710481643677 L0.3208392858505249,-0.06376105546951294 L0.33036085963249207,-0.06070500612258911 L0.33997291326522827,-0.05795985460281372 L0.3496788442134857,-0.055575668811798096">
    </path>
    <path stroke-width="0.0144" stroke="#4b4b4b" color_index="35"
      style="fill: none;stroke-linejoin: round;stroke-linecap: round;"
      d="M0.3510245680809021,-0.13830262422561646 L0.356354296207428,-0.12989526987075806 L0.35992783308029175,-0.12056595087051392 L0.36264145374298096,-0.11094790697097778 L0.36469173431396484,-0.10116618871688843 L0.3660198450088501,-0.09126406908035278 L0.36414164304733276,-0.08413082361221313 L0.3624318540096283,-0.09358865022659302 L0.36733508110046387,-0.10221797227859497 L0.37398868799209595,-0.10967928171157837 L0.38059094548225403,-0.11717885732650757 L0.38584083318710327,-0.12563008069992065 L0.384488046169281,-0.13512402772903442 L0.37684130668640137,-0.14146870374679565 L0.36806201934814453,-0.14624398946762085 L0.3589739203453064,-0.15041619539260864 L0.34968775510787964,-0.1541261076927185 L0.34033575654029846,-0.15766221284866333 L0.33091235160827637,-0.1610087752342224 L0.3214409351348877,-0.16421347856521606 L0.3119243383407593,-0.1672850251197815 L0.3024020195007324,-0.1703384518623352 L0.2928333878517151,-0.17324358224868774 L0.283241868019104,-0.17607253789901733 L0.2736503481864929,-0.17890137434005737 L0.26405999064445496,-0.1817341446876526 L0.2544311583042145,-0.18442684412002563 L0.244768425822258,-0.18700212240219116 L0.23518887162208557,-0.18984860181808472 L0.2283117026090622,-0.19446974992752075 L0.23801523447036743,-0.1967509388923645 L0.24793502688407898,-0.19799667596817017 L0.2579241394996643,-0.19844597578048706 L0.26792025566101074,-0.1982230544090271 L0.277887761592865,-0.19745594263076782 L0.28781312704086304,-0.19626754522323608 L0.2976989448070526,-0.19476956129074097 L0.30751752853393555,-0.19287341833114624 L0.31729406118392944,-0.19077986478805542 L0.3270321488380432,-0.18850642442703247 L0.33674007654190063,-0.18610936403274536 L0.3464066684246063,-0.18354934453964233 L0.35606104135513306,-0.1809430718421936 L0.3657154440879822,-0.17833691835403442 L0.3753698468208313,-0.1757306456565857 L0.3850242495536804,-0.1731244921684265 L0.39471668004989624,-0.17066723108291626 L0.4044390916824341,-0.16832762956619263 L0.4141615629196167,-0.165988028049469 L0.4239605665206909,-0.1640058159828186 L0.433788537979126,-0.16215890645980835 L0.44369709491729736,-0.16082090139389038 L0.45364099740982056,-0.15981417894363403 L0.46362417936325073,-0.15926295518875122">
    </path>
  </g>
</svg>