<svg width="800" height="800" viewBox="-0.4811241644620895 -0.22598363637924201 0.962248328924179 0.45196727275848403"
  xmlns="http://www.w3.org/2000/svg">
  <g stroke-width=".014" fill="none" stroke-linejoin="round" stroke-linecap="round">
    <path stroke="#fabf39"
      d="M-.464-.11h.05l.01-.002.01-.003.009-.005m-.049.025l.001.01.002.01.002.01.003.01.003.009.003.01.002.009.003.01m.029-.046h.01l.01-.001.01-.002.004-.006-.009-.004-.01-.001-.01.002-.007.006-.004.01v.01l.003.009.006.008.007.006.009.005.01.003.009-.003m.043-.054h-.01l-.01.001-.008.005.002.01.008.006.008.006.008.006.006.006-.008.007-.01.004h-.009L-.33-.033l.003-.01m.029-.107l.002.01.002.01.002.01.002.009.003.01.002.01.003.009.003.01.002.01.003.009.003.01.003.01.002.009.003.01.003.009" />
    <path stroke="#fabf39"
      d="M-.322-.105l.01-.003h.01l.01.002h.01l.01.002h.01l.01-.002m.045-.001l-.005-.008-.007-.007-.01.002-.007.007-.004.01-.002.009-.002.01v.01l.003.01.005.008.006.009.007.006.01.002.01-.003.008-.005.009-.005m0-.092l.002.01.002.01.003.009.004.01.003.009.004.009.003.01v.007L-.17-.078l-.003-.01-.001-.01.002-.009.008-.005.009.003.006.008.005.008.004.01.004.009.005.007m.016-.05L-.12-.11l.003.009.008.005.01.003.01.002m-.007-.044l.01.001.009.005.007.007.004.009.003.01-.001.006-.002-.01-.002-.01v-.01l.003-.01.008-.003.008.006.003.01.002.01v.01m.002-.104v.01l.001.01.001.01.002.01.001.01.002.009.002.01.002.01.001.01.002.01v.02" />
    <path stroke="#fabf39"
      d="M-.06-.167h.03l.01-.002.009-.005m-.009.066l.007-.007.006-.008L0-.131l.006-.008.008-.006h.01l.004.008.002.01v.01m.02.012L.043-.1l-.008.006-.009.005-.008.005-.01.004L0-.075l-.01.004-.008.004-.01.004-.009.003-.01.004-.009.003-.01.004-.009.003-.01.003-.009.003-.01.003-.009.002-.01.003-.01.003-.009.003-.01.002-.01.003-.009.002-.01.003-.01.002L-.2-.01l-.01.002-.01.003-.009.002L-.24 0h-.01l-.009.003-.01.003-.01.002-.009.003-.01.003-.009.003-.01.003-.01.002-.009.003-.01.002-.01.003-.009.002-.01.002-.01.002-.01.002-.01.002-.009.002-.01.002-.01.002-.01.003-.004.003h.03l.01-.001.01-.001.01-.001.01-.001.01-.002.01-.001.01-.002.01-.001.01-.002.01-.002.009-.002.01-.002.01-.003.01-.002.009-.002.01-.003.01-.002.009-.003.01-.002.01-.003.009-.003.01-.002.01-.003.009-.003.01-.002.009-.003.01-.003.01-.003.009-.002.01-.003.01-.002.009-.003.01-.002.01-.003.01-.002.009-.002.01-.002.01-.002.01-.002.01-.002.009-.002.01-.001.01-.002h.01l.01-.002h.01l.01-.002h.03" />
    <path stroke="#4b4b4b"
      d="M.101.149l.001.01.002.01.003.01.003.008.005.01.006.007.009.004.006-.007.002-.01v-.01M.142.116v.06l.003.007.003-.01.002-.01V.155L.156.146l.01-.004h.01l.008.005.005.008.004.01.003.01L.2.183M.227.144v.01l.001.01.002.01.003-.007v-.01L.23.147v-.01L.233.13l.005.008.004.01.004.009.003.01.004.008m.002-.05l.01-.001.008.005.007.007.007.008.005.008.001.01H.285L.283.151l.002-.01.003-.01.004-.01.003-.008.006-.008.006.007.003.01.001.01v.01l.002.01M.327.023v.1M.302.07l.01-.003L.32.064.33.06.34.058.35.056" />
    <path stroke="#4b4b4b"
      d="M.351.138L.356.13.36.12.363.11.365.102l.001-.01L.364.084l-.002.01.005.008.007.008.007.007.005.009-.002.01L.377.14.368.146.36.15.35.154.34.158.33.16.322.164l-.01.003L.303.17l-.01.003-.009.003-.01.003-.009.003-.01.002-.01.003L.236.19.228.194l.01.003.01.001h.03l.01-.002.01-.001.01-.002.01-.002.009-.002.01-.003.01-.002.01-.003.009-.003.01-.002.009-.003.01-.002.01-.003.01-.002.009-.002.01-.002.01-.001.01-.001h.01" />
  </g>
</svg>