<svg width="800" height="800" viewBox="-0.43434034466743465 -0.25548489570617683 0.8686806893348693 0.5109697914123537"
  xmlns="http://www.w3.org/2000/svg" xmlns:xlink="http://www.w3.org/1999/xlink">
  <defs>
    <clipPath id="circle" clipPathUnits="objectBoundingBox">
      <circle cx=".5" cy=".5" r=".5" />
    </clipPath>
  </defs>
  <g transform="scale(1.0 -1.0)">
    <path stroke-width="0.0144" stroke="#fabf39" color_index="37"
      style="fill: none;stroke-linejoin: round;stroke-linecap: round;"
      d="M-0.40488219261169434,0.20437860488891602 L-0.4088048040866852,0.19913053512573242 L-0.4077811539173126,0.18918859958648682 L-0.40634921193122864,0.17929160594940186 L-0.4049730896949768,0.1693878173828125 L-0.40427258610725403,0.15941286087036133 L-0.40360355377197266,0.14943528175354004 L-0.40311262011528015,0.13944828510284424 L-0.40273523330688477,0.12945544719696045 L-0.4023700952529907,0.11946225166320801 L-0.4022274315357208,0.10946321487426758 L-0.4020847678184509,0.0994642972946167 L-0.40194249153137207,0.08946526050567627 L-0.4019204378128052,0.07946527004241943 L-0.40189841389656067,0.06946539878845215 L-0.40189266204833984,0.05946540832519531 L-0.40189266204833984,0.04946541786193848 L-0.40189266204833984,0.03946530818939209 L-0.40189266204833984,0.029465317726135254">
    </path>
    <path stroke-width="0.0144" stroke="#fabf39" color_index="37"
      style="fill: none;stroke-linejoin: round;stroke-linecap: round;"
      d="M-0.4168403446674347,0.09077620506286621 L-0.41019466519355774,0.09809982776641846 L-0.40123727917671204,0.1024322509765625 L-0.39157286286354065,0.1049569845199585 L-0.3816840350627899,0.10643637180328369 L-0.3717299699783325,0.10738968849182129 L-0.3617713451385498,0.1082984209060669 L-0.35183241963386536,0.10937011241912842 L-0.3419444262981415,0.1108626127243042 L-0.3324090540409088,0.1137993335723877 L-0.32425159215927124,0.1193779706954956 L-0.32045719027519226,0.12846195697784424 L-0.31841206550598145,0.13824856281280518 L-0.3168580234050751,0.14812707901000977 L-0.31570950150489807,0.1580592393875122 L-0.31473246216773987,0.16801059246063232 L-0.3140103220939636,0.17798447608947754 L-0.313288152217865,0.18795835971832275 L-0.31256601214408875,0.19793224334716797 L-0.3117643892765045,0.20789968967437744 L-0.3108862638473511,0.21786117553710938 L-0.3096003532409668,0.2277660369873047 L-0.30921703577041626,0.2218492031097412 L-0.30921703577041626,0.21184921264648438 L-0.30921703577041626,0.20184922218322754 L-0.30921703577041626,0.1918492317199707 L-0.30921703577041626,0.18184924125671387 L-0.30921703577041626,0.17184913158416748 L-0.30921703577041626,0.16184914112091064 L-0.30921703577041626,0.1518491506576538 L-0.30921703577041626,0.14184916019439697 L-0.30921703577041626,0.13184916973114014 L-0.30921703577041626,0.1218491792678833 L-0.30921703577041626,0.11184918880462646 L-0.30921703577041626,0.10184919834136963 L-0.30921703577041626,0.09184920787811279 L-0.30921703577041626,0.08184921741485596 L-0.30921703577041626,0.07184922695159912 L-0.30921703577041626,0.061849236488342285 L-0.30900225043296814,0.05185294151306152 L-0.30856606364250183,0.04186248779296875 L-0.3081298768520355,0.03187203407287598 L-0.3077186644077301,0.021881103515625 L-0.3077567219734192,0.011881113052368164 L-0.30864495038986206,0.0019723176956176758">
    </path>
    <path stroke-width="0.0144" stroke="#fabf39" color_index="37"
      style="fill: none;stroke-linejoin: round;stroke-linecap: round;"
      d="M-0.25839489698410034,0.09974479675292969 L-0.264173686504364,0.09784364700317383 L-0.27185511589050293,0.09145832061767578 L-0.27869895100593567,0.08418726921081543 L-0.28447777032852173,0.07604694366455078 L-0.2884957194328308,0.06692612171173096 L-0.2900947034358978,0.05711185932159424 L-0.2885203957557678,0.04729902744293213 L-0.2832788825035095,0.03906261920928955 L-0.27410802245140076,0.04162156581878662 L-0.2669432759284973,0.04855954647064209 L-0.2606675922870636,0.05633699893951416 L-0.25482380390167236,0.06444835662841797 L-0.24921077489852905,0.0727241039276123 L-0.24380087852478027,0.08113443851470947 L-0.2383909821510315,0.08954477310180664 L-0.2329811155796051,0.09795498847961426 L-0.22731369733810425,0.10618984699249268 L-0.22122615575790405,0.11409759521484375 L-0.2150937020778656,0.11314153671264648 L-0.2147502303123474,0.10314786434173584 L-0.21440398693084717,0.09315383434295654 L-0.2140577733516693,0.0831599235534668 L-0.2135842740535736,0.0731738805770874 L-0.21267610788345337,0.06321525573730469 L-0.21164190769195557,0.05327177047729492 L-0.21014001965522766,0.04338526725769043 L-0.20803993940353394,0.033614277839660645 L-0.2049127221107483,0.024134278297424316 L-0.19844377040863037,0.016862988471984863 L-0.1898963451385498,0.021028876304626465 L-0.18414738774299622,0.029174447059631348">
    </path>
    <path stroke-width="0.0144" stroke="#fabf39" color_index="37"
      style="fill: none;stroke-linejoin: round;stroke-linecap: round;"
      d="M-0.18515124917030334,0.11020815372467041 L-0.18493130803108215,0.10021114349365234 L-0.18462079763412476,0.09021592140197754 L-0.18431031703948975,0.08022069931030273 L-0.18399980664253235,0.07022559642791748 L-0.18368932604789734,0.060230374336242676 L-0.18337884545326233,0.05023515224456787 L-0.18317407369613647,0.0402376651763916 L-0.18303582072257996,0.030238628387451172 L-0.18289753794670105,0.020239591598510742 L-0.18275925517082214,0.010240554809570312 L-0.1826241910457611,0.0002415180206298828 L-0.18281295895576477,-0.009756684303283691 L-0.18300175666809082,-0.019755005836486816 L-0.1832650601863861,-0.02975022792816162 L-0.18387117981910706,-0.03973186016082764 L-0.18457821011543274,-0.04970443248748779 L-0.18575626611709595,-0.05963480472564697 L-0.1875590682029724,-0.0694648027420044 L-0.19080567359924316,-0.07887578010559082 L-0.19861829280853271,-0.08279883861541748 L-0.20561763644218445,-0.07581508159637451">
    </path>
    <path stroke-width="0.0144" stroke="#fabf39" color_index="37"
      style="fill: none;stroke-linejoin: round;stroke-linecap: round;"
      d="M-0.1836564838886261,0.10123956203460693 L-0.17568367719650269,0.10720586776733398 L-0.166520357131958,0.10569310188293457 L-0.16240811347961426,0.09668481349945068 L-0.1607474982738495,0.08683955669403076 L-0.16031035780906677,0.07685339450836182 L-0.16059663891792297,0.06686162948608398 L-0.16166454553604126,0.05692791938781738 L-0.1640341877937317,0.05590951442718506">
    </path>
    <path stroke-width="0.0144" stroke="#fabf39" color_index="37"
      style="fill: none;stroke-linejoin: round;stroke-linecap: round;"
      d="M-0.13133959472179413,0.10123956203460693 L-0.1294412463903427,0.09142494201660156 L-0.12832079827785492,0.08149087429046631 L-0.12778536975383759,0.07150554656982422 L-0.1277882605791092,0.06150555610656738 L-0.12800748646259308,0.05150914192199707 L-0.1284908950328827,0.04152083396911621 L-0.1289743036031723,0.03153252601623535 L-0.12945769727230072,0.021544218063354492 L-0.1297556310892105,0.011549592018127441 L-0.13019073009490967,0.001561284065246582 L-0.13125421106815338,-0.00838160514831543 L-0.1323917955160141,-0.018315911293029785 L-0.13378575444221497,-0.02821826934814453 L-0.13517972826957703,-0.03812062740325928 L-0.13705408573150635,-0.047939181327819824">
    </path>
    <path stroke-width="0.0144" stroke="#fabf39" color_index="37"
      style="fill: none;stroke-linejoin: round;stroke-linecap: round;"
      d="M-0.1268552988767624,0.09526050090789795 L-0.1169489175081253,0.09635686874389648 L-0.10822606086730957,0.09217321872711182 L-0.10563039779663086,0.08270251750946045 L-0.10699819028377533,0.07281780242919922 L-0.11014296114444733,0.06333613395690918 L-0.11430221796035767,0.05425214767456055 L-0.11937680840492249,0.04564845561981201 L-0.12614649534225464,0.03843033313751221">
    </path>
    <path stroke-width="0.0144" stroke="#fabf39" color_index="37"
      style="fill: none;stroke-linejoin: round;stroke-linecap: round;"
      d="M-0.08649654686450958,0.10273432731628418 L-0.09270931780338287,0.0955972671508789 L-0.09498852491378784,0.08587992191314697 L-0.09607523679733276,0.07594728469848633 L-0.09632788598537445,0.06595659255981445 L-0.09578822553157806,0.05597865581512451 L-0.09413623809814453,0.04613304138183594 L-0.08837638795375824,0.03851902484893799 L-0.07924969494342804,0.04122626781463623 L-0.07280242443084717,0.0488208532333374 L-0.0676877349615097,0.05740463733673096 L-0.06334787607192993,0.06641268730163574 L-0.05950115621089935,0.07564330101013184 L-0.05605536699295044,0.08503007888793945 L-0.05480620265007019,0.08070874214172363 L-0.05438676476478577,0.07071757316589355 L-0.05411975085735321,0.06072115898132324 L-0.05385272204875946,0.05072462558746338 L-0.05358569324016571,0.040728211402893066 L-0.053318679332733154,0.030731797218322754 L-0.053051650524139404,0.02073538303375244 L-0.052784621715545654,0.010738968849182129 L-0.05262799561023712,0.0007408857345581055 L-0.052612245082855225,-0.00925910472869873 L-0.05259649455547333,-0.019259095191955566 L-0.05258074402809143,-0.02925896644592285 L-0.05266354978084564,-0.03925764560699463 L-0.0529450923204422,-0.04925370216369629 L-0.053226619958877563,-0.05924975872039795 L-0.053685009479522705,-0.0692371129989624 L-0.054378315806388855,-0.07921302318572998 L-0.055341437458992004,-0.08916199207305908 L-0.05678439140319824,-0.09905123710632324 L-0.05959942936897278,-0.10861396789550781">
    </path>
    <path stroke-width="0.0144" stroke="#fabf39" color_index="37"
      style="fill: none;stroke-linejoin: round;stroke-linecap: round;"
      d="M-0.002789519727230072,0.22231578826904297 L-0.002512328326702118,0.21231961250305176 L-0.0020430609583854675,0.20233154296875 L-0.001425422728061676,0.1923506259918213 L-0.0008077919483184814,0.18236970901489258 L-0.00019016116857528687,0.17238879203796387 L0.0004274696111679077,0.16240787506103516 L0.0010451078414916992,0.152427077293396 L0.0014816820621490479,0.14243686199188232 L0.001884564757347107,0.13244497776031494 L0.002287440001964569,0.12245309352874756 L0.0026268810033798218,0.11245989799499512 L0.0026406794786453247,0.10245990753173828 L0.0026544854044914246,0.09245991706848145 L0.0023146942257881165,0.08246755599975586 L0.0018720179796218872,0.07247734069824219 L0.0009178519248962402,0.06252408027648926 L-0.00038246065378189087,0.05261492729187012 L-0.0022800564765930176,0.04280364513397217 L-0.005111508071422577,0.03322553634643555 L-0.009298637509346008,0.024167537689208984">
    </path>
    <path stroke-width="0.0144" stroke="#fabf39" color_index="37"
      style="fill: none;stroke-linejoin: round;stroke-linecap: round;"
      d="M0.0016947835683822632,0.20886290073394775 L0.001865394413471222,0.19886434078216553 L0.0020359978079795837,0.1888657808303833 L0.0025144442915916443,0.1788792610168457 L0.0031282976269721985,0.16889822483062744 L0.004344135522842407,0.15897250175476074 L0.006231635808944702,0.14915859699249268 L0.010030440986156464,0.1399627923965454 L0.01869022101163864,0.13769292831420898 L0.026071995496749878,0.14434385299682617 L0.03201443329453468,0.1523752212524414 L0.03733203932642937,0.16083931922912598 L0.04236684367060661,0.1694777011871338 L0.04719853773713112,0.17823290824890137 L0.05186309665441513,0.1870783567428589 L0.056527651846408844,0.1959238052368164 L0.06119220703840256,0.20476925373077393 L0.06585676223039627,0.21361470222473145 L0.07056158035993576,0.22243845462799072 L0.0753982663154602,0.23119091987609863 L0.08112572878599167,0.23798489570617676 L0.081573985517025,0.22807180881500244 L0.08080040663480759,0.21810340881347656 L0.07985234260559082,0.20814847946166992 L0.07890427857637405,0.19819343090057373 L0.07817041128873825,0.18822288513183594 L0.07792796194553375,0.17822909355163574 L0.07792796194553375,0.16822898387908936 L0.07792796194553375,0.15822899341583252 L0.07792796194553375,0.14822900295257568 L0.07792796194553375,0.13822901248931885 L0.07792796194553375,0.128229022026062 L0.07792796194553375,0.11822903156280518 L0.07792796194553375,0.10822904109954834 L0.07792796194553375,0.0982290506362915 L0.07792796194553375,0.08822906017303467 L0.07792796194553375,0.07822906970977783 L0.07792796194553375,0.068229079246521 L0.07792796194553375,0.05822908878326416 L0.07792796194553375,0.048229098320007324 L0.07792796194553375,0.03822910785675049">
    </path>
    <path stroke-width="0.0144" stroke="#fabf39" color_index="37"
      style="fill: none;stroke-linejoin: round;stroke-linecap: round;"
      d="M0.11380240321159363,0.10273432731628418 L0.11087074875831604,0.09331893920898438 L0.10665352642536163,0.0842517614364624 L0.10260304063558578,0.07511293888092041 L0.09893736243247986,0.06580901145935059 L0.09672059118747711,0.05607879161834717 L0.09763883799314499,0.04626727104187012 L0.10515983402729034,0.04023540019989014 L0.11485660076141357,0.041362762451171875 L0.12283188104629517,0.047299742698669434 L0.12908396124839783,0.05507922172546387 L0.1342078298330307,0.06365346908569336 L0.13834324479103088,0.07275009155273438 L0.14134186506271362,0.08227980136871338 L0.14283901453018188,0.09214627742767334 L0.1415063440799713,0.10195314884185791 L0.13366663455963135,0.10718202590942383">
    </path>
    <path stroke-width="0.0144" stroke="#fabf39" color_index="37"
      style="fill: none;stroke-linejoin: round;stroke-linecap: round;"
      d="M0.14369776844978333,0.11170291900634766 L0.15116065740585327,0.10507416725158691 L0.15765216946601868,0.09747517108917236 L0.16344885528087616,0.08932733535766602 L0.16871675848960876,0.08082890510559082 L0.17351466417312622,0.0720595121383667 L0.17778141796588898,0.06302309036254883 L0.18124240636825562,0.05365443229675293 L0.1823239028453827,0.043834805488586426 L0.1738153100013733,0.04387497901916504 L0.16907566785812378,0.052488088607788086 L0.1670248657464981,0.06226229667663574 L0.1661141812801361,0.07221996784210205 L0.1658187359571457,0.08221566677093506 L0.1658754050731659,0.09221339225769043 L0.1660889983177185,0.10221052169799805 L0.16662612557411194,0.11219608783721924 L0.16716894507408142,0.12218117713928223 L0.16797678172588348,0.13214850425720215 L0.16878461837768555,0.14211583137512207 L0.16965490579605103,0.15207767486572266 L0.17063206434249878,0.16202974319458008 L0.17160922288894653,0.17198193073272705 L0.1725863814353943,0.18193399906158447 L0.17356353998184204,0.19188618659973145 L0.17449337244033813,0.2018420696258545 L0.17508624494075775,0.2118244171142578">
    </path>
    <path stroke-width="0.0144" stroke="#fabf39" color_index="37"
      style="fill: none;stroke-linejoin: round;stroke-linecap: round;"
      d="M0.14519253373146057,0.1535564661026001 L0.15463680028915405,0.15678668022155762 L0.1644437313079834,0.15872323513031006 L0.17422951757907867,0.1607452630996704 L0.1836351454257965,0.16404283046722412">
    </path>
    <path stroke-width="0.0144" stroke="#fabf39" color_index="37"
      style="fill: none;stroke-linejoin: round;stroke-linecap: round;"
      d="M0.19153034687042236,0.20138895511627197 L0.1917392462491989,0.19139111042022705 L0.19203725457191467,0.18139684200286865 L0.1926162838935852,0.17141366004943848 L0.19325095415115356,0.16143417358398438 L0.19407939910888672,0.15146875381469727 L0.19500714540481567,0.1415119171142578 L0.19593490660190582,0.13155508041381836 L0.19686266779899597,0.12159812450408936 L0.19779041409492493,0.1116412878036499 L0.19862042367458344,0.10167670249938965 L0.19926717877388,0.0916975736618042 L0.19991391897201538,0.0817185640335083 L0.2003081738948822,0.07172870635986328">
    </path>
    <path stroke-width="0.0144" stroke="#fabf39" color_index="37"
      style="fill: none;stroke-linejoin: round;stroke-linecap: round;"
      d="M0.20049896836280823,0.11768198013305664 L0.2065424770116806,0.12561726570129395 L0.21515800058841705,0.13010096549987793 L0.2237968146800995,0.1257338523864746 L0.229347825050354,0.11744391918182373 L0.23326195776462555,0.10825181007385254 L0.23627841472625732,0.098724365234375 L0.23859436810016632,0.08900225162506104 L0.24020546674728394,0.079140305519104">
    </path>
    <path stroke-width="0.0144" stroke="#fabf39" color_index="37"
      style="fill: none;stroke-linejoin: round;stroke-linecap: round;"
      d="M0.25132107734680176,0.11768198013305664 L0.2608722746372223,0.120644211769104 L0.2704234719276428,0.12360644340515137 L0.27997463941574097,0.12656867504119873 L0.2782364785671234,0.12342727184295654 L0.26979032158851624,0.1180734634399414 L0.26152849197387695,0.11244547367095947 L0.2534620463848114,0.1065448522567749 L0.24612504243850708,0.09976959228515625 L0.24031902849674225,0.09169435501098633 L0.240006223320961,0.0820615291595459 L0.2470325082540512,0.07516789436340332 L0.2562090754508972,0.0712355375289917 L0.2659647464752197,0.06913471221923828 L0.27590036392211914,0.06949734687805176 L0.2851162552833557,0.07318258285522461 L0.29248303174972534,0.07986938953399658 L0.29776573181152344,0.088326096534729 L0.30155250430107117,0.09756767749786377 L0.3040304183959961,0.10724985599517822 L0.30565017461776733,0.11711204051971436 L0.30653977394104004,0.12706708908081055 L0.30669552087783813,0.13705968856811523 L0.2996513843536377,0.13391780853271484 L0.3030732274055481,0.12695610523223877 L0.312691867351532,0.12428700923919678 L0.32250213623046875,0.12234830856323242 L0.3318968117237091,0.11937141418457031 L0.33285075426101685,0.10945236682891846 L0.33349552750587463,0.09947323799133301 L0.3341403007507324,0.08949398994445801 L0.3347850441932678,0.07951486110687256 L0.3354298174381256,0.06953561305999756 L0.33650851249694824,0.06379640102386475">
    </path>
    <path stroke-width="0.0144" stroke="#fabf39" color_index="37"
      style="fill: none;stroke-linejoin: round;stroke-linecap: round;"
      d="M0.3694077730178833,0.13113486766815186 L0.3666413426399231,0.14056098461151123 L0.35781195759773254,0.1442166566848755 L0.3487809896469116,0.14041435718536377 L0.34347429871559143,0.13212502002716064 L0.34379857778549194,0.12226450443267822 L0.34861376881599426,0.11368215084075928 L0.3570318818092346,0.10839521884918213 L0.36624225974082947,0.10450053215026855 L0.37495771050453186,0.09966230392456055 L0.3808910846710205,0.09181320667266846 L0.38183850049972534,0.08195960521697998 L0.3762153089046478,0.0748293399810791 L0.36630627512931824,0.07397818565368652 L0.3566279113292694,0.07613122463226318 L0.35599029064178467,0.08370435237884521">
    </path>
    <path stroke-width="0.0144" stroke="#fabf39" color_index="37"
      style="fill: none;stroke-linejoin: round;stroke-linecap: round;"
      d="M0.08988611400127411,-0.03627920150756836 L0.09969542175531387,-0.035976409912109375 L0.10668725520372391,-0.04277348518371582 L0.10965226590633392,-0.052290916442871094 L0.11067178845405579,-0.06222796440124512 L0.11072451621294022,-0.07222211360931396 L0.11017317324876785,-0.08220398426055908 L0.1091606467962265,-0.09215259552001953 L0.10773182660341263,-0.10204851627349854 L0.10612941533327103,-0.11191761493682861 L0.10421261191368103,-0.12173223495483398 L0.10214882344007492,-0.13151514530181885 L0.09986092895269394,-0.1412498950958252 L0.09745173156261444,-0.15095388889312744 L0.09481580555438995,-0.1606001853942871 L0.09211030602455139,-0.1702260971069336 L0.08912372589111328,-0.17976975440979004 L0.08610031008720398,-0.1893010139465332 L0.0827263742685318,-0.19871461391448975 L0.07924839109182358,-0.20808792114257812 L0.07539890706539154,-0.2173173427581787 L0.07108162343502045,-0.22633159160614014 L0.06593996286392212,-0.2348918914794922 L0.05729179456830025,-0.23798489570617676 L0.049201883375644684,-0.23228216171264648 L0.04310881718993187,-0.2243802547454834 L0.03822340816259384,-0.21566927433013916 L0.034503526985645294,-0.20639848709106445 L0.03235869109630585,-0.1966491937637329 L0.03235407918691635,-0.1867063045501709 L0.03635232895612717,-0.17770326137542725 L0.04455740749835968,-0.17208683490753174 L0.053817763924598694,-0.1683427095413208 L0.06345731019973755,-0.1657167673110962 L0.07328301668167114,-0.1638801097869873 L0.0831940770149231,-0.16255569458007812 L0.09311257302761078,-0.16128134727478027 L0.10298331081867218,-0.15970778465270996 L0.11274576932191849,-0.15759265422821045 L0.12210386991500854,-0.15412521362304688 L0.1304982751607895,-0.14877653121948242 L0.13708539307117462,-0.1413184404373169 L0.14142484962940216,-0.13233685493469238 L0.14373910427093506,-0.1226203441619873 L0.14483898878097534,-0.11268353462219238 L0.14483825862407684,-0.10269284248352051 L0.143523171544075,-0.09279465675354004 L0.14079312980175018,-0.08318912982940674 L0.13668356835842133,-0.0740807056427002 L0.13179342448711395,-0.06536352634429932 L0.12649589776992798,-0.05688297748565674 L0.12075459957122803,-0.048706769943237305 L0.11423662304878235,-0.04112374782562256 L0.10768832266330719,-0.03356611728668213 L0.10081055015325546,-0.0263139009475708 L0.09425482153892517,-0.022765755653381348 L0.09424485266208649,-0.03275871276855469 L0.09522566944360733,-0.04270803928375244 L0.09866314381361008,-0.05186772346496582">
    </path>
    <path stroke-width="0.0144" stroke="#fabf39" color_index="37"
      style="fill: none;stroke-linejoin: round;stroke-linecap: round;"
      d="M0.18405652046203613,-0.09158563613891602 L0.17525428533554077,-0.09579205513000488 L0.16938339173793793,-0.10382962226867676 L0.16546469926834106,-0.11301147937774658 L0.16329613327980042,-0.12274682521820068 L0.16382110118865967,-0.1326237916946411 L0.17191152274608612,-0.13673901557922363 L0.18174028396606445,-0.1353243589401245 L0.18970946967601776,-0.12948167324066162 L0.19465041160583496,-0.1208575963973999 L0.19756817817687988,-0.11130738258361816 L0.19948266446590424,-0.10149383544921875 L0.20130234956741333,-0.09166073799133301 L0.2039487510919571,-0.08202362060546875 L0.21019896864891052,-0.08023655414581299 L0.2142350673675537,-0.08936810493469238 L0.21764394640922546,-0.0987691879272461 L0.22119542956352234,-0.10811257362365723 L0.22556161880493164,-0.11708199977874756 L0.2333657145500183,-0.12000119686126709">
    </path>
    <path stroke-width="0.0144" stroke="#fabf39" color_index="37"
      style="fill: none;stroke-linejoin: round;stroke-linecap: round;"
      d="M0.2393629401922226,-0.05870068073272705 L0.23958997428417206,-0.06869804859161377 L0.23998603224754333,-0.07868683338165283 L0.2407795935869217,-0.08865535259246826 L0.24234823882579803,-0.09853017330169678 L0.24533255398273468,-0.10805106163024902 L0.2518135905265808,-0.11520946025848389 L0.2609914243221283,-0.11245155334472656 L0.26805102825164795,-0.10540175437927246 L0.273911714553833,-0.0973055362701416 L0.2791849970817566,-0.08881282806396484 L0.28405147790908813,-0.08007800579071045 L0.28854894638061523,-0.07114648818969727 L0.290602445602417,-0.07381200790405273 L0.2912803292274475,-0.08378899097442627 L0.291958212852478,-0.09376609325408936 L0.29263609647750854,-0.10374307632446289 L0.29331398010253906,-0.11372005939483643 L0.2939918637275696,-0.12369704246520996 L0.294686883687973,-0.13367271423339844 L0.29547184705734253,-0.14364194869995117 L0.2962568402290344,-0.15361106395721436 L0.29704180359840393,-0.16358017921447754 L0.29782676696777344,-0.17354941368103027 L0.29861176013946533,-0.18351852893829346 L0.29939672350883484,-0.19348764419555664 L0.30018168687820435,-0.20345675945281982">
    </path>
    <path stroke-width="0.0144" stroke="#fabf39" color_index="37"
      style="fill: none;stroke-linejoin: round;stroke-linecap: round;"
      d="M0.2931746244430542,-0.13194429874420166 L0.2832109332084656,-0.1326969861984253 L0.27336758375167847,-0.13441944122314453 L0.26367032527923584,-0.1368410587310791 L0.25410574674606323,-0.13975274562835693 L0.24468445777893066,-0.143105149269104 L0.2353881448507309,-0.14678466320037842 L0.22614824771881104,-0.15060698986053467 L0.21704521775245667,-0.154746413230896 L0.2079630345106125,-0.1589299440383911 L0.19899135828018188,-0.16334688663482666 L0.19001969695091248,-0.16776371002197266 L0.18111826479434967,-0.17231988906860352 L0.1722409725189209,-0.17692363262176514 L0.16336369514465332,-0.1815272569656372 L0.15448640286922455,-0.18613100051879883 L0.14560912549495697,-0.1907346248626709 L0.13669265806674957,-0.1952611207962036 L0.12783139944076538,-0.19989562034606934 L0.11907275766134262,-0.2047187089920044 L0.11036691069602966,-0.20963895320892334 L0.10169923305511475,-0.21462416648864746 L0.09315276145935059,-0.21981632709503174 L0.08460628986358643,-0.22500836849212646 L0.07629264146089554,-0.2305610179901123 L0.06845448911190033,-0.23672091960906982 L0.07708343863487244,-0.23543596267700195 L0.08662471920251846,-0.23244190216064453 L0.0961923599243164,-0.229536771774292 L0.10582208633422852,-0.22684085369110107 L0.1154518723487854,-0.22414493560791016 L0.125125452876091,-0.2216113805770874 L0.13482096791267395,-0.21916306018829346 L0.1445259153842926,-0.2167518138885498 L0.15423083305358887,-0.2143404483795166 L0.16393575072288513,-0.2119290828704834 L0.1736406832933426,-0.2095177173614502 L0.18334558606147766,-0.207106351852417 L0.19301670789718628,-0.20456528663635254 L0.20266517996788025,-0.20193719863891602 L0.2123136967420578,-0.19930922985076904 L0.22195209562778473,-0.1966468095779419 L0.2314912974834442,-0.19364643096923828 L0.24103057384490967,-0.19064593315124512 L0.2505508065223694,-0.18758773803710938 L0.2601088881492615,-0.18464910984039307 L0.269741028547287,-0.18196165561676025 L0.2793731093406677,-0.17927420139312744 L0.28900521993637085,-0.17658674716949463 L0.298637330532074,-0.17389929294586182 L0.3082195520401001,-0.17104589939117432 L0.31773728132247925,-0.16797780990600586 L0.32430753111839294,-0.16363310813903809">
    </path>
    <path stroke-width="0.0144" stroke="#fabf39" color_index="37"
      style="fill: none;stroke-linejoin: round;stroke-linecap: round;"
      d="M0.39780837297439575,0.02949070930480957 L0.388056218624115,0.03170323371887207 L0.37828704714775085,0.033832550048828125 L0.36844804883003235,0.03561973571777344 L0.3585837483406067,0.03724837303161621 L0.34867724776268005,0.03861260414123535 L0.33874496817588806,0.03975534439086914 L0.3287898302078247,0.04070162773132324 L0.31881484389305115,0.04138052463531494 L0.3088291883468628,0.0419163703918457 L0.2988337278366089,0.042159438133239746 L0.28883466124534607,0.042294979095458984 L0.27883732318878174,0.04213559627532959 L0.268840491771698,0.041883111000061035 L0.2588556110858917,0.04135918617248535 L0.248875230550766,0.04073309898376465 L0.23891271650791168,0.039885878562927246 L0.22896118462085724,0.03890252113342285 L0.21902631223201752,0.037775516510009766 L0.2091141939163208,0.0364527702331543 L0.19920793175697327,0.03509080410003662 L0.18934369087219238,0.03344869613647461 L0.1794794499874115,0.03180646896362305 L0.169653058052063,0.029956459999084473 L0.1598431020975113,0.028016090393066406 L0.1500401645898819,0.026042819023132324 L0.1402885913848877,0.023827672004699707 L0.1305369883775711,0.02161252498626709 L0.12080676108598709,0.019308805465698242 L0.1111152321100235,0.01684427261352539 L0.10142362862825394,0.014379739761352539 L0.09175266325473785,0.011837959289550781 L0.08211998641490936,0.009152650833129883 L0.07248731702566147,0.006467223167419434 L0.0628555491566658,0.003778696060180664 L0.05327698215842247,0.0009062290191650391 L0.04369836300611496,-0.001966238021850586 L0.034119799733161926,-0.004838705062866211 L0.024548381567001343,-0.007734417915344238 L0.01500636339187622,-0.010726094245910645 L0.0054643601179122925,-0.0137176513671875 L-0.004066392779350281,-0.01674473285675049 L-0.013585031032562256,-0.019809842109680176 L-0.023103728890419006,-0.022875070571899414 L-0.03262236714363098,-0.025940299034118652 L-0.04214097559452057,-0.02900540828704834 L-0.051659613847732544,-0.03207063674926758 L-0.06117826700210571,-0.035135746002197266 L-0.07069692015647888,-0.038200974464416504 L-0.08021560311317444,-0.04126608371734619 L-0.08973425626754761,-0.04433131217956543 L-0.09926684200763702,-0.04735207557678223 L-0.10882590711116791,-0.05028867721557617 L-0.11838501691818237,-0.053225159645080566 L-0.1279441863298416,-0.05616176128387451 L-0.13750329613685608,-0.059098243713378906 L-0.14706237614154816,-0.0620347261428833 L-0.15665721893310547,-0.064849853515625 L-0.16628336906433105,-0.06755852699279785 L-0.17590948939323425,-0.07026731967926025 L-0.18553569912910461,-0.07297611236572266 L-0.19520333409309387,-0.07552969455718994 L-0.20489618182182312,-0.07798898220062256 L-0.21458902955055237,-0.08044838905334473 L-0.22430258989334106,-0.08282101154327393 L-0.23406130075454712,-0.08500432968139648 L-0.24382001161575317,-0.0871877670288086 L-0.2536015212535858,-0.08926153182983398 L-0.2634226083755493,-0.09114456176757812 L-0.2732437252998352,-0.09302759170532227 L-0.28310251235961914,-0.09469497203826904 L-0.2929800748825073,-0.09625494480133057 L-0.3028654456138611,-0.09775996208190918 L-0.31279125809669495,-0.09897589683532715 L-0.3227170407772064,-0.10019183158874512 L-0.33267319202423096,-0.10111653804779053 L-0.34263676404953003,-0.10196912288665771 L-0.3526146411895752,-0.10260641574859619 L-0.36260348558425903,-0.10307836532592773 L-0.37259671092033386,-0.10340702533721924 L-0.3823256194591522,-0.10354495048522949 L-0.3723260164260864,-0.10363292694091797 L-0.36232638359069824,-0.10372090339660645 L-0.35232651233673096,-0.10369384288787842 L-0.3423265814781189,-0.10365498065948486 L-0.3323265612125397,-0.10361611843109131 L-0.3223266303539276,-0.10357725620269775 L-0.31232690811157227,-0.10352182388305664 L-0.3023276925086975,-0.10341322422027588 L-0.29232776165008545,-0.10337364673614502 L-0.2823278605937958,-0.10333406925201416 L-0.2723279297351837,-0.1032944917678833 L-0.26232802867889404,-0.10325479507446289 L-0.25233060121536255,-0.10307526588439941 L-0.24233561754226685,-0.10275900363922119 L-0.23234066367149353,-0.10244274139404297 L-0.22236368060112,-0.10180389881134033 L-0.21239545941352844,-0.1010059118270874 L-0.20245710015296936,-0.09991312026977539 L-0.19253474473953247,-0.09866952896118164 L-0.1826123595237732,-0.09742593765258789 L-0.1727047562599182,-0.09607422351837158 L-0.16281235218048096,-0.0946115255355835 L-0.1529199331998825,-0.09314870834350586 L-0.14303039014339447,-0.0916675329208374 L-0.133165180683136,-0.09003126621246338 L-0.12329983711242676,-0.0883951187133789 L-0.11343449354171753,-0.08675885200500488 L-0.10357542335987091,-0.08508670330047607 L-0.09372907876968384,-0.08334052562713623 L-0.08388273417949677,-0.08159422874450684 L-0.07403644919395447,-0.07984805107116699 L-0.0641901046037674,-0.07810187339782715 L-0.05434374511241913,-0.07635557651519775 L-0.04449734091758728,-0.07460939884185791 L-0.03465099632740021,-0.07286310195922852 L-0.02480459213256836,-0.07111692428588867 L-0.014946870505809784,-0.06943655014038086 L-0.005085103213787079,-0.06777966022491455 L0.00477677583694458,-0.06612265110015869 L0.01463860273361206,-0.06446576118469238 L0.024500370025634766,-0.06280887126922607 L0.03436996415257454,-0.06119978427886963 L0.04424525424838066,-0.05962550640106201 L0.05412054806947708,-0.058051109313964844 L0.0639958381652832,-0.05647683143615723 L0.07387113571166992,-0.05490255355834961 L0.08374645560979843,-0.05332827568054199 L0.09362174570560455,-0.051753997802734375 L0.10349705070257187,-0.05017971992492676 L0.11337234079837799,-0.04860544204711914 L0.12324763089418411,-0.04703104496002197 L0.13312304019927979,-0.045456767082214355 L0.14299827814102173,-0.04388248920440674 L0.15287357568740845,-0.04230821132659912 L0.16273480653762817,-0.040648579597473145 L0.17259299755096436,-0.0389704704284668 L0.18245115876197815,-0.03729236125946045 L0.19230933487415314,-0.03561413288116455 L0.20216751098632812,-0.0339360237121582 L0.21202567219734192,-0.032257795333862305 L0.2218838483095169,-0.030579686164855957 L0.23173032701015472,-0.028836369514465332 L0.24155591428279877,-0.026976943016052246 L0.25138163566589355,-0.02511751651763916 L0.2612072229385376,-0.023257970809936523 L0.2710328698158264,-0.021398544311523438 L0.28084641695022583,-0.019478797912597656 L0.29063284397125244,-0.017423272132873535 L0.30041927099227905,-0.015367627143859863 L0.31020572781562805,-0.013312101364135742 L0.3199906051158905,-0.011249780654907227 L0.32972943782806396,-0.008979320526123047 L0.3394683003425598,-0.006708860397338867 L0.3492071330547333,-0.0044384002685546875 L0.3589330017566681,-0.0021152496337890625 L0.3686148226261139,0.0003871917724609375 L0.37829676270484924,0.0028896331787109375 L0.38797858357429504,0.0053920745849609375 L0.397609680891037,0.008080840110778809 L0.40722501277923584,0.010827779769897461 L0.4168403446674347,0.013574600219726562">
    </path>
  </g>
</svg>