<svg width="800" height="800" viewBox="-0.43434034466743465 -0.25548489570617683 0.8686806893348693 0.5109697914123537"
  xmlns="http://www.w3.org/2000/svg">
  <g stroke-width=".014" stroke="#fabf39" fill="none" stroke-linejoin="round" stroke-linecap="round">
    <path d="M-.405-.204L-.409-.2l.001.01.002.01.001.01v.01l.001.01v.01l.001.01v.03l.001.01v.06" />
    <path
      d="M-.417-.09l.007-.008.009-.004.01-.003.01-.001.01-.001.01-.001.01-.001.01-.002.009-.003.008-.005.004-.01.002-.01.001-.01.001-.01.001-.009.001-.01v-.01l.001-.01.001-.01.001-.01.001-.01v.166l.001.01v.02l.001.01v.02m.05-.098l-.006.002-.008.007-.007.007-.005.008-.004.01-.002.009.001.01.006.008.009-.003.007-.007.006-.007.006-.008.006-.009.005-.008.006-.009.005-.008.006-.008.006-.008h.006v.03l.001.01.001.01.001.01.002.01.002.01.003.01.007.007.008-.004.006-.008" />
    <path
      d="M-.185-.11v.03l.001.01v.03l.001.01v.07l-.002.01v.01l-.003.01-.003.009-.008.004-.007-.007m.022-.177l.008-.006.01.001.004.01.001.01v.03h-.003m.033-.045l.002.01v.01l.001.01v.03l-.001.01v.02l-.001.01-.001.01-.001.01-.002.01-.001.01-.002.009m.01-.143l.01-.001.009.004.002.01-.001.01-.003.009-.004.009-.005.008-.007.008m.04-.065l-.007.007-.002.01-.001.01v.02l.002.01.006.007.009-.002.006-.008.005-.008.005-.01.003-.009.004-.009.001.004v.02l.001.01v.03l.001.01v.08l-.001.01-.001.01-.002.01-.003.01m.057-.331v.01l.001.01v.01L0-.182v.02l.001.01v.02l.001.01v.05L0-.062v.009l-.002.01-.003.009-.004.009m.011-.184v.03l.001.01.001.01.002.01.004.009.009.002.007-.006.006-.008.005-.009.005-.008.005-.01.005-.008.005-.009.004-.009.005-.009.005-.008.004-.01.006-.006v.02l-.001.01-.001.01v.01l-.001.01v.14m.036-.065l-.003.01-.004.009-.004.009-.004.01-.002.009v.01l.008.006.01-.001.008-.006.006-.008.005-.009.004-.009.003-.01.002-.01-.001-.009-.008-.005m.01-.005l.007.007.007.008.005.008.006.008.005.009.004.009.003.01.001.01H.174l-.005-.01-.002-.01v-.01l-.001-.01v-.03l.001-.01.001-.01v-.01l.002-.01v-.009l.002-.01v-.01l.002-.01v-.01l.001-.01" />
    <path
      d="M.145-.154l.01-.003.01-.002.01-.002.009-.003m.008-.037v.03l.001.01.001.01.001.01v.01l.002.01v.01l.002.01v.02l.001.01m0-.047l.007-.008.008-.004.009.004.005.009.004.009.003.01.003.009.001.01m.011-.039l.01-.003.01-.003.009-.003-.002.004-.008.005-.008.006-.009.005L.246-.1.24-.092v.01l.007.007.01.004.009.002h.01l.01-.004.006-.007.006-.008.004-.01.002-.01.002-.01v-.02L.3-.133l.003.007.01.003.01.002.009.003v.01l.001.01.001.01v.01l.001.01.002.005M.37-.131l-.003-.01-.01-.003L.35-.14l-.006.008v.01l.006.008.008.006.01.003.008.005.006.008v.01l-.005.007-.01.001-.01-.002v-.008M.09.036H.1l.007.007.003.01v.04L.107.101l-.002.01-.002.01-.002.01L.1.142.097.15.095.16.092.17.09.18.086.19.083.198l-.004.01-.004.008-.004.01-.005.008-.009.003L.05.232.043.224.038.216.035.206.032.196v-.01L.036.179.045.172.054.168l.01-.002.01-.002.01-.001.01-.002L.102.16l.01-.002.01-.004L.13.15.137.14.141.132l.003-.01v-.03L.14.084.137.074.132.065.126.057.121.049.114.04.108.034.1.026.094.023v.01l.001.01L.1.052m.084.04L.175.096.17.104.165.113l-.002.01v.01l.009.004.01-.002L.19.13.195.121.198.11.199.1.201.09.204.081.21.08l.004.01.004.009.003.01.005.008.007.003M.24.059v.03l.002.01.003.01.007.006L.26.112.268.105.274.097.279.09.284.08.29.071v.013l.001.01v.01l.001.01.001.01v.01l.001.01.001.01.001.01v.01L.3.184v.019" />
    <path
      d="M.293.132h-.01l-.01.002-.01.003L.255.14l-.01.003-.009.004-.01.003-.009.005-.009.004-.009.004L.19.168.181.172.172.177.163.182.154.186.146.191l-.01.004L.129.2l-.01.005L.11.21.102.215.093.22.085.225.076.231.068.237l.01-.002.009-.003.01-.002.009-.003.01-.003.01-.002.009-.003.01-.002.01-.003.009-.002.01-.002.01-.003.009-.002.01-.003.01-.003.009-.002.01-.003L.24.19.25.187.26.184.27.182.28.179.288.177l.01-.003.01-.003.009-.003.006-.004M.398-.03l-.01-.002-.01-.002-.01-.002-.01-.001-.01-.002h-.01l-.01-.002h-.02l-.01-.001h-.04l-.01.001-.01.001-.009.001-.01.001-.01.002H.2l-.01.003-.01.001-.01.002-.01.002-.009.002-.01.002-.01.002-.01.003-.009.002-.01.003-.01.002-.009.003-.01.003-.01.002L.054 0l-.01.003-.009.003-.01.003L.016.01l-.01.003-.01.003-.009.003-.01.003-.009.003-.01.003-.009.003-.01.003-.009.003-.01.003-.009.003-.01.003-.009.003-.01.003-.009.003-.01.003-.01.003-.009.003-.01.003-.009.002-.01.003-.01.003-.009.002-.01.002-.01.003-.01.002-.009.002-.01.002-.01.002-.01.002-.01.002-.009.001-.01.002-.01.001-.01.001-.01.001-.01.001h-.01l-.01.001h-.02.15l.01-.001.01-.001.01-.001.01-.001.01-.002h.01l.01-.002.01-.002.01-.001.01-.002.01-.002.01-.001.01-.002.01-.002.01-.001.009-.002.01-.002.01-.002.01-.001.01-.002.01-.002.01-.002.009-.001.01-.002.01-.002.01-.001.01-.002.01-.001.01-.002.009-.002.01-.001.01-.002.01-.001.01-.002.01-.001.01-.002.01-.002.009-.001.01-.002.01-.001.01-.002.01-.002.01-.001.01-.002.009-.002.01-.001.01-.002.01-.002.01-.002.01-.002L.27.021.281.02.29.017.3.015.31.013.32.011.33.01.34.007.35.004.358.002.369 0l.01-.003.009-.002.01-.003.01-.003.009-.003" />
  </g>
</svg>