<svg width="800" height="800"
  viewBox="-0.20776310741901396 -0.15173711061477657 0.41552621483802793 0.30347422122955314"
  xmlns="http://www.w3.org/2000/svg">
  <path stroke-width=".014" stroke="#ed4c78"
    d="M-.19-.093l.008.005.009.005.008.006.009.005.009.005.008.005.009.005.008.005.008.006.008.006.008.006.007.007.007.008.006.008.005.009.004.009.004.009.003.01.002.01.002.009v.01l-.001.01-.001.01-.003.01-.002.01-.004.009-.004.009-.005.008-.007.007-.009.005-.01.001-.01-.003-.008-.005L-.129.12-.135.112-.14.102V.084l.003-.01.005-.009.005-.008.006-.008.006-.008.007-.007L-.1.026-.094.02l.008-.006.008-.006.009-.006.008-.005.009-.005.009-.005.009-.004.009-.004.009-.004.01-.004.009-.003.01-.003.01-.002.009-.002.01-.001h.02l.01.001.01.003.008.004.008.007.006.008.005.008.003.01.001.01v.01L.11.03.107.04.102.048.097.057.09.065.084.072.076.08.07.085.06.091.052.097.043.1.034.106.025.109l-.01.003-.01.001h-.02l-.01-.002-.008-.004-.01-.004L-.05.097-.058.09-.064.083-.07.074l-.004-.01-.002-.009-.001-.01v-.01l.001-.01.002-.01.003-.01.004-.009.004-.009.004-.009.005-.008.005-.009.006-.008.006-.008.007-.008.006-.007.007-.007.007-.007L0-.091l.008-.006.008-.006.008-.006.009-.005.008-.005.01-.004.009-.004.01-.003.009-.002.01-.002h.02l.01.002.01.002.009.004.009.004.008.006.008.006.006.007.006.008.005.01.004.008.003.01.002.01.002.01v.03l-.002.01-.001.01-.003.009-.002.01-.003.01L.175.04.171.05.167.059.162.067.157.076.15.084.144.092.137.099.13.105.122.111l-.01.004-.01.003h-.01L.084.115.075.11"
    fill="none" stroke-linejoin="round" stroke-linecap="round" /></svg>