<svg width="800" height="800"
  viewBox="-0.20776310741901396 -0.15173711061477657 0.41552621483802793 0.30347422122955314">
  <path stroke-width="0.0144" stroke="#ed4c78" color_index="32"
    style="fill: none;stroke-linejoin: round;stroke-linecap: round;"
    d="M-0.19026310741901398,0.0931786298751831 L-0.18186278641223907,0.08775389194488525 L-0.1733328253030777,0.08253514766693115 L-0.1647138148546219,0.0774645209312439 L-0.15604741871356964,0.07247519493103027 L-0.14737410843372345,0.06749790906906128 L-0.1387357860803604,0.062460243701934814 L-0.13018108904361725,0.05728203058242798 L-0.12176395952701569,0.051883578300476074 L-0.11354775726795197,0.046184539794921875 L-0.10560931265354156,0.040105223655700684 L-0.0980357676744461,0.033577799797058105 L-0.09092362225055695,0.02655130624771118 L-0.0843709260225296,0.01900094747543335 L-0.07846678793430328,0.010933756828308105 L-0.0732773095369339,0.0023894309997558594 L-0.0688381940126419,-0.006567955017089844 L-0.06514872610569,-0.015859484672546387 L-0.06218172609806061,-0.025406837463378906 L-0.05988688766956329,-0.03513801097869873 L-0.05829383432865143,-0.04500532150268555 L-0.058177366852760315,-0.054998040199279785 L-0.05900527536869049,-0.06496137380599976 L-0.06049336493015289,-0.07484835386276245 L-0.06257440149784088,-0.08462786674499512 L-0.0652669221162796,-0.09425663948059082 L-0.06865127384662628,-0.1036636233329773 L-0.07288326323032379,-0.11271888017654419 L-0.07822312414646149,-0.12116235494613647 L-0.08506222069263458,-0.12842535972595215 L-0.09372933208942413,-0.1332961916923523 L-0.1036049872636795,-0.1342371106147766 L-0.1131366640329361,-0.13136154413223267 L-0.12165386974811554,-0.12615042924880981 L-0.1292331963777542,-0.11964422464370728 L-0.13545168936252594,-0.11183756589889526 L-0.13963718712329865,-0.1027868390083313 L-0.141290083527565,-0.09295427799224854 L-0.14047224819660187,-0.08300942182540894 L-0.1376810222864151,-0.07342034578323364 L-0.133458212018013,-0.06436383724212646 L-0.12821294367313385,-0.05585503578186035 L-0.12221963703632355,-0.04785341024398804 L-0.11566169559955597,-0.0403064489364624 L-0.10866136848926544,-0.033167123794555664 L-0.10130418837070465,-0.026395678520202637 L-0.09365035593509674,-0.019961059093475342 L-0.08574332296848297,-0.013840138912200928 L-0.07761730253696442,-0.008012950420379639 L-0.06929631531238556,-0.002467513084411621 L-0.06079818308353424,0.002802431583404541 L-0.05213828384876251,0.007802069187164307 L-0.04332752525806427,0.012530982494354248 L-0.034374430775642395,0.016984283924102783 L-0.02528531849384308,0.02115333080291748 L-0.016065433621406555,0.0250241756439209 L-0.006717875599861145,0.028575420379638672 L0.002753719687461853,0.03178095817565918 L0.012345954775810242,0.034604549407958984 L0.02205495536327362,0.036995768547058105 L0.031873032450675964,0.038887739181518555 L0.041786059737205505,0.04019021987915039 L0.051766082644462585,0.040778517723083496 L0.06175731122493744,0.04047715663909912 L0.0716472715139389,0.039045751094818115 L0.08121161162853241,0.03616797924041748 L0.09003601968288422,0.03150629997253418 L0.09765295684337616,0.025048017501831055 L0.10411779582500458,0.017434656620025635 L0.1090831607580185,0.00877302885055542 L0.11220185458660126,-0.0007092952728271484 L0.11333654820919037,-0.010628163814544678 L0.11260728538036346,-0.020588815212249756 L0.11028961837291718,-0.03030717372894287 L0.106684610247612,-0.039627909660339355 L0.10204868018627167,-0.048483312129974365 L0.09658007323741913,-0.05685138702392578 L0.09042517840862274,-0.06472945213317871 L0.08369116485118866,-0.07211929559707642 L0.0764562338590622,-0.07901978492736816 L0.06877921521663666,-0.08542495965957642 L0.06070326268672943,-0.0913192629814148 L0.052260324358940125,-0.09667468070983887 L0.04347781836986542,-0.10145235061645508 L0.03437952697277069,-0.10559666156768799 L0.024989888072013855,-0.10902899503707886 L0.015342339873313904,-0.11164742708206177 L0.005487844347953796,-0.11331993341445923 L-0.004490330815315247,-0.11388134956359863 L-0.014454856514930725,-0.11314374208450317 L-0.0241938978433609,-0.11092227697372437 L-0.03349246084690094,-0.10725867748260498 L-0.042357996106147766,-0.10264301300048828 L-0.05062396824359894,-0.09702706336975098 L-0.05805863440036774,-0.0903521180152893 L-0.06440992653369904,-0.08264124393463135 L-0.06946153938770294,-0.07402342557907104 L-0.07309450209140778,-0.06471741199493408 L-0.07531394064426422,-0.05497550964355469 L-0.07622314989566803,-0.045023441314697266 L-0.07597334682941437,-0.03503155708312988 L-0.07472468912601471,-0.025113463401794434 L-0.07262255251407623,-0.01533973217010498 L-0.06978924572467804,-0.00575178861618042 L-0.06632478535175323,0.0036271214485168457 L-0.062309518456459045,0.012784183025360107 L-0.057807281613349915,0.021712064743041992 L-0.0528683215379715,0.030406177043914795 L-0.04753394424915314,0.038863539695739746 L-0.04183603823184967,0.04708051681518555 L-0.035800233483314514,0.05505263805389404 L-0.029446974396705627,0.06277424097061157 L-0.02279217541217804,0.07023745775222778 L-0.01584775745868683,0.07743215560913086 L-0.008623912930488586,0.08434593677520752 L-0.0011274367570877075,0.09096318483352661 L0.006637200713157654,0.09726375341415405 L0.01466582715511322,0.10322403907775879 L0.022955700755119324,0.1088150143623352 L0.0315043181180954,0.1140018105506897 L0.04030852019786835,0.11874157190322876 L0.04936276376247406,0.122982919216156 L0.05865798890590668,0.12666624784469604 L0.06817816197872162,0.12971961498260498 L0.07789747416973114,0.1320609450340271 L0.08777515590190887,0.13359946012496948 L0.09775100648403168,0.1342371106147766 L0.10774014890193939,0.13388192653656006 L0.11763264238834381,0.13245683908462524 L0.1272992044687271,0.12991803884506226 L0.13664071261882782,0.12636029720306396 L0.14557091891765594,0.12187081575393677 L0.15394504368305206,0.11641526222229004 L0.16161246597766876,0.11000537872314453 L0.16843928396701813,0.10270684957504272 L0.1743295043706894,0.09463310241699219 L0.1792401522397995,0.08592820167541504 L0.18317581713199615,0.07674020528793335 L0.18617866933345795,0.06720566749572754 L0.1883130818605423,0.057439327239990234 L0.1896504908800125,0.04753166437149048 L0.19026310741901398,0.037552475929260254 L0.19021476805210114,0.027554214000701904 L0.18956275284290314,0.017576932907104492 L0.1883552521467209,0.007651209831237793 L0.18663133680820465,-0.002197861671447754 L0.1844222992658615,-0.01194983720779419 L0.1817523092031479,-0.021585822105407715 L0.17863829433918,-0.03108757734298706 L0.17509017884731293,-0.0404360294342041 L0.1711113601922989,-0.04960930347442627 L0.16669861972332,-0.05858200788497925 L0.16184155642986298,-0.06732189655303955 L0.15652050077915192,-0.07578718662261963 L0.15070734918117523,-0.08392184972763062 L0.1443624347448349,-0.09164828062057495 L0.1374332457780838,-0.09885430335998535 L0.12985800206661224,-0.10537564754486084 L0.12157239019870758,-0.11096137762069702 L0.11254589259624481,-0.11523658037185669 L0.10286913812160492,-0.11767745018005371 L0.09289775788784027,-0.11772847175598145 L0.0832660049200058,-0.11515134572982788 L0.07455866038799286,-0.11027806997299194">
  </path>
</svg>