<svg width="800" height="800" viewBox="-0.5371573734283447 -0.27007697701454164 1.0743147468566894 0.5401539540290833" xmlns="http://www.w3.org/2000/svg" xmlns:xlink="http://www.w3.org/1999/xlink"><defs><clipPath id="circle" clipPathUnits="objectBoundingBox"><circle cx=".5" cy=".5" r=".5" /></clipPath></defs><g transform="scale(1.0 -1.0)"><path stroke-width="0.0144" stroke="#050505" color_index="0" style="fill: none;stroke-linejoin: round;stroke-linecap: round;" d="M-0.5196573734283447,0.03585556149482727 L-0.5111039280891418,0.0410330593585968 L-0.5024603009223938,0.04606178402900696 L-0.49381667375564575,0.051090508699417114 L-0.4850521683692932,0.05590406060218811 L-0.47626155614852905,0.0606711208820343 L-0.4674709439277649,0.0654381811618805 L-0.4585825204849243,0.07001689076423645 L-0.4496263265609741,0.07446518540382385 L-0.44065791368484497,0.07888725399971008 L-0.4315081238746643,0.08292225003242493 L-0.4223111867904663,0.08684077858924866 L-0.4129289388656616,0.09030094742774963 L-0.40330779552459717,0.09301283955574036 L-0.3933958411216736,0.09341219067573547 L-0.3887677788734436,0.08540263772010803 L-0.38677966594696045,0.07560339570045471 L-0.3843145966529846,0.06591203808784485 L-0.3816046118736267,0.056289345026016235 L-0.37866348028182983,0.04673174023628235 L-0.37534916400909424,0.03729882836341858 L-0.3719138503074646,0.027908354997634888 L-0.368058443069458,0.018681436777114868 L-0.36402761936187744,0.009533077478408813 L-0.3597065806388855,0.0005148947238922119 L-0.3550245761871338,-0.008318275213241577 L-0.35011065006256104,-0.017024248838424683 L-0.3448079824447632,-0.025502651929855347 L-0.3390858769416809,-0.03369995951652527 L-0.3329940438270569,-0.04162296652793884 L-0.32646840810775757,-0.049192875623703 L-0.3194485306739807,-0.05630776286125183 L-0.31188541650772095,-0.06284162402153015 L-0.3037523925304413,-0.0686468780040741 L-0.29505622386932373,-0.07356187701225281 L-0.2858467102050781,-0.07742473483085632 L-0.27622053027153015,-0.08009245991706848 L-0.2662981450557709,-0.08123096823692322 L-0.25631508231163025,-0.0809955894947052 L-0.24644333124160767,-0.0794728696346283 L-0.23684149980545044,-0.07670745253562927 L-0.22759443521499634,-0.07290926575660706 L-0.2187758982181549,-0.06820264458656311 L-0.2104557454586029,-0.06266716122627258 L-0.20299255847930908,-0.05602666735649109 L-0.1965028941631317,-0.04843828082084656 L-0.19124186038970947,-0.03995445370674133 L-0.18743044137954712,-0.03072372078895569 L-0.18486040830612183,-0.02107176184654236 L-0.1834697723388672,-0.011175602674484253 L-0.18310841917991638,-0.0011852681636810303 L-0.18347382545471191,0.008806020021438599 L-0.1844172477722168,0.018761426210403442 L-0.18584492802619934,0.028658181428909302 L-0.18746936321258545,0.03852406144142151 L-0.1893007755279541,0.048354893922805786 L-0.19113218784332275,0.058185726404190063 L-0.1929636001586914,0.06801655888557434 L-0.19441556930541992,0.07790973782539368 L-0.19574987888336182,0.08781757950782776 L-0.19634655117988586,0.09779980778694153 L-0.19590052962303162,0.10778287053108215 L-0.19396764039993286,0.11757507920265198 L-0.18932759761810303,0.12618687748908997 L-0.18008893728256226,0.12968698143959045 L-0.17013004422187805,0.13039365410804749 L-0.1601572334766388,0.12972834706306458 L-0.15026485919952393,0.12827149033546448 L-0.14048412442207336,0.12618878483772278 L-0.13082516193389893,0.12360861897468567 L-0.1212817132472992,0.12063601613044739 L-0.11186102032661438,0.11729076504707336 L-0.10261654853820801,0.11347749829292297 L-0.09363457560539246,0.1090860664844513 L-0.08499085903167725,0.10406985878944397 L-0.07700785994529724,0.09807613492012024 L-0.07081589102745056,0.09030559659004211 L-0.06651952862739563,0.08127692341804504 L-0.06287392973899841,0.07196512818336487 L-0.05992087721824646,0.062411099672317505 L-0.057616084814071655,0.05268171429634094 L-0.05591733753681183,0.04282978177070618 L-0.054754987359046936,0.03290155529975891 L-0.05403555929660797,0.02293124794960022 L-0.05365036427974701,0.01293972134590149 L-0.05365212261676788,0.0029397308826446533 L-0.05380833148956299,-0.0070581138134002686 L-0.05408366024494171,-0.01705428957939148 L-0.054358989000320435,-0.02705046534538269 L-0.05463431775569916,-0.03704670071601868 L-0.054630085825920105,-0.04704555869102478 L-0.05454696714878082,-0.057045310735702515 L-0.05409747362136841,-0.06703051924705505 L-0.05333377420902252,-0.07699945569038391 L-0.0519709438085556,-0.08690610527992249 L-0.05005660653114319,-0.09671702980995178 L-0.047646328806877136,-0.1064176857471466 L-0.04227067530155182,-0.11403688788414001 L-0.03514176607131958,-0.10749301314353943 L-0.030155375599861145,-0.09883293509483337 L-0.02578553557395935,-0.0898388922214508 L-0.021619528532028198,-0.080748051404953 L-0.017453506588935852,-0.07165715098381042 L-0.0132874995470047,-0.06256625056266785 L-0.008850157260894775,-0.0536063015460968 L-0.004323393106460571,-0.044689565896987915 L0.0008032619953155518,-0.03610965609550476 L0.006755352020263672,-0.028088420629501343 L0.012111827731132507,-0.019677728414535522 L0.0156947523355484,-0.010351389646530151 L0.01836659014225006,-0.0007222592830657959 L0.020400479435920715,0.009063869714736938 L0.02198939025402069,0.018935471773147583 L0.02309034764766693,0.02887478470802307 L0.023881137371063232,0.038840800523757935 L0.024490803480148315,0.04882219433784485 L0.024644091725349426,0.058820873498916626 L0.02467682957649231,0.06881895661354065 L0.024379193782806396,0.0788145363330841 L0.023851051926612854,0.08879795670509338 L0.0230892151594162,0.09876886010169983 L0.021938785910606384,0.10870030522346497 L0.02057318389415741,0.11860409379005432 L0.018753215670585632,0.12843695282936096 L0.01643414795398712,0.13816037774085999 L0.013539791107177734,0.14772441983222961 L0.009808182716369629,0.15698936581611633 L0.004770487546920776,0.16559579968452454 L0.0033599287271499634,0.16621223092079163 L0.009831622242927551,0.15858855843544006 L0.01666240394115448,0.1512923538684845 L0.02409692108631134,0.14463046193122864 L0.03188876807689667,0.138362318277359 L0.0398758202791214,0.1323491632938385 L0.047953635454177856,0.12645438313484192 L0.05629467964172363,0.12093952298164368 L0.06472787261009216,0.11557021737098694 L0.07335595786571503,0.11051467061042786 L0.08215777575969696,0.10577467083930969 L0.09104127436876297,0.10118356347084045 L0.09983624517917633,0.0964302122592926 L0.10822857916355133,0.09099796414375305 L0.11617904156446457,0.08493712544441223 L0.12367485463619232,0.07832053303718567 L0.13072775304317474,0.07123115658760071 L0.1373191773891449,0.06371131539344788 L0.1435643434524536,0.05590441823005676 L0.14960843324661255,0.047939449548721313 L0.15539318323135376,0.03978291153907776 L0.161137655377388,0.031597644090652466 L0.1668822169303894,0.02341213822364807 L0.17274415493011475,0.015312820672988892 L0.1788160502910614,0.00736728310585022 L0.18512360751628876,-0.0003845393657684326 L0.1918134242296219,-0.007813185453414917 L0.19898894429206848,-0.014778107404708862 L0.20671004056930542,-0.02113291621208191 L0.21493352949619293,-0.02682134509086609 L0.22365106642246246,-0.03171733021736145 L0.23277604579925537,-0.03580048680305481 L0.2422216236591339,-0.039072781801223755 L0.25189483165740967,-0.04160359501838684 L0.26174718141555786,-0.04330834746360779 L0.2716931402683258,-0.04429653286933899 L0.2816864252090454,-0.0444054901599884 L0.2916194200515747,-0.04334476590156555 L0.30125322937965393,-0.04073438048362732 L0.31012240052223206,-0.03621205687522888 L0.31729215383529663,-0.02932879328727722 L0.32177889347076416,-0.02046021819114685 L0.32352542877197266,-0.010647624731063843 L0.32300853729248047,-0.0006774365901947021 L0.32111984491348267,0.009131461381912231 L0.31740179657936096,0.018353134393692017 L0.3115632236003876,0.02645006775856018 L0.3048141896724701,0.03382578492164612 L0.2976641058921814,0.040815263986587524 L0.29040175676345825,0.04768982529640198 L0.2831393778324127,0.05456438660621643 L0.276364266872406,0.06191876530647278 L0.2732292115688324,0.07078006863594055 L0.28250619769096375,0.07368627190589905 L0.29243898391723633,0.07484474778175354 L0.3023717999458313,0.07600310444831848 L0.31230443716049194,0.07716158032417297 L0.32223713397979736,0.07831993699073792 L0.3321698009967804,0.07947829365730286 L0.3421024680137634,0.08063676953315735 L0.35207435488700867,0.08136096596717834 L0.3620538115501404,0.08200135827064514 L0.37203940749168396,0.08250036835670471 L0.3820369243621826,0.0827198326587677 L0.39203399419784546,0.08278694748878479 L0.4020298719406128,0.08250108361244202 L0.4120018184185028,0.08181145787239075 L0.42192816734313965,0.08065536618232727 L0.4317305088043213,0.07872560620307922 L0.44123101234436035,0.07565787434577942 L0.45031803846359253,0.07149198651313782 L0.4590334892272949,0.06659737229347229 L0.46730077266693115,0.06098058819770813 L0.47504833340644836,0.05466774106025696 L0.48221489787101746,0.04770341515541077 L0.48875364661216736,0.040147215127944946 L0.4946344494819641,0.0320684015750885 L0.4998447597026825,0.02354148030281067 L0.5043884515762329,0.014640957117080688 L0.5082836151123047,0.005436927080154419 L0.5115587711334229,-0.004006713628768921 L0.5142500400543213,-0.013635486364364624 L0.5163543224334717,-0.023411720991134644 L0.5178627967834473,-0.033296018838882446 L0.5188888311386108,-0.04323914647102356 L0.5194742679595947,-0.05321773886680603 L0.5196573734283447,-0.06321409344673157 L0.5193238854408264,-0.07320848107337952 L0.5185778737068176,-0.0831775963306427 L0.5175096392631531,-0.09311708807945251 L0.516071081161499,-0.10301294922828674 L0.5141721963882446,-0.11282941699028015 L0.5120012164115906,-0.12258747220039368 L0.5095124244689941,-0.13227280974388123 L0.5065659284591675,-0.14182743430137634 L0.5033637285232544,-0.1512971818447113 L0.49985527992248535,-0.16066160798072815 L0.49588555097579956,-0.1698385775089264 L0.4916420578956604,-0.1788894236087799 L0.4871053397655487,-0.1878005564212799 L0.482071191072464,-0.1964411437511444 L0.4766990840435028,-0.20487061142921448 L0.47097134590148926,-0.21306201815605164 L0.464851975440979,-0.22096893191337585 L0.45825517177581787,-0.2284843623638153 L0.4511820673942566,-0.235550194978714 L0.44339245557785034,-0.24177482724189758 L0.4344344437122345,-0.24617549777030945 L0.4248344302177429,-0.2489202916622162 L0.4149591326713562,-0.250434547662735 L0.40498438477516174,-0.251033216714859 L0.394991010427475,-0.2509123384952545 L0.38501760363578796,-0.2502380907535553 L0.37507766485214233,-0.2491423785686493 L0.36521100997924805,-0.2475149929523468 L0.3553917407989502,-0.24563881754875183 L0.34561559557914734,-0.2435341775417328 L0.33592700958251953,-0.24106237292289734 L0.32625612616539,-0.23851880431175232 L0.3166879713535309,-0.2356111705303192 L0.3071248531341553,-0.23268857598304749 L0.2976691722869873,-0.22943392395973206 L0.2882137894630432,-0.2261793315410614 L0.27886146306991577,-0.222640722990036 L0.26952284574508667,-0.21906432509422302 L0.2602560222148895,-0.21530917286872864 L0.2510397732257843,-0.2114281952381134 L0.2418494075536728,-0.20748862624168396 L0.23276342451572418,-0.2033120095729828 L0.223677396774292,-0.19913539290428162 L0.2147015780210495,-0.19472917914390564 L0.20575766265392303,-0.19025668501853943 L0.19687676429748535,-0.1856631338596344 L0.18809272348880768,-0.1808837354183197 L0.17933450639247894,-0.17605891823768616 L0.17073853313922882,-0.17094895243644714 L0.16216203570365906,-0.1658078134059906 L0.15379732847213745,-0.1603274643421173 L0.14552119374275208,-0.15471920371055603 L0.1374552845954895,-0.1488083302974701 L0.12971730530261993,-0.14247944951057434 L0.12241731584072113,-0.13565751910209656 L0.11608906835317612,-0.12795057892799377 L0.1121961697936058,-0.11878302693367004 L0.11070951074361801,-0.10891887545585632 L0.1105600893497467,-0.09892717003822327 L0.11077044159173965,-0.0889294445514679 L0.11039304733276367,-0.0789429247379303 L0.10854785889387131,-0.06915232539176941 L0.10375765711069107,-0.06052079796791077 L0.09517358988523483,-0.055593401193618774 L0.0853189155459404,-0.0540824830532074 L0.07539987564086914,-0.05507215857505798 L0.06605534255504608,-0.05847153067588806 L0.05866451561450958,-0.06502631306648254 L0.05353169143199921,-0.0735960304737091 L0.049129292368888855,-0.08257481455802917 L0.045169517397880554,-0.09175583720207214 L0.04142884910106659,-0.10102668404579163 L0.03798024356365204,-0.11041346192359924 L0.03484879434108734,-0.11990776658058167 L0.031884729862213135,-0.12945792078971863 L0.02945685386657715,-0.1391589343547821 L0.02738301455974579,-0.14893564581871033 L0.025857508182525635,-0.15881165862083435 L0.025207698345184326,-0.1687789261341095 L0.025935828685760498,-0.17873165011405945 L0.02961161732673645,-0.18792769312858582 L0.037748053669929504,-0.19353434443473816 L0.04694448411464691,-0.19743654131889343 L0.056520119309425354,-0.20029929280281067 L0.06633765995502472,-0.20218583941459656 L0.07626396417617798,-0.20339098572731018 L0.08623979240655899,-0.20407184958457947 L0.09623163938522339,-0.2044818103313446 L0.10622286796569824,-0.20489177107810974 L0.11620264500379562,-0.20548585057258606 L0.1261618435382843,-0.20638498663902283 L0.13603371381759644,-0.20794197916984558 L0.14574286341667175,-0.2102985680103302 L0.15516690909862518,-0.21361711621284485 L0.16437236964702606,-0.2175164520740509 L0.17381727695465088,-0.2207951843738556 L0.18337243795394897,-0.2237398326396942 L0.19295580685138702,-0.22659704089164734 L0.20253920555114746,-0.22945424914360046 L0.21205435693264008,-0.23251911997795105 L0.22148147225379944,-0.23585590720176697 L0.22931471467018127,-0.24151656031608582 L0.221180722117424,-0.2462005317211151 L0.21152469515800476,-0.2487768828868866 L0.20171278715133667,-0.2506818473339081 L0.19179539382457733,-0.25193628668785095 L0.18181680142879486,-0.2525757849216461 L0.17181698977947235,-0.2525769770145416 L0.16183510422706604,-0.25200608372688293 L0.15189416706562042,-0.2509610950946808 L0.14200419187545776,-0.24950596690177917 L0.13216808438301086,-0.2477039396762848 L0.12243881821632385,-0.2453923523426056 L0.1127713993191719,-0.24284610152244568 L0.10316245257854462,-0.24007603526115417 L0.09366526454687119,-0.23694881796836853 L0.08419229090213776,-0.23374679684638977 L0.07482950389385223,-0.23023489117622375 L0.06546899676322937,-0.22671499848365784 L0.056192547082901,-0.22298076748847961 L0.04694409668445587,-0.21917769312858582 L0.03772425651550293,-0.21530601382255554 L0.02850392460823059,-0.21143415570259094 L0.01928386092185974,-0.2075624167919159 L0.010063990950584412,-0.2036907970905304 L0.0008260160684585571,-0.19986197352409363 L-0.008532196283340454,-0.19635644555091858 L-0.018321380019187927,-0.1944362223148346 L-0.02830222249031067,-0.193960040807724 L-0.03829742968082428,-0.1941746175289154 L-0.048276543617248535,-0.19481948018074036 L-0.058255940675735474,-0.1954643428325653 L-0.06824779510498047,-0.1957392394542694 L-0.07822719216346741,-0.1954064667224884 L-0.08801251649856567,-0.19347676634788513 L-0.09637802839279175,-0.18818965554237366 L-0.10108581185340881,-0.17950084805488586 L-0.10220527648925781,-0.16957882046699524 L-0.10270774364471436,-0.1595917046070099 L-0.1035829484462738,-0.14963611960411072 L-0.10534951090812683,-0.1398164927959442 L-0.10946336388587952,-0.13079187273979187 L-0.11726438999176025,-0.12476691603660583 L-0.12682458758354187,-0.12190333008766174 L-0.1367368996143341,-0.12062469124794006 L-0.1466970145702362,-0.11972853541374207 L-0.15659469366073608,-0.11836400628089905 L-0.1660996675491333,-0.11545082926750183 L-0.17322838306427002,-0.10868129134178162 L-0.17564988136291504,-0.09907236695289612 L-0.17433100938796997,-0.08923843502998352 L-0.1698051393032074,-0.08037325739860535 L-0.1633802056312561,-0.07274189591407776 L-0.1558656096458435,-0.06616052985191345 L-0.14773863554000854,-0.0603460967540741 L-0.13920724391937256,-0.05514064431190491 L-0.1304073929786682,-0.05039903521537781 L-0.12142840027809143,-0.046001821756362915 L-0.11228176951408386,-0.04195961356163025 L-0.10303360223770142,-0.03815951943397522 L-0.09370303153991699,-0.034564048051834106 L-0.08433219790458679,-0.031073778867721558 L-0.0749056339263916,-0.027750521898269653 L-0.06503447890281677,-0.026257604360580444 L-0.055079251527786255,-0.025420159101486206 L-0.05850893259048462,-0.025302976369857788 L-0.0685073733329773,-0.025113791227340698 L-0.07849404215812683,-0.024653881788253784 L-0.08847430348396301,-0.024020403623580933 L-0.09840857982635498,-0.022888153791427612 L-0.10828268527984619,-0.021342486143112183 L-0.11801964044570923,-0.01910671591758728 L-0.12743261456489563,-0.015776127576828003 L-0.13565608859062195,-0.010191172361373901 L-0.13855886459350586,-0.0009971559047698975 L-0.13431227207183838,0.007926732301712036 L-0.1272909939289093,0.01501646637916565 L-0.1193574070930481,0.021089226007461548 L-0.1109098494052887,0.02643147110939026 L-0.1021493673324585,0.03124561905860901 L-0.09319093823432922,0.03568020462989807 L-0.0840960443019867,0.03983762860298157 L-0.07480713725090027,0.04354003071784973 L-0.06545403599739075,0.047071367502212524 L-0.055998846888542175,0.05032649636268616 L-0.046452417969703674,0.053295403718948364 L-0.036857157945632935,0.056113630533218384 L-0.027155473828315735,0.058532267808914185 L-0.017424941062927246,0.06083264946937561 L-0.007606446743011475,0.06272819638252258 L0.0022532641887664795,0.0643778145313263 L0.0121573805809021,0.06575873494148254 L0.02212005853652954,0.06661167740821838 L0.03210227191448212,0.06713560223579407 L0.042087674140930176,0.0676133930683136 L0.052056342363357544,0.06840112805366516 L0.06202523410320282,0.06918731331825256 L0.07201885432004929,0.06953826546669006 L0.08201082795858383,0.06970277428627014 L0.09196654707193375,0.0689038336277008 L0.10133865475654602,0.06577923893928528 L0.10048762708902359,0.05794587731361389 L0.09144227206707001,0.053733617067337036 L0.08182547241449356,0.05100741982460022 L0.07203447073698044,0.048983603715896606 L0.06213505566120148,0.047570616006851196 L0.052163153886795044,0.046829015016555786 L0.04216906428337097,0.046778351068496704 L0.0322166383266449,0.04767659306526184 L0.02267661690711975,0.050562769174575806 L0.0159328430891037,0.05748370289802551 L0.017586082220077515,0.06708899140357971 L0.023864269256591797,0.07481196522712708 L0.030513420701026917,0.08228090405464172 L0.03716285526752472,0.08975008130073547 L0.043812692165374756,0.09721973538398743 L0.05040273070335388,0.1047392189502716 L0.05694997310638428,0.11229828000068665 L0.06349726021289825,0.11985734105110168 L0.07004452496767044,0.12741640210151672 L0.07659100741147995,0.13497450947761536 L0.08313827216625214,0.1425335705280304 L0.08965709805488586,0.1501162350177765 L0.0959579274058342,0.15788128972053528 L0.10225842893123627,0.16564598679542542 L0.10837889462709427,0.17354777455329895 L0.11382627487182617,0.18189767003059387 L0.10632278770208359,0.1843126118183136 L0.09650568664073944,0.18253293633460999 L0.08698265254497528,0.17950716614723206 L0.07770654559135437,0.1757834255695343 L0.0685742050409317,0.1717105209827423 L0.05959315598011017,0.1673159897327423 L0.05062238872051239,0.16289594769477844 L0.04161226749420166,0.15856531262397766 L0.03216642141342163,0.1555408537387848 L0.03534732758998871,0.16375401616096497 L0.04314437508583069,0.16996672749519348 L0.051760077476501465,0.17503085732460022 L0.060707077383995056,0.17949381470680237 L0.06979379057884216,0.18366947770118713 L0.07887965440750122,0.18784478306770325 L0.0829407349228859,0.192681223154068 L0.07294676452875137,0.19262245297431946 L0.06294898688793182,0.192400723695755 L0.05295217037200928,0.1921791136264801 L0.042954400181770325,0.19195738434791565 L0.03295674920082092,0.19173577427864075 L0.022956550121307373,0.19168010354042053 L0.012957289814949036,0.1916656792163849 L0.002957552671432495,0.1916513741016388 L-0.007040679454803467,0.19168570637702942 L-0.01606425642967224,0.19377663731575012 L-0.017180010676383972,0.20370295643806458 L-0.017218098044395447,0.2136956751346588 L-0.016494914889335632,0.22366860508918762 L-0.015999257564544678,0.23364630341529846 L-0.017777621746063232,0.24335291981697083 L-0.02517203986644745,0.2496890127658844 L-0.03486490249633789,0.25197532773017883 L-0.04484133422374725,0.2525769770145416"></path><path stroke-width="0.0144" stroke="#050505" color_index="0" style="fill: none;stroke-linejoin: round;stroke-linecap: round;" d="M0.18288373947143555,0.20775392651557922 L0.1828089952468872,0.1977541744709015 L0.18273425102233887,0.1877545416355133 L0.18265952169895172,0.17775478959083557 L0.18284399807453156,0.1677573025226593 L0.1830904483795166,0.15776029229164124 L0.1834695041179657,0.14777031540870667 L0.18427516520023346,0.1378028690814972 L0.1854577362537384,0.12787845730781555 L0.1871643364429474,0.11803236603736877 L0.18974444270133972,0.10838273167610168 L0.19364924728870392,0.0991998016834259 L0.20081648230552673,0.09277322888374329 L0.2101300209760666,0.09561124444007874 L0.21778219938278198,0.10202255845069885 L0.2248062789440155,0.10913577675819397 L0.23168599605560303,0.11639323830604553 L0.2387397587299347,0.12347462773323059 L0.24621638655662537,0.13009658455848694 L0.25478726625442505,0.135163813829422 L0.26419922709465027,0.13851717114448547 L0.27385255694389343,0.14110305905342102 L0.28364527225494385,0.14310505986213684 L0.2935330867767334,0.14458468556404114 L0.30349627137184143,0.1454421579837799 L0.3134930431842804,0.14558842778205872 L0.3234636187553406,0.14488473534584045 L0.33320245146751404,0.14268675446510315"></path><path stroke-width="0.0144" stroke="#050505" color_index="0" style="fill: none;stroke-linejoin: round;stroke-linecap: round;" d="M0.2381901741027832,0.019413143396377563 L0.22819018363952637,0.019413143396377563 L0.21819017827510834,0.019413143396377563 L0.2081901729106903,0.019413143396377563"></path></g></svg>