<svg width="800" height="800" viewBox="-0.5371573734283447 -0.27007697701454164 1.0743147468566894 0.5401539540290833" xmlns="http://www.w3.org/2000/svg"><g stroke-width=".014" stroke="#050505" fill="none" stroke-linejoin="round" stroke-linecap="round"><path d="M-.52-.036l.01-.004.009-.005.008-.005.009-.005.009-.005.009-.004.008-.005.01-.004.008-.005.01-.004.009-.004.01-.003.009-.003h.01l.004.008.002.01.003.01.002.009.003.01.004.009.003.01.004.008.004.01.004.008.005.01.005.008.005.009.006.008.006.008.007.007.007.007.007.007.008.006.009.005.01.003.009.003.01.001h.01l.01-.002.01-.002.008-.004.01-.005.008-.005.007-.007.006-.008L-.19.04l.004-.01.002-.009.002-.01v-.02l-.001-.01-.002-.01-.001-.01-.002-.01-.002-.01-.002-.009-.001-.01-.002-.01v-.02l.002-.01.005-.008.009-.004h.02l.01.002.01.002.01.002.009.003.01.004.008.004.01.004.008.005.008.006.006.008.004.009.004.009.003.01.002.01.002.01.001.01.001.01v.098l.002.01.002.01.002.01.006.007.007-.007L-.03.1l.004-.01.004-.008.005-.01.004-.008.004-.01.005-.008L0 .036.007.028.012.02.016.01.018 0 .02-.01l.002-.009.001-.01v-.01l.001-.01v-.05l-.002-.01-.001-.01-.002-.01-.003-.01-.002-.009L.01-.157.005-.166H.003L.01-.16l.007.008.007.006.008.007.008.006.008.006.008.005.009.005.008.005.01.005L.09-.1l.01.004.008.005.008.006.008.007.007.007.006.007.007.008.006.008.005.008.006.008.006.009.006.008.006.008L.185 0l.007.008.007.007.008.006.008.006.009.005.009.004.01.003.009.003.01.001.01.001h.02L.302.04.31.036.317.03.322.02.324.01.323 0 .321-.01.317-.017.312-.026.305-.034.298-.04.29-.048.283-.055.276-.062.273-.07l.01-.003h.01l.01-.002.01-.001.01-.001.01-.001.01-.002h.01l.01-.001h.049l.01.001.01.002.01.003.008.005.009.004.008.006.008.006.007.007.007.008.006.008.005.008.004.01.004.009.004.009.002.01.002.01.002.01v.01l.001.01v.03l-.001.01-.002.009-.002.01-.002.01-.002.01-.003.009-.004.01L.5.16.496.17.492.179.487.188.482.196.477.205.47.213.465.221.458.228.451.236.443.242.434.246.424.25H.416l-.01.001h-.02L.375.248h-.01L.355.246.345.244.336.24H.327L.316.236.308.233.297.229.289.226.278.223.27.219.26.215.251.211.241.207.234.203.223.2.216.195.205.19.198.186.188.18.18.176.171.171.162.166.154.16.146.155.137.149.13.142.122.136.116.128.112.118.111.109v-.03L.108.07.104.061.095.056.085.054l-.01.001-.009.003L.06.065.054.074.049.083.045.092.041.1.038.11.035.12.032.13.029.14.027.148l-.001.01v.02l.004.01.008.006.009.003.01.003.01.002.01.001.01.001h.02l.01.001.01.001.009.002.01.002.01.004.008.004.01.003.01.003.009.003.01.002.01.004.008.003.008.006-.008.004-.01.003-.01.002h-.01l-.01.002h-.01L.162.252.152.251.143.25.132.248.122.245.112.243.104.24.093.237.085.234.074.23.066.227.056.223.046.219.039.215.028.211.02.208.01.204 0 .2-.008.196l-.01-.002h-.03l-.01.001h-.02L-.087.193-.096.188-.101.18-.102.17V.16L-.105.15V.14L-.11.13-.117.126l-.01-.003-.01-.001-.01-.001-.01-.002-.01-.003L-.172.11-.175.1l.002-.01.003-.01.007-.007.007-.007.008-.006.009-.005L-.13.05l.009-.004.009-.004.009-.004.01-.003.009-.004.01-.003.009-.002h.01-.014l-.01-.001-.01-.001-.01-.001-.01-.002L-.117.02l-.01-.003L-.135.01-.139.001l.005-.009.007-.007.008-.006.008-.005.009-.005.009-.005.009-.004.01-.004.009-.003.009-.003.01-.003.01-.003.009-.003.01-.002.01-.002.01-.001.01-.002h.01l.01-.001h.01l.01-.001.009-.001h.03l.01.003L.1-.058l-.009.004-.01.003-.009.002-.01.001-.01.001h-.02l-.01-.004-.006-.006.002-.01.006-.008.007-.007.006-.008.007-.007.006-.008.007-.007.006-.008.007-.007.007-.008.006-.008L.09-.15l.006-.008.006-.008.006-.008.006-.008-.008-.002-.01.001-.009.003-.01.004-.008.004-.01.005-.008.004-.01.004-.009.003.003-.008.008-.006.009-.005.009-.004.009-.005.009-.004.004-.005h-.03l-.01.001h-.05l-.01-.002v-.03l.001-.01-.002-.01-.007-.006-.01-.002h-.01"/><path d="M.183-.208v.06l.001.01.001.01.002.01.003.01.004.009.007.006.01-.003.007-.006.007-.007.007-.007.007-.007.007-.007.009-.005.01-.004.009-.002.01-.002.01-.002h.03l.01.002M.238-.02h-.03"/></g></svg>