<svg width="800" height="800" viewBox="-0.41513047546148296 -0.30970262169837953 0.8302609509229659 0.6194052433967591" xmlns="http://www.w3.org/2000/svg" xmlns:xlink="http://www.w3.org/1999/xlink"><defs><clipPath id="circle" clipPathUnits="objectBoundingBox"><circle cx=".5" cy=".5" r=".5" /></clipPath></defs><g transform="scale(1.0 -1.0)"><path stroke-width="0.0144" stroke="#050505" color_index="0" style="fill: none;stroke-linejoin: round;stroke-linecap: round;" d="M-0.3976304829120636,-0.034886330366134644 L-0.3878200948238373,-0.03294810652732849 L-0.37800976634025574,-0.031009942293167114 L-0.3681579530239105,-0.029295533895492554 L-0.3582964241504669,-0.027638763189315796 L-0.34841784834861755,-0.026084870100021362 L-0.33853933215141296,-0.02453097701072693 L-0.328660786151886,-0.022977203130722046 L-0.318782240152359,-0.021423310041427612 L-0.3089037239551544,-0.01986941695213318 L-0.29905375838279724,-0.01814708113670349 L-0.2892160415649414,-0.016352981328964233 L-0.27937832474708557,-0.014558762311935425 L-0.26958248019218445,-0.012559980154037476 L-0.25983095169067383,-0.010344594717025757 L-0.25011688470840454,-0.007980555295944214 L-0.24047988653182983,-0.005310744047164917 L-0.2309185266494751,-0.0023927390575408936 L-0.2214316725730896,0.0007695257663726807 L-0.21211189031600952,0.004389911890029907 L-0.202905535697937,0.008283644914627075 L-0.1938425600528717,0.012510091066360474 L-0.18505623936653137,0.017284661531448364 L-0.1764889657497406,0.022433429956436157 L-0.16817492246627808,0.027980834245681763 L-0.16014766693115234,0.033939510583877563 L-0.15247014164924622,0.040347009897232056 L-0.1452084481716156,0.0472199022769928 L-0.13832014799118042,0.054462820291519165 L-0.13181620836257935,0.06205156445503235 L-0.1256735622882843,0.06993928551673889 L-0.12003325670957565,0.07819321751594543 L-0.11465074867010117,0.08661940693855286 L-0.10974191874265671,0.09533169865608215 L-0.10527398437261581,0.10427394509315491 L-0.10127409547567368,0.11343267560005188 L-0.09783246368169785,0.12281492352485657 L-0.09505920857191086,0.1324155628681183 L-0.09308337420225143,0.14221039414405823 L-0.09204866737127304,0.15214648842811584 L-0.09210341423749924,0.16213396191596985 L-0.09338482469320297,0.17204001545906067 L-0.0962386354804039,0.18160775303840637 L-0.10053639858961105,0.19061818718910217 L-0.10627075284719467,0.1987859308719635 L-0.11329036206007004,0.20588698983192444 L-0.12121700495481491,0.21196356415748596 L-0.12987753748893738,0.21694675087928772 L-0.13903942704200745,0.2209397852420807 L-0.14851436018943787,0.22412028908729553 L-0.15819835662841797,0.22659888863563538 L-0.1680178940296173,0.22848692536354065 L-0.17793789505958557,0.22974923253059387 L-0.18790173530578613,0.23056045174598694 L-0.19788631796836853,0.2310798466205597 L-0.20788246393203735,0.23100760579109192 L-0.21784153580665588,0.23018839955329895 L-0.22770512104034424,0.22858253121376038 L-0.23742607235908508,0.22626367211341858 L-0.24697065353393555,0.22330120205879211 L-0.25631529092788696,0.2197568714618683 L-0.2654433250427246,0.21568408608436584 L-0.2743428349494934,0.21112731099128723 L-0.2829574644565582,0.20604899525642395 L-0.2912740111351013,0.2005005180835724 L-0.2993103861808777,0.19455745816230774 L-0.3070535659790039,0.18823698163032532 L-0.3144862651824951,0.1815502941608429 L-0.3215263783931732,0.1744484007358551 L-0.328142911195755,0.16695335507392883 L-0.33435508608818054,0.15912368893623352 L-0.34012243151664734,0.15096166729927063 L-0.3453957140445709,0.14247146248817444 L-0.35011735558509827,0.1336611807346344 L-0.3542226254940033,0.12454584240913391 L-0.3576413691043854,0.11515048146247864 L-0.3603014051914215,0.10551252961158752 L-0.3621334135532379,0.09568443894386292 L-0.3631006181240082,0.0857340395450592 L-0.36281338334083557,0.07575824856758118 L-0.35990044474601746,0.06622746586799622 L-0.3543635308742523,0.05793145298957825 L-0.3470190465450287,0.051180511713027954 L-0.3386901915073395,0.04566851258277893 L-0.32972580194473267,0.04124966263771057 L-0.32039913535118103,0.037647753953933716 L-0.3108581006526947,0.03465297818183899 L-0.30115723609924316,0.032227903604507446 L-0.2913738787174225,0.030172616243362427 L-0.28153884410858154,0.028372913599014282 L-0.2716422975063324,0.02693834900856018 L-0.26172152161598206,0.0256974995136261 L-0.25177597999572754,0.02465549111366272 L-0.24181419610977173,0.023798376321792603 L-0.23183906078338623,0.023094207048416138 L-0.22185882925987244,0.022480040788650513 L-0.21186766028404236,0.022060304880142212 L-0.2018764317035675,0.02164044976234436 L-0.19188052415847778,0.02136734127998352 L-0.18188300728797913,0.021145015954971313 L-0.17188423871994019,0.021000772714614868 L-0.16188475489616394,0.020902305841445923 L-0.1518852412700653,0.020803838968276978 L-0.14188572764396667,0.02070525288581848 L-0.13188615441322327,0.020606786012649536 L-0.1218867227435112,0.02050831913948059 L-0.11189534515142441,0.02010670304298401 L-0.10190495103597641,0.01966574788093567 L-0.09203540533781052,0.018294602632522583 L-0.0857657715678215,0.011074811220169067 L-0.08483465760946274,0.0011688768863677979 L-0.08567648380994797,-0.00878867506980896 L-0.08698015660047531,-0.018703430891036987 L-0.0879652127623558,-0.02864721417427063 L-0.08810671418905258,-0.03863963484764099 L-0.0879034623503685,-0.04863753914833069 L-0.08779188245534897,-0.05863657593727112 L-0.08775713294744492,-0.0686364471912384 L-0.08772241324186325,-0.07863637804985046 L-0.0876876637339592,-0.0886363685131073 L-0.08765291422605515,-0.09863635897636414 L-0.08756016939878464,-0.10863527655601501 L-0.08726298063993454,-0.11863085627555847 L-0.08696576207876205,-0.12862643599510193 L-0.086558036506176,-0.1386161744594574 L-0.08580168336629868,-0.14858755469322205 L-0.08493747562170029,-0.15854808688163757 L-0.0836917981505394,-0.16847017407417297 L-0.08219649642705917,-0.17835429310798645 L-0.08043021708726883,-0.1881970465183258 L-0.07818689197301865,-0.1979406177997589 L-0.07567719370126724,-0.20761671662330627 L-0.07282520085573196,-0.21720150113105774"></path><path stroke-width="0.0144" stroke="#050505" color_index="0" style="fill: none;stroke-linejoin: round;stroke-linecap: round;" d="M-0.23918500542640686,-0.12307766079902649 L-0.2293948531150818,-0.12103977799415588 L-0.2196047306060791,-0.1190018355846405 L-0.20981457829475403,-0.1169639527797699 L-0.20002442598342896,-0.11492601037025452 L-0.19023427367210388,-0.11288812756538391 L-0.1804441511631012,-0.11085018515586853 L-0.17073997855186462,-0.10844579339027405 L-0.16106519103050232,-0.1059163510799408 L-0.15142840147018433,-0.10325273871421814 L-0.14186522364616394,-0.1003294289112091 L-0.13233745098114014,-0.09729894995689392 L-0.12291403859853745,-0.09395238757133484 L-0.11355464905500412,-0.09043851494789124 L-0.10430287569761276,-0.08664306998252869 L-0.09518485516309738,-0.08254411816596985 L-0.08615007251501083,-0.07825914025306702 L-0.07735089212656021,-0.0735078752040863 L-0.06870455294847488,-0.06849196553230286 L-0.06022702902555466,-0.06319132447242737 L-0.05204456299543381,-0.05744257569313049 L-0.044140152633190155,-0.051323264837265015 L-0.03651273995637894,-0.04486408829689026 L-0.02919740229845047,-0.03805038332939148 L-0.022265248000621796,-0.030843108892440796 L-0.01579395681619644,-0.023221343755722046 L-0.009735070168972015,-0.015271753072738647 L-0.004110328853130341,-0.007010430097579956 L0.0010021105408668518,0.0015724003314971924 L0.004536814987659454,0.010898500680923462 L0.0062194690108299255,0.02074316143989563 L0.006747804582118988,0.030720621347427368 L0.006449662148952484,0.040711671113967896 L0.005712486803531647,0.05068269371986389 L0.004606135189533234,0.060621172189712524 L0.0034924373030662537,0.07055893540382385 L0.0023787394165992737,0.08049681782722473 L0.0016632750630378723,0.09047010540962219 L0.0011210814118385315,0.1004510223865509 L0.0013100430369377136,0.11044779419898987 L0.0025410428643226624,0.12036517262458801 L0.005096502602100372,0.1300162374973297 L0.009194917976856232,0.1391144096851349 L0.015258736908435822,0.14703825116157532 L0.022825665771961212,0.15352728962898254 L0.031506069004535675,0.15845754742622375 L0.04081117361783981,0.1620880663394928 L0.05029388517141342,0.16526272892951965 L0.05985915660858154,0.16816940903663635 L0.06948376446962357,0.1708836853504181 L0.07923658192157745,0.1730915606021881 L0.08905298262834549,0.17497530579566956 L0.09894296526908875,0.17642715573310852 L0.10890161246061325,0.17731431126594543 L0.11889904737472534,0.1774769127368927 L0.12886688113212585,0.17673125863075256 L0.13868312537670135,0.17487993836402893 L0.1481584757566452,0.1717337667942047 L0.1568981111049652,0.16693368554115295 L0.16447390615940094,0.1604415476322174 L0.17019683122634888,0.1522689163684845 L0.17400415241718292,0.14305666089057922 L0.17603982985019684,0.13328292965888977 L0.17649592459201813,0.12330630421638489 L0.1757177710533142,0.11334541440010071 L0.17400561273097992,0.1035013496875763 L0.17153240740299225,0.09381869435310364 L0.16844560205936432,0.08431199193000793 L0.16486673057079315,0.0749761164188385 L0.16077226400375366,0.06585267186164856 L0.15629202127456665,0.05691567063331604 L0.15154775977134705,0.04811611771583557 L0.14648933708667755,0.03948989510536194 L0.1411236673593521,0.031053930521011353 L0.13563776016235352,0.02269330620765686 L0.12932027876377106,0.01499667763710022 L0.12078265845775604,0.009903103113174438 L0.11124199628829956,0.0069630444049835205 L0.10135168582201004,0.005533844232559204 L0.09137189388275146,0.004964500665664673 L0.08137314766645432,0.004966050386428833 L0.07138554006814957,0.0054638683795928955 L0.061419256031513214,0.006261736154556274 L0.05146167427301407,0.007182270288467407 L0.041531242430210114,0.008358865976333618 L0.03160155564546585,0.009542614221572876 L0.021671883761882782,0.010726243257522583 L0.011736609041690826,0.011851459741592407 L0.0017629191279411316,0.012577205896377563"></path><path stroke-width="0.0144" stroke="#050505" color_index="0" style="fill: none;stroke-linejoin: round;stroke-linecap: round;" d="M-0.2541327178478241,0.1639179289340973 L-0.2599714994430542,0.15584591031074524 L-0.26253509521484375,0.14624634385108948 L-0.2615968585014343,0.13634982705116272 L-0.2578854262828827,0.12710168957710266 L-0.2521227300167084,0.11895301938056946 L-0.24494048953056335,0.11202958226203918 L-0.23664459586143494,0.1064782440662384 L-0.2274722456932068,0.10256567597389221 L-0.2176939845085144,0.10058513283729553 L-0.20774585008621216,0.10118427872657776 L-0.19832658767700195,0.10440757870674133 L-0.18973788619041443,0.10951092839241028 L-0.18188712000846863,0.11568084359169006 L-0.1751335859298706,0.12302437424659729 L-0.16996365785598755,0.13155940175056458 L-0.1669367551803589,0.14105072617530823 L-0.16648223996162415,0.1509878933429718 L-0.1689281165599823,0.16062286496162415 L-0.17420461773872375,0.1690453588962555 L-0.1817907989025116,0.17547455430030823 L-0.1908802092075348,0.17954781651496887 L-0.20071154832839966,0.18124988675117493 L-0.21068310737609863,0.18093577027320862 L-0.22048616409301758,0.17903569340705872 L-0.22999081015586853,0.17595556378364563"></path><path stroke-width="0.0144" stroke="#050505" color_index="0" style="fill: none;stroke-linejoin: round;stroke-linecap: round;" d="M0.05976865440607071,0.11608532071113586 L0.06165846437215805,0.10632255673408508 L0.06660716980695724,0.09767916798591614 L0.07355698943138123,0.09051540493965149 L0.08160900324583054,0.08461073040962219 L0.09036584943532944,0.07979944348335266 L0.0995396301150322,0.07583966851234436 L0.10900700092315674,0.07264235615730286 L0.11868534237146378,0.07015398144721985 L0.12851682305335999,0.06836298108100891 L0.1384539157152176,0.0673086941242218 L0.1484428346157074,0.06709399819374084 L0.1583976149559021,0.06790271401405334 L0.168156236410141,0.07001426815986633 L0.17711713910102844,0.07436886429786682 L0.1836412101984024,0.0817669928073883 L0.18550553917884827,0.0914936363697052 L0.18548832833766937,0.10148206353187561 L0.18426376581192017,0.11139515042304993 L0.1813495010137558,0.12094190716743469 L0.17684705555438995,0.12984886765480042 L0.17046275734901428,0.13751950860023499 L0.16267740726470947,0.1437467634677887 L0.15383316576480865,0.14837601780891418 L0.14432016015052795,0.1514003574848175 L0.13446402549743652,0.15301302075386047 L0.12448249757289886,0.15341618657112122 L0.11451975256204605,0.1526423990726471 L0.10472407937049866,0.15066877007484436 L0.09522081166505814,0.14759448170661926 L0.08618015795946121,0.14335349202156067 L0.07800279557704926,0.13764384388923645 L0.07131059467792511,0.13026896119117737 L0.06762740015983582,0.1210649311542511"></path><path stroke-width="0.0144" stroke="#050505" color_index="0" style="fill: none;stroke-linejoin: round;stroke-linecap: round;" d="M-0.23021641373634338,-0.12457242608070374 L-0.2202964425086975,-0.12568530440330505 L-0.2106837034225464,-0.1283857524394989 L-0.20157992839813232,-0.1325046718120575 L-0.19291898608207703,-0.13748875260353088 L-0.18465277552604675,-0.14310672879219055 L-0.17670467495918274,-0.14917060732841492 L-0.1690320372581482,-0.15558400750160217 L-0.16162416338920593,-0.16229942440986633 L-0.1543141007423401,-0.16912153363227844 L-0.14719465374946594,-0.17614391446113586 L-0.14009928703308105,-0.18319013714790344 L-0.13312950730323792,-0.19036105275154114 L-0.1261596977710724,-0.19753196835517883 L-0.11918988078832626,-0.20470288395881653 L-0.11222007125616074,-0.21187373995780945 L-0.10525026172399521,-0.21904465556144714 L-0.0981089398264885,-0.22604450583457947 L-0.09095599502325058,-0.2330327332019806 L-0.08380308002233505,-0.2400209605693817 L-0.0763615295290947,-0.246699720621109 L-0.0688910260796547,-0.25334736704826355 L-0.06110910326242447,-0.2596260607242584 L-0.05319441109895706,-0.26573213934898376 L-0.04502858966588974,-0.27150437235832214 L-0.03653135150671005,-0.2767728865146637 L-0.027754567563533783,-0.2815527617931366 L-0.018664829432964325,-0.28570184111595154 L-0.009258456528186798,-0.28906795382499695 L0.00044248253107070923,-0.29143431782722473 L0.010390348732471466,-0.2922026216983795 L0.02031984180212021,-0.2911736071109772 L0.02993857115507126,-0.2885098159313202 L0.03901933878660202,-0.28435179591178894 L0.04753206670284271,-0.2791248857975006 L0.05545835942029953,-0.2730382978916168 L0.06282638013362885,-0.2662822902202606 L0.06969478726387024,-0.2590181529521942 L0.07613827288150787,-0.25137564539909363 L0.08223665505647659,-0.24345538020133972 L0.08806733787059784,-0.23533275723457336 L0.0935424268245697,-0.2269648015499115 L0.09880858659744263,-0.21846643090248108 L0.10391764342784882,-0.20987001061439514 L0.10876616090536118,-0.20112523436546326 L0.1135556548833847,-0.19234684109687805 L0.1181522011756897,-0.18346646428108215 L0.12270388752222061,-0.17456242442131042 L0.1271093487739563,-0.16558519005775452 L0.1315096765756607,-0.1566053330898285 L0.1359100043773651,-0.14762553572654724 L0.14031033217906952,-0.13864567875862122 L0.1448209285736084,-0.12972262501716614 L0.14956757426261902,-0.12092098593711853"></path><path stroke-width="0.0144" stroke="#050505" color_index="0" style="fill: none;stroke-linejoin: round;stroke-linecap: round;" d="M0.008946515619754791,-0.1425096094608307 L0.01894063502550125,-0.14216670393943787 L0.028887934982776642,-0.14117810130119324 L0.03872070461511612,-0.13938364386558533 L0.04832972586154938,-0.1366327702999115 L0.057579562067985535,-0.13284710049629211 L0.0664374977350235,-0.12821945548057556 L0.07493171840906143,-0.12294992804527283 L0.08317375928163528,-0.1172875463962555 L0.09119440615177155,-0.1113152801990509 L0.09920930862426758,-0.10533520579338074 L0.10722421854734421,-0.09935513138771057 L0.11532362550497055,-0.09349170327186584 L0.12350573390722275,-0.08774253726005554 L0.13166756927967072,-0.08196476101875305 L0.13977058231830597,-0.07610544562339783 L0.14770592749118805,-0.07002070546150208 L0.15558600425720215,-0.06386402249336243 L0.16346608102321625,-0.05770733952522278 L0.17134614288806915,-0.051550716161727905 L0.17922621965408325,-0.04539403319358826 L0.18710628151893616,-0.039237409830093384 L0.19503018260002136,-0.03313794732093811 L0.20302453637123108,-0.02713039517402649 L0.2110188901424408,-0.021122902631759644 L0.21901322901248932,-0.015115350484848022 L0.2270343154668808,-0.009144634008407593 L0.23521888256072998,-0.003398984670639038 L0.24340344965457916,0.0023467838764190674 L0.25163424015045166,0.008024007081985474 L0.2600201368331909,0.013471633195877075 L0.2684060037136078,0.018919378519058228 L0.2769765257835388,0.02406945824623108 L0.28558143973350525,0.029164105653762817 L0.29438212513923645,0.033909231424331665 L0.3032528758049011,0.03852167725563049 L0.31234076619148254,0.04269436001777649 L0.32159730792045593,0.046465545892715454 L0.33104175329208374,0.04973068833351135 L0.34070464968681335,0.05226972699165344 L0.35057321190834045,0.053803712129592896 L0.36055612564086914,0.05400243401527405 L0.3703227639198303,0.05198267102241516 L0.37917807698249817,0.04746177792549133 L0.38625892996788025,0.04048171639442444 L0.3912898898124695,0.03188100457191467 L0.39451128244400024,0.02243056893348694 L0.3964741826057434,0.012634426355361938 L0.39743492007255554,0.0026840269565582275 L0.3976304829120636,-0.007312029600143433 L0.39726197719573975,-0.017301887273788452 L0.3965374231338501,-0.027272909879684448 L0.3952866792678833,-0.03719070553779602 L0.3934072256088257,-0.04700639843940735 L0.39095771312713623,-0.05669739842414856 L0.38814470171928406,-0.06629279255867004 L0.3849696218967438,-0.07577493786811829 L0.3817483186721802,-0.0852418839931488 L0.3785270154476166,-0.09470883011817932 L0.37552550435066223,-0.10424557328224182 L0.3726963698863983,-0.1138370931148529 L0.37031659483909607,-0.12354728579521179 L0.3680644929409027,-0.13328996300697327 L0.36608070135116577,-0.14309123158454895 L0.36424094438552856,-0.1529202163219452 L0.3624454736709595,-0.16275766491889954 L0.360649973154068,-0.17259517312049866 L0.3588545024394989,-0.18243268132209778 L0.35686320066452026,-0.19223102927207947 L0.3547392189502716,-0.20200291275978088 L0.3524695634841919,-0.21173861622810364 L0.34978243708610535,-0.22137078642845154 L0.3467145562171936,-0.23088428378105164 L0.3432975709438324,-0.24027833342552185 L0.3394293487071991,-0.24949988722801208"></path><path stroke-width="0.0144" stroke="#050505" color_index="0" style="fill: none;stroke-linejoin: round;stroke-linecap: round;" d="M0.2570780813694,0.12505391240119934 L0.2546835243701935,0.1347433626651764 L0.2508663535118103,0.14397695660591125 L0.2461395561695099,0.1527881920337677 L0.24086621403694153,0.16128471493721008 L0.23519334197044373,0.1695179045200348 L0.22928796708583832,0.1775846779346466 L0.2231852412223816,0.18550661206245422 L0.21682794392108917,0.19322434067726135 L0.2104182094335556,0.20089998841285706 L0.20375393331050873,0.20835545659065247 L0.19708207249641418,0.21580436825752258 L0.19017809629440308,0.22303834557533264 L0.1832595020532608,0.23025861382484436 L0.17588970065116882,0.23701372742652893 L0.1679132878780365,0.24304154515266418 L0.1595364212989807,0.24850264191627502 L0.15081661939620972,0.2533980906009674 L0.14187386631965637,0.25786688923835754 L0.13277286291122437,0.2620019018650055 L0.12355084717273712,0.2658689320087433 L0.11414873600006104,0.2692742645740509 L0.1046861782670021,0.2725004255771637 L0.09513183683156967,0.2754524052143097 L0.08549393713474274,0.2781107723712921 L0.07581666857004166,0.28063085675239563 L0.06604999303817749,0.2827740013599396 L0.05626865476369858,0.2848520576953888 L0.046409569680690765,0.2865249216556549 L0.03653956204652786,0.28812375664711 L0.026617281138896942,0.2893681824207306 L0.01668081432580948,0.29047468304634094 L0.00671318918466568,0.29127874970436096 L-0.0032674595713615417,0.29185691475868225 L-0.013261459767818451,0.2922026216983795 L-0.023259185254573822,0.2921929657459259 L-0.03325694054365158,0.29202285408973694 L-0.04323592036962509,0.2913748323917389 L-0.05319001525640488,0.29045823216438293 L-0.06311648339033127,0.2892508804798126 L-0.07295709103345871,0.2874726355075836 L-0.0827091857790947,0.2852807343006134 L-0.09233912080526352,0.28260722756385803 L-0.10179214924573898,0.27936115860939026 L-0.11098914593458176,0.2754475176334381 L-0.11982297152280807,0.2707740366458893 L-0.12815669178962708,0.26526322960853577 L-0.1358272135257721,0.2588665783405304 L-0.14265593886375427,0.25157907605171204 L-0.1483660638332367,0.24338796734809875 L-0.15273776650428772,0.23440995812416077 L-0.15582820773124695,0.22491398453712463 L-0.15753090381622314,0.21507206559181213 L-0.15794691443443298,0.20508995652198792 L-0.15731877088546753,0.19511917233467102 L-0.15578609704971313,0.18524566292762756 L-0.15349087119102478,0.17551997303962708 L-0.15056684613227844,0.1659628450870514 L-0.1471337378025055,0.1565735638141632 L-0.1432190239429474,0.14737167954444885 L-0.1389159858226776,0.13835099339485168 L-0.1301409900188446,0.1345321238040924 L-0.12019210308790207,0.1352006494998932 L-0.11039381474256516,0.1371627151966095 L-0.10073482245206833,0.13973644375801086 L-0.0911649689078331,0.14263668656349182 L-0.08172666281461716,0.14594116806983948 L-0.07231680303812027,0.1493225395679474 L-0.06299784034490585,0.15294960141181946 L-0.05367925018072128,0.15657785534858704 L-0.04446382075548172,0.16046050190925598 L-0.035248421132564545,0.16434326767921448 L-0.026060186326503754,0.16828861832618713 L-0.01693487912416458,0.17237868905067444 L-0.007809586822986603,0.17646875977516174 L0.0013024881482124329,0.18058767914772034 L0.010348610579967499,0.18485000729560852 L0.019394762814044952,0.1891123354434967 L0.028440900146961212,0.1933746635913849 L0.037432633340358734,0.1977502405643463 L0.0464111790060997,0.20215311646461487"></path><path stroke-width="0.0144" stroke="#050505" color_index="0" style="fill: none;stroke-linejoin: round;stroke-linecap: round;" d="M-0.05532851070165634,0.2401510775089264 L-0.05417310446500778,0.2302267849445343 L-0.05232302099466324,0.22040405869483948 L-0.05011387914419174,0.21065202355384827 L-0.04732174426317215,0.20104971528053284 L-0.044031642377376556,0.191613107919693 L-0.039964862167835236,0.1824909746646881 L-0.034251026809215546,0.17436078190803528"></path><path stroke-width="0.0144" stroke="#050505" color_index="0" style="fill: none;stroke-linejoin: round;stroke-linecap: round;" d="M-0.04934944957494736,0.24463537335395813 L-0.03934944421052933,0.24463537335395813 L-0.02934945374727249,0.24463537335395813 L-0.01934944838285446,0.24463537335395813 L-0.009349457919597626,0.24463537335395813 L0.000650547444820404,0.24463537335395813 L0.010650552809238434,0.24463537335395813 L0.02065054327249527,0.24463537335395813 L0.0306505486369133,0.24463537335395813"></path></g></svg>