<svg width="800" height="800" viewBox="-0.41513047546148296 -0.30970262169837953 0.8302609509229659 0.6194052433967591" xmlns="http://www.w3.org/2000/svg"><g stroke-width=".014" stroke="#050505" fill="none" stroke-linejoin="round" stroke-linecap="round"><path d="M-.398.035l.01-.002.01-.002.01-.002.01-.001.01-.002.01-.001.01-.002.01-.002.01-.001L-.3.018l.01-.002.01-.001.01-.002.01-.003.009-.002.01-.003.01-.003L-.222 0l.009-.003.01-.004.008-.005.009-.004.009-.005.008-.006.008-.006.008-.006.007-.007.007-.007.006-.008.006-.008.006-.008.005-.009.005-.008.005-.01.004-.008.003-.01.003-.01.002-.01.001-.01v-.01l-.001-.009-.003-.01-.005-.009-.005-.008-.007-.007-.008-.006-.009-.005L-.14-.22l-.01-.003-.01-.003-.009-.001-.01-.002h-.01l-.01-.001h-.02l-.01.002-.01.003-.009.003-.01.003-.008.004-.01.005-.008.005-.008.005-.008.006-.008.007-.007.006-.008.008-.006.007-.006.008-.006.008-.005.009-.005.008-.004.01-.004.009-.002.01-.002.01-.001.01v.01l.003.009.006.008.007.007.008.005.01.005.009.003.01.003.009.003.01.002.01.002.01.001.01.001.01.001.01.001h.01l.01.002h.04l.01.001h.06l.01.001.009.002.006.007.001.01v.01l-.002.01-.001.01v.09l.001.01v.01l.001.01.001.01.001.01.002.01.002.01.002.009.002.01.003.01"/><path d="M-.24.123l.01-.002.01-.002.01-.002.01-.002.01-.002.01-.002.01-.003.009-.002.01-.003.01-.003.009-.003.01-.003.008-.004.01-.003.009-.004.009-.005.009-.004.008-.006.009-.005.008-.006.008-.006.007-.006.008-.007.007-.007.006-.008.006-.008.006-.008L0-.002.005-.01l.001-.01v-.03L.005-.06.003-.07v-.01L.001-.09v-.03l.005-.01.004-.01.006-.007.008-.007.009-.004.009-.004.01-.003.009-.003.01-.003.01-.002.01-.002L.1-.176l.01-.001h.02l.01.002.01.003.008.005.007.007.006.008.004.009.002.01v.02l-.002.01-.002.01-.004.009-.003.009-.004.01-.005.008-.004.009-.006.009-.005.008-.005.008-.007.008-.008.005-.01.003-.01.001-.01.001h-.02l-.01-.001-.01-.001-.01-.001-.01-.002h-.01l-.01-.002h-.01m-.256-.152l-.006.008-.003.01.001.01.004.009.006.008.007.007.008.006.01.003.01.002h.01l.009-.003.008-.006.008-.006.007-.007.005-.009.003-.01V-.15l-.002-.01-.005-.008-.008-.006L-.19-.18h-.02l-.01.002-.009.003"/><path d="M.06-.116l.002.01.005.008.007.007.008.006.008.005.01.004.009.003.01.003.01.002h.03l.01-.002.008-.004.007-.008.002-.01v-.01l-.002-.01L.181-.12.177-.13.17-.138.163-.144l-.01-.004-.009-.003-.01-.002h-.02l-.01.002-.009.003-.009.005-.008.005-.007.008-.003.009M-.23.125h.01l.01.003.008.005.01.004.007.006.008.006.008.007.007.006.008.007.007.007.007.007.007.007.007.008.007.007.007.007.007.007.007.007.007.007.007.007.008.007.007.006.008.007.008.006.008.006.008.005.01.005.008.004.01.003.01.002.01.001h.01L.03.288.039.284.048.28.055.273.063.266.07.26.076.251.082.243.088.235.094.227.099.218.104.21.109.2.114.192.118.183.123.175l.004-.01.005-.008.004-.01L.14.14.145.13.15.122"/><path d="M.009.143h.01L.029.14h.01l.01-.002.009-.004.008-.005.009-.005.008-.006.008-.006L.1.105.107.1.115.093.124.088.132.082.14.076.148.07.156.064.163.058.171.052.18.045.187.04.195.033.203.027.211.021.219.015.227.01.235.003l.008-.005.009-.006.008-.005.008-.006.009-.005.009-.005.008-.005.01-.005.008-.004.01-.003L.33-.05l.01-.002.01-.002h.01l.01.002.008.005.007.007.005.008.004.01.001.01.001.01v.03l-.002.01-.002.009-.002.01-.003.01-.003.009-.003.01-.003.009-.003.01-.003.009-.003.01-.002.01-.002.01-.002.009-.002.01-.001.01-.002.01-.002.01-.002.009-.003.01-.002.01L.347.23.343.24.34.248M.257-.125l-.002-.01L.25-.144.246-.153.241-.16.235-.17.23-.178.223-.186.217-.193.21-.201.204-.208.197-.216.19-.223.183-.23.176-.237.168-.243.16-.249.15-.253.143-.258l-.01-.004-.008-.004-.01-.003-.01-.004-.009-.002-.01-.003-.01-.003-.009-.002-.01-.002-.01-.002-.01-.001-.01-.001-.01-.001-.01-.001h-.01l-.01-.001h-.03l-.01.002h-.01l-.009.003-.01.002-.01.002-.009.004-.009.004-.009.004-.008.006-.008.006-.007.007-.005.009-.005.009-.003.01-.002.009v.02l.002.01.003.01.002.009.004.01.004.009.004.009.009.003h.01l.01-.002.01-.003.009-.003.01-.003.009-.003.009-.004.01-.004.009-.003.009-.004.009-.004.01-.004.008-.004.01-.005.008-.004.01-.004.008-.004.01-.005.008-.004"/><path d="M-.055-.24v.01l.003.01.002.01.003.009.003.01.004.009.006.008M-.05-.245h.08"/></g></svg>