<svg width="800" height="800" viewBox="-0.3534175063669681 -0.11651487827301027 0.7068350127339362 0.23302975654602054" xmlns="http://www.w3.org/2000/svg" xmlns:xlink="http://www.w3.org/1999/xlink"><defs><clipPath id="circle" clipPathUnits="objectBoundingBox"><circle cx=".5" cy=".5" r=".5" /></clipPath></defs><g transform="scale(1.0 -1.0)"><path stroke-width="0.0144" stroke="#050505" color_index="0" style="fill: none;stroke-linejoin: round;stroke-linecap: round;" d="M-0.26865294575691223,0.09595990180969238 L-0.2689325511455536,0.08596384525299072 L-0.2694540321826935,0.07597863674163818 L-0.2701590955257416,0.06600403785705566 L-0.2709791958332062,0.05603766441345215 L-0.271799236536026,0.046071410179138184 L-0.2726192772388458,0.03610503673553467 L-0.2734393775463104,0.026138782501220703 L-0.2741680443286896,0.016166090965270996 L-0.27473559975624084,0.006182193756103516 L-0.2753032147884369,-0.003801703453063965 L-0.27575382590293884,-0.013789534568786621 L-0.2758622467517853,-0.023788928985595703 L-0.2758430540561676,-0.03378629684448242 L-0.2754211127758026,-0.0437774658203125 L-0.27459588646888733,-0.05373871326446533 L-0.273305743932724,-0.06364905834197998 L-0.27132758498191833,-0.07344460487365723 L-0.26843133568763733,-0.08300673961639404 L-0.2637840211391449,-0.09177732467651367 L-0.2557266652584076,-0.0974729061126709 L-0.245907723903656,-0.09901487827301025 L-0.2359902560710907,-0.09789538383483887 L-0.22642946243286133,-0.09500229358673096 L-0.21724817156791687,-0.09106206893920898 L-0.20844757556915283,-0.08632957935333252 L-0.20002520084381104,-0.08095121383666992 L-0.1919858157634735,-0.07501447200775146 L-0.18435385823249817,-0.06856143474578857 L-0.17718487977981567,-0.06159675121307373 L-0.17057982087135315,-0.05409550666809082 L-0.16470345854759216,-0.04601454734802246 L-0.15980499982833862,-0.03731262683868408 L-0.15624630451202393,-0.027987241744995117"></path><path stroke-width="0.0144" stroke="#050505" color_index="0" style="fill: none;stroke-linejoin: round;stroke-linecap: round;" d="M-0.33591750264167786,0.025705695152282715 L-0.32629939913749695,0.028442978858947754 L-0.3167988955974579,0.03155970573425293 L-0.30733272433280945,0.0347820520401001 L-0.2979375422000885,0.038207054138183594 L-0.28854236006736755,0.04163217544555664 L-0.2791472375392914,0.04505717754364014 L-0.26975205540657043,0.04848217964172363 L-0.2603254020214081,0.051816701889038086 L-0.2508351504802704,0.054968833923339844 L-0.2413448989391327,0.05812084674835205 L-0.23174643516540527,0.060912489891052246 L-0.22207427024841309,0.06344270706176758 L-0.2122507393360138,0.06531298160552979"></path><path stroke-width="0.0144" stroke="#050505" color_index="0" style="fill: none;stroke-linejoin: round;stroke-linecap: round;" d="M-0.1401028335094452,-0.05650651454925537 L-0.1344195306301117,-0.04828238487243652 L-0.12828585505485535,-0.040384531021118164 L-0.12185883522033691,-0.032723426818847656 L-0.1154213547706604,-0.025071144104003906 L-0.10898390412330627,-0.017418742179870605 L-0.10275185108184814,-0.009600639343261719 L-0.09663566946983337,-0.0016890764236450195 L-0.09099903702735901,0.006564021110534668 L-0.08599698543548584,0.015210628509521484 L-0.08205831050872803,0.024387001991271973 L-0.08034726977348328,0.03419697284698486 L-0.08562558889389038,0.039520978927612305 L-0.09335631132125854,0.03323686122894287 L-0.10004180669784546,0.025804758071899414 L-0.10635048151016235,0.018045783042907715 L-0.11230802536010742,0.010014533996582031 L-0.11816912889480591,0.001913905143737793 L-0.12382608652114868,-0.006332278251647949 L-0.129418283700943,-0.014621257781982422 L-0.13480466604232788,-0.02304673194885254 L-0.14015737175941467,-0.03149259090423584 L-0.14517852663993835,-0.040140628814697266 L-0.1493578553199768,-0.049144864082336426 L-0.1428065001964569,-0.05460095405578613 L-0.13284572958946228,-0.05390441417694092 L-0.1229931116104126,-0.05220460891723633 L-0.11315330862998962,-0.050421714782714844 L-0.10323071479797363,-0.04922795295715332 L-0.09324049949645996,-0.04903292655944824 L-0.08324378728866577,-0.0489426851272583 L-0.07327708601951599,-0.04816603660583496 L-0.06358712911605835,-0.04577219486236572 L-0.054460469633340836,-0.04173016548156738"></path><path stroke-width="0.0144" stroke="#050505" color_index="0" style="fill: none;stroke-linejoin: round;stroke-linecap: round;" d="M-0.00706842914223671,0.037663936614990234 L-0.014544252306222916,0.031022310256958008 L-0.021932367235422134,0.024286866188049316 L-0.029049161821603775,0.017261862754821777 L-0.035692933946847916,0.009801268577575684 L-0.04144063964486122,0.0016366243362426758 L-0.044408950954675674,-0.007810473442077637 L-0.04006439819931984,-0.016147613525390625 L-0.030309800058603287,-0.017806649208068848 L-0.020348165184259415,-0.01705002784729004 L-0.010468963533639908,-0.015509843826293945 L-0.000599835067987442,-0.013897299766540527 L0.009307917207479477,-0.012575745582580566 L0.01926584169268608,-0.011792421340942383 L0.029202815145254135,-0.012628436088562012 L0.038019921630620956,-0.017000675201416016 L0.04130033776164055,-0.025908946990966797 L0.03550424799323082,-0.03385496139526367 L0.02721276506781578,-0.03941750526428223 L0.018291231244802475,-0.043921709060668945 L0.009035062044858932,-0.047701120376586914 L-0.0004167892038822174,-0.05095839500427246 L-0.010010544210672379,-0.0537647008895874 L-0.019757363945245743,-0.05595874786376953"></path><path stroke-width="0.0144" stroke="#050505" color_index="0" style="fill: none;stroke-linejoin: round;stroke-linecap: round;" d="M0.03329029306769371,0.08250701427459717 L0.03357481583952904,0.07251107692718506 L0.03408915922045708,0.06252682209014893 L0.03482310101389885,0.052553772926330566 L0.03579204902052879,0.042603135108947754 L0.03695085272192955,0.03267049789428711 L0.03833479806780815,0.02276933193206787 L0.03994018957018852,0.012899041175842285 L0.0418420247733593,0.0030846595764160156 L0.04394201561808586,-0.006692409515380859 L0.04656339809298515,-0.016341567039489746 L0.04955045506358147,-0.02587878704071045 L0.05309182032942772,-0.03522336483001709 L0.05743179842829704,-0.04422116279602051 L0.06286165118217468,-0.052597761154174805 L0.07000118494033813,-0.05950438976287842 L0.07895068824291229,-0.06391656398773193 L0.08864615857601166,-0.06626641750335693 L0.09859421849250793,-0.0664440393447876 L0.1078283041715622,-0.0629580020904541 L0.11320731043815613,-0.0548093318939209"></path><path stroke-width="0.0144" stroke="#050505" color_index="0" style="fill: none;stroke-linejoin: round;stroke-linecap: round;" d="M0.010868754237890244,0.03168487548828125 L0.020853232592344284,0.03218841552734375 L0.030771534889936447,0.03344714641571045 L0.040606539696455,0.035256147384643555 L0.0503581278026104,0.037468671798706055 L0.06009693071246147,0.039739251136779785 L0.06983575224876404,0.042009830474853516 L0.07965730130672455,0.04388320446014404 L0.08951550722122192,0.04552876949310303 L0.0994691401720047,0.046474456787109375"></path><path stroke-width="0.0144" stroke="#050505" color_index="0" style="fill: none;stroke-linejoin: round;stroke-linecap: round;" d="M0.16184034943580627,0.07951748371124268 L0.16163988411426544,0.0695195198059082 L0.16137105226516724,0.059523940086364746 L0.16084787249565125,0.04953765869140625 L0.16027507185935974,0.039554476737976074 L0.1595517247915268,0.02958071231842041 L0.15882839262485504,0.019606828689575195 L0.1581050455570221,0.009633064270019531 L0.15738169848918915,-0.0003407001495361328 L0.15689268708229065,-0.010327339172363281 L0.15652254223823547,-0.020320534706115723 L0.15655094385147095,-0.03031313419342041 L0.1573391854763031,-0.04026913642883301 L0.15972986817359924,-0.049936771392822266 L0.16640733182430267,-0.05695223808288574 L0.1761908084154129,-0.05633401870727539 L0.18511836230754852,-0.0518721342086792 L0.193351149559021,-0.04620552062988281 L0.201090008020401,-0.03987383842468262 L0.2085258960723877,-0.03319132328033447 L0.2158263921737671,-0.026358842849731445"></path><path stroke-width="0.0144" stroke="#050505" color_index="0" style="fill: none;stroke-linejoin: round;stroke-linecap: round;" d="M0.19173571467399597,-0.016147732734680176 L0.19297342002391815,-0.02604830265045166 L0.19636979699134827,-0.03541886806488037 L0.2014504075050354,-0.04401445388793945 L0.20782560110092163,-0.05170762538909912 L0.214911550283432,-0.05875587463378906 L0.22239680588245392,-0.0653841495513916 L0.23010629415512085,-0.07175314426422119 L0.23781579732894897,-0.07812213897705078 L0.2452724128961563,-0.08478188514709473"></path><path stroke-width="0.0144" stroke="#050505" color_index="0" style="fill: none;stroke-linejoin: round;stroke-linecap: round;" d="M0.26049503684043884,0.09446513652801514 L0.25342628359794617,0.08739173412322998 L0.246575728058815,0.08010852336883545 L0.23978355526924133,0.0727691650390625 L0.23317159712314606,0.06527352333068848 L0.22686763107776642,0.05751073360443115 L0.22113928198814392,0.04931902885437012 L0.21666833758354187,0.040418386459350586 L0.21866920590400696,0.031675100326538086 L0.22829946875572205,0.029061436653137207 L0.2382306456565857,0.027920007705688477 L0.2482145130634308,0.027362823486328125 L0.258210152387619,0.027068018913269043 L0.26820582151412964,0.02677333354949951 L0.27820149064064026,0.02647852897644043 L0.2881791591644287,0.02582526206970215 L0.2981540858745575,0.02511775493621826 L0.30804118514060974,0.02362215518951416 L0.31774988770484924,0.021259069442749023 L0.3267950117588043,0.017061710357666016 L0.33373090624809265,0.01003408432006836 L0.33591750264167786,0.00038421154022216797 L0.3346949815750122,-0.00949716567993164 L0.3312392234802246,-0.01886141300201416 L0.32615625858306885,-0.027451276779174805 L0.3197941184043884,-0.03514552116394043 L0.3121885359287262,-0.04159283638000488 L0.3032563328742981,-0.04596817493438721 L0.2934141755104065,-0.04606771469116211 L0.28559666872024536,-0.04015481472015381 L0.28046056628227234,-0.03159022331237793 L0.27589741349220276,-0.022697091102600098 L0.271687388420105,-0.01363074779510498 L0.26787781715393066,-0.004384756088256836 L0.2645989954471588,0.005060076713562012 L0.26177191734313965,0.014645695686340332 L0.2595321238040924,0.024384140968322754 L0.2580748498439789,0.03426814079284668 L0.2576570212841034,0.04424631595611572 L0.2585872709751129,0.05418658256530762 L0.2616153359413147,0.06368899345397949 L0.2665291726589203,0.0723876953125 L0.27171775698661804,0.08093631267547607 L0.27652668952941895,0.08969676494598389 L0.2798779606819153,0.09901487827301025"></path></g></svg>