<svg width="800" height="800" viewBox="-0.3534175063669681 -0.11651487827301027 0.7068350127339362 0.23302975654602054" xmlns="http://www.w3.org/2000/svg"><g stroke-width=".014" stroke="#050505" fill="none" stroke-linejoin="round" stroke-linecap="round"><path d="M-.269-.096v.02l-.001.01-.001.01v.01l-.002.01v.01l-.001.01v.01l-.001.01v.05l.002.01.002.01.003.009.004.009.008.005.01.002.01-.001.01-.003.009-.004.009-.005L-.2.081l.008-.006.008-.006.007-.007.006-.008.006-.008.005-.009.004-.009"/><path d="M-.336-.026l.01-.002.01-.004.009-.003.01-.003.008-.004.01-.003.01-.003.009-.004.01-.003.009-.003.01-.003.009-.002.01-.002m.072.122l.006-.009.006-.008.006-.007.007-.008.006-.008.006-.007.006-.008.006-.009.005-.008.004-.01.002-.01-.006-.005-.007.007-.007.007-.006.008-.006.008-.006.008-.006.008-.005.009-.006.008-.005.008-.005.01-.004.008.006.006.01-.001.01-.002.01-.002h.01l.01-.001h.02l.01-.003.009-.004m.047-.08l-.008.007-.007.007-.007.007-.007.007-.005.008-.003.01.004.008.01.002h.01l.01-.002L0 .014.01.013.02.012h.01l.008.005.003.009-.005.008-.009.005-.009.005L.01.048 0 .051l-.009.003-.01.002m.052-.139v.01l.001.01v.01l.002.01.001.01.001.01.002.01.002.01.002.01.003.01.003.009.003.01.004.008.006.009L.07.06l.009.004.01.002h.01L.108.063.113.055"/><path d="M.01-.032h.01l.01-.001.01-.002.01-.002.01-.003.01-.002.01-.002.01-.002H.1M.162-.08v.02L.16-.05v.02l-.001.01v.01L.156 0v.04L.16.05l.006.007h.01l.01-.005.007-.006L.201.04.21.033.216.026"/><path d="M.192.016l.001.01.003.01.005.008.007.008.007.007.007.006.008.007.008.006.007.007M.26-.094l-.007.007-.006.007-.007.007-.007.008-.006.007-.006.009-.004.009.002.008.01.003.01.001h.02l.01.001h.01l.01.001h.01l.009.002.01.003.009.004.007.007.002.01-.001.01L.33.018.326.027.32.035.312.042.303.046h-.01L.286.04.28.032.276.022.272.015.268.004l-.003-.01-.003-.009-.002-.01-.002-.01v-.02l.004-.009.005-.008.005-.009.005-.009.003-.009"/></g></svg>