<svg width="800" height="800"
  viewBox="-0.22699810836464168 -0.12219430685043342 0.45399621672928336 0.24438861370086684"
  xmlns="http://www.w3.org/2000/svg" xmlns:xlink="http://www.w3.org/1999/xlink">
  <defs>
    <clipPath id="circle" clipPathUnits="objectBoundingBox">
      <circle cx=".5" cy=".5" r=".5" />
    </clipPath>
  </defs>
  <g transform="scale(1.0 -1.0)">
    <path stroke-width="0.0144" stroke="#f3904e" color_index="11"
      style="fill: none;stroke-linejoin: round;stroke-linecap: round;"
      d="M-0.14967301487922668,0.07224756479263306 L-0.1580977439880371,0.07474905252456665 L-0.16770201921463013,0.07200473546981812 L-0.1769317090511322,0.06816428899765015 L-0.1858329176902771,0.06361216306686401 L-0.1943356692790985,0.058355510234832764 L-0.20212328433990479,0.05210155248641968 L-0.20728668570518494,0.04370683431625366 L-0.2091599404811859,0.033899128437042236 L-0.2094981074333191,0.023911774158477783 L-0.2087026834487915,0.013947784900665283 L-0.2069617211818695,0.004103958606719971 L-0.20434921979904175,-0.005545198917388916 L-0.20086613297462463,-0.014915049076080322 L-0.19645309448242188,-0.023883044719696045 L-0.19099295139312744,-0.03225177526473999 L-0.18432331085205078,-0.03968542814254761 L-0.17630088329315186,-0.04561716318130493 L-0.16701894998550415,-0.04924064874649048 L-0.1570807695388794,-0.0499081015586853 L-0.1473454236984253,-0.04774695634841919 L-0.13896358013153076,-0.04251354932785034 L-0.13588044047355652,-0.033216774463653564 L-0.1367587447166443,-0.023264706134796143 L-0.13705456256866455,-0.013298332691192627">
    </path>
    <path stroke-width="0.0144" stroke="#f3904e" color_index="11"
      style="fill: none;stroke-linejoin: round;stroke-linecap: round;"
      d="M-0.12664926052093506,0.07378250360488892 L-0.1262608766555786,0.0637924075126648 L-0.12522470951080322,0.05384749174118042 L-0.12369686365127563,0.04396575689315796 L-0.12179845571517944,0.03414815664291382 L-0.11962112784385681,0.024388253688812256 L-0.11724510788917542,0.014674842357635498 L-0.11474087834358215,0.0049934983253479 L-0.1121789813041687,-0.004672706127166748 L-0.10963305830955505,-0.014343202114105225 L-0.108437180519104,-0.021859705448150635 L-0.1119115948677063,-0.012488782405853271 L-0.11470967531204224,-0.002889692783355713 L-0.11692032217979431,0.006860792636871338 L-0.11822432279586792,0.01676887273788452 L-0.1172671914100647,0.026651084423065186 L-0.10950607061386108,0.032566726207733154 L-0.09984225034713745,0.03506869077682495 L-0.08989056944847107,0.03595632314682007 L-0.08004119992256165,0.03471332788467407 L-0.07299423217773438,0.027799785137176514 L-0.06861460208892822,0.018829166889190674 L-0.06566432118415833,0.009280622005462646 L-0.06376558542251587,-0.0005329251289367676 L-0.06297913193702698,-0.010494649410247803 L-0.06458967924118042,-0.020262420177459717">
    </path>
    <path stroke-width="0.0144" stroke="#f3904e" color_index="11"
      style="fill: none;stroke-linejoin: round;stroke-linecap: round;"
      d="M-0.05604293942451477,-0.013707935810089111 L-0.04642605781555176,-0.011375606060028076 L-0.03912028670310974,-0.0046805739402771 L-0.03477299213409424,0.004284799098968506 L-0.03266739845275879,0.014044344425201416 L-0.03225967288017273,0.024026095867156982 L-0.03336098790168762,0.033955395221710205 L-0.036128222942352295,0.04354804754257202 L-0.04130280017852783,0.05203896760940552 L-0.050149232149124146,0.05593305826187134 L-0.057745397090911865,0.050468504428863525 L-0.05732712149620056,0.04062288999557495 L-0.05294853448867798,0.03167766332626343 L-0.046041250228881836,0.02451080083847046 L-0.036915212869644165,0.020677387714385986 L-0.027167171239852905,0.022196471691131592 L-0.020188570022583008,0.029054343700408936 L-0.016196563839912415,0.03821498155593872 L-0.011909321881830692,0.04722076654434204 L-0.0037682363763451576,0.04746145009994507 L-0.0005968967452645302,0.03801220655441284 L0.0012800535187125206,0.028191745281219482 L0.0027305325493216515,0.018297851085662842 L0.004002406261861324,0.008379042148590088 L0.005329876206815243,0.005704939365386963">
    </path>
    <path stroke-width="0.0144" stroke="#f3904e" color_index="11"
      style="fill: none;stroke-linejoin: round;stroke-linecap: round;"
      d="M0.03144744038581848,0.05996817350387573 L0.024314552545547485,0.0537603497505188 L0.021595343947410583,0.04416698217391968 L0.020715653896331787,0.0342140793800354 L0.02111247181892395,0.024228155612945557 L0.022804096341133118,0.014381229877471924 L0.02629968523979187,0.005039632320404053 L0.03313365578651428,-0.002017796039581299 L0.04277598857879639,-0.001338183879852295 L0.050800129771232605,0.004571020603179932 L0.0572533905506134,0.012187421321868896 L0.062134817242622375,0.020898640155792236 L0.06527483463287354,0.03037506341934204 L0.06620334088802338,0.04030352830886841 L0.06400232017040253,0.049995601177215576 L0.05785086750984192,0.05774921178817749 L0.04884520173072815,0.06193512678146362">
    </path>
    <path stroke-width="0.0144" stroke="#f3904e" color_index="11"
      style="fill: none;stroke-linejoin: round;stroke-linecap: round;"
      d="M0.07442520558834076,0.07685238122940063 L0.08410635590553284,0.07471305131912231 L0.09192685782909393,0.06859356164932251 L0.0973556786775589,0.06022840738296509 L0.10098603367805481,0.0509219765663147 L0.10335847735404968,0.04121273756027222 L0.10476720333099365,0.03131586313247681 L0.10472922772169113,0.031054794788360596 L0.10410810261964798,0.041035234928131104 L0.10374639183282852,0.051028311252593994 L0.1037459596991539,0.061027467250823975 L0.10439015924930573,0.07100313901901245 L0.10710969567298889,0.0805245041847229 L0.11553475260734558,0.07882004976272583 L0.12014126032590866,0.06998282670974731 L0.12322672456502914,0.060474693775177 L0.12565851211547852,0.05077582597732544 L0.1277608871459961,0.04099947214126587 L0.12968328595161438,0.03744405508041382 L0.13001802563667297,0.04743677377700806 L0.1310451626777649,0.05738133192062378 L0.13294436037540436,0.0671948790550232 L0.1360667645931244,0.07668381929397583 L0.14133960008621216,0.08511322736740112 L0.15024429559707642,0.08639293909072876 L0.15532585978507996,0.07792800664901733 L0.15758948028087616,0.06820052862167358 L0.15859852731227875,0.05825525522232056">
    </path>
    <path stroke-width="0.0144" stroke="#f3904e" color_index="11"
      style="fill: none;stroke-linejoin: round;stroke-linecap: round;"
      d="M0.16498543322086334,0.0799221396446228 L0.17466583847999573,0.08033746480941772 L0.18455182015895844,0.07890826463699341 L0.19272232055664062,0.08327001333236694 L0.19312816858291626,0.09306591749191284 L0.187259241938591,0.10096675157546997 L0.17809702455997467,0.10469430685043335 L0.16855749487876892,0.1025894284248352 L0.1631152331829071,0.09436601400375366 L0.1598566472530365,0.0849267840385437 L0.159475177526474,0.07501786947250366 L0.16523714363574982,0.06720668077468872 L0.1747702956199646,0.06444638967514038 L0.18475744128227234,0.06442028284072876 L0.1946835219860077,0.06561380624771118">
    </path>
    <path stroke-width="0.0144" stroke="#f3904e" color_index="11"
      style="fill: none;stroke-linejoin: round;stroke-linecap: round;"
      d="M0.2094981074333191,0.06303805112838745 L0.19951945543289185,0.062467873096466064 L0.18964198231697083,0.06092804670333862 L0.17991219460964203,0.05862802267074585 L0.17034320533275604,0.0557284951210022 L0.1609320193529129,0.05235034227371216 L0.15166911482810974,0.048583924770355225 L0.14254148304462433,0.04450005292892456 L0.13353674113750458,0.04015165567398071 L0.12464237213134766,0.03558164834976196 L0.1158454418182373,0.0308266282081604 L0.10713576525449753,0.02591341733932495 L0.09850329160690308,0.02086585760116577 L0.08993855118751526,0.015704095363616943 L0.08143268525600433,0.010445773601531982 L0.07297736406326294,0.005106627941131592 L0.06456467509269714,-0.0002993941307067871 L0.05618654191493988,-0.005758941173553467 L0.047835275530815125,-0.011259496212005615 L0.039503008127212524,-0.016788780689239502 L0.031181439757347107,-0.022334277629852295 L0.022861644625663757,-0.027882277965545654 L0.014534263871610165,-0.03341895341873169 L0.006187989376485348,-0.03892701864242554 L-0.002189488150179386,-0.04438751935958862 L-0.010612399317324162,-0.04977768659591675 L-0.019101843237876892,-0.05506235361099243 L-0.02768099308013916,-0.06019991636276245 L-0.036382853984832764,-0.06512624025344849 L-0.045361220836639404,-0.06951433420181274 L-0.05453619360923767,-0.07349187135696411 L-0.06371766328811646,-0.07745414972305298 L-0.07289758324623108,-0.08142012357711792 L-0.08207634091377258,-0.08538883924484253 L-0.09124737977981567,-0.0893753170967102 L-0.10040813684463501,-0.09338527917861938 L-0.10954955220222473,-0.0974392294883728 L-0.11862435936927795,-0.10163885354995728 L-0.11476513743400574,-0.10469430685043335 L-0.10605347156524658,-0.09980136156082153 L-0.09741318225860596,-0.09477442502975464 L-0.08797398209571838,-0.09151047468185425 L-0.07839760184288025,-0.08863097429275513 L-0.06878969073295593,-0.08585840463638306 L-0.0591583251953125,-0.08316832780838013 L-0.04951196908950806,-0.0805324912071228 L-0.039856553077697754,-0.0779300332069397 L-0.0301988422870636,-0.0753360390663147 L-0.02054564654827118,-0.07272559404373169 L-0.01090292725712061,-0.07007640600204468 L-0.0011579999700188637,-0.06787282228469849 L0.008670716546475887,-0.06602984666824341 L0.018491819500923157,-0.06414693593978882 L0.02830401062965393,-0.06221824884414673 L0.03810758888721466,-0.06024569272994995 L0.047899723052978516,-0.05821770429611206 L0.05767969787120819,-0.05613142251968384 L0.06744571030139923,-0.053981125354766846 L0.07719476521015167,-0.05175513029098511 L0.08692343533039093,-0.04944199323654175 L0.09662726521492004,-0.04702633619308472 L0.10629728436470032,-0.04447907209396362 L0.11592217534780502,-0.041766464710235596 L0.12547968327999115,-0.038825929164886475 L0.13492605090141296,-0.03554743528366089 L0.14414261281490326,-0.03167599439620972 L0.1525181233882904,-0.026295721530914307">
    </path>
  </g>
</svg>