<svg width="800" height="800" viewBox="-0.22699810836464168 -0.12219430685043342 0.45399621672928336 0.24438861370086684" xmlns="http://www.w3.org/2000/svg"><g stroke-width=".014" stroke="#f3904e" fill="none" stroke-linejoin="round" stroke-linecap="round"><path d="M-.15-.072l-.008-.003-.01.003-.009.004-.009.004-.008.006-.008.006-.005.008-.002.01v.02l.002.01.003.01.003.009.005.009.005.008.007.008.008.006.009.003h.01l.01-.001.008-.005.003-.01v-.01l-.001-.01m.01-.087v.01l.002.01.001.01.002.01.002.01.003.01.002.009.003.01.002.01.002.007-.004-.01-.003-.01-.002-.009-.001-.01v-.01l.008-.006.01-.002.01-.001.01.001.007.007.004.01.003.009.002.01.001.01-.002.01m.009-.007l.01-.003.007-.006.004-.01.002-.009v-.02l-.003-.01-.005-.008-.01-.004-.007.006v.01l.005.008.007.007.01.004.009-.001.007-.007.004-.01.004-.008h.008L0-.038l.002.01.002.01.001.01.001.002M.031-.06l-.007.006-.002.01-.001.01v.01l.002.01.003.009.007.007h.01L.05-.006l.006-.007.005-.009.003-.01.001-.01L.064-.05.058-.058l-.01-.004m.026-.015l.01.002.008.006.005.009.004.01.002.009.002.01v-.01l-.001-.01v-.02l.003-.01.009.002.004.009.003.01.003.01.002.009.002.004v-.01l.001-.01.002-.01.003-.01.005-.008.01-.001.004.008.003.01v.01M.165-.08h.01l.01.001.008-.004v-.01L.187-.101.178-.105l-.01.002-.005.009-.003.01v.009l.005.008.01.003h.01l.01-.002"/><path d="M.21-.063H.2L.19-.06l-.01.002-.01.003-.01.004-.008.003-.01.004-.008.005-.01.004-.008.005-.009.005L.1-.02l-.01.005-.008.006-.008.005L.065 0 .056.006.048.01.04.017.03.022.023.028.015.033.006.04l-.008.005-.009.006-.008.005-.009.005-.008.005-.01.005-.009.003-.009.004-.009.004-.01.004L-.09.09-.1.094l-.009.004-.009.005.004.003L-.106.1l.009-.005.009-.003.01-.003.01-.003.009-.003.01-.002.01-.003.009-.003.01-.002.01-.003.009-.002.01-.002.01-.002.01-.002.01-.002.009-.002.01-.002.01-.002.01-.002.009-.003.01-.002.01-.003.009-.002.01-.003.009-.003.01-.004.008-.006"/></g></svg>