<svg width="800" height="800" viewBox="-0.702577279806137 -0.43806915163993837 1.405154559612274 0.8761383032798767"
  xmlns="http://www.w3.org/2000/svg" xmlns:xlink="http://www.w3.org/1999/xlink">
  <defs>
    <clipPath id="circle" clipPathUnits="objectBoundingBox">
      <circle cx=".5" cy=".5" r=".5" />
    </clipPath>
  </defs>
  <g transform="scale(1.0 -1.0)">
    <path stroke-width="0.0144" stroke="#050505" color_index="0"
      style="fill: none;stroke-linejoin: round;stroke-linecap: round;"
      d="M-0.4989645481109619,0.19647082686424255 L-0.49725621938705444,0.20627841353416443 L-0.4931374490261078,0.2153768241405487 L-0.4880991578102112,0.224014014005661 L-0.48319029808044434,0.23272404074668884 L-0.47929683327674866,0.24192342162132263 L-0.477268785238266,0.25169357657432556 L-0.4775902330875397,0.26166483759880066 L-0.48006680607795715,0.2713368833065033 L-0.48442959785461426,0.2802959382534027 L-0.4915924072265625,0.28721174597740173 L-0.500291109085083,0.29211148619651794 L-0.5096654295921326,0.295572966337204 L-0.5193625092506409,0.2980010211467743 L-0.529224693775177,0.29964277148246765 L-0.5391725301742554,0.3006485402584076 L-0.5491607189178467,0.3011110723018646 L-0.5591597557067871,0.30108675360679626 L-0.5691473484039307,0.30060550570487976 L-0.5791031122207642,0.29967567324638367 L-0.5890051126480103,0.298285573720932 L-0.5988243818283081,0.29639992117881775 L-0.6085184812545776,0.2939518392086029 L-0.6180140972137451,0.29082486033439636 L-0.6271694898605347,0.28681597113609314 L-0.6356561183929443,0.2815522849559784 L-0.6425502300262451,0.27437564730644226 L-0.6469671726226807,0.26541611552238464 L-0.6502077579498291,0.25596103072166443 L-0.6525137424468994,0.24623379111289978 L-0.6540645360946655,0.23635682463645935 L-0.6549991369247437,0.2264018952846527 L-0.6554232835769653,0.2164117991924286 L-0.6554173231124878,0.20641252398490906 L-0.6550462245941162,0.19641992449760437 L-0.6543583869934082,0.1864440143108368 L-0.6533927917480469,0.17649111151695251 L-0.6521816253662109,0.1665649116039276 L-0.6507495641708374,0.1566682755947113 L-0.6491184234619141,0.1468023955821991 L-0.6473053693771362,0.1369682252407074 L-0.645325779914856,0.1271662414073944 L-0.6431912183761597,0.11739680171012878 L-0.6409119367599487,0.10766014456748962 L-0.6384972333908081,0.09795615077018738 L-0.6359546184539795,0.0882849395275116 L-0.6332899332046509,0.07864651083946228 L-0.6305086612701416,0.06904110312461853 L-0.6276149749755859,0.059469074010849 L-0.62461256980896,0.049930423498153687 L-0.6215040683746338,0.04042598605155945 L-0.6182914972305298,0.030956119298934937 L-0.6149740219116211,0.021522492170333862 L-0.6115574836730957,0.012124389410018921 L-0.6080367565155029,0.002764672040939331 L-0.6044133901596069,-0.006555825471878052 L-0.60068678855896,-0.015835434198379517 L-0.5968500375747681,-0.025069981813430786 L-0.5929025411605835,-0.03425779938697815 L-0.5888392925262451,-0.04339495301246643 L-0.5846536159515381,-0.05247679352760315 L-0.5803344249725342,-0.061495810747146606 L-0.5758709907531738,-0.07044419646263123 L-0.571247935295105,-0.07931116223335266 L-0.5664426684379578,-0.08808079361915588 L-0.5614265203475952,-0.0967312753200531 L-0.5561549663543701,-0.10522845387458801 L-0.5505632162094116,-0.11351791024208069 L-0.5445394515991211,-0.12149783968925476 L-0.5377914309501648,-0.12886741757392883 L-0.5300821661949158,-0.1352234184741974 L-0.5215514898300171,-0.14042535424232483 L-0.5123803615570068,-0.14439192414283752 L-0.5027601718902588,-0.1470949351787567 L-0.4928726851940155,-0.14854565262794495 L-0.48288145661354065,-0.14877668023109436 L-0.4729326665401459,-0.14782455563545227 L-0.4631611704826355,-0.14572599530220032 L-0.45369887351989746,-0.14250895380973816 L-0.4446847140789032,-0.1381935179233551 L-0.43627166748046875,-0.13280048966407776 L-0.42863228917121887,-0.12635943293571472 L-0.4219565987586975,-0.11892548203468323 L-0.4164399206638336,-0.11059620976448059 L-0.4122532308101654,-0.10152575373649597 L-0.4095076620578766,-0.0919201672077179 L-0.40825745463371277,-0.08200958371162415 L-0.4080633819103241,-0.07201209664344788 L-0.408163845539093,-0.06201288104057312 L-0.4085218012332916,-0.0520196259021759 L-0.4091925323009491,-0.04204276204109192 L-0.41033312678337097,-0.03210952877998352 L-0.41240236163139343,-0.022335201501846313 L-0.4179512858390808,-0.015988022089004517 L-0.4180060923099518,-0.025974661111831665 L-0.4174337089061737,-0.03595796227455139 L-0.41670045256614685,-0.04593101143836975 L-0.41587021946907043,-0.055896490812301636 L-0.4149657189846039,-0.065855473279953 L-0.4139840006828308,-0.07580706477165222 L-0.41282954812049866,-0.08573970198631287 L-0.4114823043346405,-0.09564849734306335 L-0.4101305603981018,-0.10555669665336609 L-0.40876859426498413,-0.11546346545219421 L-0.40737712383270264,-0.12536612153053284 L-0.4059522747993469,-0.13526418805122375 L-0.4044787287712097,-0.1451549232006073 L-0.4029475748538971,-0.15503719449043274 L-0.401348352432251,-0.16490837931632996 L-0.39967039227485657,-0.17476651072502136 L-0.3979029357433319,-0.1846090853214264 L-0.39603492617607117,-0.19443288445472717 L-0.3940547704696655,-0.20423486828804016 L-0.3919508755207062,-0.21401098370552063 L-0.3897096812725067,-0.22375640273094177 L-0.38731810450553894,-0.23346611857414246 L-0.38476285338401794,-0.24313393235206604 L-0.38202929496765137,-0.2527529299259186 L-0.3791010081768036,-0.26231440901756287 L-0.3759619891643524,-0.27180877327919006 L-0.37259531021118164,-0.28122469782829285 L-0.3693139851093292,-0.29066792130470276 L-0.36667364835739136,-0.3003120720386505 L-0.36436647176742554,-0.31004199385643005 L-0.36225569248199463,-0.31981661915779114 L-0.36027202010154724,-0.32961776852607727 L-0.3583722412586212,-0.3394356071949005 L-0.3565225601196289,-0.3492630422115326 L-0.3546815812587738,-0.3590921461582184 L-0.35279813408851624,-0.3689131438732147 L-0.350681871175766,-0.37868550419807434 L-0.34854450821876526,-0.3767542541027069">
    </path>
    <path stroke-width="0.0144" stroke="#050505" color_index="0"
      style="fill: none;stroke-linejoin: round;stroke-linecap: round;"
      d="M-0.49742960929870605,0.20875021815299988 L-0.49557074904441833,0.21852537989616394 L-0.49117815494537354,0.2274899184703827 L-0.4853951632976532,0.23563966155052185 L-0.4787691831588745,0.2431248128414154 L-0.47157469391822815,0.2500673234462738 L-0.46396321058273315,0.25655099749565125 L-0.45602500438690186,0.2626309096813202 L-0.4478176534175873,0.2683425843715668 L-0.43937820196151733,0.2737055718898773 L-0.43073195219039917,0.2787284553050995 L-0.4218950867652893,0.2834077775478363 L-0.4128776788711548,0.287728875875473 L-0.403685986995697,0.29166552424430847 L-0.3943222761154175,0.295172780752182 L-0.38478755950927734,0.29818305373191833 L-0.3750849664211273,0.30059537291526794 L-0.365226149559021,0.3022502362728119 L-0.35525283217430115,0.302893728017807 L-0.345296710729599,0.30210253596305847 L-0.33575549721717834,0.29920694231987 L-0.32763445377349854,0.2934724986553192 L-0.3221491277217865,0.28516003489494324 L-0.31809747219085693,0.27602216601371765 L-0.3148397207260132,0.2665700614452362 L-0.312185138463974,0.2569302022457123 L-0.31000086665153503,0.24717244505882263 L-0.3081896901130676,0.23733827471733093 L-0.306679368019104,0.2274533212184906 L-0.30541640520095825,0.217533677816391 L-0.3043564260005951,0.20759019255638123 L-0.30346590280532837,0.19763001799583435 L-0.3027186393737793,0.1876581609249115 L-0.30208951234817505,0.1776779592037201 L-0.30155834555625916,0.1676921546459198 L-0.30110853910446167,0.15770229697227478 L-0.30072128772735596,0.14770981669425964 L-0.3003830909729004,0.13771554827690125 L-0.30008000135421753,0.12772008776664734 L-0.2997961640357971,0.11772415041923523 L-0.2995181083679199,0.10772797465324402 L-0.29923054575920105,0.09773215651512146 L-0.29891520738601685,0.08773717284202576 L-0.2985529899597168,0.07774373888969421 L-0.29812324047088623,0.06775304675102234 L-0.2975936830043793,0.057767122983932495 L-0.2969282865524292,0.047789424657821655 L-0.29607725143432617,0.03782591223716736 L-0.2949671149253845,0.02788814902305603 L-0.2934837341308594,0.017999619245529175 L-0.29245448112487793,0.00806388258934021 L-0.2924695909023285,-0.0019345581531524658 L-0.29287171363830566,-0.011926203966140747 L-0.2933782935142517,-0.0219133198261261 L-0.2938199043273926,-0.03190353512763977 L-0.29403483867645264,-0.04190078377723694 L-0.2938416004180908,-0.051897794008255005 L-0.2929747700691223,-0.061857014894485474 L-0.29097649455070496,-0.07164570689201355 L-0.28698617219924927,-0.08077749609947205">
    </path>
    <path stroke-width="0.0144" stroke="#050505" color_index="0"
      style="fill: none;stroke-linejoin: round;stroke-linecap: round;"
      d="M-0.1797013282775879,0.202610582113266 L-0.18762022256851196,0.208655446767807 L-0.1972392499446869,0.21085664629936218 L-0.20646122097969055,0.20732209086418152 L-0.21357034146785736,0.2003389298915863 L-0.2190309762954712,0.19197425246238708 L-0.22338689863681793,0.18297776579856873 L-0.22694708406925201,0.17363545298576355 L-0.22988559305667877,0.16407844424247742 L-0.23230506479740143,0.15437659621238708 L-0.2342669665813446,0.14457187056541443 L-0.23580345511436462,0.13469132781028748 L-0.23692667484283447,0.12475535273551941 L-0.2376304715871811,0.11478099226951599 L-0.23788894712924957,0.10478517413139343 L-0.23765401542186737,0.09478911757469177 L-0.2368425875902176,0.08482381701469421 L-0.2353174388408661,0.07494375109672546 L-0.2328481525182724,0.06525906920433044 L-0.22902165353298187,0.05603465437889099 L-0.2231568992137909,0.0479789674282074 L-0.21625396609306335,0.04074415564537048 L-0.20914697647094727,0.03370985388755798 L-0.2017991840839386,0.026927679777145386 L-0.19416660070419312,0.020468324422836304 L-0.1861894726753235,0.014440745115280151 L-0.17779101431369781,0.009018272161483765 L-0.16887719929218292,0.004500359296798706 L-0.1593753695487976,0.0014351308345794678 L-0.1494353711605072,0.0008141696453094482 L-0.139985591173172,0.0038499534130096436 L-0.13252544403076172,0.010420769453048706 L-0.12740790843963623,0.018982380628585815 L-0.12407596409320831,0.028399914503097534 L-0.12200114130973816,0.03817734122276306 L-0.12084397673606873,0.04810735583305359 L-0.12039327621459961,0.0580955445766449 L-0.1205131858587265,0.06809362769126892 L-0.1211155503988266,0.07807454466819763 L-0.12214117497205734,0.08802112936973572 L-0.12354980409145355,0.09792086482048035 L-0.12531721591949463,0.1077629029750824 L-0.1274280846118927,0.1175369918346405 L-0.12987768650054932,0.12723180651664734 L-0.13267004489898682,0.13683339953422546 L-0.1358186900615692,0.14632412791252136 L-0.13934803009033203,0.15567979216575623 L-0.14329461753368378,0.16486689448356628 L-0.1451403796672821,0.17063018679618835 L-0.13953012228012085,0.16235706210136414 L-0.13462160527706146,0.15364870429039001 L-0.13137367367744446,0.14422878623008728 L-0.1289430409669876,0.1345289647579193 L-0.1263284832239151,0.1248769462108612 L-0.12352178245782852,0.1152791678905487 L-0.1205248087644577,0.10573896765708923 L-0.11734941601753235,0.09625670313835144 L-0.11401550471782684,0.08682891726493835 L-0.11052893847227097,0.07745656371116638 L-0.10687220096588135,0.06814929842948914 L-0.10304180532693863,0.05891212821006775 L-0.09902815520763397,0.049753159284591675 L-0.09481772780418396,0.04068312048912048 L-0.09039108455181122,0.03171643614768982 L-0.08572381734848022,0.022872895002365112 L-0.08078577369451523,0.014177769422531128 L-0.07553466409444809,0.005668133497238159 L-0.069918692111969,-0.002604752779006958 L-0.06386998295783997,-0.010566145181655884 L-0.057299695909023285,-0.018101483583450317 L-0.050093088299036026,-0.025028139352798462 L-0.04211857542395592,-0.031048446893692017 L-0.033269576728343964,-0.03567257523536682 L-0.023621205240488052,-0.03819301724433899 L-0.013660304248332977,-0.0379505455493927 L-0.00415937602519989,-0.03492644429206848 L0.004393182694911957,-0.029777199029922485 L0.011947132647037506,-0.02323785424232483">
    </path>
    <path stroke-width="0.0144" stroke="#050505" color_index="0"
      style="fill: none;stroke-linejoin: round;stroke-linecap: round;"
      d="M-0.13518866896629333,0.18726131319999695 L-0.1257372498512268,0.19018158316612244 L-0.1175423264503479,0.19589242339134216 L-0.10994528234004974,0.20239350199699402 L-0.10246860235929489,0.20903417468070984 L-0.09479574114084244,0.2154453694820404 L-0.08665690571069717,0.22124788165092468 L-0.0778161883354187,0.2258950173854828 L-0.06820391118526459,0.22854909300804138 L-0.058248937129974365,0.22831174731254578 L-0.048763468861579895,0.22521492838859558 L-0.03997918963432312,0.22046014666557312 L-0.03204718977212906,0.2143859565258026 L-0.02502782642841339,0.20727333426475525 L-0.018881134688854218,0.1993914544582367 L-0.013514168560504913,0.19095739722251892 L-0.00881946086883545,0.18213030695915222 L-0.004694722592830658,0.17302212119102478 L-0.0010493174195289612,0.163711279630661 L0.0021960586309432983,0.15425321459770203 L0.005108162760734558,0.14468714594841003 L0.007746167480945587,0.13504168391227722 L0.010162755846977234,0.12533816695213318 L0.01241236925125122,0.11559459567070007 L0.01454460620880127,0.10582467913627625 L0.016625426709651947,0.09604355692863464 L0.018731452524662018,0.08626791834831238 L0.020884685218334198,0.07650265097618103 L0.022766701877117157,0.06668159365653992 L0.024513088166713715,0.05683538317680359 L0.026199139654636383,0.04697844386100769 L0.02786906063556671,0.037118881940841675 L0.029554210603237152,0.027261942625045776 L0.031314536929130554,0.017418116331100464 L0.03333866596221924,0.0076265037059783936 L0.03502907603979111,0.010345548391342163 L0.03191634267568588,0.0198422372341156 L0.028327152132987976,0.02917572855949402 L0.02462609112262726,0.03846558928489685 L0.02744591236114502,0.040776461362838745 L0.03323661535978317,0.03267213702201843 L0.037552930414676666,0.023655861616134644 L0.04131875932216644,0.014392465353012085">
    </path>
    <path stroke-width="0.0144" stroke="#050505" color_index="0"
      style="fill: none;stroke-linejoin: round;stroke-linecap: round;"
      d="M-0.04002365097403526,0.42056915163993835 L-0.031662531197071075,0.41562601923942566 L-0.025967523455619812,0.4074264466762543 L-0.021407149732112885,0.3985305726528168 L-0.017452433705329895,0.3893469274044037 L-0.013884559273719788,0.38000568747520447 L-0.010584868490695953,0.3705659806728363 L-0.007482782006263733,0.3610595166683197 L-0.004525922238826752,0.35150668025016785 L-0.0016626715660095215,0.3419254720211029 L0.0011936649680137634,0.33234211802482605 L0.004446357488632202,0.32288858294487 L0.007731452584266663,0.3134438693523407 L0.010784551501274109,0.3039216697216034 L0.013618700206279755,0.2943318784236908 L0.016247496008872986,0.28468379378318787 L0.018684178590774536,0.2749854028224945 L0.02094186842441559,0.2652437388896942 L0.023033730685710907,0.2554651200771332 L0.024972833693027496,0.24565503001213074 L0.026772022247314453,0.23581835627555847 L0.02844385802745819,0.2259591519832611 L0.030000761151313782,0.21608111262321472 L0.031454890966415405,0.20618745684623718 L0.03281816840171814,0.19628092646598816 L0.034100741147994995,0.18636354804039001 L0.03531740605831146,0.17643782496452332 L0.0364777073264122,0.16650542616844177 L0.03759282827377319,0.15656778216362 L0.03867168724536896,0.14662620425224304 L0.039730511605739594,0.13668236136436462 L0.04077815264463425,0.12673744559288025 L0.041823387145996094,0.11679217219352722 L0.042878538370132446,0.10684797167778015 L0.04395259916782379,0.096905916929245 L0.0450609028339386,0.08696755766868591 L0.04621326923370361,0.07703420519828796 L0.047421470284461975,0.06710740923881531 L0.048695921897888184,0.05718907713890076 L0.050051987171173096,0.047281473875045776 L0.051501065492630005,0.03738698363304138 L0.0530562549829483,0.027508825063705444 L0.05473138391971588,0.017650097608566284 L0.05641655623912811,0.007793396711349487 L0.057875439524650574,-0.0020994246006011963 L0.05917638540267944,-0.012014418840408325 L0.06041273474693298,-0.021937638521194458 L0.061678022146224976,-0.03185728192329407 L0.06307056546211243,-0.041759639978408813 L0.06469061970710754,-0.05162718892097473 L0.06663107872009277,-0.06143650412559509 L0.06897568702697754,-0.0711568295955658 L0.0717930793762207,-0.08075055480003357 L0.07532988488674164,-0.09009549021720886 L0.07955615222454071,-0.09915825724601746 L0.08398710191249847,-0.10812273621559143 L0.08866393566131592,-0.11696109175682068 L0.09381227195262909,-0.12553027272224426 L0.0996503084897995,-0.12771543860435486">
    </path>
    <path stroke-width="0.0144" stroke="#050505" color_index="0"
      style="fill: none;stroke-linejoin: round;stroke-linecap: round;"
      d="M-0.06918711960315704,0.3438231647014618 L-0.06046599522233009,0.33895060420036316 L-0.05112718045711517,0.3353966176509857 L-0.041415076702833176,0.3330375850200653 L-0.031509507447481155,0.331694096326828 L-0.021524816751480103,0.331186980009079 L-0.011527881026268005,0.33135828375816345 L-0.001554831862449646,0.3320777118206024 L0.008376777172088623,0.33323928713798523 L0.018260210752487183,0.33475860953330994 L0.028095543384552002,0.3365640342235565 L0.037886157631874084,0.33859869837760925 L0.04763735830783844,0.3408147990703583 L0.057355910539627075,0.3431701362133026 L0.06705014407634735,0.3456239402294159 L0.07672777771949768,0.34814247488975525 L0.08639886975288391,0.35068604350090027 L0.09607107937335968,0.35322532057762146 L0.10575458407402039,0.35572120547294617 L0.1154598742723465,0.3581307828426361 L0.12519781291484833,0.36040446162223816 L0.13497918844223022,0.36248263716697693 L0.144814133644104,0.36428937315940857 L0.1547105610370636,0.36571916937828064 L0.16466748714447021,0.3666289746761322">
    </path>
    <path stroke-width="0.0144" stroke="#050505" color_index="0"
      style="fill: none;stroke-linejoin: round;stroke-linecap: round;"
      d="M0.11807304620742798,0.22256454825401306 L0.12190453708171844,0.21393665671348572 L0.12455853819847107,0.20429584383964539 L0.1269938349723816,0.19459697604179382 L0.12930914759635925,0.18486878275871277 L0.13153672218322754,0.17512008547782898 L0.1336980164051056,0.16535648703575134 L0.13579899072647095,0.15557965636253357 L0.13784803450107574,0.14579185843467712 L0.1398477703332901,0.1359938085079193 L0.14179934561252594,0.12618610262870789 L0.1437026858329773,0.11636897921562195 L0.14555656909942627,0.10654231905937195 L0.14735832810401917,0.09670600295066833 L0.149103581905365,0.0868595540523529 L0.15078745782375336,0.0770023763179779 L0.15240232646465302,0.06713363528251648 L0.15393973886966705,0.05725261569023132 L0.1553804874420166,0.04735693335533142 L0.15670306980609894,0.03744491934776306 L0.15787233412265778,0.027513593435287476 L0.15882344543933868,0.01755926012992859 L0.15943047404289246,0.0075785815715789795">
    </path>
    <path stroke-width="0.0144" stroke="#050505" color_index="0"
      style="fill: none;stroke-linejoin: round;stroke-linecap: round;"
      d="M0.09965401887893677,0.2916358411312103L0.09965401887893677,0.2916358411312103"></path>
    <path stroke-width="0.0144" stroke="#050505" color_index="0"
      style="fill: none;stroke-linejoin: round;stroke-linecap: round;"
      d="M0.15798094868659973,0.21949467062950134 L0.1653083860874176,0.22629603743553162 L0.17318663001060486,0.2324490249156952 L0.18166017532348633,0.23774895071983337 L0.19073259830474854,0.2419358193874359 L0.2003260850906372,0.24471935629844666 L0.2102489173412323,0.24585041403770447 L0.22021648287773132,0.24522504210472107 L0.2299399971961975,0.24293646216392517 L0.23921692371368408,0.23922428488731384 L0.2479557991027832,0.23437437415122986 L0.2561456561088562,0.2286427915096283 L0.2638198733329773,0.2222352921962738 L0.271026074886322,0.21530446410179138 L0.27781519293785095,0.20796403288841248 L0.2842339873313904,0.20029708743095398 L0.29032406210899353,0.1923663318157196 L0.2961205840110779,0.18421825766563416 L0.30165281891822815,0.17588838934898376 L0.30694884061813354,0.16740640997886658 L0.3120292127132416,0.15879330039024353 L0.3169122040271759,0.1500668227672577 L0.321614146232605,0.1412414014339447 L0.32614967226982117,0.13232919573783875 L0.33053058385849,0.12334010004997253 L0.33449435234069824,0.11417075991630554 L0.33644551038742065,0.10437700152397156 L0.3371531665325165,0.0944049060344696 L0.33734387159347534,0.08440706133842468 L0.33751294016838074,0.07440873980522156 L0.33821263909339905,0.0644366443157196 L0.34050479531288147,0.054732173681259155 L0.346863329410553,0.04731521010398865 L0.3526105284690857,0.0496959388256073 L0.3501585125923157,0.05938944220542908 L0.34743982553482056,0.0690126121044159 L0.34462761878967285,0.07860907912254333 L0.3417665660381317,0.08819100260734558 L0.3388795256614685,0.09776517748832703 L0.33598318696022034,0.1073366105556488 L0.3330931067466736,0.11690983176231384 L0.33025094866752625,0.12649735808372498 L0.3278750777244568,0.13620218634605408 L0.3260917067527771,0.1460418403148651 L0.3243633210659027,0.1558912694454193 L0.3227388858795166,0.16575834155082703 L0.3212486207485199,0.17564663290977478 L0.3199162185192108,0.18555733561515808 L0.318770170211792,0.19549116492271423 L0.31783729791641235,0.20544740557670593 L0.3171501159667969,0.21542343497276306 L0.3167474865913391,0.22541484236717224 L0.3166775703430176,0.23541399836540222 L0.3170003294944763,0.24540790915489197 L0.31779566407203674,0.2553752362728119 L0.31916630268096924,0.26527902483940125 L0.32124680280685425,0.2750574052333832 L0.3242153227329254,0.2846018970012665 L0.3282950520515442,0.29372331500053406 L0.3337246775627136,0.3021056354045868 L0.3406643867492676,0.30927953124046326 L0.3488943576812744,0.3149438798427582 L0.35772913694381714,0.319617360830307 L0.3670460283756256,0.3232329785823822 L0.37673595547676086,0.3256772458553314 L0.386655330657959,0.32689163088798523 L0.3966493308544159,0.32688531279563904 L0.406576544046402,0.3257248103618622 L0.4163258671760559,0.32351920008659363 L0.4258207380771637,0.3203922212123871 L0.4350157678127289,0.316468209028244 L0.44388720393180847,0.31185802817344666 L0.45242759585380554,0.30665919184684753 L0.46063777804374695,0.30095264315605164 L0.46852341294288635,0.29480502009391785 L0.47609344124794006,0.2882724702358246 L0.4833538830280304,0.2813973128795624 L0.49031415581703186,0.2742181718349457 L0.49697843194007874,0.2667634189128876 L0.5033506155014038,0.25905725359916687 L0.509432315826416,0.25112006068229675 L0.5152221918106079,0.24296733736991882 L0.520714282989502,0.2346111238002777 L0.5259017944335938,0.2260626256465912 L0.5307716131210327,0.2173292338848114 L0.5353058576583862,0.20841702818870544 L0.5394793748855591,0.1993304193019867 L0.543259859085083,0.19007346034049988 L0.5466021299362183,0.18064972758293152 L0.549445629119873,0.17106398940086365 L0.5517072677612305,0.16132494807243347 L0.5532695055007935,0.1514502465724945 L0.5539717674255371,0.1414789855480194">
    </path>
    <path stroke-width="0.0144" stroke="#050505" color_index="0"
      style="fill: none;stroke-linejoin: round;stroke-linecap: round;"
      d="M0.6675742864608765,0.16884228587150574 L0.658627986907959,0.1644490659236908 L0.6494770050048828,0.16041681170463562 L0.6402972936630249,0.15645059943199158 L0.6311022043228149,0.15251979231834412 L0.6218974590301514,0.1486118733882904 L0.6126846075057983,0.14472302794456482 L0.6034648418426514,0.14085039496421814 L0.5942381620407104,0.13699468970298767 L0.5850036144256592,0.13315758109092712 L0.5757573843002319,0.1293487250804901 L0.5663926601409912,0.12584969401359558 L0.5569310188293457,0.12261304259300232 L0.5474551916122437,0.11941775679588318 L0.5379668474197388,0.11626026034355164 L0.528467059135437,0.11313709616661072 L0.518957257270813,0.11004456877708435 L0.5094380378723145,0.10698136687278748 L0.49991199374198914,0.10393902659416199 L0.4903797209262848,0.10091647505760193 L0.480842262506485,0.09791025519371033 L0.4713006317615509,0.09491750597953796 L0.4617561399936676,0.09193381667137146 L0.4522112309932709,0.08895143866539001 L0.4426652491092682,0.08597251772880554 L0.4331200420856476,0.08299097418785095 L0.42357733845710754,0.08000156283378601 L0.4140358865261078,0.07700809836387634 L0.4044998288154602,0.07399758696556091 L0.39496925473213196,0.07096979022026062 L0.38544490933418274,0.06792232394218445 L0.3759288489818573,0.06484910845756531 L0.36642202734947205,0.06174752116203308 L0.3569256365299225,0.058614104986190796 L0.34744104743003845,0.05544504523277283 L0.3379696309566498,0.05223700404167175 L0.3285127580165863,0.0489862859249115 L0.31907182931900024,0.045689553022384644 L0.3096483051776886,0.042343348264694214 L0.30024370551109314,0.03894433379173279 L0.2908596396446228,0.035489171743392944 L0.28149762749671936,0.03197464346885681 L0.2721595764160156,0.028396934270858765 L0.2628469467163086,0.024753421545028687 L0.2535480856895447,0.02107498049736023 L0.24424955248832703,0.017395704984664917 L0.23495101928710938,0.013716429471969604 L0.22565248608589172,0.010037153959274292 L0.21635395288467407,0.0063578784465789795 L0.20705538988113403,0.002678483724594116 L0.19775763154029846,-0.0010026991367340088 L0.18846049904823303,-0.004685550928115845 L0.17916339635849,-0.00836840271949768 L0.16986718773841858,-0.012053638696670532 L0.16057279706001282,-0.015743523836135864 L0.15127846598625183,-0.019433408975601196 L0.1419844627380371,-0.023124009370803833 L0.1326930671930313,-0.026821285486221313 L0.12340287864208221,-0.030521541833877563 L0.11411397159099579,-0.034225136041641235 L0.10482877492904663,-0.03793802857398987 L0.09554420411586761,-0.04165235161781311 L0.08625964820384979,-0.0453667938709259 L0.07697813212871552,-0.049088746309280396 L0.06769858300685883,-0.05281570553779602 L0.058422818779945374,-0.056551963090896606 L0.04914852976799011,-0.06029209494590759 L0.03987701237201691,-0.0640389621257782 L0.030608728528022766,-0.0677938163280487 L0.02134215086698532,-0.07155284285545349 L0.012080073356628418,-0.0753229558467865 L0.0028203651309013367,-0.07909873127937317 L-0.006436489522457123,-0.08288183808326721 L-0.015688776969909668,-0.08667585253715515 L-0.024939000606536865,-0.09047499299049377 L-0.03418418765068054,-0.09428629279136658 L-0.04342609643936157,-0.09810563921928406 L-0.052664898335933685,-0.10193243622779846 L-0.061897750943899155,-0.10577341914176941 L-0.07112867385149002,-0.10961940884590149 L-0.08035394549369812,-0.11347874999046326 L-0.08957365900278091,-0.11735120415687561 L-0.09879102557897568,-0.12122932076454163 L-0.10800240933895111,-0.1251215636730194 L-0.11720861494541168,-0.12902608513832092 L-0.12640999257564545,-0.1329422891139984 L-0.13560612499713898,-0.13687041401863098 L-0.14479705691337585,-0.1408107578754425 L-0.15398192405700684,-0.14476534724235535 L-0.16316112875938416,-0.14873281121253967 L-0.17233465611934662,-0.15271350741386414 L-0.18150243163108826,-0.15670767426490784 L-0.1906638741493225,-0.16071602702140808 L-0.19981855154037476,-0.16473999619483948 L-0.20896686613559723,-0.16877838969230652 L-0.21810869872570038,-0.17283132672309875 L-0.22724387049674988,-0.1768992841243744 L-0.2363717406988144,-0.1809837520122528 L-0.2454921305179596,-0.18508478999137878 L-0.2546052932739258,-0.18920180201530457 L-0.26371121406555176,-0.19333496689796448 L-0.2728095054626465,-0.1974845826625824 L-0.28189927339553833,-0.20165327191352844 L-0.2909807860851288,-0.20583930611610413 L-0.30005449056625366,-0.21004292368888855 L-0.3091197609901428,-0.21426424384117126 L-0.31817635893821716,-0.21850410103797913 L-0.32722342014312744,-0.22276470065116882 L-0.33626148104667664,-0.22704395651817322 L-0.3452906906604767,-0.23134228587150574 L-0.3543104827404022,-0.23565992712974548 L-0.3633199632167816,-0.23999890685081482 L-0.37231922149658203,-0.24435928463935852 L-0.3813087046146393,-0.24873992800712585 L-0.39028793573379517,-0.25314125418663025 L-0.39925694465637207,-0.2575637400150299 L-0.40821373462677,-0.2620106041431427 L-0.4171598255634308,-0.2664792239665985 L-0.4260948896408081,-0.27096983790397644 L-0.43501874804496765,-0.27548274397850037 L-0.4439300298690796,-0.28002026677131653 L-0.4528287351131439,-0.28458234667778015 L-0.4617152810096741,-0.2891677916049957 L-0.4705897569656372,-0.2937770187854767 L-0.47945138812065125,-0.29841068387031555 L-0.4882984757423401,-0.3030719459056854 L-0.4971325993537903,-0.3077581226825714 L-0.505953311920166,-0.31246933341026306 L-0.5147602558135986,-0.31720587611198425 L-0.5235515832901001,-0.3219715654850006 L-0.5323283672332764,-0.3267642557621002 L-0.5410904884338379,-0.3315833508968353 L-0.5498379468917847,-0.3364293873310089 L-0.5585691928863525,-0.34130433201789856 L-0.567283034324646,-0.34621015191078186 L-0.5759814977645874,-0.3511432111263275 L-0.584663987159729,-0.3561045825481415 L-0.5933291912078857,-0.3610961139202118 L-0.6019752025604248,-0.3661203682422638 L-0.6106057167053223,-0.3711715638637543 L-0.6192166805267334,-0.3762557804584503 L-0.6278095245361328,-0.38137105107307434 L-0.6363828182220459,-0.3865183889865875 L-0.64493727684021,-0.39169755578041077 L-0.6534715890884399,-0.3969096839427948 L-0.6619858741760254,-0.40215441584587097 L-0.6704791784286499,-0.40743288397789 L-0.678951621055603,-0.4127447307109833 L-0.6850773096084595,-0.4193386733531952 L-0.6752831935882568,-0.42056915163993835 L-0.6653109788894653,-0.41985347867012024 L-0.6553858518600464,-0.41863617300987244 L-0.6455010175704956,-0.4171248972415924 L-0.6356531381607056,-0.4153888523578644 L-0.6258441209793091,-0.41344502568244934 L-0.6160839796066284,-0.41126933693885803 L-0.6064088344573975,-0.4087454378604889 L-0.5968542098999023,-0.40579381585121155 L-0.5873266458511353,-0.40275678038597107 L-0.5778194665908813,-0.3996563255786896 L-0.5683292150497437,-0.39650437235832214 L-0.5588523149490356,-0.39331236481666565 L-0.5493844151496887,-0.39009401202201843 L-0.5399215817451477,-0.3868606984615326 L-0.530460000038147,-0.3836236894130707 L-0.5209954977035522,-0.3803953230381012 L-0.511523962020874,-0.3771876394748688 L-0.5020426511764526,-0.3740086853504181 L-0.4925587773323059,-0.3708377182483673 L-0.48307546973228455,-0.3676646053791046 L-0.4735962748527527,-0.36447957158088684 L-0.46411770582199097,-0.3612927496433258 L-0.4546409845352173,-0.3581003248691559 L-0.4451642632484436,-0.35490795969963074 L-0.4356875419616699,-0.3517155349254608 L-0.42620864510536194,-0.34852954745292664 L-0.416728675365448,-0.34534671902656555 L-0.4072436988353729,-0.3421787917613983 L-0.39775368571281433,-0.33902600407600403 L-0.38825759291648865,-0.335891991853714 L-0.37875375151634216,-0.332781046628952 L-0.36924076080322266,-0.3296986520290375 L-0.35971760749816895,-0.3266470730304718 L-0.3501836359500885,-0.3236300051212311 L-0.34063810110092163,-0.320649653673172 L-0.3310806155204773,-0.31770768761634827 L-0.32151108980178833,-0.31480541825294495 L-0.3119294047355652,-0.3119436204433441 L-0.30233603715896606,-0.3091207444667816 L-0.29273080825805664,-0.30633875727653503 L-0.28311479091644287,-0.3035944998264313 L-0.2734884023666382,-0.3008868396282196 L-0.2638521194458008,-0.29821428656578064 L-0.2542065978050232,-0.29557541012763977 L-0.24455231428146362,-0.2929682433605194 L-0.23489177227020264,-0.2903849184513092 L-0.22523096203804016,-0.2878025472164154 L-0.21557015180587769,-0.2852201759815216 L-0.2059093415737152,-0.2826378047466278 L-0.19624897837638855,-0.28005364537239075 L-0.18659047782421112,-0.2774626910686493 L-0.1769319772720337,-0.27487173676490784 L-0.16727347671985626,-0.2722807228565216 L-0.15761497616767883,-0.26968976855278015 L-0.14795757830142975,-0.26709476113319397 L-0.13830024003982544,-0.2644994556903839 L-0.12864290177822113,-0.26190415024757385 L-0.11898556351661682,-0.2593088448047638 L-0.10932838916778564,-0.25671347975730896 L-0.09967108815908432,-0.25411805510520935 L-0.090013787150383,-0.25152257084846497 L-0.08035648614168167,-0.24892714619636536 L-0.0706988051533699,-0.2463330328464508 L-0.06104017049074173,-0.24374166131019592 L-0.05138176679611206,-0.24115028977394104 L-0.04172336310148239,-0.23855897784233093 L-0.03206492215394974,-0.2359677255153656 L-0.022404290735721588,-0.23338475823402405 L-0.012743659317493439,-0.23080173134803772 L-0.0030830278992652893,-0.2282187044620514 L0.006577610969543457,-0.22563567757606506 L0.01624005287885666,-0.22305884957313538 L0.025903038680553436,-0.2204846441745758 L0.03556709736585617,-0.21791449189186096 L0.04523204267024994,-0.21534767746925354 L0.05489771068096161,-0.21278414130210876 L0.06456486880779266,-0.21022561192512512 L0.07423275709152222,-0.20766928791999817 L0.08390238881111145,-0.20512011647224426 L0.09357219934463501,-0.202571839094162 L0.1032445877790451,-0.20003315806388855 L0.112916961312294,-0.1974945366382599 L0.12259209156036377,-0.19496652483940125 L0.13226750493049622,-0.192439466714859 L0.14194542169570923,-0.1899220049381256 L0.15162411332130432,-0.1874074637889862 L0.16130498051643372,-0.18490126729011536 L0.17098721861839294,-0.18240049481391907 L0.18067103624343872,-0.1799044907093048 L0.1903567910194397,-0.17741748690605164 L0.20004436373710632,-0.17493757605552673 L0.20973381400108337,-0.17246505618095398 L0.21942520141601562,-0.17000004649162292 L0.22911864519119263,-0.16754290461540222 L0.238814115524292,-0.16509392857551575 L0.24851176142692566,-0.16265389323234558 L0.2582116723060608,-0.1602223813533783 L0.26791372895240784,-0.157799631357193 L0.2776182293891907,-0.15538594126701355 L0.28732481598854065,-0.15298160910606384 L0.29703381657600403,-0.15058675408363342 L0.30674511194229126,-0.14820173382759094 L0.31645897030830383,-0.14582666754722595 L0.3261754810810089,-0.14346179366111755 L0.3358943462371826,-0.1411074697971344 L0.34561583399772644,-0.13876387476921082 L0.35533982515335083,-0.13643130660057068 L0.36506664752960205,-0.1341100037097931 L0.3747963309288025,-0.13180014491081238 L0.38452884554862976,-0.12950268387794495 L0.3942641615867615,-0.1272176206111908 L0.4040026366710663,-0.1249447762966156 L0.4137437045574188,-0.12268462777137756 L0.4234881103038788,-0.12043717503547668 L0.43324413895606995,-0.11824241280555725 L0.4430360496044159,-0.1162138283252716 L0.45285776257514954,-0.11433461308479309 L0.4627022445201874,-0.1125783622264862 L0.4725640118122101,-0.1109212338924408 L0.48243841528892517,-0.1093420684337616 L0.492321640253067,-0.10781726241111755 L0.5022100210189819,-0.10632738471031189 L0.5121005773544312,-0.1048528254032135 L0.5219906568527222,-0.10337308049201965 L0.5318772792816162,-0.1018730103969574 L0.5417574644088745,-0.10033020377159119 L0.5516278743743896,-0.09872481226921082 L0.5614852905273438,-0.09704241156578064 L0.5713249444961548,-0.0952593982219696 L0.5811425447463989,-0.09335854649543762 L0.5909321308135986,-0.09131893515586853 L0.6006872653961182,-0.08912059664726257 L0.6104004383087158,-0.08674302697181702 L0.6200613975524902,-0.08416286110877991 L0.6296607255935669,-0.08136096596717834 L0.6391845941543579,-0.07831314206123352 L0.6486184597015381,-0.07499757409095764 L0.6579452753067017,-0.07139137387275696 L0.6671457290649414,-0.06747439503669739 L0.6761977672576904,-0.06322619318962097 L0.6850773096084595,-0.058628350496292114">
    </path>
  </g>
</svg>