<svg width="800" height="800" viewBox="-0.702577279806137 -0.43806915163993837 1.405154559612274 0.8761383032798767"
  xmlns="http://www.w3.org/2000/svg">
  <g stroke-width=".014" stroke="#050505" fill="none" stroke-linejoin="round" stroke-linecap="round">
    <path
      d="M-.499-.196l.002-.01.004-.01.005-.008.005-.009.004-.009.002-.01v-.01l-.003-.01-.004-.008-.008-.007L-.5-.292l-.01-.004-.01-.002L-.53-.3h-.01l-.01-.001h-.02L-.58-.3l-.009.002-.01.002-.01.002-.009.003-.01.004-.008.005-.007.008-.004.009-.003.009-.003.01-.001.01-.001.01v.04l.002.01v.01l.002.01.002.01.002.009.002.01.002.01.002.01.003.009.002.01.003.01.002.009.003.01.003.01.003.009.004.009.003.01.003.009.004.01.004.009.003.009.004.01.004.008.004.01.004.008.005.01.004.008.005.01.005.008.005.009.005.008.005.009.006.007.007.008.008.006.008.005.01.004.01.003.01.002h.01l.01-.001.009-.002.01-.003.008-.005.009-.005.007-.007.007-.007.006-.008.004-.01.002-.01.002-.009v-.03L-.41.042v-.01l-.002-.01-.006-.006v.02l.001.01.001.01.001.01.001.01.001.01.002.01v.01l.002.01.002.01.001.01.002.01.001.009.002.01.001.01.002.01.002.01.002.01.002.009.002.01.003.01.002.01.003.009.003.01.003.009.003.01.004.009.002.01.003.009.002.01.002.01.002.01.001.01.002.01.002.009.002.01.002-.002" />
    <path
      d="M-.497-.209l.001-.01.005-.008.006-.009.006-.007.007-.007.008-.007.008-.006.008-.005.009-.006.008-.005.01-.004.008-.005.01-.004.009-.003.01-.003.009-.003.01-.001h.02l.01.003.007.006.006.008.004.009.003.01.003.01.002.009.002.01.001.01.002.01v.01l.002.01v.02l.001.01v.01l.001.01v.02l.001.01v.02l.001.01v.02l.001.01.001.01v.01l.002.01.002.009v.05l-.001.01v.01l.001.01.002.01.004.009m.107-.284l-.008-.006-.01-.002-.008.004-.008.007-.005.008-.004.009-.004.01-.003.009-.002.01-.002.01-.002.01v.01l-.002.01v.02l.001.01.002.01.002.009.004.009.006.008.007.007.007.007.007.007.008.007.008.006.008.005.01.004L-.16 0h.01l.009-.003.007-.006.006-.009.003-.01.002-.01.001-.01v-.03l-.001-.009-.002-.01-.001-.01-.002-.01-.003-.01-.003-.009-.003-.01-.003-.009-.004-.009-.002-.006.005.009.005.008.004.01.002.01.003.01.002.009.003.01.004.009.003.01.003.009.004.009.004.01.004.008.004.01.005.008.004.01.005.008.005.008.006.009.006.008.007.007.007.007.008.006.009.005.01.002h.01l.009-.003L.004.03.012.023m-.147-.21l.01-.003.007-.006.008-.006.008-.007.007-.006.008-.006.01-.005.009-.003h.01l.01.004.008.005.008.006.007.007.006.008.005.008.005.009.004.009.004.01.003.009.003.01.003.009.002.01.002.01.003.01.002.009.002.01.002.01.002.01.002.01.001.009.002.01.002.01.001.01.002.01.002-.003-.003-.01-.004-.01-.003-.008.002-.003.006.008.005.01.003.009M-.04-.42l.008.004.006.009.005.008.004.01.003.009.003.01.004.009.002.01.003.01.003.009.003.01.004.009.003.01.003.009.002.01.003.009.002.01.002.01.002.01.002.01.001.009.002.01.001.01.002.01.001.01.001.01.001.01.002.01v.01l.002.01v.01l.002.01v.01l.002.01.001.009.001.01.001.01.002.01.001.01.002.01.001.01.002.01.001.01.002.01.001.009.001.01.002.01.001.01.002.01.002.01.002.01.003.009.003.01.005.008.004.01.005.008.005.009L.1.128" />
    <path
      d="M-.07-.344l.01.005.009.004.01.002.01.001h.03l.01-.001.01-.002.01-.002.009-.002.01-.002.01-.002.01-.003.009-.002.01-.003.01-.002.009-.003.01-.002.01-.002.009-.002.01-.002.01-.002h.01m-.047.143l.004.01.003.009.002.01.002.01.003.009.002.01.002.01.002.01.002.009.002.01.002.01.002.01.001.01.002.01.002.009.001.01.002.01.001.01.002.01v.01l.002.01v.01M.158-.22l.007-.006.008-.006.009-.006.009-.004.01-.003h.02l.009.002.01.004.008.005.008.005.008.007.007.007.007.007.006.008.006.008.006.008.006.008.005.009.005.008.005.009.005.009.004.009.005.009.003.009.002.01.001.01v.02l.001.01.003.01.006.007.006-.003L.35-.06.347-.068l-.002-.01-.003-.01-.003-.009-.003-.01-.003-.009-.003-.01-.002-.01-.002-.009-.002-.01-.001-.01-.002-.01-.001-.01-.001-.01-.001-.01v-.01l-.001-.01v-.03l.002-.01.002-.01.003-.009.004-.009.006-.008L.34-.31l.008-.006.009-.005.009-.003.01-.003h.03l.01.002.009.004.009.004.009.004.008.005.009.006.008.006.007.007.007.007.007.007.007.007.006.008.006.008.006.008.006.008.005.009.005.009.004.009L.54-.2l.004.009.004.01.002.009.003.01.001.01.001.01" />
    <path
      d="M.668-.169l-.01.005L.65-.16l-.01.004-.009.003-.01.004-.008.004-.01.004-.009.004-.009.004-.01.004-.009.003-.01.003-.009.004-.009.003-.01.003L.52-.11l-.01.003-.01.003L.49-.1l-.01.003-.009.003-.01.003-.009.003-.01.003-.009.003-.01.003-.009.003-.01.003-.009.003-.01.003-.01.003-.009.003-.01.003-.009.004-.009.003-.01.003-.009.003-.01.004L.3-.04l-.01.004-.009.003-.009.004-.01.003-.008.004-.01.004-.009.003-.01.004-.009.004-.009.003L.197 0 .188.004.18.008.17.012.162.016.15.019.142.023l-.01.004L.124.03l-.01.004-.01.004-.008.004-.01.003L.077.05l-.01.004-.009.004L.05.06.04.064.032.068.02.072.012.075.002.08l-.008.004-.01.004-.009.003-.01.004-.008.004-.01.004-.009.004-.01.004-.008.003-.01.004-.009.004-.009.004-.01.004-.008.004-.01.004-.009.004-.009.004-.01.004-.008.004-.01.004L-.19.16-.2.165l-.009.004-.01.004-.008.004-.01.004-.008.004-.01.004-.009.004-.009.004-.009.005-.009.004-.01.004-.008.004-.01.005-.008.004-.01.004-.008.004-.01.005-.008.004-.01.004L-.38.25l-.01.004-.008.005-.01.004-.008.004-.01.005-.008.004-.009.005-.009.005-.009.004-.009.005-.008.004-.01.005-.008.005-.009.004-.009.005-.009.005-.008.005-.01.005-.008.004-.009.005-.008.005-.009.005-.009.005-.008.005-.009.005-.009.005-.008.005-.009.005-.008.006-.009.005-.008.005-.009.005-.008.005-.009.006-.006.006.01.002.01-.001.01-.001.01-.002.01-.002.01-.002.009-.002.01-.002.01-.003.009-.003.01-.003.009-.003.01-.004L-.55.39l.01-.003.009-.003.009-.004.01-.003.009-.003.01-.003.009-.003.01-.004.009-.003.01-.003.009-.003.01-.003.009-.003.01-.004.009-.003.01-.003.009-.003.01-.003L-.37.33l.01-.003.009-.003.01-.003.009-.003.01-.003.01-.003.009-.003.01-.003.009-.002.01-.003.01-.003.009-.002.01-.003.01-.003.009-.002.01-.003.01-.002.009-.003.01-.003.01-.002.009-.003.01-.002.009-.003.01-.003.01-.002.009-.003.01-.002.01-.003.009-.002.01-.003.01-.003.009-.002.01-.003.01-.002.009-.003.01-.003.01-.002.009-.003.01-.002.01-.003L.025.22l.01-.002.01-.003.009-.002.01-.003.01-.002.009-.003.01-.002L.104.2.112.197l.01-.002.01-.003L.141.19l.01-.003.01-.002L.17.182.181.18.19.177.2.175.21.172.22.17.23.168.238.165l.01-.002.01-.003.009-.002.01-.003.01-.002.009-.002.01-.003.01-.002.01-.003.009-.002.01-.002.01-.003.01-.002.009-.002.01-.002.01-.003.009-.002.01-.002.01-.003.01-.002.009-.002.01-.002.01-.001.01-.002.01-.002.01-.001.01-.002.01-.001.009-.002.01-.001L.542.1h.01l.01-.002.01-.002.01-.002L.59.091.6.09.61.087.62.084.63.081.64.078.648.075l.01-.004.01-.004.008-.004.01-.004" />
  </g>
</svg>