<svg width="800" height="800" viewBox="-0.1585883814096451 -0.12381865262985237 0.3171767628192902 0.24763730525970473"
  xmlns="http://www.w3.org/2000/svg" xmlns:xlink="http://www.w3.org/1999/xlink">
  <defs>
    <clipPath id="circle" clipPathUnits="objectBoundingBox">
      <circle cx=".5" cy=".5" r=".5" />
    </clipPath>
  </defs>
  <g transform="scale(1.0 -1.0)">
    <path stroke-width="0.0144" stroke="#211759" color_index="12"
      style="fill: none;stroke-linejoin: round;stroke-linecap: round;"
      d="M-0.14108838140964508,0.06384879350662231 L-0.13796280324459076,0.05434983968734741 L-0.13487447798252106,0.04483872652053833 L-0.13180585205554962,0.035321176052093506 L-0.12874449789524078,0.025801241397857666 L-0.12569458782672882,0.016277730464935303 L-0.12265007197856903,0.006752431392669678 L-0.11961035430431366,-0.0027744174003601074 L-0.11657588183879852,-0.012302815914154053 L-0.11354674398899078,-0.02183300256729126">
    </path>
    <path stroke-width="0.0144" stroke="#211759" color_index="12"
      style="fill: none;stroke-linejoin: round;stroke-linecap: round;"
      d="M-0.07048211991786957,0.03008061647415161 L-0.07268653810024261,0.03956848382949829 L-0.08033056557178497,0.0344274640083313 L-0.08540605008602142,0.0258217453956604 L-0.08950741589069366,0.016705214977264404 L-0.09280915558338165,0.007269561290740967 L-0.09509904682636261,-0.0024573206901550293 L-0.09530274569988251,-0.012405216693878174 L-0.08832050859928131,-0.017862379550933838 L-0.07947145402431488,-0.01354604959487915 L-0.07360868155956268,-0.005485594272613525 L-0.06923307478427887,0.003500998020172119 L-0.06555964052677155,0.012800514698028564 L-0.062216177582740784,0.022224843502044678 L-0.05829860270023346,0.029192864894866943 L-0.057560995221138,0.01922827959060669 L-0.05591927468776703,0.00936514139175415 L-0.05395297706127167,-0.0004394650459289551 L-0.05186392366886139,-0.010218799114227295 L-0.04975254833698273,-0.019993364810943604 L-0.04768483340740204,-0.029777228832244873 L-0.045721665024757385,-0.03958255052566528 L-0.043928250670433044,-0.049420177936553955 L-0.04239167273044586,-0.05930107831954956 L-0.04124130308628082,-0.06923359632492065 L-0.04071064293384552,-0.07921689748764038 L-0.041304782032966614,-0.08918887376785278 L-0.044469788670539856,-0.09859412908554077 L-0.05235676467418671,-0.10449463129043579 L-0.06213836371898651,-0.1063186526298523 L-0.07207445800304413,-0.10539382696151733 L-0.08163665235042572,-0.10251539945602417 L-0.09052400290966034,-0.09796243906021118 L-0.09830321371555328,-0.09171348810195923 L-0.10408680140972137,-0.08361130952835083 L-0.10627545416355133,-0.07394462823867798 L-0.1038721352815628,-0.06432527303695679 L-0.09722645580768585,-0.05691593885421753 L-0.08936484158039093,-0.05074042081832886 L-0.08119253814220428,-0.04497796297073364 L-0.07294563949108124,-0.03932219743728638 L-0.06478072702884674,-0.033549368381500244 L-0.05697371065616608,-0.027306854724884033 L-0.051043346524238586,-0.01942652463912964">
    </path>
    <path stroke-width="0.0144" stroke="#211759" color_index="12"
      style="fill: none;stroke-linejoin: round;stroke-linecap: round;"
      d="M-0.047458335757255554,0.060779035091400146 L-0.03825514018535614,0.057263314723968506 L-0.030776038765907288,0.05065208673477173 L-0.02437247335910797,0.04297834634780884 L-0.018733933568000793,0.03472334146499634 L-0.013810411095619202,0.02602308988571167 L-0.009958341717720032,0.016808927059173584 L-0.014170482754707336,0.013586938381195068 L-0.018514171242713928,0.022413194179534912 L-0.01940728724002838,0.03235441446304321 L-0.018679097294807434,0.04232090711593628 L-0.016787812113761902,0.05213505029678345 L-0.013766303658485413,0.06166046857833862 L-0.009292319416999817,0.07058507204055786 L-0.002313658595085144,0.0776013731956482 L0.007184013724327087,0.07713514566421509 L0.012823209166526794,0.06908434629440308 L0.015019431710243225,0.05934935808181763 L0.015655145049095154,0.04937499761581421 L0.015348121523857117,0.03938251733779907 L0.014013722538948059,0.029507219791412354">
    </path>
    <path stroke-width="0.0144" stroke="#211759" color_index="12"
      style="fill: none;stroke-linejoin: round;stroke-linecap: round;"
      d="M0.038497164845466614,0.09608215093612671 L0.02994711697101593,0.0910385251045227 L0.02390439808368683,0.08313256502151489 L0.02047853171825409,0.07376915216445923 L0.019451692700386047,0.06384545564651489 L0.020842447876930237,0.05397063493728638 L0.025042876601219177,0.04495030641555786 L0.03249065577983856,0.038425981998443604 L0.042162880301475525,0.0363042950630188 L0.05195413529872894,0.038128435611724854 L0.06120587885379791,0.041897475719451904 L0.06959660351276398,0.047300517559051514 L0.07630126178264618,0.0546686053276062 L0.08023492991924286,0.06380599737167358 L0.08084946870803833,0.07374221086502075 L0.07851625978946686,0.08343499898910522 L0.07385687530040741,0.09225708246231079 L0.06726466119289398,0.09974318742752075 L0.05887101590633392,0.10509282350540161 L0.049086228013038635,0.1063186526298523">
    </path>
    <path stroke-width="0.0144" stroke="#211759" color_index="12"
      style="fill: none;stroke-linejoin: round;stroke-linecap: round;"
      d="M0.08761461079120636,0.028545677661895752 L0.07766285538673401,0.027678072452545166 L0.06789009273052216,0.02557748556137085 L0.05832032859325409,0.02268284559249878 L0.04894067347049713,0.01921898126602173 L0.03973554074764252,0.015313804149627686 L0.030694052577018738,0.011043131351470947 L0.021810099482536316,0.006453335285186768 L0.013083592057228088,0.00157088041305542 L0.004521295428276062,-0.00359421968460083 L-0.0038614124059677124,-0.009045779705047607 L-0.012034967541694641,-0.014805972576141357 L-0.019946202635765076,-0.02092081308364868 L-0.027486011385917664,-0.02748662233352661 L-0.03439818322658539,-0.034704744815826416 L-0.03974609076976776,-0.043103158473968506 L-0.03738124668598175,-0.051825106143951416 L-0.027697309851646423,-0.05390852689743042 L-0.017716631293296814,-0.05342990159988403 L-0.007823392748832703,-0.051986634731292725 L0.001978263258934021,-0.05000871419906616 L0.011625900864601135,-0.04739433526992798 L0.02099524438381195,-0.04390662908554077 L0.030123457312583923,-0.03982573747634888 L0.039100125432014465,-0.0354195237159729 L0.04804016649723053,-0.030939042568206787 L0.057059064507484436,-0.026620447635650635 L0.06626467406749725,-0.02271813154220581 L0.07572899758815765,-0.01949864625930786 L0.08537308871746063,-0.016856253147125244 L0.09504906833171844,-0.014331281185150146 L0.10468941926956177,-0.011674582958221436 L0.11423423886299133,-0.008694469928741455 L0.12360142171382904,-0.0051988959312438965 L0.13264679908752441,-0.0009450316429138184 L0.14108838140964508,0.004397690296173096">
    </path>
  </g>
</svg>