<svg width="800" height="800" viewBox="-0.1585883814096451 -0.12381865262985237 0.3171767628192902 0.24763730525970473" xmlns="http://www.w3.org/2000/svg"><path d="M-.141-.064l.003.01.003.01.003.009.003.01.003.009.003.01.003.009.003.01.003.009M-.07-.03l-.003-.01-.007.006-.005.008-.005.01-.003.009-.002.01v.01l.007.005.009-.004.005-.009.005-.009.003-.009.004-.01.004-.006v.01l.002.01.002.01.002.01.002.009.002.01.002.01.002.01.002.01v.01l.001.01v.01l-.003.009-.008.005-.01.002h-.01l-.01-.003L-.09.098-.098.092-.104.084l-.002-.01.002-.01.007-.007L-.09.05l.008-.006.008-.006.008-.005.008-.007.006-.008m.005-.078l.009.003.007.006.007.008.005.008.005.009.004.01-.004.002-.005-.008v-.02l.002-.01.003-.01.005-.009.007-.007h.01l.005.009.002.01v.02l-.001.01m.024-.067L.03-.091l-.006.008-.004.01v.019l.005.009.007.007.01.002.01-.002.01-.004.008-.005.006-.008.004-.009v-.02L.074-.091.067-.1.06-.105.05-.106m.038.077l-.01.001-.01.002-.01.003-.01.004-.008.004-.01.004-.008.005-.009.004-.008.006-.009.005-.008.006L-.02.02l-.007.006-.007.008-.006.008.003.009.01.002h.01l.01-.002L.001.05l.01-.003L.02.044.031.04.038.035l.01-.004.01-.004.008-.004.01-.004.01-.002.009-.003.01-.002.01-.003.009-.004.009-.004.008-.005" stroke-width=".014" stroke="#211759" fill="none" stroke-linejoin="round" stroke-linecap="round"/></svg>