<svg width="800" height="800" viewBox="-1.0369912552833558 -0.5571295785903931 2.0739825105667116 1.1142591571807863" xmlns="http://www.w3.org/2000/svg"><path stroke-width=".014" stroke="#80243c" d="M-.458-.327l-.01-.001-.01-.002-.01-.002-.01-.003-.009-.002-.01-.002-.01-.001h-.02l-.01.003-.008.004-.008.006-.008.006-.008.007-.007.007-.006.008-.006.008-.005.008-.006.009-.004.008-.005.01-.004.008-.004.01-.004.009-.003.01-.003.009-.003.01-.003.009-.002.01-.003.01-.002.01-.002.009-.002.01-.002.01-.002.01-.001.01-.001.01-.002.01-.001.009-.001.01-.001.01-.001.01v.01l-.001.01-.001.01v.01l-.001.01v.03l-.001.01v.09l.001.01.001.01.001.01.002.01.002.01.002.01.002.009.003.01.004.009.004.009.004.009.006.008.006.008.007.007.008.006.008.005.01.004.01.003.009.002.01.002h.03l.01-.002h.01l.01-.001.01-.002L-.5.27l.01-.002.009-.004.009-.005.008-.006.007-.007L-.45.24l.005-.01.004-.009.003-.01.002-.01.002-.01v-.04l-.002-.01-.001-.009-.002-.01-.001-.01-.002-.01-.002-.01-.002-.01L-.45.074V.063l-.002-.01-.003-.009-.002-.01-.002-.01-.003-.01-.002-.009-.002-.01-.002-.01-.002-.01-.002-.01-.002-.009v-.01l-.002-.01v-.04l.002-.01.003-.01.004-.008.005-.009.006-.008.006-.008.006-.008.006-.008.006-.008.007-.008.006-.007.007-.007.007-.008.007-.007.007-.007.007-.007.007-.008.007-.007.007-.007.007-.007.007-.006.008-.007.008-.006.008-.006.008-.006.008-.005.009-.006.008-.005.009-.005.009-.004.01-.004.008-.004.01-.003.01-.002.01-.001h.01l.01.003.006.007.003.01v.01l-.002.01-.003.009-.004.009-.004.01-.004.008-.004.01-.004.009-.002.01-.001.01-.002.01-.001.009-.002.01-.002.01-.002.01-.002.01-.002.01-.002.009-.002.01-.002.01-.002.01-.002.01-.002.009-.002.01-.003.01-.002.01-.002.009-.002.01-.002.01-.002.01-.002.009-.002.01-.002.01-.002.01-.002.01-.002.009-.003.01-.002.01-.002.01-.001.01v.019l.005.009.008.006.01.004.009.002.01.002h.02l.01-.002.01-.002.01-.002.009-.003.009-.004.01-.004L-.159.1l.01-.005L-.14.09l.008-.006.009-.005.008-.006.008-.005.008-.006.008-.007.008-.006.007-.007.008-.006.007-.007.007-.008.006-.007.007-.008L-.035 0l.006-.008.007-.008.006-.008.006-.008.006-.008L0-.049l.006-.008.006-.009.005-.008.006-.008.005-.009L.034-.1l.005-.008.005-.009.005-.009.004-.008.005-.01.005-.008.004-.01.004-.008.005-.01.004-.008.004-.01.004-.009.004-.009.003-.01L.1-.233l.004-.01.004-.009.003-.01.004-.009.003-.009.004-.01.002-.01.004-.01.003-.009.003-.009.004-.01.003-.009.003-.01.004-.009.003-.01.003-.009.004-.009.003-.01.003-.009.004-.01.003-.009.004-.009.004-.01.004-.008.005-.01.005-.008.005-.008.005-.009.006-.008.007-.007.007-.007.007-.007.009-.006.009-.004.009-.004.01-.002h.02l.01.002.009.003.01.003.008.004.01.005.008.005.008.006.008.005.008.006.008.007.008.006.007.006.008.007.007.007.007.007.008.007.007.007.007.007.007.007.006.008.007.007.007.007.007.007.007.007.007.007.007.008.007.007.007.007.007.007.006.008.007.008.006.008.006.008.006.008.005.008.005.01.004.008.004.01.003.009.002.01.002.01v.01l.001.01v.03l-.002.01-.001.01-.003.009-.003.01-.003.009-.005.009-.004.009-.005.008-.006.008-.006.008-.007.008L.514-.1l-.007.007-.008.006-.008.006-.008.006-.008.006-.009.005-.009.005-.008.004-.01.005-.008.004-.01.004-.009.004-.01.003-.009.003-.01.004-.009.003-.01.002-.009.003-.01.003-.01.002-.009.002-.01.003-.01.002-.01.002-.01.001-.01.002L.268 0H.257l-.01.002-.01.001-.01.001-.01.002h-.01l-.01.002-.01.001-.01.001-.01.001-.01.001h-.01l-.01.002H.129l-.01.001-.01.001h-.01l-.01.002h-.01L.068.02h-.01l-.01.001-.01.001-.01.001h-.01l-.01.002h-.01l-.01.002h-.01l-.01.002h-.01l-.01.002h-.01l-.01.001-.01.001h-.01l-.01.001-.01.001h-.01l-.01.001h-.02l-.01.001h-.059l-.01.001h-.14l-.01-.001h-.03l-.01-.001H-.52l-.01.001h-.01l-.01.001-.01.001h-.01l-.01.002h-.01L-.6.043l-.01.001-.01.002h-.01l-.01.002-.01.001-.01.002-.01.001-.01.002-.009.002-.01.002-.01.002-.01.002-.009.002-.01.003-.01.002-.009.003-.01.003-.009.003-.01.004-.009.003-.009.004-.01.004-.008.005-.01.002-.009.005-.008.005-.009.005-.008.006-.009.005-.008.006-.008.006L-.9.144-.907.15l-.008.006-.008.007-.008.006-.007.007-.007.007-.007.007-.007.008-.005.008-.005.009-.003.01v.01l.004.008.007.008.008.005.01.004.009.003.01.003.01.002.009.001.01.002h.01l.01.002h.02l.01.001h.09l.01-.001h.01l.01-.001h.01l.01-.002h.02l.01-.002h.01l.01-.001.01-.001h.01l.01-.002h.059l.01-.001h.02l.01-.001h.01l.01-.001h.01l.01-.001h.01l.01-.001h.01l.01-.002h.01l.01-.001h.01l.01-.002h.01l.009-.002h.01l.01-.001.01-.002h.01l.01-.002h.01l.01-.002.01-.001.01-.001.01-.002.01-.001.01-.001.01-.002.009-.001.01-.001.01-.002.01-.001.01-.002.01-.001.01-.002.01-.002.01-.001.009-.002.01-.002.01-.001.01-.002.01-.002.01-.002L-.1.212-.09.21l.01-.002.01-.002.01-.002.01-.002L-.04.2l.01-.002.01-.002.01-.002L0 .192.008.19l.01-.002.01-.002.01-.002.009-.002.01-.003.01-.002.01-.002.009-.002.01-.002.01-.003.01-.002.009-.002.01-.003.01-.002.01-.002.009-.003.01-.002.01-.002.009-.003.01-.002.01-.003.01-.002.009-.003.01-.002.01-.002L.261.13l.01-.002.01-.003L.29.122.3.12.31.117.32.115.33.112.34.11.348.107l.01-.003.01-.002.009-.003.01-.002.01-.003L.406.09h.011L.425.086l.01-.003.01-.002.009-.003.01-.003.01-.003L.483.07l.01-.003.009-.003.01-.002.01-.003.009-.003.01-.003.01-.002L.56.048.57.045.58.042.59.04.599.036l.01-.004L.617.03l.01-.005.01-.004.008-.004.01-.003L.664.01l.01-.004.009-.003.009-.004.01-.004.008-.003.01-.004.01-.003.009-.004.009-.003.01-.004.009-.003.01-.003.009-.004.01-.003.009-.003.01-.003.009-.003.01-.003.009-.002.01-.003.01-.002.01-.003.009-.002.01-.002.01-.001.01-.002.01-.001.01-.001h.03l.01.001.009.003.01.003.008.005.008.006.006.008.004.01.002.01v.02l-.001.009-.003.01-.002.01-.004.009-.004.009-.004.009L.995.06.99.07.984.077.977.084.971.092.964.099.956.105.95.112.94.118.933.124.925.13.916.136.908.14.899.146.891.151.882.156.873.161.864.165.855.17.846.174.837.18.828.183.82.187.81.191.801.195.791.2.784.203l-.01.004-.01.003-.01.004-.008.003-.01.004-.009.004L.718.23l-.01.004L.7.238.69.242.682.246l-.01.005-.009.004L.655.26l-.01.004L.638.27.63.275.62.281.613.287.605.293.597.299.589.305.58.31.572.316.564.321l-.01.005L.547.33l-.01.004-.01.002-.01.002h-.01L.498.334.487.332.48.326.471.321.463.315.455.309.447.303.44.296.432.29.424.283.417.277.409.27.402.263.395.256.388.249.38.242.374.235.367.227.361.22.354.212.347.205.341.197.335.189.328.182.322.174.316.166.31.158.304.15.298.142.293.133.287.125.282.117.276.108.271.1.266.09.26.083.256.073.25.066.246.056.242.047.238.038.234.03.23.02.226.012.222 0 .22-.009.216-.017l-.003-.01-.004-.009-.003-.01-.002-.009L.2-.066.198-.074l-.003-.01-.003-.01L.19-.103l-.002-.01-.003-.009-.003-.01-.003-.01-.002-.009-.003-.01L.17-.17.167-.18.164-.19.16-.2.157-.208l-.003-.01-.003-.009-.004-.01-.004-.008-.003-.01-.004-.009-.006-.01-.003-.009-.005-.009L.118-.3.113-.309.108-.318.102-.326.096-.334.09-.342.084-.35.078-.358.07-.365.064-.372.055-.378.047-.383l-.01-.004L.029-.39l-.01-.002-.01-.001-.01-.001h-.05l-.01.001h-.01l-.01.001-.01.001h-.01l-.01.001-.01.001-.01.001-.01.001h-.01l-.01.002h-.01l-.01.002h-.01l-.01.002-.009.001-.01.001-.01.002h-.01l-.01.002-.01.001-.01.002h-.01l-.01.002-.01.002-.01.001-.01.001-.009.002-.01.001-.01.002-.01.001-.01.002-.01.001-.01.002-.01.001-.009.002-.01.002-.01.001-.01.002-.01.001-.01.002-.01.001-.01.002-.009.002-.01.001-.01.002-.01.001-.01.002-.01.002-.01.001-.01.002-.009.001-.01.002-.01.001-.01.002h-.01l-.01.002-.01.001-.01.001-.01.001-.01.001-.01.001-.01.001h-.01l-.01.002h-.02l-.01.001h-.01l-.01.001h-.04l-.01.001h-.02l-.01-.001-.009-.001h-.01l-.01-.001h-.02l-.01.002-.01.003-.008.005-.008.006-.006.008-.005.009-.004.009-.003.01-.002.01v.009l.003.01.004.009.005.008.007.008.007.007.008.006.008.006.008.006.009.004.009.005.009.004.01.004.008.004.01.003.01.003.009.003.01.003.01.002.009.002.01.002.01.001.01.002h.01l.01.002h.01l.01.002h.01l.01.002h.01l.01.001.01.001h.01l.01.001.01.001h.01l.01.001h.01l.01.001h.01l.01.001h.01l.01.001h.01l.01.001h.01l.01.001.009.001h.01l.01.001h.01l.01.001h.01l.01.001h.01l.01.002h.01l.01.001h.01l.01.002h.01l.01.001.01.001.01.001.01.001.01.001.01.001.01.002.01.001.01.001.01.002.009.001.01.002.01.001.01.002.01.002.01.002.009.002.01.002.01.002.01.002.009.003.01.002.01.003.009.003.01.002.01.003.009.004.01.003.009.003.009.004.01.003.009.004.009.004.009.004.009.004.009.004.009.005.009.004.009.005.008.005.008.006L.03 0l.008.007.006.007.007.008.005.008.004.01.005.009.004.01.003.008.003.01.003.01.003.01.002.009.003.01.003.009.003.01.004.009.003.01.004.009.003.009.003.01.003.009.003.01.003.01.003.009.002.01.002.01.002.01v.01l.001.01v.009l-.003.01L.12.296.114.305.108.312.1.32.093.326.085.332.077.338.068.343.06.348.05.352.043.357.032.36.023.364l-.01.003L.005.37l-.01.002-.01.002-.01.002h-.01l-.01.001h-.02l-.01-.002-.009-.003-.01-.004-.008-.004L-.11.357-.117.35-.123.342l-.004-.01-.002-.01-.002-.01v-.02l.002-.009.002-.01.003-.01.003-.009.005-.009.005-.008.006-.008.007-.008.007-.007.007-.007.008-.006.008-.006.008-.006.008-.006.009-.005.008-.005.009-.005.009-.005.009-.004L0 .155.01.15.019.146.028.142.037.138l.01-.004L.054.13l.01-.004.009-.004.01-.003.008-.004.01-.004L.11.107.12.104.13.1.139.097l.01-.004L.157.09l.01-.004.008-.003.01-.003.01-.004.009-.003.01-.003.009-.003.01-.004L.242.06l.01-.003.009-.003.01-.003L.28.048.29.045.3.042.31.04.32.037.328.034.339.03.347.028l.01-.003.01-.002L.376.02l.01-.003.01-.002.009-.003.01-.003.009-.002.01-.003.01-.003L.453 0l.01-.003.01-.002.009-.003.01-.002.01-.003.009-.002.01-.003.01-.003.009-.002.01-.003.01-.002.009-.003.01-.002.01-.003.009-.002.01-.003.01-.002.009-.003.01-.002.01-.003.009-.003.01-.002.01-.003.01-.002.009-.003.01-.002.01-.002.009-.003.01-.003.01-.002.009-.003.01-.003.009-.003.01-.003.009-.003.01-.003L.81-.1l.01-.003.008-.004.01-.004.009-.004.009-.004.009-.005.008-.005.009-.005.008-.005.01-.005.007-.006.008-.007.007-.007.007-.007.005-.008.005-.01.004-.008.003-.01v-.01l.001-.01v-.02l-.001-.01-.002-.01-.003-.01-.004-.009-.005-.008-.005-.009L.921-.31.914-.318.906-.324.898-.33.89-.335.88-.34.873-.344l-.01-.004-.01-.003-.009-.002-.01-.003-.01-.002-.01-.002-.01-.001-.009-.002h-.01l-.01-.002h-.01l-.01-.001h-.01l-.01-.001h-.02l-.01-.001h-.04L.654-.37h-.22l-.01.001h-.04l-.01.001h-.03l-.01.001h-.02l-.01.001h-.02l-.01.001h-.02l-.01.001h-.02l-.01.001h-.02l-.01.001h-.02l-.01.001h-.01l-.01.001h-.02l-.01.001h-.02l-.01.001h-.02l-.01.001h-.02l-.01.001h-.02l-.01.001h-.02l-.01.001h-.03l-.01.001h-.03l-.01.001h-.04l-.01.001h-.16l-.01-.001h-.01l-.01-.001h-.01l-.01-.001h-.02l-.01-.001h-.01l-.01-.001h-.01l-.01-.001h-.01l-.01-.001h-.03l-.01-.001h-.05l-.01-.001h-.01l-.01-.002-.009-.002-.01-.003-.008-.005-.008-.007-.003-.009v-.01l.002-.01.004-.009.009-.002.009.004.008.006.008.006.007.007.008.006.007.007.007.007.007.007.007.008.007.007.007.007.007.008.006.007.007.007.007.008.006.007.007.008.006.008.007.007.006.008.007.008.006.007.006.008.006.008.006.009.005.008.006.008.006.008.006.008.006.008.005.008.006.008.006.008.007.008.006.008.006.008.006.008.007.007.006.008.007.007.007.008.007.007.007.007.007.007.007.007.008.007.007.006.008.007.008.006.008.006.008.005.008.006.009.005.008.006.009.005.009.004.009.005.009.004.009.004.009.004.01.004.009.003.01.003.009.003.01.003.01.002.009.003.01.002.01.003.009.002.01.003.01.002.009.002.01.003.01.002.01.002.009.002.01.002.01.002.01.002.01.002.009.002.01.002.01.002.01.001.01.002.01.002.01.001.009.002.01.001.01.002.01.001.01.002.01.001.01.002h.01l.01.002.01.001.009.002h.01l.01.002h.01l.01.002h.01l.01.002h.01l.01.002h.01l.01.001.01.001h.01l.01.002h.01l.01.001h.01l.01.001h.01l.01.001h.01l.01.001h.01l.01.001h.02l.01.001h.03l.01.001h.129l.01.001h.03l.01.001h.01l.01.001h.01l.01.001h.01L.725.1h.01l.009.002.01.001.01.002.01.001.01.003.01.002.008.004.01.004.005.008.002.01v.01l-.002.01-.002.01v.02l.002.01.004.008.004.01.004.009.004.009.004.009.004.01.003.009.002.01.002.01V.3L.844.31.84.318.833.326.827.334.819.34.812.347.804.353.795.358.787.364l-.01.004L.77.373.76.377.75.38.74.384.732.387.722.39l-.01.003-.01.003-.009.002L.683.4l-.01.003-.01.002-.009.002-.01.002-.01.001-.01.002-.01.002-.01.001-.01.002-.009.002-.01.001-.01.002-.01.001-.01.002-.01.001-.01.002-.01.002-.009.002-.01.002-.01.002-.01.003L.468.44l-.01.003-.01.002L.439.45l-.01.003L.42.454.41.457.4.46.39.463.38.466.372.47l-.01.003-.009.003-.01.003-.009.003-.01.003-.009.003-.01.003-.01.003-.009.003L.276.5H.267l-.01.003-.01.003-.009.002-.01.003-.01.002-.009.002-.01.003-.01.002-.01.002-.01.001L.16.526.15.528.14.529.13.531H.12L.11.534H.1L.09.536H.06L.05.538H.02L.01.54h-.12L-.12.537h-.01L-.14.536h-.01L-.16.535h-.01L-.18.534H-.2L-.21.532h-.01L-.23.53h-.01L-.25.528h-.02L-.28.527-.29.526-.3.525-.31.524-.32.523h-.01L-.34.52h-.01L-.36.518h-.01L-.38.516h-.01L-.4.515-.41.514-.42.513-.43.512H-.5L-.51.51h-.04L-.56.508h-.01L-.58.506h-.009l-.01-.002-.01-.001-.01-.001L-.629.5l-.01-.002-.01-.002-.009-.002-.01-.003-.01-.003-.009-.003-.009-.004-.009-.004-.009-.005-.008-.006L-.729.46-.735.452-.739.443l-.003-.01v-.02l.001-.01.003-.009.005-.009.006-.008.007-.006.009-.006.008-.005.01-.003.01-.003.01-.002.009-.002.01-.002h.01l.01-.001h.06l.01.001.01.001h.01l.01.002h.01l.01.001.01.001h.01l.01.001h.109l.01-.001h.03l.01-.001h.02l.01-.001h.02l.01-.001h.01l.01-.001h.01l.01-.001h.01l.01-.001h.01l.01-.001h.01l.01-.001h.01l.01-.002h.02l.01-.002h.01l.01-.001h.01l.01-.002h.009l.01-.001.01-.001.01-.001.01-.001h.01l.01-.002h.01L.015.33h.01l.01-.002.01-.001.01-.001.01-.001.01-.001.01-.002h.01L.104.32.113.319l.01-.002h.01l.01-.002.01-.002.01-.001.01-.001.01-.002.01-.001.01-.002.009-.001.01-.002.01-.001L.243.3l.01-.002.01-.001.01-.002.01-.002.009-.002.01-.001.01-.002.01-.002.01-.002.01-.002L.35.28.36.278.37.276.38.274.39.272.4.27.41.268.42.265.428.263l.01-.002.01-.002.01-.003.009-.002.01-.003.01-.002.009-.003.01-.002.01-.003L.525.24l.01-.003.01-.003.009-.002.01-.003.01-.003.009-.003.01-.003.009-.003.01-.003L.621.21l.01-.003L.64.204.65.2.66.197.67.194.678.191l.01-.004.009-.004.009-.004.009-.005.008-.006.009-.005.007-.006L.747.15.754.143.761.136.768.128.774.12.779.112.784.103.79.095l.004-.01.004-.009L.8.066.803.058l.003-.01.002-.01L.81.029V.018l.001-.01v-.01l.001-.01v-.03l-.001-.01v-.01L.81-.072l-.001-.01-.002-.01-.002-.01-.002-.01L.801-.12.8-.13.796-.14.794-.15.79-.16.788-.168l-.004-.01-.003-.009-.003-.01-.004-.009-.004-.01-.004-.009-.004-.01-.004-.008-.005-.01L.75-.26.744-.27.74-.279.735-.288.731-.297l-.004-.01-.003-.008-.004-.01-.003-.01-.004-.009L.71-.353l-.003-.01-.003-.009L.7-.382l-.003-.01L.695-.4.692-.41.69-.42.688-.43.685-.44.683-.45.68-.458l-.003-.01L.67-.475.665-.47.66-.46v.01l-.002.01v.01l-.002.01v.01L.653-.4l-.001.01v.01L.65-.37v.01l-.001.009-.003.01-.003.01-.003.009-.003.01-.003.009-.004.01-.003.009-.003.01-.003.009-.003.009-.004.01-.003.009-.003.01-.003.009-.004.01L.598-.2l-.003.01-.005.01-.003.009-.004.01-.003.009-.004.009-.003.01-.004.009-.004.009-.004.009-.004.01-.004.008-.004.01-.005.008-.004.01-.005.008-.004.009-.005.009-.005.009-.005.008-.005.009L.506 0 .501.008.495.017.489.025.483.033.477.04.47.048.464.056.457.063.45.071.443.078.436.085.43.09.42.098.413.104.406.11.398.116.389.122.381.127.372.132.364.137l-.01.005-.009.004L.336.15l-.01.003-.009.004-.01.003-.009.002-.01.003-.01.002L.27.169.259.17.25.172H.24L.23.175H.22L.21.176H.2L.19.177H.01L0 .179-.01.18l-.01.001-.01.002-.01.001-.009.002-.01.002-.01.001-.01.002-.01.001-.01.002-.01.002-.01.001-.009.001-.01.002-.01.001-.01.001-.01.001h-.01l-.01.001h-.01l-.01.001h-.02l-.01-.002h-.01L-.258.2l-.01-.002-.009-.003-.01-.005-.009-.004L-.305.18-.313.176l-.01-.004L-.33.167-.34.162-.349.157-.357.153l-.01-.005-.008-.005-.009-.005-.009-.004L-.4.129-.41.124-.418.12-.43.115-.436.111l-.01-.005-.008-.004-.01-.004-.008-.004-.01-.004-.009-.004L-.5.082-.511.08-.52.075-.53.072-.538.068l-.01-.003-.01-.003-.009-.003-.01-.003-.009-.004-.01-.003-.009-.003-.01-.004L-.623.04l-.01-.005-.01-.003L-.65.028-.66.024-.67.02-.68.016-.687.012l-.01-.004-.008-.005L-.715 0l-.009-.005-.008-.005-.009-.005-.008-.006-.009-.005-.008-.006-.008-.006-.007-.007-.008-.006-.007-.007-.007-.008-.006-.007-.006-.008-.006-.009-.005-.008-.004-.01-.004-.009-.003-.01-.002-.009-.001-.01.001-.01.005-.008.008-.007.008-.005.01-.005.008-.004.01-.003.01-.003.009-.002.01-.003.01-.002.01-.001.01-.002.01-.002.01-.001.009-.001.01-.001.01-.001.01-.001.01-.001h.01l.01-.002h.02l.01-.001h.01l.01-.001h.03l.01-.001h.08l.01-.001h.02l.01-.001h.02l.01-.001h.01l.01-.001h.01l.01-.001h.01l.01-.001h.01l.01-.002h.02l.01-.002h.01l.01-.001.01-.001.01-.001.01-.001.01-.001.01-.001.01-.001.009-.001.01-.001.01-.002h.01l.01-.002h.01l.01-.002h.01l.01-.002h.01l.01-.002h.01l.01-.002h.01l.01-.002.01-.001.01-.001.01-.001.009-.001.01-.001.01-.001.01-.001.01-.001.01-.001.01-.001.01-.001.01-.001.01-.001.01-.001.01-.001h.01l.01-.002h.01l.01-.001.01-.001h.01l.01-.001h.02l.01-.001h.249l.01.002h.01l.01.001.01.001.01.001.009.001h.01l.01.002h.01l.01.001h.01l.01.001.01.001h.02l.01.001h.061l.01-.001h.01l.01-.002.01-.001.01-.002.01-.002.01-.002.009-.002.01-.003.009-.004.009-.004.008-.005.01-.006.007-.006.007-.008.005-.008.004-.01.002-.01.002-.009v-.01l-.002-.01-.002-.01L.8-.382.796-.39.792-.4.788-.41.784-.417.778-.426.772-.434.765-.441.757-.447.749-.453l-.01-.005-.008-.004-.01-.003-.01-.003-.01-.002-.009-.002h-.01l-.01-.002h-.05l-.01.001h-.01l-.01.002h-.01l-.01.002h-.01l-.01.002h-.01l-.01.001-.01.001h-.01l-.01.002h-.01l-.01.002h-.01l-.01.002-.01.001-.009.001-.01.002-.01.001-.01.001-.01.002-.01.001-.01.002-.01.001-.01.002-.01.001-.009.002-.01.002-.01.002-.01.001-.01.002-.01.002-.009.002-.01.001-.01.002-.01.002-.01.002-.01.002-.009.002-.01.002-.01.002-.01.002-.01.002-.009.001-.01.002-.01.002-.01.002-.01.002-.01.002-.009.002-.01.002-.01.002-.01.002-.01.002L.07-.39l-.01.002-.01.002-.01.002-.01.001-.01.002-.01.002L0-.377l-.01.001-.01.002-.01.001-.01.002-.01.001-.01.002-.01.001-.01.002h-.009l-.01.002-.01.001-.01.001-.01.002h-.01l-.01.002h-.01l-.01.001-.01.001h-.01l-.01.001h-.08l-.01-.001h-.01l-.01-.002h-.01l-.01-.001-.01-.002h-.01l-.009-.002-.01-.002-.01-.001-.01-.002-.01-.002-.01-.002-.01-.002-.009-.002-.01-.002-.01-.003-.009-.002-.01-.003-.009-.003-.01-.004-.009-.003L-.503-.4l-.01-.004-.008-.005-.009-.004-.009-.005-.009-.004-.009-.005-.009-.004-.008-.005-.01-.004-.008-.005-.01-.004-.009-.004-.009-.004-.01-.004-.009-.003-.01-.003-.009-.003-.01-.002-.01-.002-.01-.001-.01-.001h-.01l-.009.001-.01.003-.01.003-.008.004-.01.004-.009.004-.009.005-.008.004-.01.005-.008.005-.008.005-.009.006-.008.005-.009.006-.008.005-.008.006-.008.006-.008.006-.008.006-.007.007-.008.006-.008.007-.007.006-.008.007-.007.007-.007.007-.007.007-.007.007-.007.007-.007.007-.006.008-.007.008-.005.008-.006.008-.005.009-.005.009-.005.008-.004.01L-1-.235l-.004.009-.003.01-.003.009-.003.01-.002.01-.002.01-.001.009-.001.01v.03l.001.01.002.01.002.01.003.01.003.008.004.01.005.009.005.008.006.008.006.008.007.007.007.007.008.007.008.006.008.005.009.005.009.005.009.005.008.004.01.005.008.005.009.004.009.005.008.005.009.006.008.006.008.006.007.006.007.008.006.007.005.009.004.01.003.009.002.01v.02l-.001.01-.002.01-.001.01-.002.01-.003.009-.002.01-.003.01-.002.009-.003.01-.003.009-.004.01-.003.009-.003.01L-.84.27l-.003.01-.004.009L-.85.3l-.003.009-.003.01-.002.009-.003.01-.003.01-.002.009-.002.01-.002.01-.002.01-.001.01v.01l-.001.01v.02l.001.01.002.01.002.009.003.01.003.009.005.009.005.008.008.007.008.005.01.004.009.004.01.002.01.002.009.002h.01l.01.001h.05l.01-.001.01-.001h.01l.01-.002h.01l.01-.002h.01L-.64.52h.08l.01-.001h.02l.01-.001h.01L-.5.516h.01l.01-.001.01-.001h.01l.01-.002h.01l.01-.001.01-.001.01-.001.01-.001h.01l.01-.002.01-.001.009-.001.01-.001.01-.001.01-.002h.01l.01-.002.01-.001.01-.002.01-.001.01-.002.01-.001.01-.001.009-.002.01-.001.01-.002.01-.002.01-.001.01-.002.01-.001.01-.002.009-.002.01-.001.01-.002.01-.002.01-.001.01-.002.009-.002.01-.002.01-.002.01-.001.01-.002.01-.002.009-.002.01-.002.01-.002.01-.001.01-.002.01-.002.009-.002.01-.002.01-.002.01-.002.01-.002.01-.002.009-.001.01-.002.01-.002.01-.002.01-.002.009-.002.01-.002.01-.002.01-.002.01-.001.01-.002L.18.412.19.41.2.408.21.406.22.405.23.403.24.4h.01L.26.398.27.396.28.394.29.393.3.39h.008l.01-.002.01-.001.01-.002.01-.001.01-.002.01-.001.01-.002.01-.001.009-.002h.01l.01-.002h.01l.01-.002h.01L.458.37h.01l.01-.001.01-.001.01-.001.01-.001h.01l.01-.002h.01l.01-.002.01-.002.01-.001.009-.002.01-.002.01-.001.01-.002.01-.002.01-.002.009-.001.01-.002.01-.001.01-.002.01-.001.01-.002h.01l.01-.002h.01l.01-.002h.05l.01.001.009.002.01.002.01.003.008.004.009.005.008.006.007.007.007.007.007.008.007.007.007.006L.884.4l.008.005.01.003.01.001h.01l.01-.003L.94.4.948.393.954.386.959.377l.003-.01.002-.01v-.01l.002-.01v-.01l.002-.01v-.01L.97.299V.268l.001-.01v-.04l.001-.01v-.06L.97.138v-.04L.968.088v-.01L.967.068v-.02L.965.038v-.01L.964.018v-.02l-.002-.01v-.02L.96-.042v-.01l-.001-.01v-.01l-.001-.01-.001-.01v-.01l-.001-.01-.001-.01v-.01l-.001-.01v-.01l-.001-.01v-.01l-.001-.01v-.01L.95-.201v-.13l-.001-.01-.001-.01-.002-.01L.945-.37.942-.38.94-.39.937-.4.933-.41.928-.417.923-.426.917-.434.909-.44.9-.445.89-.448.88-.451.872-.452l-.01-.001H.801l-.01.002h-.01l-.01.002h-.01l-.01.002-.01.001-.01.002-.01.001-.01.002-.01.001-.009.002-.01.002-.01.001-.01.002-.01.002-.01.002-.009.001-.01.002-.01.002-.01.002-.01.002-.01.001-.01.002-.009.002-.01.001-.01.002-.01.002-.01.002-.01.001-.009.002-.01.002-.01.002-.01.002-.01.001-.01.002-.01.002-.009.001-.01.002-.01.001-.01.002-.01.001-.01.001-.01.002h-.01l-.01.002h-.01l-.01.001h-.01l-.01.001h-.01l-.01.001H.167l-.01-.002h-.01L.138-.382l-.01-.001h-.01l-.01-.002h-.01l-.01-.002h-.01l-.01-.001-.01-.001-.01-.001h-.01l-.01-.001-.01-.001h-.01l-.01-.001h-.02l-.01-.001h-.04l-.01.001-.01.001-.01.001-.01.002-.01.002-.009.002-.01.002-.01.003-.009.004-.009.004-.008.005-.009.005-.008.006-.007.007-.007.007-.006.008-.005.009-.004.009-.004.01-.003.009-.002.01v.01l-.002.01v.02l.001.01.001.01.002.01.001.009.002.01.003.01.002.01.003.009.004.009.005.008.006.008.007.008.006.008.007.007.006.008.007.007.008.007.007.006.008.006.009.005.009.005.009.004.01.004.009.002.01.002.01.002h.01l.01.001h.02l.01-.002.01-.001.01-.002.009-.002.01-.003.01-.003.009-.003.01-.003.008-.004.01-.003.009-.004.01-.004.009-.003.009-.004.01-.004L.11-.11l.009-.004.01-.003.009-.003.01-.003.009-.003.01-.003.01-.003.009-.003.01-.003.009-.002.01-.003.01-.003.009-.002.01-.003.01-.002.009-.002.01-.003.01-.002.01-.002.01-.002.009-.002.01-.002.01-.001.01-.002.01-.002h.01l.01-.002.009-.001.01-.001.01-.001.01-.001h.01L.43-.18h.05l.01.002H.5l.01.002.01.002.01.002.009.003.01.003.009.003.009.005.009.004.008.005.008.006.008.007.007.007.006.007.006.009.005.008.004.01.004.009.003.01.002.01.001.009.001.01v.01" fill="none" stroke-linejoin="round" stroke-linecap="round"/></svg>